# Blender 5.0.1
# www.blender.org
mtllib brazo.mtl
o pSphere1_aiStandardSurface1_0
v 8.379329 8.001434 -0.273744
v 8.444880 8.029312 -0.133932
v 8.021466 7.806361 0.021029
v 8.277222 7.958010 -0.384700
v 8.021466 7.806361 0.021029
v 8.148588 7.903306 -0.455923
v 8.021466 7.806361 0.021029
v 8.005993 7.842662 -0.480460
v 8.021466 7.806361 0.021029
v 7.863376 7.782011 -0.455922
v 8.021466 7.806361 0.021029
v 7.734752 7.727312 -0.384708
v 8.021466 7.806361 0.021029
v 7.632657 7.683892 -0.273753
v 8.021466 7.806361 0.021029
v 7.567113 7.656016 -0.133958
v 8.021466 7.806361 0.021029
v 7.544530 7.646412 0.020986
v 8.021466 7.806361 0.021029
v 7.567110 7.656016 0.175945
v 8.021466 7.806361 0.021029
v 7.632655 7.683890 0.315727
v 8.021466 7.806361 0.021029
v 7.734745 7.727306 0.426675
v 8.021466 7.806361 0.021029
v 7.863390 7.782018 0.497915
v 8.021466 7.806361 0.021029
v 8.005995 7.842664 0.522452
v 8.021466 7.806361 0.021029
v 8.148607 7.903314 0.497904
v 8.021466 7.806361 0.021029
v 8.277250 7.958023 0.426676
v 8.021466 7.806361 0.021029
v 8.379322 8.001431 0.315743
v 8.021466 7.806361 0.021029
v 8.444884 8.029314 0.175918
v 8.021466 7.806361 0.021029
v 8.467463 8.038917 0.020999
v 8.021466 7.806361 0.021029
v 8.444880 8.029312 -0.133932
v 8.021466 7.806361 0.021029
v 8.277855 8.173554 -0.254856
v 7.942919 7.990977 0.020993
v 8.339198 8.199642 -0.124029
v 8.182312 8.132921 -0.358681
v 7.942919 7.990977 0.020993
v 8.061920 8.081721 -0.425341
v 7.942919 7.990977 0.020993
v 7.928464 8.024965 -0.448310
v 7.942919 7.990977 0.020993
v 7.795009 7.968210 -0.425341
v 7.942919 7.990977 0.020993
v 7.674616 7.917010 -0.358681
v 7.942919 7.990977 0.020993
v 7.579073 7.876377 -0.254856
v 7.942919 7.990977 0.020993
v 7.517730 7.850289 -0.124029
v 7.942919 7.990977 0.020993
v 7.496593 7.841300 0.020993
v 7.942919 7.990977 0.020993
v 7.517730 7.850289 0.166016
v 7.942919 7.990977 0.020993
v 7.579073 7.876377 0.296843
v 7.942919 7.990977 0.020993
v 7.674616 7.917010 0.400668
v 7.942919 7.990977 0.020993
v 7.795009 7.968210 0.467328
v 7.942919 7.990977 0.020993
v 7.928464 8.024965 0.490297
v 7.942919 7.990977 0.020993
v 8.061919 8.081721 0.467328
v 7.942919 7.990977 0.020993
v 8.182312 8.132921 0.400668
v 7.942919 7.990977 0.020993
v 8.277855 8.173554 0.296843
v 7.942919 7.990977 0.020993
v 8.339198 8.199642 0.166016
v 7.942919 7.990977 0.020993
v 8.360335 8.208632 0.020993
v 7.942919 7.990977 0.020993
v 8.339198 8.199642 -0.124029
v 7.942919 7.990977 0.020993
v 8.697477 8.264328 -0.561224
v 8.826946 8.319386 -0.285088
v 8.495817 8.178562 -0.780349
v 8.241714 8.070501 -0.921052
v 7.960036 7.950711 -0.969536
v 7.678367 7.830925 -0.921055
v 7.424270 7.722860 -0.780360
v 7.222607 7.637097 -0.561221
v 7.093143 7.582038 -0.285099
v 7.048520 7.563063 0.020997
v 7.093137 7.582036 0.327081
v 7.222611 7.637097 0.603206
v 7.424261 7.722858 0.822345
v 7.678368 7.830924 0.963044
v 7.960044 7.950714 1.011521
v 8.241717 8.070503 0.963037
v 8.495824 8.178566 0.822336
v 8.697485 8.264335 0.603210
v 8.826942 8.319384 0.327084
v 8.871564 8.338365 0.020990
v 8.826946 8.319386 -0.285088
v 8.968035 8.588499 -0.834287
v 9.158226 8.669382 -0.428656
v 8.671793 8.462511 -1.156199
v 8.298518 8.303762 -1.362872
v 7.884741 8.127792 -1.434090
v 7.470955 7.951820 -1.362876
v 7.097669 7.793070 -1.156194
v 6.801439 7.667091 -0.834288
v 6.611244 7.586205 -0.428657
v 6.545707 7.558333 0.020991
v 6.611238 7.586205 0.470643
v 6.801431 7.667090 0.876270
v 7.097683 7.793073 1.198185
v 7.470947 7.951822 1.404867
v 7.884730 8.127791 1.476082
v 8.298514 8.303764 1.404862
v 8.671795 8.462512 1.198181
v 8.968027 8.588494 0.876276
v 9.158226 8.669384 0.470645
v 9.223757 8.697247 0.020996
v 9.158226 8.669382 -0.428656
v 9.184340 8.965910 -1.086222
v 9.430559 9.070622 -0.561112
v 8.800842 8.802822 -1.502964
v 8.317612 8.597309 -1.770516
v 7.781940 8.369499 -1.862714
v 7.246275 8.141695 -1.770522
v 6.763041 7.936182 -1.502956
v 6.379547 7.773088 -1.086217
v 6.133326 7.668378 -0.561103
v 6.048475 7.632299 0.020994
v 6.133327 7.668377 0.603090
v 6.379545 7.773090 1.128210
v 6.763041 7.936184 1.544947
v 7.246281 8.141688 1.812500
v 7.781942 8.369507 1.904707
v 8.317612 8.597312 1.812508
v 8.800842 8.802816 1.544944
v 9.184345 8.965921 1.128212
v 9.430557 9.070620 0.603091
v 9.515404 9.106709 0.020992
v 9.430559 9.070622 -0.561112
v 9.341099 9.387224 -1.310827
v 9.637264 9.513172 -0.679181
v 8.879807 9.191047 -1.812100
v 8.298550 8.943846 -2.133932
v 7.654221 8.669825 -2.244826
v 7.009887 8.395809 -2.133933
v 6.428623 8.148614 -1.812099
v 5.967333 7.952438 -1.310826
v 5.671163 7.826485 -0.679184
v 5.569114 7.783083 0.020996
v 5.671169 7.826483 0.721173
v 5.967347 7.952430 1.352808
v 6.428632 8.148610 1.854082
v 7.009885 8.395811 2.175923
v 7.654218 8.669824 2.286812
v 8.298549 8.943850 2.175920
v 8.879807 9.191042 1.854081
v 9.341097 9.387218 1.352809
v 9.637264 9.513173 0.721169
v 9.739317 9.556579 0.020995
v 9.637264 9.513172 -0.679181
v 9.434490 9.842026 -1.502584
v 9.773300 9.986115 -0.780000
v 8.906782 9.617599 -2.076029
v 8.241831 9.334816 -2.444207
v 7.504727 9.021343 -2.571073
v 6.767625 8.707867 -2.444206
v 6.102677 8.425074 -2.076029
v 5.574962 8.200657 -1.502584
v 5.236151 8.056569 -0.780000
v 5.119411 8.006915 0.020993
v 5.236157 8.056564 0.821985
v 5.574964 8.200655 1.544570
v 6.102674 8.425076 2.118017
v 6.767618 8.707871 2.486196
v 7.504727 9.021339 2.613057
v 8.241829 9.334816 2.486194
v 8.906784 9.617596 2.118012
v 9.434490 9.842018 1.544567
v 9.773298 9.986113 0.821985
v 9.890045 10.035768 0.020992
v 9.773300 9.986115 -0.780000
v 9.462265 10.319116 -1.656808
v 9.835369 10.477798 -0.861084
v 8.881139 10.071978 -2.288303
v 8.148879 9.760561 -2.693746
v 7.337160 9.415358 -2.833454
v 6.525445 9.070149 -2.693746
v 5.793182 8.758737 -2.288302
v 5.212059 8.511596 -1.656808
v 4.838954 8.352921 -0.861080
v 4.710392 8.298245 0.020994
v 4.838953 8.352922 0.903066
v 5.212058 8.511598 1.698795
v 5.793183 8.758739 2.330291
v 6.525445 9.070148 2.735732
v 7.337161 9.415359 2.875441
v 8.148878 9.760561 2.735732
v 8.881138 10.071978 2.330289
v 9.462263 10.319117 1.698795
v 9.835369 10.477792 0.903066
v 9.963932 10.532466 0.020993
v 9.835369 10.477798 -0.861084
v 9.423779 10.806751 -1.769730
v 9.821995 10.976109 -0.920445
v 8.803540 10.542983 -2.443727
v 8.021995 10.210610 -2.876460
v 7.155648 9.842167 -3.025568
v 6.289300 9.473726 -2.876458
v 5.507755 9.141354 -2.443726
v 4.887515 8.877585 -1.769731
v 4.489302 8.708227 -0.920446
v 4.352085 8.649874 0.020994
v 4.489303 8.708227 0.962433
v 4.887520 8.877579 1.811717
v 5.507755 9.141355 2.485712
v 6.289300 9.473728 2.918445
v 7.155647 9.842170 3.067554
v 8.021996 10.210608 2.918445
v 8.803539 10.542983 2.485713
v 9.423777 10.806754 1.811716
v 9.821994 10.976106 0.962432
v 9.959209 11.034460 0.020994
v 9.821995 10.976109 -0.920445
v 9.320009 11.292972 -1.838601
v 9.733541 11.468838 -0.956654
v 8.675919 11.019054 -2.538518
v 7.864315 10.673897 -2.987893
v 6.964647 10.291287 -3.142737
v 6.064980 9.908678 -2.987893
v 5.253378 9.563519 -2.538518
v 4.609286 9.289601 -1.838601
v 4.195754 9.113736 -0.956653
v 4.053261 9.053137 0.020993
v 4.195754 9.113737 0.998640
v 4.609287 9.289601 1.880587
v 5.253378 9.563520 2.580505
v 6.064980 9.908678 3.029879
v 6.964647 10.291287 3.184723
v 7.864314 10.673897 3.029879
v 8.675917 11.019053 2.580505
v 9.320006 11.292973 1.880588
v 9.733539 11.468838 0.998640
v 9.876033 11.529436 0.020994
v 9.733541 11.468838 -0.956654
v 9.158808 11.750830 -1.861011
v 9.577324 11.928816 -0.968435
v 8.506956 11.473611 -2.569362
v 7.685572 11.124295 -3.024153
v 6.775064 10.737075 -3.180862
v 5.864553 10.349854 -3.024152
v 5.043171 10.000538 -2.569362
v 4.391318 9.723320 -1.861010
v 3.972804 9.545334 -0.968435
v 3.828593 9.484005 0.020993
v 3.972803 9.545335 1.010421
v 4.391318 9.723320 1.902996
v 5.043171 10.000538 2.611348
v 5.864553 10.349854 3.066138
v 6.775063 10.737075 3.222848
v 7.685572 11.124294 3.066138
v 8.506954 11.473612 2.611348
v 9.158806 11.750830 1.902997
v 9.577322 11.928815 1.010422
v 9.721533 11.990145 0.020994
v 9.577324 11.928816 -0.968435
v 8.696810 8.471148 -0.265481
v 8.575635 8.419615 -0.523914
v 8.386900 8.339350 -0.729007
v 8.149080 8.238210 -0.860685
v 7.885456 8.126096 -0.906058
v 7.621830 8.013982 -0.860685
v 7.384011 7.912843 -0.729007
v 7.195276 7.832578 -0.523914
v 7.074101 7.781044 -0.265481
v 7.032347 7.763288 0.020993
v 7.074101 7.781044 0.307468
v 7.195276 7.832578 0.565901
v 7.384011 7.912843 0.770994
v 7.621830 8.013982 0.902672
v 7.885456 8.126096 0.948045
v 8.149080 8.238210 0.902672
v 8.386900 8.339350 0.770994
v 8.575634 8.419615 0.565901
v 8.696810 8.471148 0.307468
v 8.738564 8.488905 0.020993
v 8.696810 8.471148 -0.265481
v 9.006949 8.798807 -0.399879
v 8.828926 8.723098 -0.779554
v 8.551647 8.605177 -1.080866
v 8.202255 8.456589 -1.274320
v 7.814952 8.291877 -1.340979
v 7.427649 8.127165 -1.274320
v 7.078258 7.978577 -1.080866
v 6.800980 7.860656 -0.779554
v 6.622956 7.784946 -0.399879
v 6.561613 7.758859 0.020993
v 6.622956 7.784946 0.441866
v 6.800980 7.860656 0.821541
v 7.078258 7.978577 1.122852
v 7.427649 8.127165 1.316306
v 7.814952 8.291877 1.382965
v 8.202255 8.456589 1.316306
v 8.551646 8.605177 1.122852
v 8.828925 8.723098 0.821540
v 9.006948 8.798807 0.441866
v 9.068292 8.824895 0.020993
v 9.006949 8.798807 -0.399879
v 9.261979 9.174554 -0.523914
v 9.031490 9.076531 -1.015482
v 8.672496 8.923859 -1.405593
v 8.220136 8.731480 -1.656059
v 7.718691 8.518227 -1.742364
v 7.217247 8.304973 -1.656059
v 6.764887 8.112594 -1.405592
v 6.405892 7.959921 -1.015482
v 6.175404 7.861899 -0.523914
v 6.095983 7.828124 0.020993
v 6.175404 7.861899 0.565901
v 6.405892 7.959921 1.057468
v 6.764887 8.112595 1.447579
v 7.217247 8.304973 1.698045
v 7.718691 8.518227 1.784350
v 8.220136 8.731480 1.698045
v 8.672495 8.923859 1.447579
v 9.031489 9.076531 1.057468
v 9.261978 9.174553 0.565900
v 9.341399 9.208329 0.020993
v 9.261979 9.174554 -0.523914
v 9.455620 9.589134 -0.634531
v 9.178341 9.471214 -1.225888
v 8.746469 9.287548 -1.695192
v 8.202280 9.056116 -1.996504
v 7.599041 8.799572 -2.100328
v 6.995802 8.543028 -1.996503
v 6.451612 8.311595 -1.695192
v 6.019742 8.127930 -1.225888
v 5.742463 8.010010 -0.634531
v 5.646919 7.969377 0.020993
v 5.742463 8.010010 0.676518
v 6.019742 8.127930 1.267875
v 6.451613 8.311596 1.737178
v 6.995802 8.543028 2.038490
v 7.599041 8.799572 2.142314
v 8.202280 9.056116 2.038490
v 8.746469 9.287548 1.737178
v 9.178340 9.471213 1.267874
v 9.455618 9.589134 0.676518
v 9.551162 9.629766 0.020993
v 9.455620 9.589134 -0.634531
v 9.583103 10.032343 -0.729007
v 9.265862 9.897427 -1.405593
v 8.771748 9.687290 -1.942534
v 8.149128 9.422504 -2.287271
v 7.458949 9.128985 -2.406059
v 6.768769 8.835467 -2.287271
v 6.146149 8.570681 -1.942533
v 5.652036 8.360544 -1.405592
v 5.334795 8.225629 -0.729007
v 5.225482 8.179140 0.020993
v 5.334795 8.225629 0.770994
v 5.652036 8.360544 1.447579
v 6.146150 8.570681 1.984520
v 6.768769 8.835467 2.329257
v 7.458949 9.128985 2.448045
v 8.149128 9.422503 2.329257
v 8.771748 9.687290 1.984520
v 9.265861 9.897427 1.447579
v 9.583101 10.032342 0.770994
v 9.692415 10.078831 0.020993
v 9.583103 10.032343 -0.729007
v 9.641290 10.493261 -0.805016
v 9.291899 10.344673 -1.550169
v 8.747708 10.113240 -2.141527
v 8.061990 9.821619 -2.521201
v 7.301864 9.498354 -2.652028
v 6.541739 9.175089 -2.521201
v 5.856020 8.883468 -2.141526
v 5.311831 8.652036 -1.550169
v 4.962439 8.503448 -0.805015
v 4.842047 8.452248 0.020993
v 4.962439 8.503448 0.847002
v 5.311831 8.652036 1.592156
v 5.856020 8.883468 2.183513
v 6.541739 9.175089 2.563187
v 7.301864 9.498354 2.694014
v 8.061989 9.821619 2.563187
v 8.747707 10.113240 2.183512
v 9.291897 10.344672 1.592155
v 9.641289 10.493261 0.847002
v 9.761681 10.544461 0.020993
v 9.641290 10.493261 -0.805016
v 9.628747 10.960546 -0.860685
v 9.255808 10.801943 -1.656059
v 8.674942 10.554913 -2.287271
v 7.943009 10.243637 -2.692534
v 7.131654 9.898585 -2.832178
v 6.320300 9.553534 -2.692534
v 5.588367 9.242258 -2.287271
v 5.007501 8.995229 -1.656059
v 4.634562 8.836626 -0.860685
v 4.506056 8.781976 0.020993
v 4.634562 8.836626 0.902672
v 5.007501 8.995229 1.698045
v 5.588367 9.242259 2.329257
v 6.320300 9.553535 2.734520
v 7.131654 9.898585 2.874164
v 7.943008 10.243637 2.734520
v 8.674942 10.554913 2.329257
v 9.255807 10.801942 1.698045
v 9.628746 10.960545 0.902672
v 9.757252 11.015196 0.020993
v 9.628747 10.960546 -0.860685
v 9.545785 11.422686 -0.894645
v 9.158482 11.257975 -1.720654
v 8.555243 11.001430 -2.376179
v 7.795117 10.678164 -2.797051
v 6.952511 10.319822 -2.942074
v 6.109906 9.961481 -2.797051
v 5.349781 9.638216 -2.376178
v 4.746542 9.381672 -1.720654
v 4.359239 9.216960 -0.894644
v 4.225783 9.160204 0.020993
v 4.359239 9.216960 0.936631
v 4.746542 9.381672 1.762640
v 5.349781 9.638216 2.418164
v 6.109906 9.961481 2.839037
v 6.952511 10.319822 2.984060
v 7.795116 10.678164 2.839037
v 8.555242 11.001430 2.418164
v 9.158480 11.257974 1.762640
v 9.545783 11.422686 0.936631
v 9.679238 11.479441 0.020993
v 9.545785 11.422686 -0.894645
v 9.394444 11.868304 -0.906058
v 9.002314 11.701539 -1.742364
v 8.391556 11.441797 -2.406060
v 7.621955 11.114502 -2.832178
v 6.768846 10.751694 -2.979009
v 5.915737 10.388885 -2.832178
v 5.146137 10.061590 -2.406059
v 4.535379 9.801848 -1.742363
v 4.143248 9.635084 -0.906058
v 4.008129 9.577621 0.020993
v 4.143248 9.635084 0.948045
v 4.535379 9.801848 1.784350
v 5.146137 10.061591 2.448045
v 5.915738 10.388885 2.874164
v 6.768846 10.751694 3.020995
v 7.621954 11.114502 2.874164
v 8.391554 11.441796 2.448045
v 9.002313 11.701539 1.784350
v 9.394444 11.868303 0.948045
v 9.529562 11.925767 0.020993
v 9.394444 11.868304 -0.906058
v 9.002314 11.701539 -1.742364
v 9.394444 11.868304 -0.906058
v 9.577324 11.928816 -0.968435
v 9.158808 11.750830 -1.861011
v 8.391556 11.441797 -2.406060
v 8.506956 11.473611 -2.569362
v 7.621955 11.114502 -2.832178
v 7.685572 11.124295 -3.024153
v 6.768846 10.751694 -2.979009
v 6.775064 10.737075 -3.180862
v 5.915737 10.388885 -2.832178
v 5.864553 10.349854 -3.024152
v 5.146137 10.061590 -2.406059
v 5.043171 10.000538 -2.569362
v 4.535379 9.801848 -1.742363
v 4.391318 9.723320 -1.861010
v 4.143248 9.635084 -0.906058
v 3.972804 9.545334 -0.968435
v 4.008129 9.577621 0.020993
v 3.828593 9.484005 0.020993
v 4.143248 9.635084 0.948045
v 3.972803 9.545335 1.010421
v 4.535379 9.801848 1.784350
v 4.391318 9.723320 1.902996
v 5.146137 10.061591 2.448045
v 5.043171 10.000538 2.611348
v 5.915738 10.388885 2.874164
v 5.864553 10.349854 3.066138
v 6.768846 10.751694 3.020995
v 6.775063 10.737075 3.222848
v 7.621954 11.114502 2.874164
v 7.685572 11.124294 3.066138
v 8.391554 11.441796 2.448045
v 8.506954 11.473612 2.611348
v 9.002313 11.701539 1.784350
v 9.158806 11.750830 1.902997
v 9.394444 11.868303 0.948045
v 9.577322 11.928815 1.010422
v 9.529562 11.925767 0.020993
v 9.721533 11.990145 0.020994
v 9.394444 11.868304 -0.906058
v 9.577324 11.928816 -0.968435
vn 0.5326 -0.8382 -0.1177
vn 0.5588 -0.8270 -0.0619
vn 0.3914 -0.9202 -0.0000
vn 0.4918 -0.8555 -0.1621
vn 0.4404 -0.8774 -0.1905
vn 0.3834 -0.9016 -0.2003
vn 0.3265 -0.9258 -0.1905
vn 0.2751 -0.9477 -0.1621
vn 0.2343 -0.9650 -0.1178
vn 0.3913 -0.9202 -0.0000
vn 0.2081 -0.9761 -0.0619
vn 0.1991 -0.9800 -0.0000
vn 0.2081 -0.9761 0.0619
vn 0.2343 -0.9650 0.1177
vn 0.2751 -0.9477 0.1621
vn 0.3264 -0.9258 0.1905
vn 0.3834 -0.9016 0.2003
vn 0.4404 -0.8774 0.1905
vn 0.4918 -0.8555 0.1621
vn 0.5326 -0.8382 0.1177
vn 0.5588 -0.8270 0.0619
vn 0.5678 -0.8232 -0.0000
vn -0.5326 0.8381 0.1178
vn -0.3914 0.9202 -0.0000
vn -0.5588 0.8270 0.0619
vn -0.4918 0.8555 0.1621
vn -0.4404 0.8773 0.1906
vn -0.3834 0.9016 0.2004
vn -0.3264 0.9258 0.1906
vn -0.2750 0.9477 0.1621
vn -0.3913 0.9202 -0.0000
vn -0.2342 0.9650 0.1178
vn -0.2081 0.9762 0.0619
vn -0.3913 0.9203 -0.0000
vn -0.1990 0.9800 -0.0000
vn -0.2081 0.9762 -0.0619
vn -0.2342 0.9650 -0.1178
vn -0.2750 0.9477 -0.1621
vn -0.3264 0.9258 -0.1906
vn -0.3834 0.9016 -0.2004
vn -0.4404 0.8773 -0.1906
vn -0.4918 0.8555 -0.1621
vn -0.5326 0.8381 -0.1178
vn -0.5588 0.8270 -0.0619
vn -0.5678 0.8232 -0.0000
vn 0.6173 -0.7619 -0.1961
vn 0.6609 -0.7434 -0.1031
vn 0.5494 -0.7908 -0.2698
vn 0.4638 -0.8272 -0.3172
vn 0.3689 -0.8675 -0.3335
vn 0.2741 -0.9079 -0.3172
vn 0.1885 -0.9443 -0.2698
vn 0.1206 -0.9731 -0.1961
vn 0.0770 -0.9917 -0.1031
vn 0.0620 -0.9981 -0.0000
vn 0.0770 -0.9917 0.1031
vn 0.1206 -0.9731 0.1961
vn 0.1885 -0.9443 0.2698
vn 0.2741 -0.9079 0.3172
vn 0.3689 -0.8675 0.3335
vn 0.4638 -0.8272 0.3172
vn 0.5494 -0.7908 0.2698
vn 0.6173 -0.7619 0.1961
vn 0.6609 -0.7434 0.1031
vn 0.6759 -0.7370 -0.0000
vn 0.6957 -0.6629 -0.2767
vn 0.7573 -0.6367 -0.1455
vn 0.5999 -0.7036 -0.3808
vn 0.4791 -0.7550 -0.4477
vn 0.3453 -0.8119 -0.4707
vn 0.2114 -0.8688 -0.4477
vn 0.0907 -0.9202 -0.3808
vn -0.0052 -0.9609 -0.2767
vn -0.0667 -0.9871 -0.1455
vn -0.0879 -0.9961 -0.0000
vn -0.0667 -0.9871 0.1455
vn -0.0052 -0.9609 0.2767
vn 0.0907 -0.9202 0.3808
vn 0.2114 -0.8688 0.4477
vn 0.3453 -0.8119 0.4707
vn 0.4791 -0.7550 0.4477
vn 0.5999 -0.7036 0.3808
vn 0.6957 -0.6629 0.2767
vn 0.7573 -0.6367 0.1455
vn 0.7785 -0.6277 -0.0000
vn 0.7573 -0.6367 -0.1454
vn 0.7596 -0.5466 -0.3525
vn 0.8380 -0.5132 -0.1853
vn 0.6375 -0.5985 -0.4851
vn 0.4837 -0.6639 -0.5703
vn 0.3132 -0.7364 -0.5996
vn 0.1427 -0.8090 -0.5703
vn -0.0112 -0.8744 -0.4851
vn -0.1332 -0.9263 -0.3525
vn -0.2116 -0.9596 -0.1853
vn -0.2386 -0.9711 -0.0000
vn -0.2116 -0.9596 0.1853
vn -0.1332 -0.9263 0.3525
vn -0.0112 -0.8744 0.4851
vn 0.1427 -0.8090 0.5703
vn 0.3132 -0.7364 0.5997
vn 0.4837 -0.6639 0.5703
vn 0.6375 -0.5985 0.4851
vn 0.7596 -0.5466 0.3525
vn 0.8380 -0.5132 0.1853
vn 0.8650 -0.5018 -0.0000
vn 0.8060 -0.4166 -0.4204
vn 0.8995 -0.3768 -0.2211
vn 0.6604 -0.4785 -0.5787
vn 0.4769 -0.5566 -0.6803
vn 0.2735 -0.6431 -0.7153
vn 0.0701 -0.7296 -0.6803
vn -0.1134 -0.8076 -0.5787
vn -0.2590 -0.8696 -0.4204
vn -0.3525 -0.9093 -0.2210
vn -0.3847 -0.9230 -0.0000
vn -0.3525 -0.9093 0.2210
vn -0.2590 -0.8696 0.4204
vn -0.1134 -0.8076 0.5787
vn 0.0701 -0.7296 0.6803
vn 0.2735 -0.6431 0.7153
vn 0.4769 -0.5566 0.6803
vn 0.6604 -0.4785 0.5787
vn 0.8060 -0.4166 0.4204
vn 0.8995 -0.3769 0.2210
vn 0.9317 -0.3632 -0.0000
vn 0.8995 -0.3768 -0.2210
vn 0.8334 -0.2763 -0.4786
vn 0.9398 -0.2310 -0.2517
vn 0.6676 -0.3468 -0.6588
vn 0.4587 -0.4356 -0.7745
vn 0.2272 -0.5342 -0.8143
vn -0.0044 -0.6326 -0.7744
vn -0.2133 -0.7215 -0.6588
vn -0.3791 -0.7920 -0.4786
vn -0.4856 -0.8372 -0.2516
vn -0.5222 -0.8528 -0.0000
vn -0.4855 -0.8372 0.2516
vn -0.3791 -0.7920 0.4786
vn -0.2133 -0.7215 0.6588
vn -0.0044 -0.6326 0.7744
vn 0.2272 -0.5342 0.8143
vn 0.4587 -0.4356 0.7745
vn 0.6676 -0.3468 0.6588
vn 0.8334 -0.2763 0.4786
vn 0.9398 -0.2311 0.2516
vn 0.9765 -0.2155 -0.0000
vn 0.9399 -0.2310 -0.2516
vn 0.8409 -0.1292 -0.5255
vn 0.9578 -0.0795 -0.2763
vn 0.6589 -0.2066 -0.7233
vn 0.4296 -0.3042 -0.8503
vn 0.1753 -0.4123 -0.8940
vn -0.0789 -0.5204 -0.8503
vn -0.3083 -0.6179 -0.7233
vn -0.4902 -0.6954 -0.5255
vn -0.6071 -0.7451 -0.2763
vn -0.6474 -0.7621 -0.0000
vn -0.6071 -0.7450 0.2763
vn -0.4902 -0.6954 0.5255
vn -0.3082 -0.6180 0.7233
vn -0.0789 -0.5204 0.8503
vn 0.1753 -0.4123 0.8940
vn 0.4296 -0.3042 0.8503
vn 0.6589 -0.2066 0.7233
vn 0.8409 -0.1292 0.5255
vn 0.9578 -0.0795 0.2763
vn 0.9981 -0.0624 -0.0000
vn 0.9578 -0.0795 -0.2762
vn 0.8284 0.0210 -0.5598
vn 0.9528 0.0740 -0.2944
vn 0.6345 -0.0614 -0.7705
vn 0.3901 -0.1654 -0.9058
vn 0.1193 -0.2805 -0.9524
vn -0.1515 -0.3957 -0.9058
vn -0.3959 -0.4995 -0.7705
vn -0.5897 -0.5821 -0.5598
vn -0.7143 -0.6350 -0.2943
vn -0.7572 -0.6532 -0.0000
vn -0.7143 -0.6350 0.2943
vn -0.5898 -0.5821 0.5598
vn -0.3958 -0.4996 0.7705
vn -0.1515 -0.3957 0.9058
vn 0.1193 -0.2805 0.9524
vn 0.3901 -0.1653 0.9058
vn 0.6345 -0.0614 0.7705
vn 0.8284 0.0210 0.5598
vn 0.9528 0.0739 0.2943
vn 0.9957 0.0922 -0.0000
vn 0.9528 0.0740 -0.2943
vn 0.7963 0.1695 -0.5806
vn 0.9254 0.2246 -0.3053
vn 0.5951 0.0844 -0.7992
vn 0.3417 -0.0234 -0.9395
vn 0.0608 -0.1429 -0.9879
vn -0.2202 -0.2623 -0.9395
vn -0.4733 -0.3706 -0.7991
vn -0.6747 -0.4556 -0.5807
vn -0.8036 -0.5109 -0.3053
vn -0.8483 -0.5295 -0.0000
vn -0.8038 -0.5105 0.3053
vn -0.6747 -0.4556 0.5807
vn -0.4736 -0.3701 0.7992
vn -0.2200 -0.2627 0.9395
vn 0.0609 -0.1432 0.9878
vn 0.3417 -0.0234 0.9395
vn 0.5951 0.0844 0.7992
vn 0.7962 0.1699 0.5807
vn 0.9253 0.2248 0.3053
vn 0.9698 0.2438 -0.0000
vn 0.9254 0.2246 -0.3052
vn 0.7729 0.2434 -0.5860
vn 0.9032 0.2989 -0.3081
vn 0.5699 0.1571 -0.8065
vn 0.3142 0.0484 -0.9481
vn 0.0307 -0.0722 -0.9969
vn -0.2528 -0.1928 -0.9481
vn -0.5085 -0.3015 -0.8065
vn -0.7115 -0.3878 -0.5860
vn -0.8418 -0.4433 -0.3081
vn -0.8867 -0.4624 -0.0000
vn -0.8418 -0.4433 0.3081
vn -0.7115 -0.3878 0.5860
vn -0.5085 -0.3015 0.8065
vn -0.2528 -0.1928 0.9481
vn 0.0307 -0.0722 0.9969
vn 0.3142 0.0484 0.9481
vn 0.5699 0.1571 0.8065
vn 0.7729 0.2434 0.5860
vn 0.9032 0.2989 0.3081
vn 0.9481 0.3180 -0.0000
vn 0.9032 0.2989 -0.3080
vn -0.6609 0.7434 0.1031
vn -0.6173 0.7619 0.1961
vn -0.5494 0.7908 0.2699
vn -0.4638 0.8272 0.3173
vn -0.3689 0.8675 0.3336
vn -0.2741 0.9079 0.3173
vn -0.1885 0.9443 0.2699
vn -0.1206 0.9731 0.1961
vn -0.0770 0.9917 0.1031
vn -0.0620 0.9981 -0.0000
vn -0.0770 0.9917 -0.1031
vn -0.1206 0.9731 -0.1961
vn -0.1885 0.9443 -0.2699
vn -0.2741 0.9079 -0.3173
vn -0.3689 0.8675 -0.3336
vn -0.4638 0.8272 -0.3173
vn -0.5494 0.7908 -0.2699
vn -0.6173 0.7619 -0.1961
vn -0.6609 0.7434 -0.1031
vn -0.6759 0.7370 -0.0000
vn -0.6609 0.7434 0.1030
vn -0.7573 0.6367 0.1455
vn -0.6958 0.6628 0.2767
vn -0.5999 0.7036 0.3809
vn -0.4792 0.7550 0.4477
vn -0.3453 0.8119 0.4708
vn -0.2114 0.8688 0.4477
vn -0.0906 0.9202 0.3809
vn 0.0052 0.9609 0.2767
vn 0.0667 0.9871 0.1455
vn 0.0879 0.9961 -0.0000
vn 0.0667 0.9871 -0.1455
vn 0.0052 0.9609 -0.2767
vn -0.0906 0.9202 -0.3809
vn -0.2114 0.8688 -0.4477
vn -0.3453 0.8119 -0.4708
vn -0.4791 0.7550 -0.4477
vn -0.5999 0.7036 -0.3809
vn -0.6958 0.6628 -0.2767
vn -0.7573 0.6367 -0.1455
vn -0.7785 0.6277 -0.0000
vn -0.8380 0.5132 0.1853
vn -0.7596 0.5466 0.3525
vn -0.6375 0.5985 0.4851
vn -0.4837 0.6639 0.5703
vn -0.3132 0.7364 0.5997
vn -0.1427 0.8090 0.5703
vn 0.0112 0.8744 0.4851
vn 0.1332 0.9263 0.3525
vn 0.2116 0.9596 0.1853
vn 0.2386 0.9711 -0.0000
vn 0.2116 0.9596 -0.1853
vn 0.1332 0.9263 -0.3525
vn 0.0112 0.8744 -0.4851
vn -0.1427 0.8090 -0.5703
vn -0.3132 0.7364 -0.5997
vn -0.4837 0.6639 -0.5703
vn -0.6375 0.5985 -0.4851
vn -0.7596 0.5466 -0.3525
vn -0.8380 0.5132 -0.1853
vn -0.8650 0.5018 -0.0000
vn -0.8995 0.3768 0.2211
vn -0.8060 0.4166 0.4205
vn -0.6604 0.4785 0.5787
vn -0.4769 0.5565 0.6803
vn -0.2735 0.6431 0.7153
vn -0.0701 0.7296 0.6803
vn 0.1134 0.8076 0.5787
vn 0.2591 0.8695 0.4205
vn 0.3526 0.9093 0.2210
vn 0.3848 0.9230 -0.0000
vn 0.3526 0.9093 -0.2210
vn 0.2591 0.8695 -0.4205
vn 0.1134 0.8076 -0.5787
vn -0.0701 0.7296 -0.6803
vn -0.2735 0.6431 -0.7153
vn -0.4769 0.5565 -0.6803
vn -0.6604 0.4785 -0.5787
vn -0.8060 0.4166 -0.4205
vn -0.8995 0.3768 -0.2210
vn -0.9317 0.3631 -0.0000
vn -0.8995 0.3768 0.2210
vn -0.9398 0.2310 0.2517
vn -0.8334 0.2763 0.4786
vn -0.6676 0.3468 0.6588
vn -0.4587 0.4356 0.7745
vn -0.2272 0.5341 0.8143
vn 0.0044 0.6326 0.7745
vn 0.2133 0.7214 0.6588
vn 0.3791 0.7919 0.4786
vn 0.4855 0.8372 0.2516
vn 0.5223 0.8528 -0.0000
vn 0.4856 0.8372 -0.2516
vn 0.3791 0.7919 -0.4786
vn 0.2133 0.7214 -0.6588
vn 0.0044 0.6326 -0.7745
vn -0.2272 0.5341 -0.8143
vn -0.4587 0.4356 -0.7745
vn -0.6676 0.3468 -0.6588
vn -0.8334 0.2763 -0.4786
vn -0.9399 0.2310 -0.2516
vn -0.9765 0.2154 -0.0000
vn -0.9399 0.2310 0.2516
vn -0.9578 0.0795 0.2763
vn -0.8409 0.1292 0.5255
vn -0.6589 0.2066 0.7233
vn -0.4296 0.3041 0.8503
vn -0.1753 0.4123 0.8940
vn 0.0789 0.5204 0.8503
vn 0.3082 0.6179 0.7233
vn 0.4903 0.6953 0.5255
vn 0.6071 0.7451 0.2763
vn 0.6474 0.7621 -0.0000
vn 0.6071 0.7450 -0.2763
vn 0.4903 0.6953 -0.5255
vn 0.3083 0.6179 -0.7233
vn 0.0789 0.5204 -0.8503
vn -0.1753 0.4123 -0.8940
vn -0.4296 0.3042 -0.8503
vn -0.6589 0.2066 -0.7233
vn -0.8409 0.1292 -0.5255
vn -0.9578 0.0795 -0.2763
vn -0.9981 0.0624 -0.0000
vn -0.9578 0.0795 0.2762
vn -0.9528 -0.0740 0.2943
vn -0.8284 -0.0210 0.5598
vn -0.6344 0.0614 0.7705
vn -0.3901 0.1653 0.9058
vn -0.1193 0.2805 0.9524
vn 0.1516 0.3957 0.9058
vn 0.3959 0.4996 0.7705
vn 0.5898 0.5820 0.5598
vn 0.7143 0.6349 0.2943
vn 0.7571 0.6532 -0.0000
vn 0.7143 0.6350 -0.2943
vn 0.5898 0.5820 -0.5598
vn 0.3958 0.4996 -0.7705
vn 0.1515 0.3957 -0.9058
vn -0.1193 0.2805 -0.9524
vn -0.3901 0.1653 -0.9058
vn -0.6345 0.0614 -0.7705
vn -0.8284 -0.0210 -0.5598
vn -0.9528 -0.0740 -0.2943
vn -0.9957 -0.0923 -0.0000
vn -0.9251 -0.2258 0.3053
vn -0.7960 -0.1708 0.5807
vn -0.5949 -0.0851 0.7993
vn -0.3414 0.0225 0.9397
vn -0.0604 0.1421 0.9880
vn 0.2206 0.2614 0.9397
vn 0.4740 0.3693 0.7993
vn 0.6751 0.4549 0.5807
vn 0.8042 0.5099 0.3053
vn 0.8488 0.5287 -0.0000
vn 0.8043 0.5097 -0.3053
vn 0.6753 0.4547 -0.5808
vn 0.4740 0.3693 -0.7993
vn 0.2206 0.2615 -0.9397
vn -0.0605 0.1421 -0.9880
vn -0.3413 0.0225 -0.9397
vn -0.5948 -0.0853 -0.7993
vn -0.7960 -0.1708 -0.5807
vn -0.9251 -0.2258 -0.3053
vn -0.9696 -0.2446 -0.0000
vn -0.9026 -0.3007 0.3082
vn -0.7729 -0.2434 0.5860
vn -0.5699 -0.1571 0.8065
vn -0.3142 -0.0484 0.9481
vn -0.0307 0.0722 0.9969
vn 0.2528 0.1928 0.9481
vn 0.5085 0.3015 0.8065
vn 0.7115 0.3878 0.5860
vn 0.8418 0.4433 0.3081
vn 0.8867 0.4624 -0.0000
vn 0.8418 0.4433 -0.3081
vn 0.7115 0.3878 -0.5860
vn 0.5085 0.3015 -0.8065
vn 0.2528 0.1928 -0.9481
vn -0.0307 0.0722 -0.9969
vn -0.3142 -0.0484 -0.9481
vn -0.5699 -0.1571 -0.8065
vn -0.7729 -0.2434 -0.5860
vn -0.9032 -0.2989 -0.3081
vn -0.9481 -0.3180 -0.0000
vn -0.9032 -0.2989 0.3080
vn -0.3317 0.9422 -0.0461
vn -0.3215 0.9466 -0.0243
vn -0.3477 0.9355 -0.0635
vn -0.3678 0.9269 -0.0746
vn -0.3902 0.9174 -0.0785
vn -0.4125 0.9079 -0.0746
vn -0.4326 0.8994 -0.0635
vn -0.4486 0.8926 -0.0461
vn -0.4588 0.8882 -0.0242
vn -0.4623 0.8867 -0.0000
vn -0.4588 0.8882 0.0242
vn -0.4486 0.8926 0.0461
vn -0.4326 0.8994 0.0635
vn -0.4125 0.9079 0.0746
vn -0.3902 0.9174 0.0785
vn -0.3678 0.9269 0.0746
vn -0.3477 0.9354 0.0635
vn -0.3317 0.9422 0.0461
vn -0.3215 0.9466 0.0242
vn -0.3179 0.9481 -0.0000
vn -0.3215 0.9466 -0.0242
vt 0.050000 0.950000
vt 0.000000 0.950000
vt 0.025000 1.000000
vt 0.100000 0.950000
vt 0.075000 1.000000
vt 0.150000 0.950000
vt 0.125000 1.000000
vt 0.200000 0.950000
vt 0.175000 1.000000
vt 0.250000 0.950000
vt 0.225000 1.000000
vt 0.300000 0.950000
vt 0.275000 1.000000
vt 0.350000 0.950000
vt 0.325000 1.000000
vt 0.400000 0.950000
vt 0.375000 1.000000
vt 0.450000 0.950000
vt 0.425000 1.000000
vt 0.500000 0.950000
vt 0.475000 1.000000
vt 0.550000 0.950000
vt 0.525000 1.000000
vt 0.600000 0.950000
vt 0.575000 1.000000
vt 0.650000 0.950000
vt 0.625000 1.000000
vt 0.700000 0.950000
vt 0.675000 1.000000
vt 0.750000 0.950000
vt 0.725000 1.000000
vt 0.800000 0.950000
vt 0.775000 1.000000
vt 0.850000 0.950000
vt 0.825000 1.000000
vt 0.900000 0.950000
vt 0.875000 1.000000
vt 0.950000 0.950000
vt 0.925000 1.000000
vt 1.000000 0.950000
vt 0.975000 1.000000
vt 0.050000 0.900000
vt 0.000000 0.900000
vt 0.100000 0.900000
vt 0.150000 0.900000
vt 0.200000 0.900000
vt 0.250000 0.900000
vt 0.300000 0.900000
vt 0.350000 0.900000
vt 0.400000 0.900000
vt 0.450000 0.900000
vt 0.500000 0.900000
vt 0.550000 0.900000
vt 0.600000 0.900000
vt 0.650000 0.900000
vt 0.700000 0.900000
vt 0.750000 0.900000
vt 0.800000 0.900000
vt 0.850000 0.900000
vt 0.900000 0.900000
vt 0.950000 0.900000
vt 1.000000 0.900000
vt 0.050000 0.850000
vt 0.000000 0.850000
vt 0.100000 0.850000
vt 0.150000 0.850000
vt 0.200000 0.850000
vt 0.250000 0.850000
vt 0.300000 0.850000
vt 0.350000 0.850000
vt 0.400000 0.850000
vt 0.450000 0.850000
vt 0.500000 0.850000
vt 0.550000 0.850000
vt 0.600000 0.850000
vt 0.650000 0.850000
vt 0.700000 0.850000
vt 0.750000 0.850000
vt 0.800000 0.850000
vt 0.850000 0.850000
vt 0.900000 0.850000
vt 0.950000 0.850000
vt 1.000000 0.850000
vt 0.050000 0.800000
vt 0.000000 0.800000
vt 0.100000 0.800000
vt 0.150000 0.800000
vt 0.200000 0.800000
vt 0.250000 0.800000
vt 0.300000 0.800000
vt 0.350000 0.800000
vt 0.400000 0.800000
vt 0.450000 0.800000
vt 0.500000 0.800000
vt 0.550000 0.800000
vt 0.600000 0.800000
vt 0.650000 0.800000
vt 0.700000 0.800000
vt 0.750000 0.800000
vt 0.800000 0.800000
vt 0.850000 0.800000
vt 0.900000 0.800000
vt 0.950000 0.800000
vt 1.000000 0.800000
vt 0.050000 0.750000
vt 0.000000 0.750000
vt 0.100000 0.750000
vt 0.150000 0.750000
vt 0.200000 0.750000
vt 0.250000 0.750000
vt 0.300000 0.750000
vt 0.350000 0.750000
vt 0.400000 0.750000
vt 0.450000 0.750000
vt 0.500000 0.750000
vt 0.550000 0.750000
vt 0.600000 0.750000
vt 0.650000 0.750000
vt 0.700000 0.750000
vt 0.750000 0.750000
vt 0.800000 0.750000
vt 0.850000 0.750000
vt 0.900000 0.750000
vt 0.950000 0.750000
vt 1.000000 0.750000
vt 0.050000 0.700000
vt 0.000000 0.700000
vt 0.100000 0.700000
vt 0.150000 0.700000
vt 0.200000 0.700000
vt 0.250000 0.700000
vt 0.300000 0.700000
vt 0.350000 0.700000
vt 0.400000 0.700000
vt 0.450000 0.700000
vt 0.500000 0.700000
vt 0.550000 0.700000
vt 0.600000 0.700000
vt 0.650000 0.700000
vt 0.700000 0.700000
vt 0.750000 0.700000
vt 0.800000 0.700000
vt 0.850000 0.700000
vt 0.900000 0.700000
vt 0.950000 0.700000
vt 1.000000 0.700000
vt 0.050000 0.650000
vt 0.000000 0.650000
vt 0.100000 0.650000
vt 0.150000 0.650000
vt 0.200000 0.650000
vt 0.250000 0.650000
vt 0.300000 0.650000
vt 0.350000 0.650000
vt 0.400000 0.650000
vt 0.450000 0.650000
vt 0.500000 0.650000
vt 0.550000 0.650000
vt 0.600000 0.650000
vt 0.650000 0.650000
vt 0.700000 0.650000
vt 0.750000 0.650000
vt 0.800000 0.650000
vt 0.850000 0.650000
vt 0.900000 0.650000
vt 0.950000 0.650000
vt 1.000000 0.650000
vt 0.050000 0.600000
vt 0.000000 0.600000
vt 0.100000 0.600000
vt 0.150000 0.600000
vt 0.200000 0.600000
vt 0.250000 0.600000
vt 0.300000 0.600000
vt 0.350000 0.600000
vt 0.400000 0.600000
vt 0.450000 0.600000
vt 0.500000 0.600000
vt 0.550000 0.600000
vt 0.600000 0.600000
vt 0.650000 0.600000
vt 0.700000 0.600000
vt 0.750000 0.600000
vt 0.800000 0.600000
vt 0.850000 0.600000
vt 0.900000 0.600000
vt 0.950000 0.600000
vt 1.000000 0.600000
vt 0.050000 0.550000
vt 0.000000 0.550000
vt 0.100000 0.550000
vt 0.150000 0.550000
vt 0.200000 0.550000
vt 0.250000 0.550000
vt 0.300000 0.550000
vt 0.350000 0.550000
vt 0.400000 0.550000
vt 0.450000 0.550000
vt 0.500000 0.550000
vt 0.550000 0.550000
vt 0.600000 0.550000
vt 0.650000 0.550000
vt 0.700000 0.550000
vt 0.750000 0.550000
vt 0.800000 0.550000
vt 0.850000 0.550000
vt 0.900000 0.550000
vt 0.950000 0.550000
vt 1.000000 0.550000
vt 0.050000 0.500000
vt 0.000000 0.500000
vt 0.100000 0.500000
vt 0.150000 0.500000
vt 0.200000 0.500000
vt 0.250000 0.500000
vt 0.300000 0.500000
vt 0.350000 0.500000
vt 0.400000 0.500000
vt 0.450000 0.500000
vt 0.500000 0.500000
vt 0.550000 0.500000
vt 0.600000 0.500000
vt 0.650000 0.500000
vt 0.700000 0.500000
vt 0.750000 0.500000
vt 0.800000 0.500000
vt 0.850000 0.500000
vt 0.900000 0.500000
vt 0.950000 0.500000
vt 1.000000 0.500000
s 1
usemtl aiStandardSurface1
f 1/1/1 2/2/2 3/3/3
f 4/4/4 1/1/1 5/5/3
f 6/6/5 4/4/4 7/7/3
f 8/8/6 6/6/5 9/9/3
f 10/10/7 8/8/6 11/11/3
f 12/12/8 10/10/7 13/13/3
f 14/14/9 12/12/8 15/15/10
f 16/16/11 14/14/9 17/17/10
f 18/18/12 16/16/11 19/19/10
f 20/20/13 18/18/12 21/21/10
f 22/22/14 20/20/13 23/23/10
f 24/24/15 22/22/14 25/25/10
f 26/26/16 24/24/15 27/27/10
f 28/28/17 26/26/16 29/29/10
f 30/30/18 28/28/17 31/31/3
f 32/32/19 30/30/18 33/33/3
f 34/34/20 32/32/19 35/35/3
f 36/36/21 34/34/20 37/37/3
f 38/38/22 36/36/21 39/39/3
f 40/40/2 38/38/22 41/41/3
f 42/1/23 43/3/24 44/2/25
f 45/4/26 46/5/24 42/1/23
f 47/6/27 48/7/24 45/4/26
f 49/8/28 50/9/24 47/6/27
f 51/10/29 52/11/24 49/8/28
f 53/12/30 54/13/31 51/10/29
f 55/14/32 56/15/31 53/12/30
f 57/16/33 58/17/34 55/14/32
f 59/18/35 60/19/34 57/16/33
f 61/20/36 62/21/34 59/18/35
f 63/22/37 64/23/31 61/20/36
f 65/24/38 66/25/31 63/22/37
f 67/26/39 68/27/31 65/24/38
f 69/28/40 70/29/24 67/26/39
f 71/30/41 72/31/24 69/28/40
f 73/32/42 74/33/24 71/30/41
f 75/34/43 76/35/24 73/32/42
f 77/36/44 78/37/24 75/34/43
f 79/38/45 80/39/24 77/36/44
f 81/40/25 82/41/24 79/38/45
f 2/2/2 1/1/1 83/42/46
f 2/2/2 83/42/46 84/43/47
f 1/1/1 4/4/4 85/44/48
f 1/1/1 85/44/48 83/42/46
f 4/4/4 6/6/5 86/45/49
f 4/4/4 86/45/49 85/44/48
f 6/6/5 8/8/6 87/46/50
f 6/6/5 87/46/50 86/45/49
f 8/8/6 10/10/7 88/47/51
f 8/8/6 88/47/51 87/46/50
f 10/10/7 12/12/8 89/48/52
f 10/10/7 89/48/52 88/47/51
f 12/12/8 14/14/9 90/49/53
f 12/12/8 90/49/53 89/48/52
f 14/14/9 16/16/11 91/50/54
f 14/14/9 91/50/54 90/49/53
f 16/16/11 18/18/12 92/51/55
f 16/16/11 92/51/55 91/50/54
f 18/18/12 20/20/13 93/52/56
f 18/18/12 93/52/56 92/51/55
f 20/20/13 22/22/14 94/53/57
f 20/20/13 94/53/57 93/52/56
f 22/22/14 24/24/15 95/54/58
f 22/22/14 95/54/58 94/53/57
f 24/24/15 26/26/16 96/55/59
f 24/24/15 96/55/59 95/54/58
f 26/26/16 28/28/17 97/56/60
f 26/26/16 97/56/60 96/55/59
f 28/28/17 30/30/18 98/57/61
f 28/28/17 98/57/61 97/56/60
f 30/30/18 32/32/19 99/58/62
f 30/30/18 99/58/62 98/57/61
f 32/32/19 34/34/20 100/59/63
f 32/32/19 100/59/63 99/58/62
f 34/34/20 36/36/21 101/60/64
f 34/34/20 101/60/64 100/59/63
f 36/36/21 38/38/22 102/61/65
f 36/36/21 102/61/65 101/60/64
f 38/38/22 40/40/2 103/62/47
f 38/38/22 103/62/47 102/61/65
f 84/43/47 83/42/46 104/63/66
f 84/43/47 104/63/66 105/64/67
f 83/42/46 85/44/48 106/65/68
f 83/42/46 106/65/68 104/63/66
f 85/44/48 86/45/49 107/66/69
f 85/44/48 107/66/69 106/65/68
f 86/45/49 87/46/50 108/67/70
f 86/45/49 108/67/70 107/66/69
f 87/46/50 88/47/51 109/68/71
f 87/46/50 109/68/71 108/67/70
f 88/47/51 89/48/52 110/69/72
f 88/47/51 110/69/72 109/68/71
f 89/48/52 90/49/53 111/70/73
f 89/48/52 111/70/73 110/69/72
f 90/49/53 91/50/54 112/71/74
f 90/49/53 112/71/74 111/70/73
f 91/50/54 92/51/55 113/72/75
f 91/50/54 113/72/75 112/71/74
f 92/51/55 93/52/56 114/73/76
f 92/51/55 114/73/76 113/72/75
f 93/52/56 94/53/57 115/74/77
f 93/52/56 115/74/77 114/73/76
f 94/53/57 95/54/58 116/75/78
f 94/53/57 116/75/78 115/74/77
f 95/54/58 96/55/59 117/76/79
f 95/54/58 117/76/79 116/75/78
f 96/55/59 97/56/60 118/77/80
f 96/55/59 118/77/80 117/76/79
f 97/56/60 98/57/61 119/78/81
f 97/56/60 119/78/81 118/77/80
f 98/57/61 99/58/62 120/79/82
f 98/57/61 120/79/82 119/78/81
f 99/58/62 100/59/63 121/80/83
f 99/58/62 121/80/83 120/79/82
f 100/59/63 101/60/64 122/81/84
f 100/59/63 122/81/84 121/80/83
f 101/60/64 102/61/65 123/82/85
f 101/60/64 123/82/85 122/81/84
f 102/61/65 103/62/47 124/83/86
f 102/61/65 124/83/86 123/82/85
f 105/64/67 104/63/66 125/84/87
f 105/64/67 125/84/87 126/85/88
f 104/63/66 106/65/68 127/86/89
f 104/63/66 127/86/89 125/84/87
f 106/65/68 107/66/69 128/87/90
f 106/65/68 128/87/90 127/86/89
f 107/66/69 108/67/70 129/88/91
f 107/66/69 129/88/91 128/87/90
f 108/67/70 109/68/71 130/89/92
f 108/67/70 130/89/92 129/88/91
f 109/68/71 110/69/72 131/90/93
f 109/68/71 131/90/93 130/89/92
f 110/69/72 111/70/73 132/91/94
f 110/69/72 132/91/94 131/90/93
f 111/70/73 112/71/74 133/92/95
f 111/70/73 133/92/95 132/91/94
f 112/71/74 113/72/75 134/93/96
f 112/71/74 134/93/96 133/92/95
f 113/72/75 114/73/76 135/94/97
f 113/72/75 135/94/97 134/93/96
f 114/73/76 115/74/77 136/95/98
f 114/73/76 136/95/98 135/94/97
f 115/74/77 116/75/78 137/96/99
f 115/74/77 137/96/99 136/95/98
f 116/75/78 117/76/79 138/97/100
f 116/75/78 138/97/100 137/96/99
f 117/76/79 118/77/80 139/98/101
f 117/76/79 139/98/101 138/97/100
f 118/77/80 119/78/81 140/99/102
f 118/77/80 140/99/102 139/98/101
f 119/78/81 120/79/82 141/100/103
f 119/78/81 141/100/103 140/99/102
f 120/79/82 121/80/83 142/101/104
f 120/79/82 142/101/104 141/100/103
f 121/80/83 122/81/84 143/102/105
f 121/80/83 143/102/105 142/101/104
f 122/81/84 123/82/85 144/103/106
f 122/81/84 144/103/106 143/102/105
f 123/82/85 124/83/86 145/104/88
f 123/82/85 145/104/88 144/103/106
f 126/85/88 125/84/87 146/105/107
f 126/85/88 146/105/107 147/106/108
f 125/84/87 127/86/89 148/107/109
f 125/84/87 148/107/109 146/105/107
f 127/86/89 128/87/90 149/108/110
f 127/86/89 149/108/110 148/107/109
f 128/87/90 129/88/91 150/109/111
f 128/87/90 150/109/111 149/108/110
f 129/88/91 130/89/92 151/110/112
f 129/88/91 151/110/112 150/109/111
f 130/89/92 131/90/93 152/111/113
f 130/89/92 152/111/113 151/110/112
f 131/90/93 132/91/94 153/112/114
f 131/90/93 153/112/114 152/111/113
f 132/91/94 133/92/95 154/113/115
f 132/91/94 154/113/115 153/112/114
f 133/92/95 134/93/96 155/114/116
f 133/92/95 155/114/116 154/113/115
f 134/93/96 135/94/97 156/115/117
f 134/93/96 156/115/117 155/114/116
f 135/94/97 136/95/98 157/116/118
f 135/94/97 157/116/118 156/115/117
f 136/95/98 137/96/99 158/117/119
f 136/95/98 158/117/119 157/116/118
f 137/96/99 138/97/100 159/118/120
f 137/96/99 159/118/120 158/117/119
f 138/97/100 139/98/101 160/119/121
f 138/97/100 160/119/121 159/118/120
f 139/98/101 140/99/102 161/120/122
f 139/98/101 161/120/122 160/119/121
f 140/99/102 141/100/103 162/121/123
f 140/99/102 162/121/123 161/120/122
f 141/100/103 142/101/104 163/122/124
f 141/100/103 163/122/124 162/121/123
f 142/101/104 143/102/105 164/123/125
f 142/101/104 164/123/125 163/122/124
f 143/102/105 144/103/106 165/124/126
f 143/102/105 165/124/126 164/123/125
f 144/103/106 145/104/88 166/125/127
f 144/103/106 166/125/127 165/124/126
f 147/106/108 146/105/107 167/126/128
f 147/106/108 167/126/128 168/127/129
f 146/105/107 148/107/109 169/128/130
f 146/105/107 169/128/130 167/126/128
f 148/107/109 149/108/110 170/129/131
f 148/107/109 170/129/131 169/128/130
f 149/108/110 150/109/111 171/130/132
f 149/108/110 171/130/132 170/129/131
f 150/109/111 151/110/112 172/131/133
f 150/109/111 172/131/133 171/130/132
f 151/110/112 152/111/113 173/132/134
f 151/110/112 173/132/134 172/131/133
f 152/111/113 153/112/114 174/133/135
f 152/111/113 174/133/135 173/132/134
f 153/112/114 154/113/115 175/134/136
f 153/112/114 175/134/136 174/133/135
f 154/113/115 155/114/116 176/135/137
f 154/113/115 176/135/137 175/134/136
f 155/114/116 156/115/117 177/136/138
f 155/114/116 177/136/138 176/135/137
f 156/115/117 157/116/118 178/137/139
f 156/115/117 178/137/139 177/136/138
f 157/116/118 158/117/119 179/138/140
f 157/116/118 179/138/140 178/137/139
f 158/117/119 159/118/120 180/139/141
f 158/117/119 180/139/141 179/138/140
f 159/118/120 160/119/121 181/140/142
f 159/118/120 181/140/142 180/139/141
f 160/119/121 161/120/122 182/141/143
f 160/119/121 182/141/143 181/140/142
f 161/120/122 162/121/123 183/142/144
f 161/120/122 183/142/144 182/141/143
f 162/121/123 163/122/124 184/143/145
f 162/121/123 184/143/145 183/142/144
f 163/122/124 164/123/125 185/144/146
f 163/122/124 185/144/146 184/143/145
f 164/123/125 165/124/126 186/145/147
f 164/123/125 186/145/147 185/144/146
f 165/124/126 166/125/127 187/146/148
f 165/124/126 187/146/148 186/145/147
f 168/127/129 167/126/128 188/147/149
f 168/127/129 188/147/149 189/148/150
f 167/126/128 169/128/130 190/149/151
f 167/126/128 190/149/151 188/147/149
f 169/128/130 170/129/131 191/150/152
f 169/128/130 191/150/152 190/149/151
f 170/129/131 171/130/132 192/151/153
f 170/129/131 192/151/153 191/150/152
f 171/130/132 172/131/133 193/152/154
f 171/130/132 193/152/154 192/151/153
f 172/131/133 173/132/134 194/153/155
f 172/131/133 194/153/155 193/152/154
f 173/132/134 174/133/135 195/154/156
f 173/132/134 195/154/156 194/153/155
f 174/133/135 175/134/136 196/155/157
f 174/133/135 196/155/157 195/154/156
f 175/134/136 176/135/137 197/156/158
f 175/134/136 197/156/158 196/155/157
f 176/135/137 177/136/138 198/157/159
f 176/135/137 198/157/159 197/156/158
f 177/136/138 178/137/139 199/158/160
f 177/136/138 199/158/160 198/157/159
f 178/137/139 179/138/140 200/159/161
f 178/137/139 200/159/161 199/158/160
f 179/138/140 180/139/141 201/160/162
f 179/138/140 201/160/162 200/159/161
f 180/139/141 181/140/142 202/161/163
f 180/139/141 202/161/163 201/160/162
f 181/140/142 182/141/143 203/162/164
f 181/140/142 203/162/164 202/161/163
f 182/141/143 183/142/144 204/163/165
f 182/141/143 204/163/165 203/162/164
f 183/142/144 184/143/145 205/164/166
f 183/142/144 205/164/166 204/163/165
f 184/143/145 185/144/146 206/165/167
f 184/143/145 206/165/167 205/164/166
f 185/144/146 186/145/147 207/166/168
f 185/144/146 207/166/168 206/165/167
f 186/145/147 187/146/148 208/167/169
f 186/145/147 208/167/169 207/166/168
f 189/148/150 188/147/149 209/168/170
f 189/148/150 209/168/170 210/169/171
f 188/147/149 190/149/151 211/170/172
f 188/147/149 211/170/172 209/168/170
f 190/149/151 191/150/152 212/171/173
f 190/149/151 212/171/173 211/170/172
f 191/150/152 192/151/153 213/172/174
f 191/150/152 213/172/174 212/171/173
f 192/151/153 193/152/154 214/173/175
f 192/151/153 214/173/175 213/172/174
f 193/152/154 194/153/155 215/174/176
f 193/152/154 215/174/176 214/173/175
f 194/153/155 195/154/156 216/175/177
f 194/153/155 216/175/177 215/174/176
f 195/154/156 196/155/157 217/176/178
f 195/154/156 217/176/178 216/175/177
f 196/155/157 197/156/158 218/177/179
f 196/155/157 218/177/179 217/176/178
f 197/156/158 198/157/159 219/178/180
f 197/156/158 219/178/180 218/177/179
f 198/157/159 199/158/160 220/179/181
f 198/157/159 220/179/181 219/178/180
f 199/158/160 200/159/161 221/180/182
f 199/158/160 221/180/182 220/179/181
f 200/159/161 201/160/162 222/181/183
f 200/159/161 222/181/183 221/180/182
f 201/160/162 202/161/163 223/182/184
f 201/160/162 223/182/184 222/181/183
f 202/161/163 203/162/164 224/183/185
f 202/161/163 224/183/185 223/182/184
f 203/162/164 204/163/165 225/184/186
f 203/162/164 225/184/186 224/183/185
f 204/163/165 205/164/166 226/185/187
f 204/163/165 226/185/187 225/184/186
f 205/164/166 206/165/167 227/186/188
f 205/164/166 227/186/188 226/185/187
f 206/165/167 207/166/168 228/187/189
f 206/165/167 228/187/189 227/186/188
f 207/166/168 208/167/169 229/188/190
f 207/166/168 229/188/190 228/187/189
f 210/169/171 209/168/170 230/189/191
f 210/169/171 230/189/191 231/190/192
f 209/168/170 211/170/172 232/191/193
f 209/168/170 232/191/193 230/189/191
f 211/170/172 212/171/173 233/192/194
f 211/170/172 233/192/194 232/191/193
f 212/171/173 213/172/174 234/193/195
f 212/171/173 234/193/195 233/192/194
f 213/172/174 214/173/175 235/194/196
f 213/172/174 235/194/196 234/193/195
f 214/173/175 215/174/176 236/195/197
f 214/173/175 236/195/197 235/194/196
f 215/174/176 216/175/177 237/196/198
f 215/174/176 237/196/198 236/195/197
f 216/175/177 217/176/178 238/197/199
f 216/175/177 238/197/199 237/196/198
f 217/176/178 218/177/179 239/198/200
f 217/176/178 239/198/200 238/197/199
f 218/177/179 219/178/180 240/199/201
f 218/177/179 240/199/201 239/198/200
f 219/178/180 220/179/181 241/200/202
f 219/178/180 241/200/202 240/199/201
f 220/179/181 221/180/182 242/201/203
f 220/179/181 242/201/203 241/200/202
f 221/180/182 222/181/183 243/202/204
f 221/180/182 243/202/204 242/201/203
f 222/181/183 223/182/184 244/203/205
f 222/181/183 244/203/205 243/202/204
f 223/182/184 224/183/185 245/204/206
f 223/182/184 245/204/206 244/203/205
f 224/183/185 225/184/186 246/205/207
f 224/183/185 246/205/207 245/204/206
f 225/184/186 226/185/187 247/206/208
f 225/184/186 247/206/208 246/205/207
f 226/185/187 227/186/188 248/207/209
f 226/185/187 248/207/209 247/206/208
f 227/186/188 228/187/189 249/208/210
f 227/186/188 249/208/210 248/207/209
f 228/187/189 229/188/190 250/209/211
f 228/187/189 250/209/211 249/208/210
f 231/190/192 230/189/191 251/210/212
f 231/190/192 251/210/212 252/211/213
f 230/189/191 232/191/193 253/212/214
f 230/189/191 253/212/214 251/210/212
f 232/191/193 233/192/194 254/213/215
f 232/191/193 254/213/215 253/212/214
f 233/192/194 234/193/195 255/214/216
f 233/192/194 255/214/216 254/213/215
f 234/193/195 235/194/196 256/215/217
f 234/193/195 256/215/217 255/214/216
f 235/194/196 236/195/197 257/216/218
f 235/194/196 257/216/218 256/215/217
f 236/195/197 237/196/198 258/217/219
f 236/195/197 258/217/219 257/216/218
f 237/196/198 238/197/199 259/218/220
f 237/196/198 259/218/220 258/217/219
f 238/197/199 239/198/200 260/219/221
f 238/197/199 260/219/221 259/218/220
f 239/198/200 240/199/201 261/220/222
f 239/198/200 261/220/222 260/219/221
f 240/199/201 241/200/202 262/221/223
f 240/199/201 262/221/223 261/220/222
f 241/200/202 242/201/203 263/222/224
f 241/200/202 263/222/224 262/221/223
f 242/201/203 243/202/204 264/223/225
f 242/201/203 264/223/225 263/222/224
f 243/202/204 244/203/205 265/224/226
f 243/202/204 265/224/226 264/223/225
f 244/203/205 245/204/206 266/225/227
f 244/203/205 266/225/227 265/224/226
f 245/204/206 246/205/207 267/226/228
f 245/204/206 267/226/228 266/225/227
f 246/205/207 247/206/208 268/227/229
f 246/205/207 268/227/229 267/226/228
f 247/206/208 248/207/209 269/228/230
f 247/206/208 269/228/230 268/227/229
f 248/207/209 249/208/210 270/229/231
f 248/207/209 270/229/231 269/228/230
f 249/208/210 250/209/211 271/230/232
f 249/208/210 271/230/232 270/229/231
f 44/2/25 272/43/233 273/42/234
f 44/2/25 273/42/234 42/1/23
f 42/1/23 273/42/234 274/44/235
f 42/1/23 274/44/235 45/4/26
f 45/4/26 274/44/235 275/45/236
f 45/4/26 275/45/236 47/6/27
f 47/6/27 275/45/236 276/46/237
f 47/6/27 276/46/237 49/8/28
f 49/8/28 276/46/237 277/47/238
f 49/8/28 277/47/238 51/10/29
f 51/10/29 277/47/238 278/48/239
f 51/10/29 278/48/239 53/12/30
f 53/12/30 278/48/239 279/49/240
f 53/12/30 279/49/240 55/14/32
f 55/14/32 279/49/240 280/50/241
f 55/14/32 280/50/241 57/16/33
f 57/16/33 280/50/241 281/51/242
f 57/16/33 281/51/242 59/18/35
f 59/18/35 281/51/242 282/52/243
f 59/18/35 282/52/243 61/20/36
f 61/20/36 282/52/243 283/53/244
f 61/20/36 283/53/244 63/22/37
f 63/22/37 283/53/244 284/54/245
f 63/22/37 284/54/245 65/24/38
f 65/24/38 284/54/245 285/55/246
f 65/24/38 285/55/246 67/26/39
f 67/26/39 285/55/246 286/56/247
f 67/26/39 286/56/247 69/28/40
f 69/28/40 286/56/247 287/57/248
f 69/28/40 287/57/248 71/30/41
f 71/30/41 287/57/248 288/58/249
f 71/30/41 288/58/249 73/32/42
f 73/32/42 288/58/249 289/59/250
f 73/32/42 289/59/250 75/34/43
f 75/34/43 289/59/250 290/60/251
f 75/34/43 290/60/251 77/36/44
f 77/36/44 290/60/251 291/61/252
f 77/36/44 291/61/252 79/38/45
f 79/38/45 291/61/252 292/62/253
f 79/38/45 292/62/253 81/40/25
f 272/43/233 293/64/254 294/63/255
f 272/43/233 294/63/255 273/42/234
f 273/42/234 294/63/255 295/65/256
f 273/42/234 295/65/256 274/44/235
f 274/44/235 295/65/256 296/66/257
f 274/44/235 296/66/257 275/45/236
f 275/45/236 296/66/257 297/67/258
f 275/45/236 297/67/258 276/46/237
f 276/46/237 297/67/258 298/68/259
f 276/46/237 298/68/259 277/47/238
f 277/47/238 298/68/259 299/69/260
f 277/47/238 299/69/260 278/48/239
f 278/48/239 299/69/260 300/70/261
f 278/48/239 300/70/261 279/49/240
f 279/49/240 300/70/261 301/71/262
f 279/49/240 301/71/262 280/50/241
f 280/50/241 301/71/262 302/72/263
f 280/50/241 302/72/263 281/51/242
f 281/51/242 302/72/263 303/73/264
f 281/51/242 303/73/264 282/52/243
f 282/52/243 303/73/264 304/74/265
f 282/52/243 304/74/265 283/53/244
f 283/53/244 304/74/265 305/75/266
f 283/53/244 305/75/266 284/54/245
f 284/54/245 305/75/266 306/76/267
f 284/54/245 306/76/267 285/55/246
f 285/55/246 306/76/267 307/77/268
f 285/55/246 307/77/268 286/56/247
f 286/56/247 307/77/268 308/78/269
f 286/56/247 308/78/269 287/57/248
f 287/57/248 308/78/269 309/79/270
f 287/57/248 309/79/270 288/58/249
f 288/58/249 309/79/270 310/80/271
f 288/58/249 310/80/271 289/59/250
f 289/59/250 310/80/271 311/81/272
f 289/59/250 311/81/272 290/60/251
f 290/60/251 311/81/272 312/82/273
f 290/60/251 312/82/273 291/61/252
f 291/61/252 312/82/273 313/83/254
f 291/61/252 313/83/254 292/62/253
f 293/64/254 314/85/274 315/84/275
f 293/64/254 315/84/275 294/63/255
f 294/63/255 315/84/275 316/86/276
f 294/63/255 316/86/276 295/65/256
f 295/65/256 316/86/276 317/87/277
f 295/65/256 317/87/277 296/66/257
f 296/66/257 317/87/277 318/88/278
f 296/66/257 318/88/278 297/67/258
f 297/67/258 318/88/278 319/89/279
f 297/67/258 319/89/279 298/68/259
f 298/68/259 319/89/279 320/90/280
f 298/68/259 320/90/280 299/69/260
f 299/69/260 320/90/280 321/91/281
f 299/69/260 321/91/281 300/70/261
f 300/70/261 321/91/281 322/92/282
f 300/70/261 322/92/282 301/71/262
f 301/71/262 322/92/282 323/93/283
f 301/71/262 323/93/283 302/72/263
f 302/72/263 323/93/283 324/94/284
f 302/72/263 324/94/284 303/73/264
f 303/73/264 324/94/284 325/95/285
f 303/73/264 325/95/285 304/74/265
f 304/74/265 325/95/285 326/96/286
f 304/74/265 326/96/286 305/75/266
f 305/75/266 326/96/286 327/97/287
f 305/75/266 327/97/287 306/76/267
f 306/76/267 327/97/287 328/98/288
f 306/76/267 328/98/288 307/77/268
f 307/77/268 328/98/288 329/99/289
f 307/77/268 329/99/289 308/78/269
f 308/78/269 329/99/289 330/100/290
f 308/78/269 330/100/290 309/79/270
f 309/79/270 330/100/290 331/101/291
f 309/79/270 331/101/291 310/80/271
f 310/80/271 331/101/291 332/102/292
f 310/80/271 332/102/292 311/81/272
f 311/81/272 332/102/292 333/103/293
f 311/81/272 333/103/293 312/82/273
f 312/82/273 333/103/293 334/104/274
f 312/82/273 334/104/274 313/83/254
f 314/85/274 335/106/294 336/105/295
f 314/85/274 336/105/295 315/84/275
f 315/84/275 336/105/295 337/107/296
f 315/84/275 337/107/296 316/86/276
f 316/86/276 337/107/296 338/108/297
f 316/86/276 338/108/297 317/87/277
f 317/87/277 338/108/297 339/109/298
f 317/87/277 339/109/298 318/88/278
f 318/88/278 339/109/298 340/110/299
f 318/88/278 340/110/299 319/89/279
f 319/89/279 340/110/299 341/111/300
f 319/89/279 341/111/300 320/90/280
f 320/90/280 341/111/300 342/112/301
f 320/90/280 342/112/301 321/91/281
f 321/91/281 342/112/301 343/113/302
f 321/91/281 343/113/302 322/92/282
f 322/92/282 343/113/302 344/114/303
f 322/92/282 344/114/303 323/93/283
f 323/93/283 344/114/303 345/115/304
f 323/93/283 345/115/304 324/94/284
f 324/94/284 345/115/304 346/116/305
f 324/94/284 346/116/305 325/95/285
f 325/95/285 346/116/305 347/117/306
f 325/95/285 347/117/306 326/96/286
f 326/96/286 347/117/306 348/118/307
f 326/96/286 348/118/307 327/97/287
f 327/97/287 348/118/307 349/119/308
f 327/97/287 349/119/308 328/98/288
f 328/98/288 349/119/308 350/120/309
f 328/98/288 350/120/309 329/99/289
f 329/99/289 350/120/309 351/121/310
f 329/99/289 351/121/310 330/100/290
f 330/100/290 351/121/310 352/122/311
f 330/100/290 352/122/311 331/101/291
f 331/101/291 352/122/311 353/123/312
f 331/101/291 353/123/312 332/102/292
f 332/102/292 353/123/312 354/124/313
f 332/102/292 354/124/313 333/103/293
f 333/103/293 354/124/313 355/125/314
f 333/103/293 355/125/314 334/104/274
f 335/106/294 356/127/315 357/126/316
f 335/106/294 357/126/316 336/105/295
f 336/105/295 357/126/316 358/128/317
f 336/105/295 358/128/317 337/107/296
f 337/107/296 358/128/317 359/129/318
f 337/107/296 359/129/318 338/108/297
f 338/108/297 359/129/318 360/130/319
f 338/108/297 360/130/319 339/109/298
f 339/109/298 360/130/319 361/131/320
f 339/109/298 361/131/320 340/110/299
f 340/110/299 361/131/320 362/132/321
f 340/110/299 362/132/321 341/111/300
f 341/111/300 362/132/321 363/133/322
f 341/111/300 363/133/322 342/112/301
f 342/112/301 363/133/322 364/134/323
f 342/112/301 364/134/323 343/113/302
f 343/113/302 364/134/323 365/135/324
f 343/113/302 365/135/324 344/114/303
f 344/114/303 365/135/324 366/136/325
f 344/114/303 366/136/325 345/115/304
f 345/115/304 366/136/325 367/137/326
f 345/115/304 367/137/326 346/116/305
f 346/116/305 367/137/326 368/138/327
f 346/116/305 368/138/327 347/117/306
f 347/117/306 368/138/327 369/139/328
f 347/117/306 369/139/328 348/118/307
f 348/118/307 369/139/328 370/140/329
f 348/118/307 370/140/329 349/119/308
f 349/119/308 370/140/329 371/141/330
f 349/119/308 371/141/330 350/120/309
f 350/120/309 371/141/330 372/142/331
f 350/120/309 372/142/331 351/121/310
f 351/121/310 372/142/331 373/143/332
f 351/121/310 373/143/332 352/122/311
f 352/122/311 373/143/332 374/144/333
f 352/122/311 374/144/333 353/123/312
f 353/123/312 374/144/333 375/145/334
f 353/123/312 375/145/334 354/124/313
f 354/124/313 375/145/334 376/146/335
f 354/124/313 376/146/335 355/125/314
f 356/127/315 377/148/336 378/147/337
f 356/127/315 378/147/337 357/126/316
f 357/126/316 378/147/337 379/149/338
f 357/126/316 379/149/338 358/128/317
f 358/128/317 379/149/338 380/150/339
f 358/128/317 380/150/339 359/129/318
f 359/129/318 380/150/339 381/151/340
f 359/129/318 381/151/340 360/130/319
f 360/130/319 381/151/340 382/152/341
f 360/130/319 382/152/341 361/131/320
f 361/131/320 382/152/341 383/153/342
f 361/131/320 383/153/342 362/132/321
f 362/132/321 383/153/342 384/154/343
f 362/132/321 384/154/343 363/133/322
f 363/133/322 384/154/343 385/155/344
f 363/133/322 385/155/344 364/134/323
f 364/134/323 385/155/344 386/156/345
f 364/134/323 386/156/345 365/135/324
f 365/135/324 386/156/345 387/157/346
f 365/135/324 387/157/346 366/136/325
f 366/136/325 387/157/346 388/158/347
f 366/136/325 388/158/347 367/137/326
f 367/137/326 388/158/347 389/159/348
f 367/137/326 389/159/348 368/138/327
f 368/138/327 389/159/348 390/160/349
f 368/138/327 390/160/349 369/139/328
f 369/139/328 390/160/349 391/161/350
f 369/139/328 391/161/350 370/140/329
f 370/140/329 391/161/350 392/162/351
f 370/140/329 392/162/351 371/141/330
f 371/141/330 392/162/351 393/163/352
f 371/141/330 393/163/352 372/142/331
f 372/142/331 393/163/352 394/164/353
f 372/142/331 394/164/353 373/143/332
f 373/143/332 394/164/353 395/165/354
f 373/143/332 395/165/354 374/144/333
f 374/144/333 395/165/354 396/166/355
f 374/144/333 396/166/355 375/145/334
f 375/145/334 396/166/355 397/167/356
f 375/145/334 397/167/356 376/146/335
f 377/148/336 398/169/357 399/168/358
f 377/148/336 399/168/358 378/147/337
f 378/147/337 399/168/358 400/170/359
f 378/147/337 400/170/359 379/149/338
f 379/149/338 400/170/359 401/171/360
f 379/149/338 401/171/360 380/150/339
f 380/150/339 401/171/360 402/172/361
f 380/150/339 402/172/361 381/151/340
f 381/151/340 402/172/361 403/173/362
f 381/151/340 403/173/362 382/152/341
f 382/152/341 403/173/362 404/174/363
f 382/152/341 404/174/363 383/153/342
f 383/153/342 404/174/363 405/175/364
f 383/153/342 405/175/364 384/154/343
f 384/154/343 405/175/364 406/176/365
f 384/154/343 406/176/365 385/155/344
f 385/155/344 406/176/365 407/177/366
f 385/155/344 407/177/366 386/156/345
f 386/156/345 407/177/366 408/178/367
f 386/156/345 408/178/367 387/157/346
f 387/157/346 408/178/367 409/179/368
f 387/157/346 409/179/368 388/158/347
f 388/158/347 409/179/368 410/180/369
f 388/158/347 410/180/369 389/159/348
f 389/159/348 410/180/369 411/181/370
f 389/159/348 411/181/370 390/160/349
f 390/160/349 411/181/370 412/182/371
f 390/160/349 412/182/371 391/161/350
f 391/161/350 412/182/371 413/183/372
f 391/161/350 413/183/372 392/162/351
f 392/162/351 413/183/372 414/184/373
f 392/162/351 414/184/373 393/163/352
f 393/163/352 414/184/373 415/185/374
f 393/163/352 415/185/374 394/164/353
f 394/164/353 415/185/374 416/186/375
f 394/164/353 416/186/375 395/165/354
f 395/165/354 416/186/375 417/187/376
f 395/165/354 417/187/376 396/166/355
f 396/166/355 417/187/376 418/188/357
f 396/166/355 418/188/357 397/167/356
f 398/169/357 419/190/377 420/189/378
f 398/169/357 420/189/378 399/168/358
f 399/168/358 420/189/378 421/191/379
f 399/168/358 421/191/379 400/170/359
f 400/170/359 421/191/379 422/192/380
f 400/170/359 422/192/380 401/171/360
f 401/171/360 422/192/380 423/193/381
f 401/171/360 423/193/381 402/172/361
f 402/172/361 423/193/381 424/194/382
f 402/172/361 424/194/382 403/173/362
f 403/173/362 424/194/382 425/195/383
f 403/173/362 425/195/383 404/174/363
f 404/174/363 425/195/383 426/196/384
f 404/174/363 426/196/384 405/175/364
f 405/175/364 426/196/384 427/197/385
f 405/175/364 427/197/385 406/176/365
f 406/176/365 427/197/385 428/198/386
f 406/176/365 428/198/386 407/177/366
f 407/177/366 428/198/386 429/199/387
f 407/177/366 429/199/387 408/178/367
f 408/178/367 429/199/387 430/200/388
f 408/178/367 430/200/388 409/179/368
f 409/179/368 430/200/388 431/201/389
f 409/179/368 431/201/389 410/180/369
f 410/180/369 431/201/389 432/202/390
f 410/180/369 432/202/390 411/181/370
f 411/181/370 432/202/390 433/203/391
f 411/181/370 433/203/391 412/182/371
f 412/182/371 433/203/391 434/204/392
f 412/182/371 434/204/392 413/183/372
f 413/183/372 434/204/392 435/205/393
f 413/183/372 435/205/393 414/184/373
f 414/184/373 435/205/393 436/206/394
f 414/184/373 436/206/394 415/185/374
f 415/185/374 436/206/394 437/207/395
f 415/185/374 437/207/395 416/186/375
f 416/186/375 437/207/395 438/208/396
f 416/186/375 438/208/396 417/187/376
f 417/187/376 438/208/396 439/209/377
f 417/187/376 439/209/377 418/188/357
f 419/190/377 440/211/397 441/210/398
f 419/190/377 441/210/398 420/189/378
f 420/189/378 441/210/398 442/212/399
f 420/189/378 442/212/399 421/191/379
f 421/191/379 442/212/399 443/213/400
f 421/191/379 443/213/400 422/192/380
f 422/192/380 443/213/400 444/214/401
f 422/192/380 444/214/401 423/193/381
f 423/193/381 444/214/401 445/215/402
f 423/193/381 445/215/402 424/194/382
f 424/194/382 445/215/402 446/216/403
f 424/194/382 446/216/403 425/195/383
f 425/195/383 446/216/403 447/217/404
f 425/195/383 447/217/404 426/196/384
f 426/196/384 447/217/404 448/218/405
f 426/196/384 448/218/405 427/197/385
f 427/197/385 448/218/405 449/219/406
f 427/197/385 449/219/406 428/198/386
f 428/198/386 449/219/406 450/220/407
f 428/198/386 450/220/407 429/199/387
f 429/199/387 450/220/407 451/221/408
f 429/199/387 451/221/408 430/200/388
f 430/200/388 451/221/408 452/222/409
f 430/200/388 452/222/409 431/201/389
f 431/201/389 452/222/409 453/223/410
f 431/201/389 453/223/410 432/202/390
f 432/202/390 453/223/410 454/224/411
f 432/202/390 454/224/411 433/203/391
f 433/203/391 454/224/411 455/225/412
f 433/203/391 455/225/412 434/204/392
f 434/204/392 455/225/412 456/226/413
f 434/204/392 456/226/413 435/205/393
f 435/205/393 456/226/413 457/227/414
f 435/205/393 457/227/414 436/206/394
f 436/206/394 457/227/414 458/228/415
f 436/206/394 458/228/415 437/207/395
f 437/207/395 458/228/415 459/229/416
f 437/207/395 459/229/416 438/208/396
f 438/208/396 459/229/416 460/230/417
f 438/208/396 460/230/417 439/209/377
f 461/210/418 462/211/419 463/211/419
f 461/210/418 463/211/419 464/210/418
f 465/212/420 461/210/418 464/210/418
f 465/212/420 464/210/418 466/212/420
f 467/213/421 465/212/420 466/212/420
f 467/213/421 466/212/420 468/213/421
f 469/214/422 467/213/421 468/213/421
f 469/214/422 468/213/421 470/214/422
f 471/215/423 469/214/422 470/214/422
f 471/215/423 470/214/422 472/215/423
f 473/216/424 471/215/423 472/215/423
f 473/216/424 472/215/423 474/216/424
f 475/217/425 473/216/424 474/216/424
f 475/217/425 474/216/424 476/217/425
f 477/218/426 475/217/425 476/217/425
f 477/218/426 476/217/425 478/218/426
f 479/219/427 477/218/426 478/218/426
f 479/219/427 478/218/426 480/219/427
f 481/220/428 479/219/427 480/219/427
f 481/220/428 480/219/427 482/220/428
f 483/221/429 481/220/428 482/220/428
f 483/221/429 482/220/428 484/221/429
f 485/222/430 483/221/429 484/221/429
f 485/222/430 484/221/429 486/222/430
f 487/223/431 485/222/430 486/222/430
f 487/223/431 486/222/430 488/223/431
f 489/224/432 487/223/431 488/223/431
f 489/224/432 488/223/431 490/224/432
f 491/225/433 489/224/432 490/224/432
f 491/225/433 490/224/432 492/225/433
f 493/226/434 491/225/433 492/225/433
f 493/226/434 492/225/433 494/226/434
f 495/227/435 493/226/434 494/226/434
f 495/227/435 494/226/434 496/227/435
f 497/228/436 495/227/435 496/227/435
f 497/228/436 496/227/435 498/228/436
f 499/229/437 497/228/436 498/228/436
f 499/229/437 498/228/436 500/229/437
f 501/230/438 499/229/437 500/229/437
f 501/230/438 500/229/437 502/230/438
o pCube10_aiStandardSurface1_0
v 4.719411 8.495697 0.573866
v 4.286695 8.963677 0.573866
v -8.523367 3.515834 0.573866
v -8.288552 2.963690 0.573866
v -8.288552 2.963690 0.573866
v -8.523367 3.515834 0.573866
v -8.523367 3.515834 -0.590625
v -8.288552 2.963690 -0.590625
v -8.288552 2.963690 -0.590625
v -8.523367 3.515834 -0.590625
v 4.259377 8.952060 -0.590625
v 4.687963 8.482323 -0.590625
v 4.687963 8.482323 -0.590625
v 4.259377 8.952060 -0.590625
v 4.286695 8.963677 0.573866
v 4.719411 8.495697 0.573866
v 4.286695 8.963677 0.573866
v 4.259377 8.952060 -0.590625
v -8.523367 3.515834 -0.590625
v -8.523367 3.515834 0.573866
v 4.687963 8.482323 -0.590625
v 4.719411 8.495697 0.573866
v -8.288552 2.963690 0.573866
v -8.288552 2.963690 -0.590625
vn -0.0000 -0.0000 1.0000
vn -0.9202 -0.3914 -0.0000
vn -0.0000 -0.0000 -1.0000
vn 0.7362 0.6763 -0.0259
vn 0.7362 0.6762 -0.0258
vn 0.7363 0.6762 -0.0258
vn 0.7362 0.6763 -0.0258
vn -0.3914 0.9202 -0.0000
vn 0.3914 -0.9202 -0.0000
vt 0.375000 1.000000
vt 0.625000 1.000000
vt 0.625000 0.750000
vt 0.375000 0.750000
vt 0.625000 0.500000
vt 0.375000 0.500000
vt 0.625000 0.250000
vt 0.375000 0.250000
vt 0.625000 0.000000
vt 0.375000 0.000000
vt 0.875000 1.000000
vt 0.875000 0.750000
vt 0.125000 1.000000
vt 0.125000 0.750000
s 0
usemtl aiStandardSurface1
f 503/231/439 504/232/439 505/233/439
f 503/231/439 505/233/439 506/234/439
f 507/234/440 508/233/440 509/235/440
f 507/234/440 509/235/440 510/236/440
f 511/236/441 512/235/441 513/237/441
f 511/236/441 513/237/441 514/238/441
s 1
f 515/238/442 516/237/443 517/239/444
f 515/238/442 517/239/444 518/240/445
s 0
f 519/232/446 520/241/446 521/242/446
f 519/232/446 521/242/446 522/233/446
f 523/243/447 524/231/447 525/234/447
f 523/243/447 525/234/447 526/244/447
