# Blender 5.0.1
# www.blender.org
mtllib Engranaje1.mtl
o pasted__pasted__pGear2
v -0.243362 0.091572 0.062313
v -0.252005 0.083382 0.062395
v -0.259678 0.074077 0.062418
v -0.256443 0.070366 0.062224
v -0.246183 0.076701 0.062046
v -0.236893 0.084149 0.061926
v -0.225054 0.076189 0.061352
v -0.228448 0.064776 0.061187
v -0.230445 0.052885 0.060965
v -0.225787 0.051290 0.060777
v -0.220064 0.061905 0.060848
v -0.215739 0.072999 0.060975
v -0.201502 0.072029 0.060493
v -0.198738 0.060452 0.060125
v -0.194524 0.049160 0.059717
v -0.189691 0.050108 0.059584
v -0.190039 0.062159 0.059885
v -0.191836 0.073926 0.060227
v -0.179017 0.080206 0.059965
v -0.170835 0.071567 0.059493
v -0.161539 0.063900 0.059008
v -0.157826 0.067138 0.058967
v -0.164151 0.077396 0.059417
v -0.171591 0.086682 0.059881
v -0.163623 0.098530 0.059909
v -0.152216 0.095144 0.059460
v -0.140329 0.093156 0.059029
v -0.138730 0.097816 0.059089
v -0.149339 0.103532 0.059569
v -0.160427 0.107850 0.060031
v -0.159446 0.122090 0.060342
v -0.147869 0.124864 0.060035
v -0.136577 0.129088 0.059773
v -0.137521 0.133922 0.059920
v -0.149570 0.133564 0.060300
v -0.161335 0.131757 0.060636
v -0.167604 0.144574 0.061146
v -0.158960 0.152765 0.061065
v -0.151288 0.162069 0.061041
v -0.154522 0.165781 0.061235
v -0.164783 0.159446 0.061414
v -0.174073 0.151997 0.061534
v -0.185911 0.159957 0.062107
v -0.182517 0.171370 0.062273
v -0.180520 0.183262 0.062494
v -0.185178 0.184857 0.062683
v -0.190901 0.174242 0.062612
v -0.195227 0.163148 0.062484
v -0.209463 0.164118 0.062967
v -0.212227 0.175695 0.063335
v -0.216442 0.186987 0.063743
v -0.221275 0.186038 0.063876
v -0.220927 0.173987 0.063574
v -0.219129 0.162221 0.063233
v -0.231948 0.155941 0.063495
v -0.240130 0.164579 0.063967
v -0.249426 0.172247 0.064451
v -0.253140 0.169009 0.064493
v -0.246814 0.158751 0.064042
v -0.239375 0.149464 0.063579
v -0.247342 0.137617 0.063550
v -0.258750 0.141003 0.064000
v -0.270637 0.142991 0.064431
v -0.272235 0.138331 0.064370
v -0.261627 0.132615 0.063890
v -0.250539 0.128297 0.063429
v -0.251520 0.114056 0.063118
v -0.263096 0.111282 0.063424
v -0.274389 0.107058 0.063687
v -0.273444 0.102225 0.063540
v -0.261396 0.102582 0.063160
v -0.249630 0.104390 0.062824
v -0.243619 0.091765 0.054325
v -0.252263 0.083574 0.054407
v -0.259935 0.074270 0.054430
v -0.256701 0.070558 0.054236
v -0.246440 0.076893 0.054058
v -0.237150 0.084342 0.053938
v -0.225312 0.076382 0.053364
v -0.228706 0.064969 0.053199
v -0.230703 0.053077 0.052977
v -0.226045 0.051482 0.052788
v -0.220322 0.062097 0.052859
v -0.215996 0.073191 0.052987
v -0.201760 0.072221 0.052505
v -0.198996 0.060644 0.052137
v -0.194781 0.049352 0.051729
v -0.189948 0.050301 0.051596
v -0.190296 0.062352 0.051897
v -0.192094 0.074118 0.052239
v -0.179275 0.080398 0.051976
v -0.171093 0.071760 0.051505
v -0.161797 0.064092 0.051020
v -0.158083 0.067330 0.050978
v -0.164409 0.077588 0.051429
v -0.171848 0.086875 0.051893
v -0.163881 0.098722 0.051921
v -0.152473 0.095336 0.051472
v -0.140586 0.093348 0.051041
v -0.138988 0.098008 0.051101
v -0.149596 0.103724 0.051581
v -0.160684 0.108042 0.052043
v -0.159703 0.122283 0.052354
v -0.148127 0.125057 0.052047
v -0.136834 0.129281 0.051785
v -0.137779 0.134114 0.051932
v -0.149827 0.133757 0.052312
v -0.161593 0.131949 0.052648
v -0.167861 0.144767 0.053158
v -0.159218 0.152957 0.053077
v -0.151545 0.162262 0.053053
v -0.154780 0.165973 0.053247
v -0.165040 0.159638 0.053425
v -0.174330 0.152190 0.053546
v -0.186169 0.160150 0.054119
v -0.182775 0.171563 0.054284
v -0.180778 0.183454 0.054506
v -0.185436 0.185049 0.054695
v -0.191159 0.174434 0.054624
v -0.195484 0.163340 0.054496
v -0.209721 0.164310 0.054979
v -0.212485 0.175887 0.055347
v -0.216699 0.187179 0.055754
v -0.221532 0.186231 0.055887
v -0.221184 0.174179 0.055586
v -0.219387 0.162413 0.055245
v -0.232206 0.156133 0.055507
v -0.240388 0.164772 0.055979
v -0.249684 0.172439 0.056463
v -0.253397 0.169201 0.056505
v -0.247072 0.158943 0.056054
v -0.239632 0.149657 0.055590
v -0.247600 0.137809 0.055562
v -0.259007 0.141195 0.056012
v -0.270894 0.143183 0.056443
v -0.272493 0.138523 0.056382
v -0.261884 0.132807 0.055902
v -0.250797 0.128489 0.055441
v -0.251777 0.114249 0.055130
v -0.263354 0.111475 0.055436
v -0.274647 0.107251 0.055699
v -0.273702 0.102417 0.055552
v -0.261653 0.102775 0.055172
v -0.249888 0.104582 0.054836
v -0.237193 0.097008 0.062245
v -0.230668 0.089521 0.061854
v -0.222427 0.083980 0.061455
v -0.213031 0.080762 0.061075
v -0.203121 0.080087 0.060739
v -0.193371 0.082000 0.060471
v -0.184447 0.086372 0.060288
v -0.176957 0.092904 0.060204
v -0.171410 0.101152 0.060224
v -0.168186 0.110552 0.060346
v -0.167503 0.120466 0.060563
v -0.169409 0.130216 0.060859
v -0.173772 0.139138 0.061214
v -0.180297 0.146625 0.061605
v -0.188539 0.152167 0.062004
v -0.197935 0.155385 0.062385
v -0.207845 0.156060 0.062721
v -0.217594 0.154146 0.062989
v -0.226518 0.149775 0.063171
v -0.234009 0.143242 0.063256
v -0.239555 0.134995 0.063236
v -0.242780 0.125594 0.063114
v -0.243462 0.115681 0.062897
v -0.241557 0.105931 0.062601
v -0.237451 0.097201 0.054257
v -0.230926 0.089714 0.053866
v -0.222684 0.084172 0.053467
v -0.213288 0.080954 0.053087
v -0.203378 0.080279 0.052751
v -0.193629 0.082193 0.052483
v -0.184705 0.086564 0.052300
v -0.177214 0.093097 0.052216
v -0.171668 0.101344 0.052235
v -0.168443 0.110745 0.052358
v -0.167761 0.120658 0.052575
v -0.169666 0.130408 0.052871
v -0.174030 0.139331 0.053226
v -0.180555 0.146818 0.053617
v -0.188796 0.152359 0.054016
v -0.198192 0.155577 0.054397
v -0.208103 0.156252 0.054733
v -0.217852 0.154339 0.055001
v -0.226776 0.149967 0.055183
v -0.234266 0.143435 0.055268
v -0.239813 0.135187 0.055248
v -0.243037 0.125787 0.055126
v -0.243720 0.115873 0.054909
v -0.241814 0.106123 0.054613
vn 0.0322 -0.0241 0.9992
vn -0.6871 0.7255 0.0396
vn -0.7306 0.6817 0.0400
vn -0.7708 0.6358 0.0402
vn -0.7536 -0.6572 0.0085
vn 0.5245 -0.8506 -0.0374
vn 0.5754 -0.8170 -0.0382
vn 0.6248 -0.7799 -0.0389
vn -0.5580 -0.8298 -0.0020
vn -0.9580 0.2844 0.0377
vn -0.9738 0.2245 0.0368
vn -0.9857 0.1648 0.0358
vn -0.3244 -0.9458 -0.0123
vn 0.8796 -0.4740 -0.0398
vn 0.9069 -0.4195 -0.0393
vn 0.9311 -0.3626 -0.0388
vn -0.0687 -0.9974 -0.0218
vn -0.9721 -0.2329 0.0257
vn -0.9559 -0.2926 0.0238
vn -0.9364 -0.3502 0.0218
vn 0.1917 -0.9810 -0.0298
vn 0.9991 0.0296 -0.0315
vn 0.9954 0.0909 -0.0299
vn 0.9880 0.1518 -0.0282
vn 0.4391 -0.8977 -0.0358
vn -0.7258 -0.6878 0.0068
vn -0.6823 -0.7310 0.0044
vn -0.6362 -0.7715 0.0019
vn 0.6565 -0.7533 -0.0393
vn 0.8508 0.5253 -0.0148
vn 0.8172 0.5762 -0.0125
vn 0.7802 0.6255 -0.0101
vn 0.8292 -0.5575 -0.0402
vn -0.2850 -0.9584 -0.0139
vn -0.2254 -0.9741 -0.0162
vn -0.1656 -0.9860 -0.0184
vn 0.9454 -0.3238 -0.0383
vn 0.4746 0.8802 0.0059
vn 0.4201 0.9074 0.0083
vn 0.3633 0.9316 0.0107
vn 0.9971 -0.0679 -0.0338
vn 0.2321 -0.9722 -0.0309
vn 0.2918 -0.9559 -0.0324
vn 0.3494 -0.9363 -0.0338
vn 0.9809 0.1925 -0.0270
vn -0.0288 0.9993 0.0250
vn -0.0897 0.9956 0.0269
vn -0.1510 0.9881 0.0287
vn 0.8979 0.4399 -0.0184
vn 0.6871 -0.7255 -0.0396
vn 0.7303 -0.6819 -0.0400
vn 0.7708 -0.6358 -0.0402
vn 0.7536 0.6572 -0.0085
vn -0.5245 0.8506 0.0374
vn -0.5754 0.8170 0.0382
vn -0.6248 0.7799 0.0389
vn 0.5580 0.8298 0.0020
vn 0.9580 -0.2844 -0.0377
vn 0.9738 -0.2245 -0.0368
vn 0.9857 -0.1648 -0.0358
vn 0.3244 0.9458 0.0123
vn -0.8796 0.4740 0.0398
vn -0.9069 0.4194 0.0393
vn -0.9311 0.3626 0.0388
vn 0.0687 0.9974 0.0218
vn 0.9721 0.2329 -0.0257
vn 0.9559 0.2926 -0.0238
vn 0.9364 0.3502 -0.0218
vn -0.1917 0.9810 0.0298
vn -0.9991 -0.0296 0.0315
vn -0.9955 -0.0904 0.0299
vn -0.9880 -0.1518 0.0282
vn -0.4391 0.8977 0.0358
vn 0.7258 0.6878 -0.0068
vn 0.6821 0.7313 -0.0044
vn 0.6362 0.7715 -0.0019
vn -0.6565 0.7533 0.0393
vn -0.8508 -0.5253 0.0148
vn -0.8170 -0.5765 0.0125
vn -0.7802 -0.6255 0.0101
vn -0.8292 0.5575 0.0402
vn 0.2850 0.9584 0.0139
vn 0.2254 0.9741 0.0162
vn 0.1656 0.9860 0.0184
vn -0.9454 0.3238 0.0383
vn -0.4746 -0.8802 -0.0059
vn -0.4201 -0.9074 -0.0083
vn -0.3633 -0.9316 -0.0107
vn -0.9971 0.0679 0.0338
vn -0.2321 0.9722 0.0309
vn -0.2917 0.9560 0.0324
vn -0.3494 0.9363 0.0338
vn -0.9809 -0.1925 0.0270
vn 0.0288 -0.9993 -0.0250
vn 0.0901 -0.9956 -0.0269
vn 0.1510 -0.9881 -0.0287
vn -0.8979 -0.4399 0.0184
vn -0.0322 0.0241 -0.9992
vn 0.8329 0.5533 -0.0135
vn 0.6615 0.7499 -0.0033
vn 0.4450 0.8955 0.0072
vn 0.1983 0.9800 0.0172
vn -0.0620 0.9977 0.0260
vn -0.3181 0.9475 0.0331
vn -0.5525 0.8326 0.0379
vn -0.7492 0.6611 0.0401
vn -0.8949 0.4445 0.0396
vn -0.9796 0.1975 0.0363
vn -0.9976 -0.0628 0.0307
vn -0.9475 -0.3189 0.0229
vn -0.8329 -0.5533 0.0135
vn -0.6615 -0.7499 0.0033
vn -0.4450 -0.8955 -0.0072
vn -0.1983 -0.9800 -0.0172
vn 0.0620 -0.9977 -0.0260
vn 0.3181 -0.9475 -0.0331
vn 0.5525 -0.8326 -0.0379
vn 0.7492 -0.6611 -0.0401
vn 0.8949 -0.4445 -0.0396
vn 0.9796 -0.1975 -0.0363
vn 0.9976 0.0628 -0.0307
vn 0.9475 0.3189 -0.0229
vt 0.232745 0.589012
vt 0.234471 0.547346
vt 0.265529 0.547346
vt 0.267255 0.589012
vt 0.241373 0.505679
vt 0.258627 0.505679
vt 0.315551 0.601953
vt 0.337879 0.566732
vt 0.364776 0.582261
vt 0.345437 0.619208
vt 0.364689 0.534098
vt 0.379632 0.542726
vt 0.380792 0.654563
vt 0.417739 0.635224
vt 0.433268 0.662121
vt 0.398047 0.684449
vt 0.457275 0.620368
vt 0.465902 0.635311
vt 0.410988 0.732745
vt 0.452654 0.734471
vt 0.452654 0.765529
vt 0.410988 0.767255
vt 0.494321 0.741373
vt 0.494321 0.758627
vt 0.398047 0.815551
vt 0.433268 0.837879
vt 0.417739 0.864776
vt 0.380792 0.845437
vt 0.465902 0.864689
vt 0.457275 0.879632
vt 0.345437 0.880792
vt 0.364776 0.917739
vt 0.337879 0.933268
vt 0.315551 0.898047
vt 0.379632 0.957275
vt 0.364689 0.965902
vt 0.267255 0.910988
vt 0.265529 0.952654
vt 0.234471 0.952654
vt 0.232745 0.910988
vt 0.258627 0.994321
vt 0.241373 0.994321
vt 0.184449 0.898047
vt 0.162121 0.933268
vt 0.135224 0.917739
vt 0.154563 0.880792
vt 0.135311 0.965902
vt 0.120368 0.957274
vt 0.119208 0.845437
vt 0.082261 0.864776
vt 0.066732 0.837879
vt 0.101953 0.815551
vt 0.042725 0.879632
vt 0.034098 0.864689
vt 0.089012 0.767255
vt 0.047346 0.765529
vt 0.047346 0.734471
vt 0.089012 0.732745
vt 0.005679 0.758627
vt 0.005679 0.741373
vt 0.101953 0.684449
vt 0.066732 0.662121
vt 0.082261 0.635224
vt 0.119208 0.654563
vt 0.034098 0.635311
vt 0.042725 0.620368
vt 0.154563 0.619208
vt 0.135224 0.582261
vt 0.162121 0.566732
vt 0.184449 0.601953
vt 0.120368 0.542725
vt 0.135311 0.534098
vt 0.500000 1.000000
vt 0.500000 0.500000
vt 0.507390 0.500000
vt 0.507390 1.000000
vt 0.514874 0.500000
vt 0.514874 1.000000
vt 0.517932 0.500000
vt 0.517932 1.000000
vt 0.525416 0.500000
vt 0.525416 1.000000
vt 0.532806 0.500000
vt 0.532806 1.000000
vt 0.541667 0.500000
vt 0.541667 1.000000
vt 0.549057 0.500000
vt 0.549057 1.000000
vt 0.556541 0.500000
vt 0.556541 1.000000
vt 0.559599 0.500000
vt 0.559599 1.000000
vt 0.567083 0.500000
vt 0.567083 1.000000
vt 0.574473 0.500000
vt 0.574473 1.000000
vt 0.583333 0.500000
vt 0.583333 1.000000
vt 0.590723 0.500000
vt 0.590723 1.000000
vt 0.598208 0.500000
vt 0.598208 1.000000
vt 0.601265 0.500000
vt 0.601265 1.000000
vt 0.608750 0.500000
vt 0.608750 1.000000
vt 0.616140 0.500000
vt 0.616140 1.000000
vt 0.625000 0.500000
vt 0.625000 1.000000
vt 0.632390 0.500000
vt 0.632390 1.000000
vt 0.639874 0.500000
vt 0.639874 1.000000
vt 0.642932 0.500000
vt 0.642932 1.000000
vt 0.650416 0.500000
vt 0.650416 1.000000
vt 0.657806 0.500000
vt 0.657806 1.000000
vt 0.666667 0.500000
vt 0.666667 1.000000
vt 0.674057 0.500000
vt 0.674057 1.000000
vt 0.681541 0.500000
vt 0.681541 1.000000
vt 0.684599 0.500000
vt 0.684599 1.000000
vt 0.692083 0.500000
vt 0.692083 1.000000
vt 0.699473 0.500000
vt 0.699473 1.000000
vt 0.708333 0.500000
vt 0.708333 1.000000
vt 0.715723 0.500000
vt 0.715723 1.000000
vt 0.723208 0.500000
vt 0.723208 1.000000
vt 0.726265 0.500000
vt 0.726265 1.000000
vt 0.733750 0.500000
vt 0.733750 1.000000
vt 0.741140 0.500000
vt 0.741140 1.000000
vt 0.750000 0.500000
vt 0.750000 1.000000
vt 0.757390 0.500000
vt 0.757390 1.000000
vt 0.764874 0.500000
vt 0.764874 1.000000
vt 0.767932 0.500000
vt 0.767932 1.000000
vt 0.775416 0.500000
vt 0.775416 1.000000
vt 0.782806 0.500000
vt 0.782806 1.000000
vt 0.791667 0.500000
vt 0.791667 1.000000
vt 0.799057 0.500000
vt 0.799057 1.000000
vt 0.806541 0.500000
vt 0.806541 1.000000
vt 0.809599 0.500000
vt 0.809599 1.000000
vt 0.817083 0.500000
vt 0.817083 1.000000
vt 0.824473 0.500000
vt 0.824473 1.000000
vt 0.833333 0.500000
vt 0.833333 1.000000
vt 0.840723 0.500000
vt 0.840723 1.000000
vt 0.848208 0.500000
vt 0.848208 1.000000
vt 0.851265 0.500000
vt 0.851265 1.000000
vt 0.858750 0.500000
vt 0.858750 1.000000
vt 0.866140 0.500000
vt 0.866140 1.000000
vt 0.875000 0.500000
vt 0.875000 1.000000
vt 0.882390 0.500000
vt 0.882390 1.000000
vt 0.889874 0.500000
vt 0.889874 1.000000
vt 0.892932 0.500000
vt 0.892932 1.000000
vt 0.900416 0.500000
vt 0.900416 1.000000
vt 0.907806 0.500000
vt 0.907806 1.000000
vt 0.916667 0.500000
vt 0.916667 1.000000
vt 0.924057 0.500000
vt 0.924057 1.000000
vt 0.931541 0.500000
vt 0.931541 1.000000
vt 0.934599 0.500000
vt 0.934599 1.000000
vt 0.942083 0.500000
vt 0.942083 1.000000
vt 0.949473 0.500000
vt 0.949473 1.000000
vt 0.958333 0.500000
vt 0.958333 1.000000
vt 0.965723 0.500000
vt 0.965723 1.000000
vt 0.973208 0.500000
vt 0.973208 1.000000
vt 0.976265 0.500000
vt 0.976265 1.000000
vt 0.983750 0.500000
vt 0.983750 1.000000
vt 0.991140 0.500000
vt 0.991140 1.000000
vt 1.000000 0.500000
vt 1.000000 1.000000
vt 0.267255 0.410988
vt 0.265529 0.452654
vt 0.234471 0.452654
vt 0.232745 0.410988
vt 0.258627 0.494321
vt 0.241373 0.494321
vt 0.345437 0.380792
vt 0.364776 0.417739
vt 0.337879 0.433268
vt 0.315551 0.398047
vt 0.379632 0.457275
vt 0.364689 0.465902
vt 0.398047 0.315551
vt 0.433268 0.337879
vt 0.417739 0.364776
vt 0.380792 0.345437
vt 0.465902 0.364689
vt 0.457275 0.379632
vt 0.410988 0.232745
vt 0.452654 0.234471
vt 0.452654 0.265529
vt 0.410988 0.267255
vt 0.494321 0.241373
vt 0.494321 0.258627
vt 0.380792 0.154563
vt 0.417739 0.135224
vt 0.433268 0.162121
vt 0.398047 0.184449
vt 0.457275 0.120368
vt 0.465902 0.135311
vt 0.315551 0.101953
vt 0.337879 0.066732
vt 0.364776 0.082261
vt 0.345437 0.119208
vt 0.364689 0.034098
vt 0.379632 0.042725
vt 0.232745 0.089012
vt 0.234471 0.047346
vt 0.265529 0.047346
vt 0.267255 0.089012
vt 0.241373 0.005679
vt 0.258627 0.005679
vt 0.154563 0.119208
vt 0.135224 0.082261
vt 0.162121 0.066732
vt 0.184449 0.101953
vt 0.120368 0.042726
vt 0.135311 0.034098
vt 0.101953 0.184449
vt 0.066732 0.162121
vt 0.082261 0.135224
vt 0.119208 0.154563
vt 0.034098 0.135311
vt 0.042725 0.120368
vt 0.089012 0.267255
vt 0.047346 0.265529
vt 0.047346 0.234471
vt 0.089012 0.232745
vt 0.005679 0.258627
vt 0.005679 0.241373
vt 0.119208 0.345437
vt 0.082261 0.364776
vt 0.066732 0.337879
vt 0.101953 0.315551
vt 0.042725 0.379632
vt 0.034098 0.364689
vt 0.184449 0.398047
vt 0.162121 0.433268
vt 0.135224 0.417739
vt 0.154563 0.380792
vt 0.135311 0.465902
vt 0.120368 0.457275
vt 0.520833 0.500000
vt 0.520833 0.000000
vt 0.500000 0.000000
vt 0.541667 0.000000
vt 0.562500 0.500000
vt 0.562500 0.000000
vt 0.583333 0.500000
vt 0.583333 0.000000
vt 0.604167 0.500000
vt 0.604167 0.000000
vt 0.625000 0.000000
vt 0.645833 0.500000
vt 0.645833 0.000000
vt 0.666667 0.000000
vt 0.687500 0.500000
vt 0.687500 0.000000
vt 0.708333 0.000000
vt 0.729167 0.500000
vt 0.729167 0.000000
vt 0.750000 0.000000
vt 0.770833 0.500000
vt 0.770833 0.000000
vt 0.791667 0.500000
vt 0.791667 0.000000
vt 0.812500 0.500000
vt 0.812500 0.000000
vt 0.833333 0.000000
vt 0.854167 0.500000
vt 0.854167 0.000000
vt 0.875000 0.000000
vt 0.895833 0.500000
vt 0.895833 0.000000
vt 0.916667 0.000000
vt 0.937500 0.500000
vt 0.937500 0.000000
vt 0.958333 0.500000
vt 0.958333 0.000000
vt 0.979167 0.500000
vt 0.979167 0.000000
vt 1.000000 0.000000
vt 0.232597 0.617807
vt 0.267403 0.617807
vt 0.301024 0.626816
vt 0.267403 0.382193
vt 0.232597 0.382193
vt 0.301024 0.373184
vt 0.331168 0.644220
vt 0.355780 0.668832
vt 0.331168 0.355780
vt 0.355780 0.331168
vt 0.373184 0.698976
vt 0.382193 0.732597
vt 0.373184 0.301024
vt 0.382193 0.267403
vt 0.382193 0.767403
vt 0.373184 0.801024
vt 0.382193 0.232596
vt 0.373184 0.198976
vt 0.355780 0.831168
vt 0.331168 0.855780
vt 0.355780 0.168832
vt 0.331168 0.144220
vt 0.301024 0.873184
vt 0.267403 0.882193
vt 0.301024 0.126816
vt 0.267403 0.117807
vt 0.232597 0.882193
vt 0.198976 0.873184
vt 0.232597 0.117807
vt 0.198976 0.126816
vt 0.168832 0.855780
vt 0.144220 0.831168
vt 0.168832 0.144220
vt 0.144220 0.168832
vt 0.126816 0.801024
vt 0.117807 0.767403
vt 0.126816 0.198976
vt 0.117807 0.232597
vt 0.117807 0.732597
vt 0.126816 0.698976
vt 0.117807 0.267403
vt 0.126816 0.301024
vt 0.144220 0.668832
vt 0.168832 0.644220
vt 0.144220 0.331168
vt 0.168832 0.355780
vt 0.198976 0.626816
vt 0.198976 0.373184
s 1
usemtl RojoOscuro.001
f 1/1/1 2/2/1 5/3/1 6/4/1
f 2/2/1 3/5/1 4/6/1 5/3/1
f 7/7/1 8/8/1 11/9/1 12/10/1
f 8/8/1 9/11/1 10/12/1 11/9/1
f 13/13/1 14/14/1 17/15/1 18/16/1
f 14/14/1 15/17/1 16/18/1 17/15/1
f 19/19/1 20/20/1 23/21/1 24/22/1
f 20/20/1 21/23/1 22/24/1 23/21/1
f 25/25/1 26/26/1 29/27/1 30/28/1
f 26/26/1 27/29/1 28/30/1 29/27/1
f 31/31/1 32/32/1 35/33/1 36/34/1
f 32/32/1 33/35/1 34/36/1 35/33/1
f 37/37/1 38/38/1 41/39/1 42/40/1
f 38/38/1 39/41/1 40/42/1 41/39/1
f 43/43/1 44/44/1 47/45/1 48/46/1
f 44/44/1 45/47/1 46/48/1 47/45/1
f 49/49/1 50/50/1 53/51/1 54/52/1
f 50/50/1 51/53/1 52/54/1 53/51/1
f 55/55/1 56/56/1 59/57/1 60/58/1
f 56/56/1 57/59/1 58/60/1 59/57/1
f 61/61/1 62/62/1 65/63/1 66/64/1
f 62/62/1 63/65/1 64/66/1 65/63/1
f 67/67/1 68/68/1 71/69/1 72/70/1
f 68/68/1 69/71/1 70/72/1 71/69/1
f 78/219/98 77/220/98 74/221/98 73/222/98
f 77/220/98 76/223/98 75/224/98 74/221/98
f 84/225/98 83/226/98 80/227/98 79/228/98
f 83/226/98 82/229/98 81/230/98 80/227/98
f 90/231/98 89/232/98 86/233/98 85/234/98
f 89/232/98 88/235/98 87/236/98 86/233/98
f 96/237/98 95/238/98 92/239/98 91/240/98
f 95/238/98 94/241/98 93/242/98 92/239/98
f 102/243/98 101/244/98 98/245/98 97/246/98
f 101/244/98 100/247/98 99/248/98 98/245/98
f 108/249/98 107/250/98 104/251/98 103/252/98
f 107/250/98 106/253/98 105/254/98 104/251/98
f 114/255/98 113/256/98 110/257/98 109/258/98
f 113/256/98 112/259/98 111/260/98 110/257/98
f 120/261/98 119/262/98 116/263/98 115/264/98
f 119/262/98 118/265/98 117/266/98 116/263/98
f 126/267/98 125/268/98 122/269/98 121/270/98
f 125/268/98 124/271/98 123/272/98 122/269/98
f 132/273/98 131/274/98 128/275/98 127/276/98
f 131/274/98 130/277/98 129/278/98 128/275/98
f 138/279/98 137/280/98 134/281/98 133/282/98
f 137/280/98 136/283/98 135/284/98 134/281/98
f 144/285/98 143/286/98 140/287/98 139/288/98
f 143/286/98 142/289/98 141/290/98 140/287/98
f 145/331/1 1/1/1 6/4/1 146/332/1
f 146/332/1 6/4/1 7/7/1 147/333/1
f 170/334/98 78/219/98 73/222/98 169/335/98
f 171/336/98 79/228/98 78/219/98 170/334/98
f 147/333/1 7/7/1 12/10/1 148/337/1
f 148/337/1 12/10/1 13/13/1 149/338/1
f 172/339/98 84/225/98 79/228/98 171/336/98
f 173/340/98 85/234/98 84/225/98 172/339/98
f 149/338/1 13/13/1 18/16/1 150/341/1
f 150/341/1 18/16/1 19/19/1 151/342/1
f 174/343/98 90/231/98 85/234/98 173/340/98
f 175/344/98 91/240/98 90/231/98 174/343/98
f 151/342/1 19/19/1 24/22/1 152/345/1
f 152/345/1 24/22/1 25/25/1 153/346/1
f 176/347/98 96/237/98 91/240/98 175/344/98
f 177/348/98 97/246/98 96/237/98 176/347/98
f 153/346/1 25/25/1 30/28/1 154/349/1
f 154/349/1 30/28/1 31/31/1 155/350/1
f 178/351/98 102/243/98 97/246/98 177/348/98
f 179/352/98 103/252/98 102/243/98 178/351/98
f 155/350/1 31/31/1 36/34/1 156/353/1
f 156/353/1 36/34/1 37/37/1 157/354/1
f 180/355/98 108/249/98 103/252/98 179/352/98
f 181/356/98 109/258/98 108/249/98 180/355/98
f 157/354/1 37/37/1 42/40/1 158/357/1
f 158/357/1 42/40/1 43/43/1 159/358/1
f 182/359/98 114/255/98 109/258/98 181/356/98
f 183/360/98 115/264/98 114/255/98 182/359/98
f 159/358/1 43/43/1 48/46/1 160/361/1
f 160/361/1 48/46/1 49/49/1 161/362/1
f 184/363/98 120/261/98 115/264/98 183/360/98
f 185/364/98 121/270/98 120/261/98 184/363/98
f 161/362/1 49/49/1 54/52/1 162/365/1
f 162/365/1 54/52/1 55/55/1 163/366/1
f 186/367/98 126/267/98 121/270/98 185/364/98
f 187/368/98 127/276/98 126/267/98 186/367/98
f 163/366/1 55/55/1 60/58/1 164/369/1
f 164/369/1 60/58/1 61/61/1 165/370/1
f 188/371/98 132/273/98 127/276/98 187/368/98
f 189/372/98 133/282/98 132/273/98 188/371/98
f 165/370/1 61/61/1 66/64/1 166/373/1
f 166/373/1 66/64/1 67/67/1 167/374/1
f 190/375/98 138/279/98 133/282/98 189/372/98
f 191/376/98 139/288/98 138/279/98 190/375/98
f 167/374/1 67/67/1 72/70/1 168/377/1
f 168/377/1 72/70/1 1/1/1 145/331/1
f 192/378/98 144/285/98 139/288/98 191/376/98
f 169/335/98 73/222/98 144/285/98 192/378/98
usemtl LaminaMetal.001
f 1/73/2 73/74/2 74/75/3 2/76/3
f 2/76/3 74/75/3 75/77/4 3/78/4
f 3/78/5 75/77/5 76/79/5 4/80/5
f 4/80/6 76/79/6 77/81/7 5/82/7
f 5/82/7 77/81/7 78/83/8 6/84/8
f 6/84/9 78/83/9 79/85/9 7/86/9
f 7/86/10 79/85/10 80/87/11 8/88/11
f 8/88/11 80/87/11 81/89/12 9/90/12
f 9/90/13 81/89/13 82/91/13 10/92/13
f 10/92/14 82/91/14 83/93/15 11/94/15
f 11/94/15 83/93/15 84/95/16 12/96/16
f 12/96/17 84/95/17 85/97/17 13/98/17
f 13/98/18 85/97/18 86/99/19 14/100/19
f 14/100/19 86/99/19 87/101/20 15/102/20
f 15/102/21 87/101/21 88/103/21 16/104/21
f 16/104/22 88/103/22 89/105/23 17/106/23
f 17/106/23 89/105/23 90/107/24 18/108/24
f 18/108/25 90/107/25 91/109/25 19/110/25
f 19/110/26 91/109/26 92/111/27 20/112/27
f 20/112/27 92/111/27 93/113/28 21/114/28
f 21/114/29 93/113/29 94/115/29 22/116/29
f 22/116/30 94/115/30 95/117/31 23/118/31
f 23/118/31 95/117/31 96/119/32 24/120/32
f 24/120/33 96/119/33 97/121/33 25/122/33
f 25/122/34 97/121/34 98/123/35 26/124/35
f 26/124/35 98/123/35 99/125/36 27/126/36
f 27/126/37 99/125/37 100/127/37 28/128/37
f 28/128/38 100/127/38 101/129/39 29/130/39
f 29/130/39 101/129/39 102/131/40 30/132/40
f 30/132/41 102/131/41 103/133/41 31/134/41
f 31/134/42 103/133/42 104/135/43 32/136/43
f 32/136/43 104/135/43 105/137/44 33/138/44
f 33/138/45 105/137/45 106/139/45 34/140/45
f 34/140/46 106/139/46 107/141/47 35/142/47
f 35/142/47 107/141/47 108/143/48 36/144/48
f 36/144/49 108/143/49 109/145/49 37/146/49
f 37/146/50 109/145/50 110/147/51 38/148/51
f 38/148/51 110/147/51 111/149/52 39/150/52
f 39/150/53 111/149/53 112/151/53 40/152/53
f 40/152/54 112/151/54 113/153/55 41/154/55
f 41/154/55 113/153/55 114/155/56 42/156/56
f 42/156/57 114/155/57 115/157/57 43/158/57
f 43/158/58 115/157/58 116/159/59 44/160/59
f 44/160/59 116/159/59 117/161/60 45/162/60
f 45/162/61 117/161/61 118/163/61 46/164/61
f 46/164/62 118/163/62 119/165/63 47/166/63
f 47/166/63 119/165/63 120/167/64 48/168/64
f 48/168/65 120/167/65 121/169/65 49/170/65
f 49/170/66 121/169/66 122/171/67 50/172/67
f 50/172/67 122/171/67 123/173/68 51/174/68
f 51/174/69 123/173/69 124/175/69 52/176/69
f 52/176/70 124/175/70 125/177/71 53/178/71
f 53/178/71 125/177/71 126/179/72 54/180/72
f 54/180/73 126/179/73 127/181/73 55/182/73
f 55/182/74 127/181/74 128/183/75 56/184/75
f 56/184/75 128/183/75 129/185/76 57/186/76
f 57/186/77 129/185/77 130/187/77 58/188/77
f 58/188/78 130/187/78 131/189/79 59/190/79
f 59/190/79 131/189/79 132/191/80 60/192/80
f 60/192/81 132/191/81 133/193/81 61/194/81
f 61/194/82 133/193/82 134/195/83 62/196/83
f 62/196/83 134/195/83 135/197/84 63/198/84
f 63/198/85 135/197/85 136/199/85 64/200/85
f 64/200/86 136/199/86 137/201/87 65/202/87
f 65/202/87 137/201/87 138/203/88 66/204/88
f 66/204/89 138/203/89 139/205/89 67/206/89
f 67/206/90 139/205/90 140/207/91 68/208/91
f 68/208/91 140/207/91 141/209/92 69/210/92
f 69/210/93 141/209/93 142/211/93 70/212/93
f 70/212/94 142/211/94 143/213/95 71/214/95
f 71/214/95 143/213/95 144/215/96 72/216/96
f 72/216/97 144/215/97 73/217/97 1/218/97
f 145/74/99 146/291/100 170/292/100 169/293/99
f 146/291/100 147/85/101 171/294/101 170/292/100
f 147/85/101 148/295/102 172/296/102 171/294/101
f 148/295/102 149/297/103 173/298/103 172/296/102
f 149/297/103 150/299/104 174/300/104 173/298/103
f 150/299/104 151/109/105 175/301/105 174/300/104
f 151/109/105 152/302/106 176/303/106 175/301/105
f 152/302/106 153/121/107 177/304/107 176/303/106
f 153/121/107 154/305/108 178/306/108 177/304/107
f 154/305/108 155/133/109 179/307/109 178/306/108
f 155/133/109 156/308/110 180/309/110 179/307/109
f 156/308/110 157/145/111 181/310/111 180/309/110
f 157/145/111 158/311/112 182/312/112 181/310/111
f 158/311/112 159/313/113 183/314/113 182/312/112
f 159/313/113 160/315/114 184/316/114 183/314/113
f 160/315/114 161/169/115 185/317/115 184/316/114
f 161/169/115 162/318/116 186/319/116 185/317/115
f 162/318/116 163/181/117 187/320/117 186/319/116
f 163/181/117 164/321/118 188/322/118 187/320/117
f 164/321/118 165/193/119 189/323/119 188/322/118
f 165/193/119 166/324/120 190/325/120 189/323/119
f 166/324/120 167/326/121 191/327/121 190/325/120
f 167/326/121 168/328/122 192/329/122 191/327/121
f 168/328/122 145/217/99 169/330/99 192/329/122
o pasted__pasted__pCube19
v -0.210866 0.123349 0.061107
v -0.199489 0.122574 0.060721
v -0.208183 0.162307 0.061958
v -0.196806 0.161532 0.061573
v -0.208381 0.162455 0.055814
v -0.197004 0.161680 0.055429
v -0.211064 0.123497 0.054963
v -0.199687 0.122722 0.054577
vn 0.0322 -0.0241 0.9992
vn 0.0687 0.9974 0.0218
vn -0.0322 0.0241 -0.9992
vn -0.0687 -0.9974 -0.0218
vn 0.9971 -0.0679 -0.0338
vn -0.9971 0.0679 0.0338
vt 0.375000 0.000000
vt 0.625000 0.000000
vt 0.625000 0.250000
vt 0.375000 0.250000
vt 0.625000 0.500000
vt 0.375000 0.500000
vt 0.625000 0.750000
vt 0.375000 0.750000
vt 0.625000 1.000000
vt 0.375000 1.000000
vt 0.875000 0.000000
vt 0.875000 0.250000
vt 0.125000 0.000000
vt 0.125000 0.250000
s 1
usemtl blinn7.001
f 193/379/123 194/380/123 196/381/123 195/382/123
f 195/382/124 196/381/124 198/383/124 197/384/124
f 197/384/125 198/383/125 200/385/125 199/386/125
f 199/386/126 200/385/126 194/387/126 193/388/126
f 194/380/127 200/389/127 198/390/127 196/381/127
f 199/391/128 193/379/128 195/382/128 197/392/128
o pasted__pasted__pCube22
v -0.210769 0.112737 0.060848
v -0.209985 0.124117 0.061097
v -0.249716 0.115390 0.062168
v -0.248933 0.126771 0.062417
v -0.249915 0.115538 0.056024
v -0.249131 0.126918 0.056273
v -0.210967 0.112885 0.054704
v -0.210183 0.124265 0.054953
vn 0.0322 -0.0241 0.9992
vn -0.9971 0.0679 0.0338
vn -0.0322 0.0241 -0.9992
vn 0.9971 -0.0679 -0.0338
vn 0.0687 0.9974 0.0218
vn -0.0687 -0.9974 -0.0218
vt 0.375000 0.000000
vt 0.625000 0.000000
vt 0.625000 0.250000
vt 0.375000 0.250000
vt 0.625000 0.500000
vt 0.375000 0.500000
vt 0.625000 0.750000
vt 0.375000 0.750000
vt 0.625000 1.000000
vt 0.375000 1.000000
vt 0.875000 0.000000
vt 0.875000 0.250000
vt 0.125000 0.000000
vt 0.125000 0.250000
s 1
usemtl blinn7.001
f 201/393/129 202/394/129 204/395/129 203/396/129
f 203/396/130 204/395/130 206/397/130 205/398/130
f 205/398/131 206/397/131 208/399/131 207/400/131
f 207/400/132 208/399/132 202/401/132 201/402/132
f 202/394/133 208/403/133 206/404/133 204/395/133
f 207/405/134 201/393/134 203/396/134 205/406/134
o pasted__pasted__pCube21
v -0.200159 0.112842 0.060509
v -0.211536 0.113617 0.060894
v -0.202842 0.073884 0.059657
v -0.214219 0.074659 0.060043
v -0.203040 0.074031 0.053513
v -0.214417 0.074807 0.053899
v -0.200357 0.112990 0.054365
v -0.211734 0.113765 0.054750
vn 0.0322 -0.0241 0.9992
vn -0.0687 -0.9974 -0.0218
vn -0.0322 0.0241 -0.9992
vn 0.0687 0.9974 0.0218
vn -0.9971 0.0679 0.0338
vn 0.9971 -0.0679 -0.0338
vt 0.375000 0.000000
vt 0.625000 0.000000
vt 0.625000 0.250000
vt 0.375000 0.250000
vt 0.625000 0.500000
vt 0.375000 0.500000
vt 0.625000 0.750000
vt 0.375000 0.750000
vt 0.625000 1.000000
vt 0.375000 1.000000
vt 0.875000 0.000000
vt 0.875000 0.250000
vt 0.125000 0.000000
vt 0.125000 0.250000
s 1
usemtl blinn7.001
f 209/407/135 210/408/135 212/409/135 211/410/135
f 211/410/136 212/409/136 214/411/136 213/412/136
f 213/412/137 214/411/137 216/413/137 215/414/137
f 215/414/138 216/413/138 210/415/138 209/416/138
f 210/408/139 216/417/139 214/418/139 212/409/139
f 215/419/140 209/407/140 211/410/140 213/420/140
o pasted__pasted__pCube20
v -0.200256 0.123454 0.060767
v -0.201040 0.112074 0.060519
v -0.161309 0.120801 0.059447
v -0.162092 0.109420 0.059199
v -0.161507 0.120948 0.053303
v -0.162290 0.109568 0.053055
v -0.200454 0.123602 0.054623
v -0.201238 0.112222 0.054375
vn 0.0322 -0.0241 0.9992
vn 0.9971 -0.0679 -0.0338
vn -0.0322 0.0241 -0.9992
vn -0.9971 0.0679 0.0338
vn -0.0687 -0.9974 -0.0218
vn 0.0687 0.9974 0.0218
vt 0.375000 0.000000
vt 0.625000 0.000000
vt 0.625000 0.250000
vt 0.375000 0.250000
vt 0.625000 0.500000
vt 0.375000 0.500000
vt 0.625000 0.750000
vt 0.375000 0.750000
vt 0.625000 1.000000
vt 0.375000 1.000000
vt 0.875000 0.000000
vt 0.875000 0.250000
vt 0.125000 0.000000
vt 0.125000 0.250000
s 1
usemtl blinn7.001
f 217/421/141 218/422/141 220/423/141 219/424/141
f 219/424/142 220/423/142 222/425/142 221/426/142
f 221/426/143 222/425/143 224/427/143 223/428/143
f 223/428/144 224/427/144 218/429/144 217/430/144
f 218/422/145 224/431/145 222/432/145 220/423/145
f 223/433/146 217/421/146 219/424/146 221/434/146
