# Blender 5.0.1
# www.blender.org
mtllib Engranajeatras1.mtl
o pasted__pGear2.001
v -0.260476 0.187426 -0.027122
v -0.260736 0.180512 -0.027115
v -0.259764 0.173478 -0.027104
v -0.255659 0.173077 -0.027087
v -0.253347 0.179792 -0.027085
v -0.252266 0.186626 -0.027088
v -0.239972 0.186812 -0.027040
v -0.238686 0.180013 -0.027028
v -0.236173 0.173371 -0.027011
v -0.232082 0.173894 -0.026996
v -0.231322 0.180955 -0.027000
v -0.231790 0.187859 -0.027009
v -0.219845 0.190775 -0.026966
v -0.217079 0.184433 -0.026948
v -0.213151 0.178517 -0.026926
v -0.209279 0.179937 -0.026913
v -0.210109 0.186990 -0.026923
v -0.212101 0.193616 -0.026938
v -0.201104 0.199117 -0.026901
v -0.196996 0.193550 -0.026879
v -0.191850 0.188656 -0.026853
v -0.188391 0.190903 -0.026842
v -0.190770 0.197594 -0.026859
v -0.194187 0.203611 -0.026878
v -0.184690 0.211421 -0.026849
v -0.179446 0.206907 -0.026824
v -0.173340 0.203281 -0.026796
v -0.170468 0.206241 -0.026788
v -0.174276 0.212235 -0.026809
v -0.178946 0.217341 -0.026833
v -0.171425 0.227069 -0.026814
v -0.165308 0.223835 -0.026786
v -0.158548 0.221659 -0.026757
v -0.156407 0.225184 -0.026753
v -0.161453 0.230180 -0.026778
v -0.167142 0.234119 -0.026804
v -0.161975 0.245276 -0.026796
v -0.155291 0.243484 -0.026768
v -0.148217 0.242867 -0.026739
v -0.146913 0.246780 -0.026738
v -0.152945 0.250528 -0.026766
v -0.159368 0.253102 -0.026794
v -0.156812 0.265129 -0.026797
v -0.149898 0.264870 -0.026769
v -0.142864 0.265842 -0.026743
v -0.142464 0.269947 -0.026745
v -0.149178 0.272259 -0.026774
v -0.156012 0.273339 -0.026802
v -0.156198 0.285634 -0.026816
v -0.149399 0.286920 -0.026790
v -0.142757 0.289433 -0.026767
v -0.143280 0.293524 -0.026773
v -0.150341 0.294284 -0.026802
v -0.157244 0.293816 -0.026829
v -0.160161 0.305761 -0.026853
v -0.153818 0.308527 -0.026831
v -0.147902 0.312455 -0.026812
v -0.149323 0.316327 -0.026821
v -0.156376 0.315497 -0.026848
v -0.163002 0.313505 -0.026872
v -0.168503 0.324502 -0.026905
v -0.162935 0.328610 -0.026888
v -0.158042 0.333756 -0.026874
v -0.160288 0.337215 -0.026886
v -0.166979 0.334836 -0.026910
v -0.172996 0.331419 -0.026930
v -0.180806 0.340916 -0.026971
v -0.176293 0.346160 -0.026959
v -0.172667 0.352266 -0.026951
v -0.175627 0.355138 -0.026966
v -0.181621 0.351330 -0.026985
v -0.186727 0.346660 -0.027000
v -0.196454 0.354181 -0.027046
v -0.193220 0.360298 -0.027040
v -0.191044 0.367058 -0.027039
v -0.194569 0.369199 -0.027055
v -0.199565 0.364153 -0.027069
v -0.203504 0.358464 -0.027079
v -0.214661 0.363631 -0.027128
v -0.212869 0.370315 -0.027128
v -0.212252 0.377389 -0.027133
v -0.216165 0.378693 -0.027150
v -0.219913 0.372661 -0.027158
v -0.222487 0.366238 -0.027162
v -0.234514 0.368794 -0.027211
v -0.234255 0.375708 -0.027218
v -0.235227 0.382743 -0.027229
v -0.239332 0.383143 -0.027246
v -0.241644 0.376428 -0.027248
v -0.242724 0.369594 -0.027245
v -0.255019 0.369408 -0.027293
v -0.256304 0.376207 -0.027305
v -0.258817 0.382849 -0.027322
v -0.262908 0.382326 -0.027337
v -0.263668 0.375265 -0.027333
v -0.263201 0.368361 -0.027324
v -0.275146 0.365445 -0.027368
v -0.277912 0.371787 -0.027385
v -0.281840 0.377704 -0.027407
v -0.285712 0.376283 -0.027421
v -0.284882 0.369230 -0.027410
v -0.282890 0.362604 -0.027395
v -0.293886 0.357103 -0.027432
v -0.297994 0.362670 -0.027454
v -0.303140 0.367564 -0.027480
v -0.306599 0.365317 -0.027491
v -0.304220 0.358626 -0.027475
v -0.300804 0.352609 -0.027455
v -0.310300 0.344799 -0.027484
v -0.315545 0.349313 -0.027509
v -0.321650 0.352939 -0.027537
v -0.324523 0.349979 -0.027545
v -0.320715 0.343985 -0.027524
v -0.316045 0.338879 -0.027500
v -0.323565 0.329151 -0.027519
v -0.329683 0.332385 -0.027547
v -0.336442 0.334561 -0.027576
v -0.338584 0.331036 -0.027580
v -0.333537 0.326040 -0.027555
v -0.327848 0.322101 -0.027529
v -0.333016 0.310944 -0.027537
v -0.339699 0.312736 -0.027565
v -0.346774 0.313353 -0.027594
v -0.348077 0.309440 -0.027595
v -0.342046 0.305692 -0.027567
v -0.335623 0.303118 -0.027539
v -0.338178 0.291091 -0.027536
v -0.345093 0.291350 -0.027564
v -0.352127 0.290378 -0.027591
v -0.352527 0.286273 -0.027588
v -0.345813 0.283961 -0.027559
v -0.338978 0.282881 -0.027531
v -0.338793 0.270586 -0.027517
v -0.345592 0.269301 -0.027543
v -0.352234 0.266787 -0.027566
v -0.351710 0.262696 -0.027560
v -0.344650 0.261936 -0.027531
v -0.337746 0.262404 -0.027504
v -0.334830 0.250459 -0.027480
v -0.341172 0.247693 -0.027502
v -0.347088 0.243765 -0.027521
v -0.345668 0.239893 -0.027512
v -0.338615 0.240723 -0.027485
v -0.331989 0.242715 -0.027461
v -0.326487 0.231718 -0.027428
v -0.332055 0.227610 -0.027445
v -0.336949 0.222464 -0.027459
v -0.334702 0.219005 -0.027447
v -0.328011 0.221384 -0.027423
v -0.321994 0.224801 -0.027403
v -0.314184 0.215304 -0.027362
v -0.318698 0.210060 -0.027374
v -0.322324 0.203954 -0.027382
v -0.319364 0.201082 -0.027367
v -0.313370 0.204890 -0.027348
v -0.308264 0.209560 -0.027333
v -0.298537 0.202039 -0.027287
v -0.301770 0.195922 -0.027293
v -0.303947 0.189162 -0.027294
v -0.300422 0.187021 -0.027278
v -0.295425 0.192067 -0.027264
v -0.291487 0.197756 -0.027254
v -0.280330 0.192589 -0.027205
v -0.282121 0.185905 -0.027205
v -0.282739 0.178831 -0.027200
v -0.278826 0.177527 -0.027183
v -0.275078 0.183559 -0.027175
v -0.272503 0.189982 -0.027172
v -0.260445 0.187418 -0.035116
v -0.260704 0.180504 -0.035110
v -0.259732 0.173469 -0.035099
v -0.255627 0.173069 -0.035082
v -0.253315 0.179784 -0.035080
v -0.252235 0.186618 -0.035083
v -0.239941 0.186803 -0.035035
v -0.238655 0.180004 -0.035023
v -0.236142 0.173363 -0.035006
v -0.232051 0.173886 -0.034990
v -0.231291 0.180947 -0.034995
v -0.231758 0.187850 -0.035004
v -0.219814 0.190766 -0.034960
v -0.217047 0.184424 -0.034942
v -0.213119 0.178508 -0.034921
v -0.209247 0.179929 -0.034907
v -0.210077 0.186981 -0.034918
v -0.212069 0.193608 -0.034933
v -0.201073 0.199109 -0.034895
v -0.196965 0.193541 -0.034873
v -0.191819 0.188648 -0.034848
v -0.188360 0.190894 -0.034837
v -0.190739 0.197585 -0.034853
v -0.194155 0.203602 -0.034873
v -0.184659 0.211413 -0.034844
v -0.179414 0.206899 -0.034818
v -0.173309 0.203273 -0.034791
v -0.170436 0.206233 -0.034782
v -0.174245 0.212227 -0.034804
v -0.178914 0.217333 -0.034827
v -0.171394 0.227060 -0.034808
v -0.165277 0.223826 -0.034781
v -0.158517 0.221650 -0.034752
v -0.156375 0.225175 -0.034747
v -0.161422 0.230171 -0.034772
v -0.167111 0.234110 -0.034799
v -0.161943 0.245267 -0.034790
v -0.155260 0.243476 -0.034762
v -0.148185 0.242858 -0.034734
v -0.146882 0.246771 -0.034733
v -0.152914 0.250519 -0.034760
v -0.159336 0.253094 -0.034788
v -0.156781 0.265121 -0.034791
v -0.149867 0.264861 -0.034764
v -0.142832 0.265834 -0.034737
v -0.142432 0.269939 -0.034740
v -0.149147 0.272251 -0.034769
v -0.155981 0.273331 -0.034797
v -0.156166 0.285625 -0.034810
v -0.149367 0.286911 -0.034785
v -0.142725 0.289424 -0.034762
v -0.143249 0.293515 -0.034768
v -0.150310 0.294275 -0.034796
v -0.157213 0.293808 -0.034823
v -0.160129 0.305752 -0.034847
v -0.153787 0.308519 -0.034825
v -0.147871 0.312447 -0.034806
v -0.149292 0.316319 -0.034816
v -0.156344 0.315489 -0.034843
v -0.162971 0.313497 -0.034867
v -0.168472 0.324493 -0.034900
v -0.162904 0.328601 -0.034882
v -0.158010 0.333747 -0.034868
v -0.160257 0.337206 -0.034881
v -0.166948 0.334827 -0.034905
v -0.172965 0.331411 -0.034925
v -0.180775 0.340907 -0.034965
v -0.176261 0.346152 -0.034953
v -0.172635 0.352258 -0.034946
v -0.175595 0.355130 -0.034960
v -0.181589 0.351322 -0.034980
v -0.186695 0.346652 -0.034995
v -0.196423 0.354172 -0.035041
v -0.193189 0.360290 -0.035035
v -0.191013 0.367049 -0.035033
v -0.194537 0.369191 -0.035049
v -0.199534 0.364144 -0.035064
v -0.203472 0.358456 -0.035073
v -0.214630 0.363623 -0.035123
v -0.212838 0.370306 -0.035123
v -0.212220 0.377381 -0.035128
v -0.216133 0.378684 -0.035144
v -0.219882 0.372653 -0.035153
v -0.222456 0.366230 -0.035156
v -0.234483 0.368785 -0.035206
v -0.234223 0.375700 -0.035212
v -0.235196 0.382734 -0.035224
v -0.239301 0.383134 -0.035240
v -0.241612 0.376420 -0.035242
v -0.242693 0.369585 -0.035239
v -0.254987 0.369400 -0.035287
v -0.256273 0.376199 -0.035299
v -0.258786 0.382841 -0.035316
v -0.262877 0.382317 -0.035332
v -0.263637 0.375257 -0.035327
v -0.263169 0.368353 -0.035318
v -0.275114 0.365437 -0.035362
v -0.277881 0.371779 -0.035380
v -0.281808 0.377695 -0.035401
v -0.285681 0.376274 -0.035415
v -0.284850 0.369222 -0.035404
v -0.282858 0.362595 -0.035389
v -0.293855 0.357094 -0.035427
v -0.297963 0.362662 -0.035449
v -0.303109 0.367555 -0.035474
v -0.306568 0.365309 -0.035485
v -0.304189 0.358618 -0.035469
v -0.300772 0.352601 -0.035449
v -0.310269 0.344791 -0.035478
v -0.315513 0.349304 -0.035504
v -0.321619 0.352930 -0.035532
v -0.324491 0.349970 -0.035540
v -0.320683 0.343976 -0.035518
v -0.316013 0.338870 -0.035495
v -0.323534 0.329143 -0.035514
v -0.329651 0.332377 -0.035541
v -0.336411 0.334553 -0.035570
v -0.338552 0.331028 -0.035575
v -0.333506 0.326032 -0.035550
v -0.327817 0.322093 -0.035523
v -0.332985 0.310936 -0.035532
v -0.339668 0.312727 -0.035560
v -0.346742 0.313345 -0.035588
v -0.348046 0.309432 -0.035589
v -0.342014 0.305684 -0.035562
v -0.335591 0.303110 -0.035534
v -0.338147 0.291082 -0.035531
v -0.345061 0.291342 -0.035558
v -0.352096 0.290370 -0.035585
v -0.352496 0.286264 -0.035582
v -0.345781 0.283953 -0.035553
v -0.338947 0.282872 -0.035525
v -0.338762 0.270578 -0.035512
v -0.345560 0.269292 -0.035537
v -0.352202 0.266779 -0.035560
v -0.351679 0.262688 -0.035554
v -0.344618 0.261928 -0.035526
v -0.337715 0.262396 -0.035499
v -0.334798 0.250451 -0.035475
v -0.341141 0.247684 -0.035497
v -0.347057 0.243756 -0.035516
v -0.345636 0.239884 -0.035506
v -0.338583 0.240714 -0.035479
v -0.331957 0.242706 -0.035455
v -0.326456 0.231710 -0.035422
v -0.332024 0.227602 -0.035440
v -0.336917 0.222456 -0.035454
v -0.334671 0.218997 -0.035441
v -0.327980 0.221376 -0.035417
v -0.321963 0.224792 -0.035397
v -0.314153 0.215296 -0.035357
v -0.318667 0.210051 -0.035369
v -0.322292 0.203946 -0.035377
v -0.319332 0.201073 -0.035362
v -0.313338 0.204881 -0.035342
v -0.308233 0.209551 -0.035327
v -0.298505 0.202031 -0.035281
v -0.301739 0.195913 -0.035287
v -0.303915 0.189154 -0.035289
v -0.300390 0.187012 -0.035273
v -0.295394 0.192059 -0.035258
v -0.291455 0.197748 -0.035249
v -0.280298 0.192580 -0.035200
v -0.282090 0.185897 -0.035200
v -0.282707 0.178822 -0.035194
v -0.278794 0.177519 -0.035178
v -0.275046 0.183551 -0.035169
v -0.272472 0.189973 -0.035166
v -0.258741 0.205298 -0.027134
v -0.250518 0.204497 -0.027101
v -0.242257 0.204621 -0.027068
v -0.234062 0.205670 -0.027037
v -0.226036 0.207629 -0.027008
v -0.218280 0.210475 -0.026980
v -0.210891 0.214172 -0.026955
v -0.203962 0.218672 -0.026933
v -0.197581 0.223920 -0.026913
v -0.191827 0.229850 -0.026897
v -0.186774 0.236386 -0.026884
v -0.182484 0.243447 -0.026874
v -0.179012 0.250944 -0.026869
v -0.176401 0.258783 -0.026867
v -0.174684 0.266864 -0.026869
v -0.173883 0.275087 -0.026874
v -0.174007 0.283348 -0.026883
v -0.175056 0.291544 -0.026896
v -0.177015 0.299570 -0.026912
v -0.179861 0.307326 -0.026932
v -0.183557 0.314715 -0.026954
v -0.188058 0.321644 -0.026979
v -0.193306 0.328025 -0.027006
v -0.199235 0.333779 -0.027036
v -0.205771 0.338832 -0.027067
v -0.212832 0.343122 -0.027099
v -0.220329 0.346594 -0.027132
v -0.228168 0.349205 -0.027166
v -0.236249 0.350922 -0.027199
v -0.244472 0.351723 -0.027233
v -0.252733 0.351599 -0.027265
v -0.260928 0.350550 -0.027296
v -0.268955 0.348591 -0.027325
v -0.276711 0.345745 -0.027353
v -0.284100 0.342048 -0.027378
v -0.291029 0.337548 -0.027400
v -0.297410 0.332300 -0.027420
v -0.303163 0.326370 -0.027436
v -0.308217 0.319834 -0.027449
v -0.312506 0.312773 -0.027459
v -0.315979 0.305276 -0.027464
v -0.318590 0.297437 -0.027466
v -0.320307 0.289356 -0.027464
v -0.321108 0.281133 -0.027459
v -0.320984 0.272872 -0.027450
v -0.319935 0.264676 -0.027437
v -0.317975 0.256650 -0.027421
v -0.315130 0.248894 -0.027401
v -0.311433 0.241505 -0.027379
v -0.306933 0.234576 -0.027354
v -0.301685 0.228195 -0.027327
v -0.295755 0.222442 -0.027297
v -0.289219 0.217388 -0.027266
v -0.282158 0.213098 -0.027234
v -0.274661 0.209626 -0.027201
v -0.266823 0.207015 -0.027167
v -0.258710 0.205290 -0.035128
v -0.250487 0.204488 -0.035095
v -0.242226 0.204613 -0.035063
v -0.234031 0.205661 -0.035032
v -0.226004 0.207621 -0.035002
v -0.218248 0.210467 -0.034975
v -0.210859 0.214163 -0.034950
v -0.203931 0.218664 -0.034927
v -0.197549 0.223912 -0.034908
v -0.191796 0.229841 -0.034891
v -0.186743 0.236378 -0.034878
v -0.182453 0.243439 -0.034869
v -0.178981 0.250936 -0.034863
v -0.176369 0.258774 -0.034861
v -0.174653 0.266856 -0.034863
v -0.173851 0.275079 -0.034869
v -0.173976 0.283340 -0.034878
v -0.175024 0.291535 -0.034891
v -0.176984 0.299561 -0.034907
v -0.179830 0.307318 -0.034926
v -0.183526 0.314707 -0.034949
v -0.188026 0.321635 -0.034974
v -0.193274 0.328017 -0.035001
v -0.199204 0.333770 -0.035030
v -0.205740 0.338823 -0.035061
v -0.212801 0.343113 -0.035094
v -0.220298 0.346586 -0.035127
v -0.228136 0.349197 -0.035160
v -0.236218 0.350913 -0.035194
v -0.244441 0.351715 -0.035227
v -0.252702 0.351590 -0.035259
v -0.260897 0.350542 -0.035290
v -0.268923 0.348582 -0.035320
v -0.276680 0.345736 -0.035347
v -0.284069 0.342040 -0.035372
v -0.290997 0.337539 -0.035395
v -0.297378 0.332291 -0.035414
v -0.303132 0.326362 -0.035431
v -0.308185 0.319826 -0.035444
v -0.312475 0.312764 -0.035453
v -0.315947 0.305268 -0.035459
v -0.318558 0.297429 -0.035461
v -0.320275 0.289347 -0.035459
v -0.321077 0.281124 -0.035453
v -0.320952 0.272863 -0.035444
v -0.319904 0.264668 -0.035431
v -0.317944 0.256642 -0.035415
v -0.315098 0.248885 -0.035396
v -0.311402 0.241496 -0.035373
v -0.306901 0.234568 -0.035348
v -0.301653 0.228187 -0.035321
v -0.295724 0.222433 -0.035292
v -0.289188 0.217380 -0.035261
v -0.282127 0.213090 -0.035228
v -0.274630 0.209618 -0.035195
v -0.266791 0.207007 -0.035162
vn -0.0039 0.0011 1.0000
vn -0.9993 0.0375 -0.0040
vn -0.9987 -0.0510 -0.0039
vn -0.9906 -0.1369 -0.0037
vn -0.0970 -0.9953 0.0007
vn 0.9455 -0.3256 0.0041
vn 0.9701 -0.2428 0.0041
vn 0.9877 -0.1561 0.0040
vn 0.0151 -0.9999 0.0011
vn -0.9826 -0.1858 -0.0037
vn -0.9623 -0.2719 -0.0035
vn -0.9353 -0.3539 -0.0033
vn 0.1269 -0.9919 0.0015
vn 0.9943 -0.1070 0.0040
vn 0.9998 -0.0209 0.0039
vn 0.9977 0.0676 0.0038
vn 0.2372 -0.9715 0.0020
vn -0.9166 -0.3998 -0.0032
vn -0.8777 -0.4793 -0.0029
vn -0.8331 -0.5531 -0.0027
vn 0.3445 -0.9388 0.0023
vn 0.9931 0.1169 0.0038
vn 0.9794 0.2021 0.0036
vn 0.9577 0.2879 0.0035
vn 0.4474 -0.8943 0.0027
vn -0.8047 -0.5937 -0.0025
vn -0.7490 -0.6626 -0.0022
vn -0.6891 -0.7246 -0.0019
vn 0.5447 -0.8386 0.0030
vn 0.9422 0.3350 0.0033
vn 0.9098 0.4149 0.0031
vn 0.8696 0.4938 0.0029
vn 0.6352 -0.7724 0.0033
vn -0.6524 -0.7579 -0.0018
vn -0.5828 -0.8126 -0.0014
vn -0.5106 -0.8598 -0.0011
vn 0.7177 -0.6964 0.0036
vn 0.8441 0.5363 0.0027
vn 0.7947 0.6069 0.0025
vn 0.7379 0.6749 0.0022
vn 0.7911 -0.6116 0.0038
vn -0.4674 -0.8841 -0.0009
vn -0.3873 -0.9219 -0.0005
vn -0.3065 -0.9519 -0.0002
vn 0.8546 -0.5192 0.0039
vn 0.7036 0.7106 0.0020
vn 0.6397 0.7686 0.0017
vn 0.5692 0.8222 0.0014
vn 0.9074 -0.4203 0.0040
vn -0.2589 -0.9659 -0.0000
vn -0.1725 -0.9850 0.0004
vn -0.0870 -0.9962 0.0007
vn 0.9487 -0.3160 0.0041
vn 0.5278 0.8494 0.0012
vn 0.4527 0.8917 0.0008
vn 0.3720 0.9282 0.0005
vn 0.9782 -0.2078 0.0041
vn -0.0375 -0.9993 0.0009
vn 0.0510 -0.9987 0.0013
vn 0.1369 -0.9906 0.0016
vn 0.9953 -0.0970 0.0040
vn 0.3256 0.9455 0.0003
vn 0.2428 0.9701 -0.0001
vn 0.1561 0.9877 -0.0004
vn 0.9999 0.0151 0.0039
vn 0.1858 -0.9826 0.0018
vn 0.2720 -0.9623 0.0021
vn 0.3539 -0.9353 0.0024
vn 0.9919 0.1269 0.0038
vn 0.1070 0.9943 -0.0006
vn 0.0209 0.9998 -0.0010
vn -0.0676 0.9977 -0.0013
vn 0.9715 0.2372 0.0036
vn 0.3998 -0.9166 0.0025
vn 0.4792 -0.8777 0.0028
vn 0.5531 -0.8331 0.0031
vn 0.9388 0.3445 0.0033
vn -0.1169 0.9931 -0.0015
vn -0.2021 0.9794 -0.0018
vn -0.2879 0.9577 -0.0021
vn 0.8943 0.4474 0.0030
vn 0.5937 -0.8047 0.0032
vn 0.6625 -0.7490 0.0034
vn 0.7246 -0.6891 0.0036
vn 0.8386 0.5447 0.0027
vn -0.3350 0.9422 -0.0023
vn -0.4150 0.9098 -0.0026
vn -0.4938 0.8696 -0.0029
vn 0.7723 0.6352 0.0024
vn 0.7579 -0.6524 0.0037
vn 0.8126 -0.5828 0.0038
vn 0.8598 -0.5106 0.0039
vn 0.6964 0.7177 0.0020
vn -0.5362 0.8441 -0.0030
vn -0.6069 0.7947 -0.0032
vn -0.6749 0.7379 -0.0034
vn 0.6116 0.7911 0.0016
vn 0.8841 -0.4674 0.0040
vn 0.9219 -0.3873 0.0040
vn 0.9519 -0.3065 0.0041
vn 0.5192 0.8546 0.0011
vn -0.7106 0.7036 -0.0035
vn -0.7686 0.6397 -0.0037
vn -0.8222 0.5692 -0.0038
vn 0.4203 0.9074 0.0007
vn 0.9659 -0.2589 0.0041
vn 0.9850 -0.1725 0.0041
vn 0.9962 -0.0870 0.0040
vn 0.3160 0.9487 0.0002
vn -0.8494 0.5278 -0.0039
vn -0.8917 0.4527 -0.0040
vn -0.9282 0.3720 -0.0040
vn 0.2078 0.9782 -0.0002
vn 0.9993 -0.0375 0.0040
vn 0.9987 0.0510 0.0039
vn 0.9906 0.1369 0.0037
vn 0.0970 0.9953 -0.0007
vn -0.9455 0.3256 -0.0041
vn -0.9700 0.2429 -0.0041
vn -0.9877 0.1561 -0.0040
vn -0.0151 0.9999 -0.0011
vn 0.9826 0.1858 0.0037
vn 0.9623 0.2720 0.0035
vn 0.9353 0.3539 0.0033
vn -0.1269 0.9919 -0.0015
vn -0.9943 0.1070 -0.0040
vn -0.9998 0.0209 -0.0039
vn -0.9977 -0.0676 -0.0038
vn -0.2372 0.9715 -0.0020
vn 0.9166 0.3998 0.0032
vn 0.8776 0.4793 0.0029
vn 0.8331 0.5531 0.0027
vn -0.3445 0.9388 -0.0023
vn -0.9931 -0.1169 -0.0038
vn -0.9794 -0.2020 -0.0036
vn -0.9577 -0.2879 -0.0035
vn -0.4474 0.8943 -0.0027
vn 0.8047 0.5937 0.0025
vn 0.7490 0.6625 0.0022
vn 0.6891 0.7246 0.0019
vn -0.5447 0.8386 -0.0030
vn -0.9422 -0.3350 -0.0033
vn -0.9098 -0.4150 -0.0031
vn -0.8696 -0.4938 -0.0029
vn -0.6352 0.7724 -0.0033
vn 0.6524 0.7579 0.0018
vn 0.5828 0.8126 0.0014
vn 0.5106 0.8598 0.0011
vn -0.7177 0.6964 -0.0036
vn -0.8441 -0.5363 -0.0027
vn -0.7947 -0.6070 -0.0025
vn -0.7379 -0.6749 -0.0022
vn -0.7911 0.6116 -0.0038
vn 0.4674 0.8841 0.0009
vn 0.3873 0.9219 0.0005
vn 0.3065 0.9519 0.0002
vn -0.8546 0.5192 -0.0039
vn -0.7036 -0.7106 -0.0020
vn -0.6396 -0.7687 -0.0017
vn -0.5692 -0.8222 -0.0014
vn -0.9074 0.4203 -0.0040
vn 0.2589 0.9659 -0.0000
vn 0.1725 0.9850 -0.0004
vn 0.0870 0.9962 -0.0007
vn -0.9487 0.3160 -0.0041
vn -0.5278 -0.8494 -0.0012
vn -0.4527 -0.8917 -0.0008
vn -0.3720 -0.9282 -0.0005
vn -0.9782 0.2078 -0.0041
vn 0.0375 0.9993 -0.0009
vn -0.0509 0.9987 -0.0013
vn -0.1369 0.9906 -0.0016
vn -0.9953 0.0970 -0.0040
vn -0.3256 -0.9455 -0.0003
vn -0.2428 -0.9701 0.0001
vn -0.1561 -0.9877 0.0004
vn -0.9999 -0.0151 -0.0039
vn -0.1858 0.9826 -0.0018
vn -0.2719 0.9623 -0.0021
vn -0.3539 0.9353 -0.0024
vn -0.9919 -0.1269 -0.0038
vn -0.1070 -0.9943 0.0006
vn -0.0209 -0.9998 0.0010
vn 0.0676 -0.9977 0.0013
vn -0.9715 -0.2372 -0.0036
vn -0.3998 0.9166 -0.0025
vn -0.4793 0.8776 -0.0028
vn -0.5531 0.8331 -0.0031
vn -0.9388 -0.3445 -0.0033
vn 0.1169 -0.9931 0.0015
vn 0.2021 -0.9794 0.0018
vn 0.2879 -0.9577 0.0021
vn -0.8943 -0.4474 -0.0030
vn -0.5937 0.8047 -0.0032
vn -0.6625 0.7490 -0.0034
vn -0.7246 0.6891 -0.0036
vn -0.8386 -0.5447 -0.0027
vn 0.3350 -0.9422 0.0023
vn 0.4150 -0.9098 0.0026
vn 0.4938 -0.8696 0.0029
vn -0.7723 -0.6352 -0.0024
vn -0.7579 0.6524 -0.0037
vn -0.8127 0.5827 -0.0038
vn -0.8598 0.5106 -0.0039
vn -0.6964 -0.7177 -0.0020
vn 0.5362 -0.8441 0.0030
vn 0.6069 -0.7947 0.0032
vn 0.6749 -0.7379 0.0034
vn -0.6116 -0.7911 -0.0016
vn -0.8841 0.4674 -0.0040
vn -0.9219 0.3873 -0.0040
vn -0.9519 0.3065 -0.0041
vn -0.5192 -0.8546 -0.0011
vn 0.7106 -0.7036 0.0035
vn 0.7686 -0.6398 0.0037
vn 0.8222 -0.5692 0.0038
vn -0.4203 -0.9074 -0.0007
vn -0.9659 0.2589 -0.0041
vn -0.9850 0.1725 -0.0041
vn -0.9962 0.0870 -0.0040
vn -0.3160 -0.9487 -0.0002
vn 0.8494 -0.5278 0.0039
vn 0.8917 -0.4526 0.0040
vn 0.9282 -0.3720 0.0040
vn -0.2078 -0.9782 0.0002
vn 0.0039 -0.0011 -1.0000
vn 0.1526 0.9883 -0.0004
vn 0.0410 0.9992 -0.0009
vn -0.0711 0.9975 -0.0013
vn -0.1823 0.9832 -0.0018
vn -0.2913 0.9566 -0.0022
vn -0.3965 0.9180 -0.0025
vn -0.4968 0.8678 -0.0029
vn -0.5909 0.8068 -0.0032
vn -0.6775 0.7355 -0.0034
vn -0.7556 0.6550 -0.0037
vn -0.8242 0.5663 -0.0038
vn -0.8824 0.4705 -0.0040
vn -0.9295 0.3687 -0.0040
vn -0.9650 0.2623 -0.0041
vn -0.9883 0.1526 -0.0040
vn -0.9992 0.0410 -0.0040
vn -0.9975 -0.0711 -0.0038
vn -0.9832 -0.1823 -0.0037
vn -0.9566 -0.2913 -0.0034
vn -0.9180 -0.3966 -0.0032
vn -0.8678 -0.4968 -0.0029
vn -0.8067 -0.5909 -0.0025
vn -0.7355 -0.6775 -0.0022
vn -0.6550 -0.7556 -0.0018
vn -0.5663 -0.8242 -0.0014
vn -0.4705 -0.8824 -0.0009
vn -0.3687 -0.9295 -0.0005
vn -0.2623 -0.9650 -0.0000
vn -0.1526 -0.9883 0.0004
vn -0.0410 -0.9992 0.0009
vn 0.0711 -0.9975 0.0013
vn 0.1823 -0.9832 0.0018
vn 0.2913 -0.9566 0.0022
vn 0.3965 -0.9180 0.0025
vn 0.4968 -0.8678 0.0029
vn 0.5909 -0.8068 0.0032
vn 0.6775 -0.7355 0.0034
vn 0.7556 -0.6550 0.0037
vn 0.8242 -0.5663 0.0038
vn 0.8824 -0.4705 0.0040
vn 0.9295 -0.3687 0.0040
vn 0.9650 -0.2623 0.0041
vn 0.9883 -0.1526 0.0040
vn 0.9992 -0.0410 0.0040
vn 0.9975 0.0711 0.0038
vn 0.9832 0.1823 0.0037
vn 0.9566 0.2913 0.0034
vn 0.9180 0.3966 0.0032
vn 0.8678 0.4968 0.0029
vn 0.8067 0.5909 0.0025
vn 0.7355 0.6775 0.0022
vn 0.6550 0.7556 0.0018
vn 0.5663 0.8242 0.0014
vn 0.4705 0.8824 0.0009
vn 0.3687 0.9295 0.0005
vn 0.2623 0.9650 -0.0000
vt 0.240264 0.533976
vt 0.241238 0.517671
vt 0.258762 0.517671
vt 0.259736 0.533976
vt 0.245132 0.501367
vt 0.254868 0.501367
vt 0.288578 0.537225
vt 0.293155 0.521546
vt 0.310241 0.525446
vt 0.307562 0.541558
vt 0.300580 0.506517
vt 0.310072 0.508684
vt 0.334958 0.551144
vt 0.342909 0.536877
vt 0.358698 0.544481
vt 0.352501 0.559593
vt 0.353492 0.523877
vt 0.362264 0.528102
vt 0.377077 0.575035
vt 0.388004 0.562895
vt 0.401705 0.573821
vt 0.392301 0.587176
vt 0.401214 0.552576
vt 0.408826 0.558646
vt 0.412824 0.607699
vt 0.426179 0.598295
vt 0.437105 0.611996
vt 0.424965 0.622923
vt 0.441354 0.591174
vt 0.447424 0.598786
vt 0.440407 0.647499
vt 0.455519 0.641302
vt 0.463123 0.657091
vt 0.448856 0.665042
vt 0.471899 0.637736
vt 0.476123 0.646508
vt 0.458442 0.692438
vt 0.474554 0.689759
vt 0.478454 0.706845
vt 0.462775 0.711422
vt 0.491316 0.689928
vt 0.493483 0.699420
vt 0.466024 0.740264
vt 0.482329 0.741238
vt 0.482329 0.758762
vt 0.466024 0.759736
vt 0.498633 0.745132
vt 0.498633 0.754868
vt 0.462775 0.788578
vt 0.478454 0.793155
vt 0.474554 0.810241
vt 0.458442 0.807562
vt 0.493483 0.800580
vt 0.491316 0.810072
vt 0.448856 0.834958
vt 0.463123 0.842909
vt 0.455519 0.858698
vt 0.440407 0.852501
vt 0.476123 0.853492
vt 0.471899 0.862264
vt 0.424965 0.877077
vt 0.437105 0.888004
vt 0.426179 0.901705
vt 0.412824 0.892301
vt 0.447424 0.901214
vt 0.441354 0.908826
vt 0.392301 0.912824
vt 0.401705 0.926179
vt 0.388004 0.937105
vt 0.377077 0.924965
vt 0.408826 0.941354
vt 0.401214 0.947424
vt 0.352501 0.940407
vt 0.358698 0.955519
vt 0.342909 0.963123
vt 0.334958 0.948856
vt 0.362264 0.971899
vt 0.353492 0.976123
vt 0.307562 0.958442
vt 0.310241 0.974554
vt 0.293155 0.978454
vt 0.288578 0.962775
vt 0.310072 0.991316
vt 0.300580 0.993483
vt 0.259736 0.966024
vt 0.258762 0.982329
vt 0.241238 0.982329
vt 0.240264 0.966024
vt 0.254868 0.998633
vt 0.245132 0.998633
vt 0.211422 0.962775
vt 0.206845 0.978454
vt 0.189759 0.974554
vt 0.192438 0.958442
vt 0.199420 0.993483
vt 0.189928 0.991316
vt 0.165042 0.948856
vt 0.157091 0.963123
vt 0.141302 0.955519
vt 0.147499 0.940407
vt 0.146508 0.976123
vt 0.137736 0.971898
vt 0.122923 0.924965
vt 0.111996 0.937105
vt 0.098295 0.926179
vt 0.107699 0.912824
vt 0.098786 0.947424
vt 0.091174 0.941354
vt 0.087176 0.892301
vt 0.073821 0.901705
vt 0.062895 0.888004
vt 0.075035 0.877077
vt 0.058646 0.908826
vt 0.052576 0.901214
vt 0.059593 0.852501
vt 0.044481 0.858698
vt 0.036877 0.842909
vt 0.051144 0.834958
vt 0.028102 0.862264
vt 0.023877 0.853492
vt 0.041558 0.807562
vt 0.025446 0.810241
vt 0.021546 0.793155
vt 0.037225 0.788578
vt 0.008684 0.810072
vt 0.006517 0.800580
vt 0.033976 0.759736
vt 0.017671 0.758762
vt 0.017671 0.741238
vt 0.033976 0.740264
vt 0.001367 0.754868
vt 0.001367 0.745132
vt 0.037225 0.711422
vt 0.021546 0.706845
vt 0.025446 0.689759
vt 0.041558 0.692438
vt 0.006517 0.699420
vt 0.008684 0.689928
vt 0.051144 0.665042
vt 0.036877 0.657091
vt 0.044481 0.641302
vt 0.059593 0.647499
vt 0.023877 0.646508
vt 0.028102 0.637736
vt 0.075035 0.622923
vt 0.062895 0.611996
vt 0.073821 0.598295
vt 0.087176 0.607699
vt 0.052576 0.598786
vt 0.058646 0.591174
vt 0.107699 0.587176
vt 0.098295 0.573821
vt 0.111996 0.562895
vt 0.122923 0.575035
vt 0.091174 0.558646
vt 0.098786 0.552576
vt 0.147499 0.559593
vt 0.141302 0.544481
vt 0.157091 0.536877
vt 0.165042 0.551144
vt 0.137736 0.528102
vt 0.146508 0.523877
vt 0.192438 0.541558
vt 0.189759 0.525446
vt 0.206845 0.521546
vt 0.211422 0.537225
vt 0.189928 0.508684
vt 0.199420 0.506517
vt 0.500000 1.000000
vt 0.500000 0.500000
vt 0.502779 0.500000
vt 0.502779 1.000000
vt 0.505631 0.500000
vt 0.505631 1.000000
vt 0.507288 0.500000
vt 0.507288 1.000000
vt 0.510140 0.500000
vt 0.510140 1.000000
vt 0.512919 0.500000
vt 0.512919 1.000000
vt 0.517857 0.500000
vt 0.517857 1.000000
vt 0.520636 0.500000
vt 0.520636 1.000000
vt 0.523488 0.500000
vt 0.523488 1.000000
vt 0.525145 0.500000
vt 0.525145 1.000000
vt 0.527997 0.500000
vt 0.527997 1.000000
vt 0.530776 0.500000
vt 0.530776 1.000000
vt 0.535714 0.500000
vt 0.535714 1.000000
vt 0.538493 0.500000
vt 0.538493 1.000000
vt 0.541345 0.500000
vt 0.541345 1.000000
vt 0.543002 0.500000
vt 0.543002 1.000000
vt 0.545854 0.500000
vt 0.545854 1.000000
vt 0.548633 0.500000
vt 0.548633 1.000000
vt 0.553571 0.500000
vt 0.553571 1.000000
vt 0.556350 0.500000
vt 0.556350 1.000000
vt 0.559203 0.500000
vt 0.559203 1.000000
vt 0.560859 0.500000
vt 0.560859 1.000000
vt 0.563711 0.500000
vt 0.563711 1.000000
vt 0.566490 0.500000
vt 0.566490 1.000000
vt 0.571429 0.500000
vt 0.571429 1.000000
vt 0.574208 0.500000
vt 0.574208 1.000000
vt 0.577060 0.500000
vt 0.577060 1.000000
vt 0.578716 0.500000
vt 0.578716 1.000000
vt 0.581568 0.500000
vt 0.581568 1.000000
vt 0.584347 0.500000
vt 0.584347 1.000000
vt 0.589286 0.500000
vt 0.589286 1.000000
vt 0.592065 0.500000
vt 0.592065 1.000000
vt 0.594917 0.500000
vt 0.594917 1.000000
vt 0.596573 0.500000
vt 0.596573 1.000000
vt 0.599425 0.500000
vt 0.599425 1.000000
vt 0.602205 0.500000
vt 0.602205 1.000000
vt 0.607143 0.500000
vt 0.607143 1.000000
vt 0.609922 0.500000
vt 0.609922 1.000000
vt 0.612774 0.500000
vt 0.612774 1.000000
vt 0.614431 0.500000
vt 0.614431 1.000000
vt 0.617283 0.500000
vt 0.617283 1.000000
vt 0.620062 0.500000
vt 0.620062 1.000000
vt 0.625000 0.500000
vt 0.625000 1.000000
vt 0.627779 0.500000
vt 0.627779 1.000000
vt 0.630631 0.500000
vt 0.630631 1.000000
vt 0.632288 0.500000
vt 0.632288 1.000000
vt 0.635140 0.500000
vt 0.635140 1.000000
vt 0.637919 0.500000
vt 0.637919 1.000000
vt 0.642857 0.500000
vt 0.642857 1.000000
vt 0.645636 0.500000
vt 0.645636 1.000000
vt 0.648488 0.500000
vt 0.648488 1.000000
vt 0.650145 0.500000
vt 0.650145 1.000000
vt 0.652997 0.500000
vt 0.652997 1.000000
vt 0.655776 0.500000
vt 0.655776 1.000000
vt 0.660714 0.500000
vt 0.660714 1.000000
vt 0.663493 0.500000
vt 0.663493 1.000000
vt 0.666345 0.500000
vt 0.666345 1.000000
vt 0.668002 0.500000
vt 0.668002 1.000000
vt 0.670854 0.500000
vt 0.670854 1.000000
vt 0.673633 0.500000
vt 0.673633 1.000000
vt 0.678571 0.500000
vt 0.678571 1.000000
vt 0.681350 0.500000
vt 0.681350 1.000000
vt 0.684203 0.500000
vt 0.684203 1.000000
vt 0.685859 0.500000
vt 0.685859 1.000000
vt 0.688711 0.500000
vt 0.688711 1.000000
vt 0.691490 0.500000
vt 0.691490 1.000000
vt 0.696429 0.500000
vt 0.696429 1.000000
vt 0.699208 0.500000
vt 0.699208 1.000000
vt 0.702060 0.500000
vt 0.702060 1.000000
vt 0.703716 0.500000
vt 0.703716 1.000000
vt 0.706568 0.500000
vt 0.706568 1.000000
vt 0.709347 0.500000
vt 0.709347 1.000000
vt 0.714286 0.500000
vt 0.714286 1.000000
vt 0.717065 0.500000
vt 0.717065 1.000000
vt 0.719917 0.500000
vt 0.719917 1.000000
vt 0.721573 0.500000
vt 0.721573 1.000000
vt 0.724426 0.500000
vt 0.724426 1.000000
vt 0.727205 0.500000
vt 0.727205 1.000000
vt 0.732143 0.500000
vt 0.732143 1.000000
vt 0.734922 0.500000
vt 0.734922 1.000000
vt 0.737774 0.500000
vt 0.737774 1.000000
vt 0.739431 0.500000
vt 0.739431 1.000000
vt 0.742283 0.500000
vt 0.742283 1.000000
vt 0.745062 0.500000
vt 0.745062 1.000000
vt 0.750000 0.500000
vt 0.750000 1.000000
vt 0.752779 0.500000
vt 0.752779 1.000000
vt 0.755631 0.500000
vt 0.755631 1.000000
vt 0.757288 0.500000
vt 0.757288 1.000000
vt 0.760140 0.500000
vt 0.760140 1.000000
vt 0.762919 0.500000
vt 0.762919 1.000000
vt 0.767857 0.500000
vt 0.767857 1.000000
vt 0.770636 0.500000
vt 0.770636 1.000000
vt 0.773488 0.500000
vt 0.773488 1.000000
vt 0.775145 0.500000
vt 0.775145 1.000000
vt 0.777997 0.500000
vt 0.777997 1.000000
vt 0.780776 0.500000
vt 0.780776 1.000000
vt 0.785714 0.500000
vt 0.785714 1.000000
vt 0.788493 0.500000
vt 0.788493 1.000000
vt 0.791345 0.500000
vt 0.791345 1.000000
vt 0.793002 0.500000
vt 0.793002 1.000000
vt 0.795854 0.500000
vt 0.795854 1.000000
vt 0.798633 0.500000
vt 0.798633 1.000000
vt 0.803572 0.500000
vt 0.803572 1.000000
vt 0.806351 0.500000
vt 0.806351 1.000000
vt 0.809203 0.500000
vt 0.809203 1.000000
vt 0.810859 0.500000
vt 0.810859 1.000000
vt 0.813711 0.500000
vt 0.813711 1.000000
vt 0.816490 0.500000
vt 0.816490 1.000000
vt 0.821429 0.500000
vt 0.821429 1.000000
vt 0.824208 0.500000
vt 0.824208 1.000000
vt 0.827060 0.500000
vt 0.827060 1.000000
vt 0.828716 0.500000
vt 0.828716 1.000000
vt 0.831568 0.500000
vt 0.831568 1.000000
vt 0.834347 0.500000
vt 0.834347 1.000000
vt 0.839286 0.500000
vt 0.839286 1.000000
vt 0.842065 0.500000
vt 0.842065 1.000000
vt 0.844917 0.500000
vt 0.844917 1.000000
vt 0.846574 0.500000
vt 0.846574 1.000000
vt 0.849426 0.500000
vt 0.849426 1.000000
vt 0.852205 0.500000
vt 0.852205 1.000000
vt 0.857143 0.500000
vt 0.857143 1.000000
vt 0.859922 0.500000
vt 0.859922 1.000000
vt 0.862774 0.500000
vt 0.862774 1.000000
vt 0.864431 0.500000
vt 0.864431 1.000000
vt 0.867283 0.500000
vt 0.867283 1.000000
vt 0.870062 0.500000
vt 0.870062 1.000000
vt 0.875000 0.500000
vt 0.875000 1.000000
vt 0.877779 0.500000
vt 0.877779 1.000000
vt 0.880631 0.500000
vt 0.880631 1.000000
vt 0.882288 0.500000
vt 0.882288 1.000000
vt 0.885140 0.500000
vt 0.885140 1.000000
vt 0.887919 0.500000
vt 0.887919 1.000000
vt 0.892857 0.500000
vt 0.892857 1.000000
vt 0.895636 0.500000
vt 0.895636 1.000000
vt 0.898488 0.500000
vt 0.898488 1.000000
vt 0.900145 0.500000
vt 0.900145 1.000000
vt 0.902997 0.500000
vt 0.902997 1.000000
vt 0.905776 0.500000
vt 0.905776 1.000000
vt 0.910715 0.500000
vt 0.910715 1.000000
vt 0.913494 0.500000
vt 0.913494 1.000000
vt 0.916346 0.500000
vt 0.916346 1.000000
vt 0.918002 0.500000
vt 0.918002 1.000000
vt 0.920854 0.500000
vt 0.920854 1.000000
vt 0.923633 0.500000
vt 0.923633 1.000000
vt 0.928572 0.500000
vt 0.928572 1.000000
vt 0.931351 0.500000
vt 0.931351 1.000000
vt 0.934203 0.500000
vt 0.934203 1.000000
vt 0.935859 0.500000
vt 0.935859 1.000000
vt 0.938711 0.500000
vt 0.938711 1.000000
vt 0.941490 0.500000
vt 0.941490 1.000000
vt 0.946429 0.500000
vt 0.946429 1.000000
vt 0.949208 0.500000
vt 0.949208 1.000000
vt 0.952060 0.500000
vt 0.952060 1.000000
vt 0.953717 0.500000
vt 0.953717 1.000000
vt 0.956569 0.500000
vt 0.956569 1.000000
vt 0.959348 0.500000
vt 0.959348 1.000000
vt 0.964286 0.500000
vt 0.964286 1.000000
vt 0.967065 0.500000
vt 0.967065 1.000000
vt 0.969917 0.500000
vt 0.969917 1.000000
vt 0.971574 0.500000
vt 0.971574 1.000000
vt 0.974426 0.500000
vt 0.974426 1.000000
vt 0.977205 0.500000
vt 0.977205 1.000000
vt 0.982143 0.500000
vt 0.982143 1.000000
vt 0.984922 0.500000
vt 0.984922 1.000000
vt 0.987774 0.500000
vt 0.987774 1.000000
vt 0.989431 0.500000
vt 0.989431 1.000000
vt 0.992283 0.500000
vt 0.992283 1.000000
vt 0.995062 0.500000
vt 0.995062 1.000000
vt 1.000000 0.500000
vt 1.000000 1.000000
vt 0.259736 0.466024
vt 0.258762 0.482329
vt 0.241238 0.482329
vt 0.240264 0.466024
vt 0.254868 0.498633
vt 0.245132 0.498633
vt 0.307562 0.458442
vt 0.310241 0.474554
vt 0.293155 0.478454
vt 0.288578 0.462775
vt 0.310072 0.491316
vt 0.300580 0.493483
vt 0.352501 0.440407
vt 0.358698 0.455519
vt 0.342909 0.463123
vt 0.334958 0.448856
vt 0.362264 0.471898
vt 0.353492 0.476123
vt 0.392301 0.412824
vt 0.401705 0.426179
vt 0.388004 0.437105
vt 0.377077 0.424965
vt 0.408826 0.441354
vt 0.401214 0.447424
vt 0.424965 0.377077
vt 0.437105 0.388004
vt 0.426179 0.401705
vt 0.412824 0.392301
vt 0.447424 0.401214
vt 0.441354 0.408826
vt 0.448856 0.334958
vt 0.463123 0.342909
vt 0.455519 0.358698
vt 0.440407 0.352501
vt 0.476123 0.353492
vt 0.471899 0.362264
vt 0.462775 0.288578
vt 0.478454 0.293155
vt 0.474554 0.310241
vt 0.458442 0.307562
vt 0.493483 0.300580
vt 0.491316 0.310072
vt 0.466024 0.240264
vt 0.482329 0.241238
vt 0.482329 0.258762
vt 0.466024 0.259736
vt 0.498633 0.245132
vt 0.498633 0.254868
vt 0.458442 0.192438
vt 0.474554 0.189759
vt 0.478454 0.206845
vt 0.462775 0.211422
vt 0.491316 0.189928
vt 0.493483 0.199420
vt 0.440407 0.147499
vt 0.455519 0.141302
vt 0.463123 0.157091
vt 0.448856 0.165042
vt 0.471899 0.137736
vt 0.476123 0.146508
vt 0.412824 0.107699
vt 0.426179 0.098295
vt 0.437105 0.111996
vt 0.424965 0.122923
vt 0.441354 0.091174
vt 0.447424 0.098786
vt 0.377077 0.075035
vt 0.388004 0.062895
vt 0.401705 0.073821
vt 0.392301 0.087176
vt 0.401214 0.052576
vt 0.408826 0.058646
vt 0.334958 0.051144
vt 0.342909 0.036877
vt 0.358698 0.044481
vt 0.352501 0.059593
vt 0.353492 0.023877
vt 0.362264 0.028101
vt 0.288578 0.037225
vt 0.293155 0.021546
vt 0.310241 0.025446
vt 0.307562 0.041558
vt 0.300580 0.006517
vt 0.310072 0.008684
vt 0.240264 0.033976
vt 0.241238 0.017671
vt 0.258762 0.017671
vt 0.259736 0.033976
vt 0.245132 0.001367
vt 0.254868 0.001367
vt 0.192438 0.041558
vt 0.189759 0.025446
vt 0.206845 0.021546
vt 0.211422 0.037225
vt 0.189928 0.008684
vt 0.199420 0.006517
vt 0.147499 0.059593
vt 0.141302 0.044481
vt 0.157091 0.036877
vt 0.165042 0.051144
vt 0.137736 0.028102
vt 0.146508 0.023877
vt 0.107699 0.087176
vt 0.098295 0.073821
vt 0.111996 0.062895
vt 0.122923 0.075035
vt 0.091174 0.058646
vt 0.098786 0.052576
vt 0.075035 0.122923
vt 0.062895 0.111996
vt 0.073821 0.098295
vt 0.087176 0.107699
vt 0.052576 0.098786
vt 0.058646 0.091174
vt 0.051144 0.165042
vt 0.036877 0.157091
vt 0.044481 0.141302
vt 0.059593 0.147499
vt 0.023877 0.146508
vt 0.028102 0.137736
vt 0.037225 0.211422
vt 0.021546 0.206845
vt 0.025446 0.189759
vt 0.041558 0.192438
vt 0.006517 0.199420
vt 0.008684 0.189928
vt 0.033976 0.259736
vt 0.017671 0.258762
vt 0.017671 0.241238
vt 0.033976 0.240264
vt 0.001367 0.254868
vt 0.001367 0.245132
vt 0.041558 0.307562
vt 0.025446 0.310241
vt 0.021546 0.293155
vt 0.037225 0.288578
vt 0.008684 0.310072
vt 0.006517 0.300580
vt 0.059593 0.352501
vt 0.044481 0.358698
vt 0.036877 0.342909
vt 0.051144 0.334958
vt 0.028102 0.362264
vt 0.023877 0.353492
vt 0.087176 0.392301
vt 0.073821 0.401705
vt 0.062895 0.388004
vt 0.075035 0.377077
vt 0.058646 0.408826
vt 0.052576 0.401214
vt 0.122923 0.424965
vt 0.111996 0.437105
vt 0.098295 0.426179
vt 0.107699 0.412824
vt 0.098786 0.447424
vt 0.091174 0.441354
vt 0.165042 0.448856
vt 0.157091 0.463123
vt 0.141302 0.455519
vt 0.147499 0.440407
vt 0.146508 0.476123
vt 0.137736 0.471898
vt 0.211422 0.462775
vt 0.206845 0.478454
vt 0.189759 0.474554
vt 0.192438 0.458442
vt 0.199420 0.493483
vt 0.189928 0.491316
vt 0.508929 0.500000
vt 0.508929 0.000000
vt 0.500000 0.000000
vt 0.517857 0.000000
vt 0.526786 0.500000
vt 0.526786 0.000000
vt 0.535714 0.000000
vt 0.544643 0.500000
vt 0.544643 0.000000
vt 0.553571 0.500000
vt 0.553571 0.000000
vt 0.562500 0.500000
vt 0.562500 0.000000
vt 0.571429 0.000000
vt 0.580357 0.500000
vt 0.580357 0.000000
vt 0.589286 0.000000
vt 0.598214 0.500000
vt 0.598214 0.000000
vt 0.607143 0.000000
vt 0.616071 0.500000
vt 0.616071 0.000000
vt 0.625000 0.000000
vt 0.633929 0.500000
vt 0.633929 0.000000
vt 0.642857 0.500000
vt 0.642857 0.000000
vt 0.651786 0.500000
vt 0.651786 0.000000
vt 0.660714 0.500000
vt 0.660714 0.000000
vt 0.669643 0.500000
vt 0.669643 0.000000
vt 0.678571 0.000000
vt 0.687500 0.500000
vt 0.687500 0.000000
vt 0.696429 0.500000
vt 0.696429 0.000000
vt 0.705357 0.500000
vt 0.705357 0.000000
vt 0.714286 0.000000
vt 0.723214 0.500000
vt 0.723214 0.000000
vt 0.732143 0.500000
vt 0.732143 0.000000
vt 0.741071 0.500000
vt 0.741071 0.000000
vt 0.750000 0.500000
vt 0.750000 0.000000
vt 0.758929 0.500000
vt 0.758929 0.000000
vt 0.767857 0.500000
vt 0.767857 0.000000
vt 0.776786 0.500000
vt 0.776786 0.000000
vt 0.785714 0.500000
vt 0.785714 0.000000
vt 0.794643 0.500000
vt 0.794643 0.000000
vt 0.803571 0.500000
vt 0.803571 0.000000
vt 0.812500 0.500000
vt 0.812500 0.000000
vt 0.821429 0.500000
vt 0.821429 0.000000
vt 0.830357 0.500000
vt 0.830357 0.000000
vt 0.839286 0.500000
vt 0.839286 0.000000
vt 0.848214 0.500000
vt 0.848214 0.000000
vt 0.857143 0.500000
vt 0.857143 0.000000
vt 0.866071 0.500000
vt 0.866071 0.000000
vt 0.875000 0.500000
vt 0.875000 0.000000
vt 0.883929 0.500000
vt 0.883929 0.000000
vt 0.892857 0.500000
vt 0.892857 0.000000
vt 0.901786 0.500000
vt 0.901786 0.000000
vt 0.910714 0.500000
vt 0.910714 0.000000
vt 0.919643 0.500000
vt 0.919643 0.000000
vt 0.928571 0.500000
vt 0.928571 0.000000
vt 0.937500 0.500000
vt 0.937500 0.000000
vt 0.946429 0.500000
vt 0.946429 0.000000
vt 0.955357 0.500000
vt 0.955357 0.000000
vt 0.964286 0.500000
vt 0.964286 0.000000
vt 0.973214 0.500000
vt 0.973214 0.000000
vt 0.982143 0.500000
vt 0.982143 0.000000
vt 0.991071 0.500000
vt 0.991071 0.000000
vt 1.000000 0.000000
vt 0.240249 0.576361
vt 0.259751 0.576361
vt 0.279132 0.578544
vt 0.259751 0.423639
vt 0.240249 0.423639
vt 0.279132 0.421456
vt 0.298145 0.582884
vt 0.316554 0.589325
vt 0.298145 0.417116
vt 0.316554 0.410675
vt 0.334125 0.597787
vt 0.350639 0.608163
vt 0.334125 0.402213
vt 0.350639 0.391837
vt 0.365886 0.620323
vt 0.379677 0.634114
vt 0.365886 0.379677
vt 0.379677 0.365886
vt 0.391837 0.649361
vt 0.402213 0.665875
vt 0.391837 0.350638
vt 0.402213 0.334125
vt 0.410675 0.683446
vt 0.417116 0.701855
vt 0.410675 0.316554
vt 0.417116 0.298145
vt 0.421456 0.720868
vt 0.423639 0.740249
vt 0.421456 0.279132
vt 0.423639 0.259751
vt 0.423639 0.759751
vt 0.421456 0.779132
vt 0.423639 0.240249
vt 0.421456 0.220868
vt 0.417116 0.798145
vt 0.410675 0.816554
vt 0.417116 0.201855
vt 0.410675 0.183446
vt 0.402213 0.834125
vt 0.391837 0.850639
vt 0.402213 0.165875
vt 0.391837 0.149361
vt 0.379677 0.865886
vt 0.365886 0.879677
vt 0.379677 0.134114
vt 0.365886 0.120323
vt 0.350638 0.891837
vt 0.334125 0.902213
vt 0.350638 0.108163
vt 0.334125 0.097787
vt 0.316554 0.910675
vt 0.298145 0.917116
vt 0.316554 0.089325
vt 0.298145 0.082884
vt 0.279132 0.921456
vt 0.259751 0.923639
vt 0.279132 0.078544
vt 0.259751 0.076361
vt 0.240249 0.923639
vt 0.220868 0.921456
vt 0.240249 0.076361
vt 0.220868 0.078544
vt 0.201855 0.917116
vt 0.183446 0.910675
vt 0.201855 0.082884
vt 0.183446 0.089325
vt 0.165875 0.902213
vt 0.149361 0.891837
vt 0.165875 0.097787
vt 0.149361 0.108163
vt 0.134114 0.879677
vt 0.120323 0.865886
vt 0.134114 0.120323
vt 0.120323 0.134114
vt 0.108163 0.850638
vt 0.097787 0.834125
vt 0.108163 0.149362
vt 0.097787 0.165875
vt 0.089325 0.816554
vt 0.082884 0.798145
vt 0.089325 0.183446
vt 0.082884 0.201855
vt 0.078544 0.779132
vt 0.076361 0.759751
vt 0.078544 0.220868
vt 0.076361 0.240249
vt 0.076361 0.740249
vt 0.078544 0.720868
vt 0.076361 0.259751
vt 0.078544 0.279132
vt 0.082884 0.701855
vt 0.089325 0.683446
vt 0.082884 0.298145
vt 0.089325 0.316554
vt 0.097787 0.665875
vt 0.108163 0.649361
vt 0.097787 0.334125
vt 0.108163 0.350639
vt 0.120323 0.634114
vt 0.134114 0.620323
vt 0.120323 0.365886
vt 0.134114 0.379677
vt 0.149361 0.608163
vt 0.165875 0.597787
vt 0.149361 0.391837
vt 0.165875 0.402213
vt 0.183446 0.589325
vt 0.201855 0.582884
vt 0.183446 0.410675
vt 0.201855 0.417116
vt 0.220868 0.578544
vt 0.220868 0.421456
s 1
usemtl blinn10.001
f 1/1/1 2/2/1 5/3/1 6/4/1
f 2/2/1 3/5/1 4/6/1 5/3/1
f 7/7/1 8/8/1 11/9/1 12/10/1
f 8/8/1 9/11/1 10/12/1 11/9/1
f 13/13/1 14/14/1 17/15/1 18/16/1
f 14/14/1 15/17/1 16/18/1 17/15/1
f 19/19/1 20/20/1 23/21/1 24/22/1
f 20/20/1 21/23/1 22/24/1 23/21/1
f 25/25/1 26/26/1 29/27/1 30/28/1
f 26/26/1 27/29/1 28/30/1 29/27/1
f 31/31/1 32/32/1 35/33/1 36/34/1
f 32/32/1 33/35/1 34/36/1 35/33/1
f 37/37/1 38/38/1 41/39/1 42/40/1
f 38/38/1 39/41/1 40/42/1 41/39/1
f 43/43/1 44/44/1 47/45/1 48/46/1
f 44/44/1 45/47/1 46/48/1 47/45/1
f 49/49/1 50/50/1 53/51/1 54/52/1
f 50/50/1 51/53/1 52/54/1 53/51/1
f 55/55/1 56/56/1 59/57/1 60/58/1
f 56/56/1 57/59/1 58/60/1 59/57/1
f 61/61/1 62/62/1 65/63/1 66/64/1
f 62/62/1 63/65/1 64/66/1 65/63/1
f 67/67/1 68/68/1 71/69/1 72/70/1
f 68/68/1 69/71/1 70/72/1 71/69/1
f 73/73/1 74/74/1 77/75/1 78/76/1
f 74/74/1 75/77/1 76/78/1 77/75/1
f 79/79/1 80/80/1 83/81/1 84/82/1
f 80/80/1 81/83/1 82/84/1 83/81/1
f 85/85/1 86/86/1 89/87/1 90/88/1
f 86/86/1 87/89/1 88/90/1 89/87/1
f 91/91/1 92/92/1 95/93/1 96/94/1
f 92/92/1 93/95/1 94/96/1 95/93/1
f 97/97/1 98/98/1 101/99/1 102/100/1
f 98/98/1 99/101/1 100/102/1 101/99/1
f 103/103/1 104/104/1 107/105/1 108/106/1
f 104/104/1 105/107/1 106/108/1 107/105/1
f 109/109/1 110/110/1 113/111/1 114/112/1
f 110/110/1 111/113/1 112/114/1 113/111/1
f 115/115/1 116/116/1 119/117/1 120/118/1
f 116/116/1 117/119/1 118/120/1 119/117/1
f 121/121/1 122/122/1 125/123/1 126/124/1
f 122/122/1 123/125/1 124/126/1 125/123/1
f 127/127/1 128/128/1 131/129/1 132/130/1
f 128/128/1 129/131/1 130/132/1 131/129/1
f 133/133/1 134/134/1 137/135/1 138/136/1
f 134/134/1 135/137/1 136/138/1 137/135/1
f 139/139/1 140/140/1 143/141/1 144/142/1
f 140/140/1 141/143/1 142/144/1 143/141/1
f 145/145/1 146/146/1 149/147/1 150/148/1
f 146/146/1 147/149/1 148/150/1 149/147/1
f 151/151/1 152/152/1 155/153/1 156/154/1
f 152/152/1 153/155/1 154/156/1 155/153/1
f 157/157/1 158/158/1 161/159/1 162/160/1
f 158/158/1 159/161/1 160/162/1 161/159/1
f 163/163/1 164/164/1 167/165/1 168/166/1
f 164/164/1 165/167/1 166/168/1 167/165/1
f 174/507/226 173/508/226 170/509/226 169/510/226
f 173/508/226 172/511/226 171/512/226 170/509/226
f 180/513/226 179/514/226 176/515/226 175/516/226
f 179/514/226 178/517/226 177/518/226 176/515/226
f 186/519/226 185/520/226 182/521/226 181/522/226
f 185/520/226 184/523/226 183/524/226 182/521/226
f 192/525/226 191/526/226 188/527/226 187/528/226
f 191/526/226 190/529/226 189/530/226 188/527/226
f 198/531/226 197/532/226 194/533/226 193/534/226
f 197/532/226 196/535/226 195/536/226 194/533/226
f 204/537/226 203/538/226 200/539/226 199/540/226
f 203/538/226 202/541/226 201/542/226 200/539/226
f 210/543/226 209/544/226 206/545/226 205/546/226
f 209/544/226 208/547/226 207/548/226 206/545/226
f 216/549/226 215/550/226 212/551/226 211/552/226
f 215/550/226 214/553/226 213/554/226 212/551/226
f 222/555/226 221/556/226 218/557/226 217/558/226
f 221/556/226 220/559/226 219/560/226 218/557/226
f 228/561/226 227/562/226 224/563/226 223/564/226
f 227/562/226 226/565/226 225/566/226 224/563/226
f 234/567/226 233/568/226 230/569/226 229/570/226
f 233/568/226 232/571/226 231/572/226 230/569/226
f 240/573/226 239/574/226 236/575/226 235/576/226
f 239/574/226 238/577/226 237/578/226 236/575/226
f 246/579/226 245/580/226 242/581/226 241/582/226
f 245/580/226 244/583/226 243/584/226 242/581/226
f 252/585/226 251/586/226 248/587/226 247/588/226
f 251/586/226 250/589/226 249/590/226 248/587/226
f 258/591/226 257/592/226 254/593/226 253/594/226
f 257/592/226 256/595/226 255/596/226 254/593/226
f 264/597/226 263/598/226 260/599/226 259/600/226
f 263/598/226 262/601/226 261/602/226 260/599/226
f 270/603/226 269/604/226 266/605/226 265/606/226
f 269/604/226 268/607/226 267/608/226 266/605/226
f 276/609/226 275/610/226 272/611/226 271/612/226
f 275/610/226 274/613/226 273/614/226 272/611/226
f 282/615/226 281/616/226 278/617/226 277/618/226
f 281/616/226 280/619/226 279/620/226 278/617/226
f 288/621/226 287/622/226 284/623/226 283/624/226
f 287/622/226 286/625/226 285/626/226 284/623/226
f 294/627/226 293/628/226 290/629/226 289/630/226
f 293/628/226 292/631/226 291/632/226 290/629/226
f 300/633/226 299/634/226 296/635/226 295/636/226
f 299/634/226 298/637/226 297/638/226 296/635/226
f 306/639/226 305/640/226 302/641/226 301/642/226
f 305/640/226 304/643/226 303/644/226 302/641/226
f 312/645/226 311/646/226 308/647/226 307/648/226
f 311/646/226 310/649/226 309/650/226 308/647/226
f 318/651/226 317/652/226 314/653/226 313/654/226
f 317/652/226 316/655/226 315/656/226 314/653/226
f 324/657/226 323/658/226 320/659/226 319/660/226
f 323/658/226 322/661/226 321/662/226 320/659/226
f 330/663/226 329/664/226 326/665/226 325/666/226
f 329/664/226 328/667/226 327/668/226 326/665/226
f 336/669/226 335/670/226 332/671/226 331/672/226
f 335/670/226 334/673/226 333/674/226 332/671/226
f 337/779/1 1/1/1 6/4/1 338/780/1
f 338/780/1 6/4/1 7/7/1 339/781/1
f 394/782/226 174/507/226 169/510/226 393/783/226
f 395/784/226 175/516/226 174/507/226 394/782/226
f 339/781/1 7/7/1 12/10/1 340/785/1
f 340/785/1 12/10/1 13/13/1 341/786/1
f 396/787/226 180/513/226 175/516/226 395/784/226
f 397/788/226 181/522/226 180/513/226 396/787/226
f 341/786/1 13/13/1 18/16/1 342/789/1
f 342/789/1 18/16/1 19/19/1 343/790/1
f 398/791/226 186/519/226 181/522/226 397/788/226
f 399/792/226 187/528/226 186/519/226 398/791/226
f 343/790/1 19/19/1 24/22/1 344/793/1
f 344/793/1 24/22/1 25/25/1 345/794/1
f 400/795/226 192/525/226 187/528/226 399/792/226
f 401/796/226 193/534/226 192/525/226 400/795/226
f 345/794/1 25/25/1 30/28/1 346/797/1
f 346/797/1 30/28/1 31/31/1 347/798/1
f 402/799/226 198/531/226 193/534/226 401/796/226
f 403/800/226 199/540/226 198/531/226 402/799/226
f 347/798/1 31/31/1 36/34/1 348/801/1
f 348/801/1 36/34/1 37/37/1 349/802/1
f 404/803/226 204/537/226 199/540/226 403/800/226
f 405/804/226 205/546/226 204/537/226 404/803/226
f 349/802/1 37/37/1 42/40/1 350/805/1
f 350/805/1 42/40/1 43/43/1 351/806/1
f 406/807/226 210/543/226 205/546/226 405/804/226
f 407/808/226 211/552/226 210/543/226 406/807/226
f 351/806/1 43/43/1 48/46/1 352/809/1
f 352/809/1 48/46/1 49/49/1 353/810/1
f 408/811/226 216/549/226 211/552/226 407/808/226
f 409/812/226 217/558/226 216/549/226 408/811/226
f 353/810/1 49/49/1 54/52/1 354/813/1
f 354/813/1 54/52/1 55/55/1 355/814/1
f 410/815/226 222/555/226 217/558/226 409/812/226
f 411/816/226 223/564/226 222/555/226 410/815/226
f 355/814/1 55/55/1 60/58/1 356/817/1
f 356/817/1 60/58/1 61/61/1 357/818/1
f 412/819/226 228/561/226 223/564/226 411/816/226
f 413/820/226 229/570/226 228/561/226 412/819/226
f 357/818/1 61/61/1 66/64/1 358/821/1
f 358/821/1 66/64/1 67/67/1 359/822/1
f 414/823/226 234/567/226 229/570/226 413/820/226
f 415/824/226 235/576/226 234/567/226 414/823/226
f 359/822/1 67/67/1 72/70/1 360/825/1
f 360/825/1 72/70/1 73/73/1 361/826/1
f 416/827/226 240/573/226 235/576/226 415/824/226
f 417/828/226 241/582/226 240/573/226 416/827/226
f 361/826/1 73/73/1 78/76/1 362/829/1
f 362/829/1 78/76/1 79/79/1 363/830/1
f 418/831/226 246/579/226 241/582/226 417/828/226
f 419/832/226 247/588/226 246/579/226 418/831/226
f 363/830/1 79/79/1 84/82/1 364/833/1
f 364/833/1 84/82/1 85/85/1 365/834/1
f 420/835/226 252/585/226 247/588/226 419/832/226
f 421/836/226 253/594/226 252/585/226 420/835/226
f 365/834/1 85/85/1 90/88/1 366/837/1
f 366/837/1 90/88/1 91/91/1 367/838/1
f 422/839/226 258/591/226 253/594/226 421/836/226
f 423/840/226 259/600/226 258/591/226 422/839/226
f 367/838/1 91/91/1 96/94/1 368/841/1
f 368/841/1 96/94/1 97/97/1 369/842/1
f 424/843/226 264/597/226 259/600/226 423/840/226
f 425/844/226 265/606/226 264/597/226 424/843/226
f 369/842/1 97/97/1 102/100/1 370/845/1
f 370/845/1 102/100/1 103/103/1 371/846/1
f 426/847/226 270/603/226 265/606/226 425/844/226
f 427/848/226 271/612/226 270/603/226 426/847/226
f 371/846/1 103/103/1 108/106/1 372/849/1
f 372/849/1 108/106/1 109/109/1 373/850/1
f 428/851/226 276/609/226 271/612/226 427/848/226
f 429/852/226 277/618/226 276/609/226 428/851/226
f 373/850/1 109/109/1 114/112/1 374/853/1
f 374/853/1 114/112/1 115/115/1 375/854/1
f 430/855/226 282/615/226 277/618/226 429/852/226
f 431/856/226 283/624/226 282/615/226 430/855/226
f 375/854/1 115/115/1 120/118/1 376/857/1
f 376/857/1 120/118/1 121/121/1 377/858/1
f 432/859/226 288/621/226 283/624/226 431/856/226
f 433/860/226 289/630/226 288/621/226 432/859/226
f 377/858/1 121/121/1 126/124/1 378/861/1
f 378/861/1 126/124/1 127/127/1 379/862/1
f 434/863/226 294/627/226 289/630/226 433/860/226
f 435/864/226 295/636/226 294/627/226 434/863/226
f 379/862/1 127/127/1 132/130/1 380/865/1
f 380/865/1 132/130/1 133/133/1 381/866/1
f 436/867/226 300/633/226 295/636/226 435/864/226
f 437/868/226 301/642/226 300/633/226 436/867/226
f 381/866/1 133/133/1 138/136/1 382/869/1
f 382/869/1 138/136/1 139/139/1 383/870/1
f 438/871/226 306/639/226 301/642/226 437/868/226
f 439/872/226 307/648/226 306/639/226 438/871/226
f 383/870/1 139/139/1 144/142/1 384/873/1
f 384/873/1 144/142/1 145/145/1 385/874/1
f 440/875/226 312/645/226 307/648/226 439/872/226
f 441/876/226 313/654/226 312/645/226 440/875/226
f 385/874/1 145/145/1 150/148/1 386/877/1
f 386/877/1 150/148/1 151/151/1 387/878/1
f 442/879/226 318/651/226 313/654/226 441/876/226
f 443/880/226 319/660/226 318/651/226 442/879/226
f 387/878/1 151/151/1 156/154/1 388/881/1
f 388/881/1 156/154/1 157/157/1 389/882/1
f 444/883/226 324/657/226 319/660/226 443/880/226
f 445/884/226 325/666/226 324/657/226 444/883/226
f 389/882/1 157/157/1 162/160/1 390/885/1
f 390/885/1 162/160/1 163/163/1 391/886/1
f 446/887/226 330/663/226 325/666/226 445/884/226
f 447/888/226 331/672/226 330/663/226 446/887/226
f 391/886/1 163/163/1 168/166/1 392/889/1
f 392/889/1 168/166/1 1/1/1 337/779/1
f 448/890/226 336/669/226 331/672/226 447/888/226
f 393/783/226 169/510/226 336/669/226 448/890/226
usemtl LaminaMetal.001
f 1/169/2 169/170/2 170/171/3 2/172/3
f 2/172/3 170/171/3 171/173/4 3/174/4
f 3/174/5 171/173/5 172/175/5 4/176/5
f 4/176/6 172/175/6 173/177/7 5/178/7
f 5/178/7 173/177/7 174/179/8 6/180/8
f 6/180/9 174/179/9 175/181/9 7/182/9
f 7/182/10 175/181/10 176/183/11 8/184/11
f 8/184/11 176/183/11 177/185/12 9/186/12
f 9/186/13 177/185/13 178/187/13 10/188/13
f 10/188/14 178/187/14 179/189/15 11/190/15
f 11/190/15 179/189/15 180/191/16 12/192/16
f 12/192/17 180/191/17 181/193/17 13/194/17
f 13/194/18 181/193/18 182/195/19 14/196/19
f 14/196/19 182/195/19 183/197/20 15/198/20
f 15/198/21 183/197/21 184/199/21 16/200/21
f 16/200/22 184/199/22 185/201/23 17/202/23
f 17/202/23 185/201/23 186/203/24 18/204/24
f 18/204/25 186/203/25 187/205/25 19/206/25
f 19/206/26 187/205/26 188/207/27 20/208/27
f 20/208/27 188/207/27 189/209/28 21/210/28
f 21/210/29 189/209/29 190/211/29 22/212/29
f 22/212/30 190/211/30 191/213/31 23/214/31
f 23/214/31 191/213/31 192/215/32 24/216/32
f 24/216/33 192/215/33 193/217/33 25/218/33
f 25/218/34 193/217/34 194/219/35 26/220/35
f 26/220/35 194/219/35 195/221/36 27/222/36
f 27/222/37 195/221/37 196/223/37 28/224/37
f 28/224/38 196/223/38 197/225/39 29/226/39
f 29/226/39 197/225/39 198/227/40 30/228/40
f 30/228/41 198/227/41 199/229/41 31/230/41
f 31/230/42 199/229/42 200/231/43 32/232/43
f 32/232/43 200/231/43 201/233/44 33/234/44
f 33/234/45 201/233/45 202/235/45 34/236/45
f 34/236/46 202/235/46 203/237/47 35/238/47
f 35/238/47 203/237/47 204/239/48 36/240/48
f 36/240/49 204/239/49 205/241/49 37/242/49
f 37/242/50 205/241/50 206/243/51 38/244/51
f 38/244/51 206/243/51 207/245/52 39/246/52
f 39/246/53 207/245/53 208/247/53 40/248/53
f 40/248/54 208/247/54 209/249/55 41/250/55
f 41/250/55 209/249/55 210/251/56 42/252/56
f 42/252/57 210/251/57 211/253/57 43/254/57
f 43/254/58 211/253/58 212/255/59 44/256/59
f 44/256/59 212/255/59 213/257/60 45/258/60
f 45/258/61 213/257/61 214/259/61 46/260/61
f 46/260/62 214/259/62 215/261/63 47/262/63
f 47/262/63 215/261/63 216/263/64 48/264/64
f 48/264/65 216/263/65 217/265/65 49/266/65
f 49/266/66 217/265/66 218/267/67 50/268/67
f 50/268/67 218/267/67 219/269/68 51/270/68
f 51/270/69 219/269/69 220/271/69 52/272/69
f 52/272/70 220/271/70 221/273/71 53/274/71
f 53/274/71 221/273/71 222/275/72 54/276/72
f 54/276/73 222/275/73 223/277/73 55/278/73
f 55/278/74 223/277/74 224/279/75 56/280/75
f 56/280/75 224/279/75 225/281/76 57/282/76
f 57/282/77 225/281/77 226/283/77 58/284/77
f 58/284/78 226/283/78 227/285/79 59/286/79
f 59/286/79 227/285/79 228/287/80 60/288/80
f 60/288/81 228/287/81 229/289/81 61/290/81
f 61/290/82 229/289/82 230/291/83 62/292/83
f 62/292/83 230/291/83 231/293/84 63/294/84
f 63/294/85 231/293/85 232/295/85 64/296/85
f 64/296/86 232/295/86 233/297/87 65/298/87
f 65/298/87 233/297/87 234/299/88 66/300/88
f 66/300/89 234/299/89 235/301/89 67/302/89
f 67/302/90 235/301/90 236/303/91 68/304/91
f 68/304/91 236/303/91 237/305/92 69/306/92
f 69/306/93 237/305/93 238/307/93 70/308/93
f 70/308/94 238/307/94 239/309/95 71/310/95
f 71/310/95 239/309/95 240/311/96 72/312/96
f 72/312/97 240/311/97 241/313/97 73/314/97
f 73/314/98 241/313/98 242/315/99 74/316/99
f 74/316/99 242/315/99 243/317/100 75/318/100
f 75/318/101 243/317/101 244/319/101 76/320/101
f 76/320/102 244/319/102 245/321/103 77/322/103
f 77/322/103 245/321/103 246/323/104 78/324/104
f 78/324/105 246/323/105 247/325/105 79/326/105
f 79/326/106 247/325/106 248/327/107 80/328/107
f 80/328/107 248/327/107 249/329/108 81/330/108
f 81/330/109 249/329/109 250/331/109 82/332/109
f 82/332/110 250/331/110 251/333/111 83/334/111
f 83/334/111 251/333/111 252/335/112 84/336/112
f 84/336/113 252/335/113 253/337/113 85/338/113
f 85/338/114 253/337/114 254/339/115 86/340/115
f 86/340/115 254/339/115 255/341/116 87/342/116
f 87/342/117 255/341/117 256/343/117 88/344/117
f 88/344/118 256/343/118 257/345/119 89/346/119
f 89/346/119 257/345/119 258/347/120 90/348/120
f 90/348/121 258/347/121 259/349/121 91/350/121
f 91/350/122 259/349/122 260/351/123 92/352/123
f 92/352/123 260/351/123 261/353/124 93/354/124
f 93/354/125 261/353/125 262/355/125 94/356/125
f 94/356/126 262/355/126 263/357/127 95/358/127
f 95/358/127 263/357/127 264/359/128 96/360/128
f 96/360/129 264/359/129 265/361/129 97/362/129
f 97/362/130 265/361/130 266/363/131 98/364/131
f 98/364/131 266/363/131 267/365/132 99/366/132
f 99/366/133 267/365/133 268/367/133 100/368/133
f 100/368/134 268/367/134 269/369/135 101/370/135
f 101/370/135 269/369/135 270/371/136 102/372/136
f 102/372/137 270/371/137 271/373/137 103/374/137
f 103/374/138 271/373/138 272/375/139 104/376/139
f 104/376/139 272/375/139 273/377/140 105/378/140
f 105/378/141 273/377/141 274/379/141 106/380/141
f 106/380/142 274/379/142 275/381/143 107/382/143
f 107/382/143 275/381/143 276/383/144 108/384/144
f 108/384/145 276/383/145 277/385/145 109/386/145
f 109/386/146 277/385/146 278/387/147 110/388/147
f 110/388/147 278/387/147 279/389/148 111/390/148
f 111/390/149 279/389/149 280/391/149 112/392/149
f 112/392/150 280/391/150 281/393/151 113/394/151
f 113/394/151 281/393/151 282/395/152 114/396/152
f 114/396/153 282/395/153 283/397/153 115/398/153
f 115/398/154 283/397/154 284/399/155 116/400/155
f 116/400/155 284/399/155 285/401/156 117/402/156
f 117/402/157 285/401/157 286/403/157 118/404/157
f 118/404/158 286/403/158 287/405/159 119/406/159
f 119/406/159 287/405/159 288/407/160 120/408/160
f 120/408/161 288/407/161 289/409/161 121/410/161
f 121/410/162 289/409/162 290/411/163 122/412/163
f 122/412/163 290/411/163 291/413/164 123/414/164
f 123/414/165 291/413/165 292/415/165 124/416/165
f 124/416/166 292/415/166 293/417/167 125/418/167
f 125/418/167 293/417/167 294/419/168 126/420/168
f 126/420/169 294/419/169 295/421/169 127/422/169
f 127/422/170 295/421/170 296/423/171 128/424/171
f 128/424/171 296/423/171 297/425/172 129/426/172
f 129/426/173 297/425/173 298/427/173 130/428/173
f 130/428/174 298/427/174 299/429/175 131/430/175
f 131/430/175 299/429/175 300/431/176 132/432/176
f 132/432/177 300/431/177 301/433/177 133/434/177
f 133/434/178 301/433/178 302/435/179 134/436/179
f 134/436/179 302/435/179 303/437/180 135/438/180
f 135/438/181 303/437/181 304/439/181 136/440/181
f 136/440/182 304/439/182 305/441/183 137/442/183
f 137/442/183 305/441/183 306/443/184 138/444/184
f 138/444/185 306/443/185 307/445/185 139/446/185
f 139/446/186 307/445/186 308/447/187 140/448/187
f 140/448/187 308/447/187 309/449/188 141/450/188
f 141/450/189 309/449/189 310/451/189 142/452/189
f 142/452/190 310/451/190 311/453/191 143/454/191
f 143/454/191 311/453/191 312/455/192 144/456/192
f 144/456/193 312/455/193 313/457/193 145/458/193
f 145/458/194 313/457/194 314/459/195 146/460/195
f 146/460/195 314/459/195 315/461/196 147/462/196
f 147/462/197 315/461/197 316/463/197 148/464/197
f 148/464/198 316/463/198 317/465/199 149/466/199
f 149/466/199 317/465/199 318/467/200 150/468/200
f 150/468/201 318/467/201 319/469/201 151/470/201
f 151/470/202 319/469/202 320/471/203 152/472/203
f 152/472/203 320/471/203 321/473/204 153/474/204
f 153/474/205 321/473/205 322/475/205 154/476/205
f 154/476/206 322/475/206 323/477/207 155/478/207
f 155/478/207 323/477/207 324/479/208 156/480/208
f 156/480/209 324/479/209 325/481/209 157/482/209
f 157/482/210 325/481/210 326/483/211 158/484/211
f 158/484/211 326/483/211 327/485/212 159/486/212
f 159/486/213 327/485/213 328/487/213 160/488/213
f 160/488/214 328/487/214 329/489/215 161/490/215
f 161/490/215 329/489/215 330/491/216 162/492/216
f 162/492/217 330/491/217 331/493/217 163/494/217
f 163/494/218 331/493/218 332/495/219 164/496/219
f 164/496/219 332/495/219 333/497/220 165/498/220
f 165/498/221 333/497/221 334/499/221 166/500/221
f 166/500/222 334/499/222 335/501/223 167/502/223
f 167/502/223 335/501/223 336/503/224 168/504/224
f 168/504/225 336/503/225 169/505/225 1/506/225
f 337/170/227 338/675/228 394/676/228 393/677/227
f 338/675/228 339/181/229 395/678/229 394/676/228
f 339/181/229 340/679/230 396/680/230 395/678/229
f 340/679/230 341/193/231 397/681/231 396/680/230
f 341/193/231 342/682/232 398/683/232 397/681/231
f 342/682/232 343/684/233 399/685/233 398/683/232
f 343/684/233 344/686/234 400/687/234 399/685/233
f 344/686/234 345/217/235 401/688/235 400/687/234
f 345/217/235 346/689/236 402/690/236 401/688/235
f 346/689/236 347/229/237 403/691/237 402/690/236
f 347/229/237 348/692/238 404/693/238 403/691/237
f 348/692/238 349/241/239 405/694/239 404/693/238
f 349/241/239 350/695/240 406/696/240 405/694/239
f 350/695/240 351/253/241 407/697/241 406/696/240
f 351/253/241 352/698/242 408/699/242 407/697/241
f 352/698/242 353/700/243 409/701/243 408/699/242
f 353/700/243 354/702/244 410/703/244 409/701/243
f 354/702/244 355/704/245 411/705/245 410/703/244
f 355/704/245 356/706/246 412/707/246 411/705/245
f 356/706/246 357/289/247 413/708/247 412/707/246
f 357/289/247 358/709/248 414/710/248 413/708/247
f 358/709/248 359/711/249 415/712/249 414/710/248
f 359/711/249 360/713/250 416/714/250 415/712/249
f 360/713/250 361/313/251 417/715/251 416/714/250
f 361/313/251 362/716/252 418/717/252 417/715/251
f 362/716/252 363/718/253 419/719/253 418/717/252
f 363/718/253 364/720/254 420/721/254 419/719/253
f 364/720/254 365/722/255 421/723/255 420/721/254
f 365/722/255 366/724/256 422/725/256 421/723/255
f 366/724/256 367/726/257 423/727/257 422/725/256
f 367/726/257 368/728/258 424/729/258 423/727/257
f 368/728/258 369/730/259 425/731/259 424/729/258
f 369/730/259 370/732/260 426/733/260 425/731/259
f 370/732/260 371/734/261 427/735/261 426/733/260
f 371/734/261 372/736/262 428/737/262 427/735/261
f 372/736/262 373/738/263 429/739/263 428/737/262
f 373/738/263 374/740/264 430/741/264 429/739/263
f 374/740/264 375/742/265 431/743/265 430/741/264
f 375/742/265 376/744/266 432/745/266 431/743/265
f 376/744/266 377/746/267 433/747/267 432/745/266
f 377/746/267 378/748/268 434/749/268 433/747/267
f 378/748/268 379/750/269 435/751/269 434/749/268
f 379/750/269 380/752/270 436/753/270 435/751/269
f 380/752/270 381/754/271 437/755/271 436/753/270
f 381/754/271 382/756/272 438/757/272 437/755/271
f 382/756/272 383/758/273 439/759/273 438/757/272
f 383/758/273 384/760/274 440/761/274 439/759/273
f 384/760/274 385/762/275 441/763/275 440/761/274
f 385/762/275 386/764/276 442/765/276 441/763/275
f 386/764/276 387/766/277 443/767/277 442/765/276
f 387/766/277 388/768/278 444/769/278 443/767/277
f 388/768/278 389/770/279 445/771/279 444/769/278
f 389/770/279 390/772/280 446/773/280 445/771/279
f 390/772/280 391/774/281 447/775/281 446/773/280
f 391/774/281 392/776/282 448/777/282 447/775/281
f 392/776/282 337/505/227 393/778/227 448/777/282
o pasted__pCube10.001
v -0.258201 0.279363 -0.028133
v -0.252141 0.287837 -0.028118
v -0.319685 0.323326 -0.028421
v -0.313626 0.331801 -0.028406
v -0.319661 0.323320 -0.034570
v -0.313602 0.331794 -0.034555
v -0.258176 0.279356 -0.034282
v -0.252117 0.287831 -0.034267
vn -0.0039 0.0011 1.0000
vn -0.8134 0.5816 -0.0038
vn 0.0039 -0.0011 -1.0000
vn 0.8134 -0.5816 0.0038
vn 0.5816 0.8134 0.0014
vn -0.5816 -0.8134 -0.0014
vt 0.375000 0.000000
vt 0.625000 0.000000
vt 0.625000 0.250000
vt 0.375000 0.250000
vt 0.625000 0.500000
vt 0.375000 0.500000
vt 0.625000 0.750000
vt 0.375000 0.750000
vt 0.625000 1.000000
vt 0.375000 1.000000
vt 0.875000 0.000000
vt 0.875000 0.250000
vt 0.125000 0.000000
vt 0.125000 0.250000
s 1
usemtl RojoOscuro.001
f 449/891/283 450/892/283 452/893/283 451/894/283
f 451/894/284 452/893/284 454/895/284 453/896/284
f 453/896/285 454/895/285 456/897/285 455/898/285
f 455/898/286 456/897/286 450/899/286 449/900/286
f 450/892/287 456/901/287 454/902/287 452/893/287
f 455/903/288 449/891/288 451/894/288 453/904/288
o pasted__pCube6.002
v -0.241052 0.286756 -0.028073
v -0.236742 0.277272 -0.028046
v -0.172236 0.318023 -0.027836
v -0.167926 0.308538 -0.027809
v -0.172212 0.318016 -0.033985
v -0.167902 0.308531 -0.033958
v -0.241027 0.286750 -0.034222
v -0.236718 0.277265 -0.034195
vn -0.0039 0.0011 1.0000
vn 0.9104 0.4137 0.0031
vn 0.0039 -0.0011 -1.0000
vn -0.9104 -0.4137 -0.0031
vn 0.4136 -0.9104 0.0026
vn -0.4136 0.9104 -0.0026
vt 0.375000 0.000000
vt 0.625000 0.000000
vt 0.625000 0.250000
vt 0.375000 0.250000
vt 0.625000 0.500000
vt 0.375000 0.500000
vt 0.625000 0.750000
vt 0.375000 0.750000
vt 0.625000 1.000000
vt 0.375000 1.000000
vt 0.875000 0.000000
vt 0.875000 0.250000
vt 0.125000 0.000000
vt 0.125000 0.250000
s 1
usemtl RojoOscuro.001
f 457/905/289 458/906/289 460/907/289 459/908/289
f 459/908/290 460/907/290 462/909/290 461/910/290
f 461/910/291 462/909/291 464/911/291 463/912/291
f 463/912/292 464/911/292 458/913/292 457/914/292
f 458/906/293 464/915/293 462/916/293 460/907/293
f 463/917/294 457/905/294 459/908/294 461/918/294
o pasted__pCube8.001
v -0.243223 0.268208 -0.028062
v -0.253592 0.269218 -0.028104
v -0.250554 0.192978 -0.028011
v -0.260923 0.193989 -0.028053
v -0.250530 0.192972 -0.034160
v -0.260899 0.193982 -0.034202
v -0.243199 0.268201 -0.034211
v -0.253568 0.269212 -0.034253
vn -0.0039 0.0011 1.0000
vn -0.0970 -0.9953 0.0007
vn 0.0039 -0.0011 -1.0000
vn 0.0970 0.9953 -0.0007
vn -0.9953 0.0970 -0.0040
vn 0.9953 -0.0970 0.0040
vt 0.375000 0.000000
vt 0.625000 0.000000
vt 0.625000 0.250000
vt 0.375000 0.250000
vt 0.625000 0.500000
vt 0.375000 0.500000
vt 0.625000 0.750000
vt 0.375000 0.750000
vt 0.625000 1.000000
vt 0.375000 1.000000
vt 0.875000 0.000000
vt 0.875000 0.250000
vt 0.125000 0.000000
vt 0.125000 0.250000
s 1
usemtl RojoOscuro.001
f 465/919/295 466/920/295 468/921/295 467/922/295
f 467/922/296 468/921/296 470/923/296 469/924/296
f 469/924/297 470/923/297 472/925/297 471/926/297
f 471/926/298 472/925/298 466/927/298 465/928/298
f 466/920/299 472/929/299 470/930/299 468/921/299
f 471/931/300 465/919/300 467/922/300 469/932/300
o pasted__pCube7.002
v -0.236783 0.276855 -0.028046
v -0.242842 0.268381 -0.028061
v -0.175298 0.232892 -0.027758
v -0.181357 0.224417 -0.027773
v -0.175274 0.232885 -0.033907
v -0.181333 0.224411 -0.033922
v -0.236759 0.276849 -0.034195
v -0.242818 0.268374 -0.034210
vn -0.0039 0.0011 1.0000
vn 0.8134 -0.5816 0.0038
vn 0.0039 -0.0011 -1.0000
vn -0.8134 0.5816 -0.0038
vn -0.5816 -0.8134 -0.0014
vn 0.5816 0.8134 0.0014
vt 0.375000 0.000000
vt 0.625000 0.000000
vt 0.625000 0.250000
vt 0.375000 0.250000
vt 0.625000 0.500000
vt 0.375000 0.500000
vt 0.625000 0.750000
vt 0.375000 0.750000
vt 0.625000 1.000000
vt 0.375000 1.000000
vt 0.875000 0.000000
vt 0.875000 0.250000
vt 0.125000 0.000000
vt 0.125000 0.250000
s 1
usemtl RojoOscuro.001
f 473/933/301 474/934/301 476/935/301 475/936/301
f 475/936/302 476/935/302 478/937/302 477/938/302
f 477/938/303 478/937/303 480/939/303 479/940/303
f 479/940/304 480/939/304 474/941/304 473/942/304
f 474/934/305 480/943/305 478/944/305 476/935/305
f 479/945/306 473/933/306 475/936/306 477/946/306
o pasted__pPipe1.001
v -0.247464 0.278102 -0.035026
v -0.247495 0.278110 -0.027301
v -0.197878 0.273275 -0.027101
v -0.198813 0.288844 -0.027121
v -0.204512 0.303362 -0.027159
v -0.214419 0.315409 -0.027211
v -0.227564 0.323804 -0.027271
v -0.242660 0.327726 -0.027335
v -0.258229 0.326792 -0.027395
v -0.272747 0.321092 -0.027446
v -0.284793 0.311185 -0.027483
v -0.293189 0.298041 -0.027502
v -0.297111 0.282945 -0.027501
v -0.296177 0.267376 -0.027481
v -0.290477 0.252857 -0.027443
v -0.280570 0.240811 -0.027392
v -0.267425 0.232416 -0.027331
v -0.252330 0.228493 -0.027268
v -0.236761 0.229427 -0.027207
v -0.222243 0.235127 -0.027156
v -0.210196 0.245034 -0.027120
v -0.201801 0.258179 -0.027101
v -0.197848 0.273267 -0.034826
v -0.198782 0.288836 -0.034847
v -0.204482 0.303354 -0.034884
v -0.214389 0.315400 -0.034936
v -0.227534 0.323796 -0.034996
v -0.242629 0.327718 -0.035060
v -0.258198 0.326784 -0.035120
v -0.272716 0.321084 -0.035171
v -0.284763 0.311177 -0.035208
v -0.293158 0.298032 -0.035227
v -0.297081 0.282937 -0.035226
v -0.296146 0.267368 -0.035206
v -0.290447 0.252849 -0.035169
v -0.280540 0.240803 -0.035117
v -0.267395 0.232407 -0.035056
v -0.252299 0.228485 -0.034993
v -0.236731 0.229419 -0.034933
v -0.222212 0.235119 -0.034882
v -0.210166 0.245026 -0.034845
v -0.201771 0.258171 -0.034826
vn -0.0039 0.0011 1.0000
vn 0.9765 0.2153 0.0036
vn 0.9953 -0.0970 0.0040
vn 0.8622 0.5066 0.0029
vn 0.6635 0.7482 0.0018
vn 0.3998 0.9166 0.0006
vn 0.0970 0.9953 -0.0007
vn -0.2153 0.9765 -0.0019
vn -0.5065 0.8622 -0.0029
vn -0.7482 0.6635 -0.0036
vn -0.9166 0.3998 -0.0040
vn -0.9953 0.0970 -0.0040
vn -0.9765 -0.2153 -0.0036
vn -0.8622 -0.5066 -0.0029
vn -0.6635 -0.7482 -0.0018
vn -0.3998 -0.9166 -0.0006
vn -0.0970 -0.9953 0.0007
vn 0.2153 -0.9765 0.0019
vn 0.5065 -0.8622 0.0029
vn 0.7482 -0.6635 0.0036
vn 0.9166 -0.3998 0.0040
vn 0.0039 -0.0011 -1.0000
vt 0.500000 0.750000
vt 0.000000 0.500000
vt 0.050000 0.500000
vt 0.100000 0.500000
vt 0.150000 0.500000
vt 0.200000 0.500000
vt 0.250000 0.500000
vt 0.300000 0.500000
vt 0.350000 0.500000
vt 0.400000 0.500000
vt 0.450000 0.500000
vt 0.500000 0.500000
vt 0.550000 0.500000
vt 0.600000 0.500000
vt 0.650000 0.500000
vt 0.700000 0.500000
vt 0.750000 0.500000
vt 0.800000 0.500000
vt 0.850000 0.500000
vt 0.900000 0.500000
vt 0.950000 0.500000
vt 1.000000 0.500000
vt 0.000000 0.250000
vt 0.050000 0.250000
vt 0.100000 0.250000
vt 0.150000 0.250000
vt 0.200000 0.250000
vt 0.250000 0.250000
vt 0.300000 0.250000
vt 0.350000 0.250000
vt 0.400000 0.250000
vt 0.450000 0.250000
vt 0.500000 0.250000
vt 0.550000 0.250000
vt 0.600000 0.250000
vt 0.650000 0.250000
vt 0.700000 0.250000
vt 0.750000 0.250000
vt 0.800000 0.250000
vt 0.850000 0.250000
vt 0.900000 0.250000
vt 0.950000 0.250000
vt 1.000000 0.250000
vt 0.500000 0.000000
s 1
usemtl RojoOscuro.001
f 482/947/307 483/948/307 484/949/307
f 482/947/307 484/949/307 485/950/307
f 482/947/307 485/950/307 486/951/307
f 482/947/307 486/951/307 487/952/307
f 482/947/307 487/952/307 488/953/307
f 482/947/307 488/953/307 489/954/307
f 482/947/307 489/954/307 490/955/307
f 482/947/307 490/955/307 491/956/307
f 482/947/307 491/956/307 492/957/307
f 482/947/307 492/957/307 493/958/307
f 482/947/307 493/958/307 494/959/307
f 482/947/307 494/959/307 495/960/307
f 482/947/307 495/960/307 496/961/307
f 482/947/307 496/961/307 497/962/307
f 482/947/307 497/962/307 498/963/307
f 482/947/307 498/963/307 499/964/307
f 482/947/307 499/964/307 500/965/307
f 482/947/307 500/965/307 501/966/307
f 482/947/307 501/966/307 502/967/307
f 482/947/307 502/967/307 483/968/307
f 484/949/308 483/948/309 503/969/309 504/970/308
f 485/950/310 484/949/308 504/970/308 505/971/310
f 486/951/311 485/950/310 505/971/310 506/972/311
f 487/952/312 486/951/311 506/972/311 507/973/312
f 488/953/313 487/952/312 507/973/312 508/974/313
f 489/954/314 488/953/313 508/974/313 509/975/314
f 490/955/315 489/954/314 509/975/314 510/976/315
f 491/956/316 490/955/315 510/976/315 511/977/316
f 492/957/317 491/956/316 511/977/316 512/978/317
f 493/958/318 492/957/317 512/978/317 513/979/318
f 494/959/319 493/958/318 513/979/318 514/980/319
f 495/960/320 494/959/319 514/980/319 515/981/320
f 496/961/321 495/960/320 515/981/320 516/982/321
f 497/962/322 496/961/321 516/982/321 517/983/322
f 498/963/323 497/962/322 517/983/322 518/984/323
f 499/964/324 498/963/323 518/984/323 519/985/324
f 500/965/325 499/964/324 519/985/324 520/986/325
f 501/966/326 500/965/325 520/986/325 521/987/326
f 502/967/327 501/966/326 521/987/326 522/988/327
f 483/968/309 502/967/327 522/988/327 503/989/309
f 504/970/328 503/969/328 481/990/328
f 505/971/328 504/970/328 481/990/328
f 506/972/328 505/971/328 481/990/328
f 507/973/328 506/972/328 481/990/328
f 508/974/328 507/973/328 481/990/328
f 509/975/328 508/974/328 481/990/328
f 510/976/328 509/975/328 481/990/328
f 511/977/328 510/976/328 481/990/328
f 512/978/328 511/977/328 481/990/328
f 513/979/328 512/978/328 481/990/328
f 514/980/328 513/979/328 481/990/328
f 515/981/328 514/980/328 481/990/328
f 516/982/328 515/981/328 481/990/328
f 517/983/328 516/982/328 481/990/328
f 518/984/328 517/983/328 481/990/328
f 519/985/328 518/984/328 481/990/328
f 520/986/328 519/985/328 481/990/328
f 521/987/328 520/986/328 481/990/328
f 522/988/328 521/987/328 481/990/328
f 503/989/328 522/988/328 481/990/328
o pasted__pCube9.001
v -0.253932 0.269462 -0.028105
v -0.258241 0.278946 -0.028132
v -0.322748 0.238195 -0.028343
v -0.327057 0.247680 -0.028370
v -0.322723 0.238189 -0.034492
v -0.327033 0.247674 -0.034519
v -0.253908 0.269455 -0.034254
v -0.258217 0.278940 -0.034281
vn -0.0039 0.0011 1.0000
vn -0.9104 -0.4137 -0.0031
vn 0.0039 -0.0011 -1.0000
vn 0.9104 0.4137 0.0031
vn -0.4136 0.9104 -0.0026
vn 0.4136 -0.9104 0.0026
vt 0.375000 0.000000
vt 0.625000 0.000000
vt 0.625000 0.250000
vt 0.375000 0.250000
vt 0.625000 0.500000
vt 0.375000 0.500000
vt 0.625000 0.750000
vt 0.375000 0.750000
vt 0.625000 1.000000
vt 0.375000 1.000000
vt 0.875000 0.000000
vt 0.875000 0.250000
vt 0.125000 0.000000
vt 0.125000 0.250000
s 1
usemtl RojoOscuro.001
f 523/991/329 524/992/329 526/993/329 525/994/329
f 525/994/330 526/993/330 528/995/330 527/996/330
f 527/996/331 528/995/331 530/997/331 529/998/331
f 529/998/332 530/997/332 524/999/332 523/1000/332
f 524/992/333 530/1001/333 528/1002/333 526/993/333
f 529/1003/334 523/991/334 525/994/334 527/1004/334
o pasted__pCube5.001
v -0.251760 0.288010 -0.028117
v -0.241392 0.287000 -0.028075
v -0.244429 0.363240 -0.028167
v -0.234061 0.362229 -0.028126
v -0.244405 0.363233 -0.034316
v -0.234036 0.362223 -0.034274
v -0.251736 0.288004 -0.034266
v -0.241367 0.286993 -0.034224
vn -0.0039 0.0011 1.0000
vn 0.0970 0.9953 -0.0007
vn 0.0039 -0.0011 -1.0000
vn -0.0970 -0.9953 0.0007
vn 0.9953 -0.0970 0.0040
vn -0.9953 0.0970 -0.0040
vt 0.375000 0.000000
vt 0.625000 0.000000
vt 0.625000 0.250000
vt 0.375000 0.250000
vt 0.625000 0.500000
vt 0.375000 0.500000
vt 0.625000 0.750000
vt 0.375000 0.750000
vt 0.625000 1.000000
vt 0.375000 1.000000
vt 0.875000 0.000000
vt 0.875000 0.250000
vt 0.125000 0.000000
vt 0.125000 0.250000
s 1
usemtl RojoOscuro.001
f 531/1005/335 532/1006/335 534/1007/335 533/1008/335
f 533/1008/336 534/1007/336 536/1009/336 535/1010/336
f 535/1010/337 536/1009/337 538/1011/337 537/1012/337
f 537/1012/338 538/1011/338 532/1013/338 531/1014/338
f 532/1006/339 538/1015/339 536/1016/339 534/1007/339
f 537/1017/340 531/1005/340 533/1008/340 535/1018/340
