# Blender 5.0.1
# www.blender.org
mtllib Engranajeproyector2.mtl
o pGear3
v -0.568117 0.155120 0.043784
v -0.565106 0.168840 0.043784
v -0.562094 0.182561 0.043784
v -0.556931 0.182561 0.043784
v -0.553919 0.168840 0.043784
v -0.550907 0.155120 0.043784
v -0.539559 0.153927 0.043784
v -0.533761 0.166722 0.043784
v -0.527962 0.179516 0.043784
v -0.522912 0.178443 0.043784
v -0.522819 0.164396 0.043784
v -0.522725 0.150349 0.043784
v -0.511873 0.146823 0.043784
v -0.503541 0.158132 0.043784
v -0.495209 0.169441 0.043784
v -0.490492 0.167341 0.043784
v -0.493322 0.153582 0.043784
v -0.496151 0.139823 0.043784
v -0.486269 0.134118 0.043784
v -0.475768 0.143447 0.043784
v -0.465267 0.152777 0.043784
v -0.461090 0.149742 0.043784
v -0.466718 0.136872 0.043784
v -0.472346 0.124002 0.043784
v -0.463866 0.116367 0.043784
v -0.451654 0.123309 0.043784
v -0.439443 0.130252 0.043784
v -0.435988 0.126415 0.043784
v -0.444169 0.114996 0.043784
v -0.452350 0.103577 0.043784
v -0.445643 0.094346 0.043784
v -0.432255 0.098598 0.043784
v -0.418867 0.102850 0.043784
v -0.416285 0.098378 0.043784
v -0.426662 0.088910 0.043784
v -0.437038 0.079441 0.043784
v -0.432397 0.069017 0.043784
v -0.418417 0.070393 0.043784
v -0.404438 0.071768 0.043784
v -0.402842 0.066858 0.043784
v -0.414961 0.059754 0.043784
v -0.427079 0.052649 0.043784
v -0.424706 0.041488 0.043784
v -0.410746 0.039927 0.043784
v -0.396786 0.038366 0.043784
v -0.396247 0.033231 0.043784
v -0.409577 0.028802 0.043784
v -0.422908 0.024372 0.043784
v -0.422908 0.012962 0.043784
v -0.409577 0.008532 0.043784
v -0.396247 0.004103 0.043784
v -0.396786 -0.001032 0.043784
v -0.410746 -0.002593 0.043784
v -0.424706 -0.004154 0.043784
v -0.427079 -0.015315 0.043784
v -0.414961 -0.022420 0.043784
v -0.402842 -0.029524 0.043784
v -0.404438 -0.034434 0.043784
v -0.418417 -0.033059 0.043784
v -0.432397 -0.031683 0.043784
v -0.437038 -0.042107 0.043784
v -0.426662 -0.051576 0.043784
v -0.416285 -0.061044 0.043784
v -0.418867 -0.065516 0.043784
v -0.432255 -0.061264 0.043784
v -0.445643 -0.057012 0.043784
v -0.452350 -0.066243 0.043784
v -0.444169 -0.077662 0.043784
v -0.435988 -0.089081 0.043784
v -0.439443 -0.092918 0.043784
v -0.451654 -0.085975 0.043784
v -0.463866 -0.079033 0.043784
v -0.472346 -0.086668 0.043784
v -0.466718 -0.099538 0.043784
v -0.461090 -0.112409 0.043784
v -0.465267 -0.115443 0.043784
v -0.475768 -0.106113 0.043784
v -0.486269 -0.096784 0.043784
v -0.496151 -0.102489 0.043784
v -0.493322 -0.116248 0.043784
v -0.490492 -0.130007 0.043784
v -0.495209 -0.132107 0.043784
v -0.503541 -0.120798 0.043784
v -0.511873 -0.109489 0.043784
v -0.522725 -0.113015 0.043784
v -0.522819 -0.127062 0.043784
v -0.522912 -0.141109 0.043784
v -0.527962 -0.142182 0.043784
v -0.533761 -0.129388 0.043784
v -0.539559 -0.116593 0.043784
v -0.550907 -0.117786 0.043784
v -0.553919 -0.131506 0.043784
v -0.556931 -0.145227 0.043784
v -0.562094 -0.145227 0.043784
v -0.565106 -0.131506 0.043784
v -0.568117 -0.117786 0.043784
v -0.579466 -0.116593 0.043784
v -0.585264 -0.129388 0.043784
v -0.591063 -0.142182 0.043784
v -0.596113 -0.141109 0.043784
v -0.596206 -0.127062 0.043784
v -0.596300 -0.113015 0.043784
v -0.607152 -0.109489 0.043784
v -0.615484 -0.120798 0.043784
v -0.623816 -0.132107 0.043784
v -0.628532 -0.130007 0.043784
v -0.625703 -0.116248 0.043784
v -0.622874 -0.102489 0.043784
v -0.632756 -0.096784 0.043784
v -0.643257 -0.106113 0.043784
v -0.653758 -0.115443 0.043784
v -0.657935 -0.112409 0.043784
v -0.652307 -0.099538 0.043784
v -0.646679 -0.086668 0.043784
v -0.655159 -0.079033 0.043784
v -0.667370 -0.085975 0.043784
v -0.679582 -0.092918 0.043784
v -0.683037 -0.089081 0.043784
v -0.674856 -0.077662 0.043784
v -0.666675 -0.066243 0.043784
v -0.673382 -0.057012 0.043784
v -0.686770 -0.061264 0.043784
v -0.700158 -0.065516 0.043784
v -0.702739 -0.061044 0.043784
v -0.692363 -0.051576 0.043784
v -0.681987 -0.042107 0.043784
v -0.686628 -0.031683 0.043784
v -0.700607 -0.033059 0.043784
v -0.714587 -0.034434 0.043784
v -0.716182 -0.029524 0.043784
v -0.704064 -0.022420 0.043784
v -0.691946 -0.015315 0.043784
v -0.694318 -0.004154 0.043784
v -0.708278 -0.002593 0.043784
v -0.722239 -0.001032 0.043784
v -0.722778 0.004103 0.043784
v -0.709448 0.008532 0.043784
v -0.696117 0.012962 0.043784
v -0.696117 0.024372 0.043784
v -0.709448 0.028802 0.043784
v -0.722778 0.033231 0.043784
v -0.722238 0.038366 0.043784
v -0.708278 0.039927 0.043784
v -0.694318 0.041488 0.043784
v -0.691946 0.052649 0.043784
v -0.704064 0.059754 0.043784
v -0.716182 0.066858 0.043784
v -0.714587 0.071768 0.043784
v -0.700607 0.070393 0.043784
v -0.686628 0.069017 0.043784
v -0.681987 0.079441 0.043784
v -0.692363 0.088910 0.043784
v -0.702739 0.098378 0.043784
v -0.700158 0.102850 0.043784
v -0.686770 0.098598 0.043784
v -0.673382 0.094346 0.043784
v -0.666675 0.103577 0.043784
v -0.674856 0.114996 0.043784
v -0.683037 0.126415 0.043784
v -0.679582 0.130252 0.043784
v -0.667370 0.123309 0.043784
v -0.655159 0.116367 0.043784
v -0.646679 0.124002 0.043784
v -0.652307 0.136872 0.043784
v -0.657935 0.149742 0.043784
v -0.653758 0.152777 0.043784
v -0.643257 0.143447 0.043784
v -0.632756 0.134118 0.043784
v -0.622874 0.139823 0.043784
v -0.625703 0.153582 0.043784
v -0.628532 0.167341 0.043784
v -0.623816 0.169441 0.043784
v -0.615484 0.158132 0.043784
v -0.607152 0.146823 0.043784
v -0.596300 0.150349 0.043784
v -0.596206 0.164396 0.043784
v -0.596113 0.178443 0.043784
v -0.591063 0.179516 0.043784
v -0.585264 0.166722 0.043784
v -0.579466 0.153927 0.043784
v -0.568117 0.155120 0.072562
v -0.565106 0.168840 0.072562
v -0.562094 0.182561 0.072562
v -0.556931 0.182561 0.072562
v -0.553919 0.168840 0.072562
v -0.550907 0.155120 0.072562
v -0.539559 0.153927 0.072562
v -0.533761 0.166722 0.072562
v -0.527962 0.179516 0.072562
v -0.522912 0.178443 0.072562
v -0.522819 0.164396 0.072562
v -0.522725 0.150349 0.072562
v -0.511873 0.146823 0.072562
v -0.503541 0.158132 0.072562
v -0.495209 0.169441 0.072562
v -0.490492 0.167341 0.072562
v -0.493322 0.153582 0.072562
v -0.496151 0.139823 0.072562
v -0.486269 0.134118 0.072562
v -0.475768 0.143447 0.072562
v -0.465267 0.152777 0.072562
v -0.461090 0.149742 0.072562
v -0.466718 0.136872 0.072562
v -0.472346 0.124002 0.072562
v -0.463866 0.116367 0.072562
v -0.451654 0.123309 0.072562
v -0.439443 0.130252 0.072562
v -0.435988 0.126415 0.072562
v -0.444169 0.114996 0.072562
v -0.452350 0.103577 0.072562
v -0.445643 0.094346 0.072562
v -0.432255 0.098598 0.072562
v -0.418867 0.102850 0.072562
v -0.416285 0.098378 0.072562
v -0.426662 0.088910 0.072562
v -0.437038 0.079441 0.072562
v -0.432397 0.069017 0.072562
v -0.418417 0.070393 0.072562
v -0.404438 0.071768 0.072562
v -0.402842 0.066858 0.072562
v -0.414961 0.059754 0.072562
v -0.427079 0.052649 0.072562
v -0.424706 0.041488 0.072562
v -0.410746 0.039927 0.072562
v -0.396786 0.038366 0.072562
v -0.396247 0.033231 0.072562
v -0.409577 0.028802 0.072562
v -0.422908 0.024372 0.072562
v -0.422908 0.012962 0.072562
v -0.409577 0.008532 0.072562
v -0.396247 0.004103 0.072562
v -0.396786 -0.001032 0.072562
v -0.410746 -0.002593 0.072562
v -0.424706 -0.004154 0.072562
v -0.427079 -0.015315 0.072562
v -0.414961 -0.022420 0.072562
v -0.402842 -0.029524 0.072562
v -0.404438 -0.034434 0.072562
v -0.418417 -0.033059 0.072562
v -0.432397 -0.031683 0.072562
v -0.437038 -0.042107 0.072562
v -0.426662 -0.051576 0.072562
v -0.416285 -0.061044 0.072562
v -0.418867 -0.065516 0.072562
v -0.432255 -0.061264 0.072562
v -0.445643 -0.057012 0.072562
v -0.452350 -0.066243 0.072562
v -0.444169 -0.077662 0.072562
v -0.435988 -0.089081 0.072562
v -0.439443 -0.092918 0.072562
v -0.451654 -0.085975 0.072562
v -0.463866 -0.079033 0.072562
v -0.472346 -0.086668 0.072562
v -0.466718 -0.099538 0.072562
v -0.461090 -0.112409 0.072562
v -0.465267 -0.115443 0.072562
v -0.475768 -0.106113 0.072562
v -0.486269 -0.096784 0.072562
v -0.496151 -0.102489 0.072562
v -0.493322 -0.116248 0.072562
v -0.490492 -0.130007 0.072562
v -0.495209 -0.132107 0.072562
v -0.503541 -0.120798 0.072562
v -0.511873 -0.109489 0.072562
v -0.522725 -0.113015 0.072562
v -0.522819 -0.127062 0.072562
v -0.522912 -0.141109 0.072562
v -0.527962 -0.142182 0.072562
v -0.533761 -0.129388 0.072562
v -0.539559 -0.116593 0.072562
v -0.550907 -0.117786 0.072562
v -0.553919 -0.131506 0.072562
v -0.556931 -0.145227 0.072562
v -0.562094 -0.145227 0.072562
v -0.565106 -0.131506 0.072562
v -0.568117 -0.117786 0.072562
v -0.579466 -0.116593 0.072562
v -0.585264 -0.129388 0.072562
v -0.591063 -0.142182 0.072562
v -0.596113 -0.141109 0.072562
v -0.596206 -0.127062 0.072562
v -0.596300 -0.113015 0.072562
v -0.607152 -0.109489 0.072562
v -0.615484 -0.120798 0.072562
v -0.623816 -0.132107 0.072562
v -0.628532 -0.130007 0.072562
v -0.625703 -0.116248 0.072562
v -0.622874 -0.102489 0.072562
v -0.632756 -0.096784 0.072562
v -0.643257 -0.106113 0.072562
v -0.653758 -0.115443 0.072562
v -0.657935 -0.112409 0.072562
v -0.652307 -0.099538 0.072562
v -0.646679 -0.086668 0.072562
v -0.655159 -0.079033 0.072562
v -0.667370 -0.085975 0.072562
v -0.679582 -0.092918 0.072562
v -0.683037 -0.089081 0.072562
v -0.674856 -0.077662 0.072562
v -0.666675 -0.066243 0.072562
v -0.673382 -0.057012 0.072562
v -0.686770 -0.061264 0.072562
v -0.700158 -0.065516 0.072562
v -0.702739 -0.061044 0.072562
v -0.692363 -0.051576 0.072562
v -0.681987 -0.042107 0.072562
v -0.686628 -0.031683 0.072562
v -0.700607 -0.033059 0.072562
v -0.714587 -0.034434 0.072562
v -0.716182 -0.029524 0.072562
v -0.704064 -0.022420 0.072562
v -0.691946 -0.015315 0.072562
v -0.694318 -0.004154 0.072562
v -0.708278 -0.002593 0.072562
v -0.722239 -0.001032 0.072562
v -0.722778 0.004103 0.072562
v -0.709448 0.008532 0.072562
v -0.696117 0.012962 0.072562
v -0.696117 0.024372 0.072562
v -0.709448 0.028802 0.072562
v -0.722778 0.033231 0.072562
v -0.722238 0.038366 0.072562
v -0.708278 0.039927 0.072562
v -0.694318 0.041488 0.072562
v -0.691946 0.052649 0.072562
v -0.704064 0.059754 0.072562
v -0.716182 0.066858 0.072562
v -0.714587 0.071768 0.072562
v -0.700607 0.070393 0.072562
v -0.686628 0.069017 0.072562
v -0.681987 0.079441 0.072562
v -0.692363 0.088910 0.072562
v -0.702739 0.098378 0.072562
v -0.700158 0.102850 0.072562
v -0.686770 0.098598 0.072562
v -0.673382 0.094346 0.072562
v -0.666675 0.103577 0.072562
v -0.674856 0.114996 0.072562
v -0.683037 0.126415 0.072562
v -0.679582 0.130252 0.072562
v -0.667370 0.123309 0.072562
v -0.655159 0.116367 0.072562
v -0.646679 0.124002 0.072562
v -0.652307 0.136872 0.072562
v -0.657935 0.149742 0.072562
v -0.653758 0.152777 0.072562
v -0.643257 0.143447 0.072562
v -0.632756 0.134118 0.072562
v -0.622874 0.139823 0.072562
v -0.625703 0.153582 0.072562
v -0.628532 0.167341 0.072562
v -0.623816 0.169441 0.072562
v -0.615484 0.158132 0.072562
v -0.607152 0.146823 0.072562
v -0.596300 0.150349 0.072562
v -0.596206 0.164396 0.072562
v -0.596113 0.178443 0.072562
v -0.591063 0.179516 0.072562
v -0.585264 0.166722 0.072562
v -0.579466 0.153927 0.072562
v -0.565257 0.128280 0.043784
v -0.553768 0.128280 0.043784
v -0.531103 0.124690 0.043784
v -0.520177 0.121140 0.043784
v -0.509681 0.116467 0.043784
v -0.499731 0.110722 0.043784
v -0.481898 0.096282 0.043784
v -0.474210 0.087743 0.043784
v -0.467457 0.078449 0.043784
v -0.461712 0.068499 0.043784
v -0.453489 0.047076 0.043784
v -0.451100 0.035838 0.043784
v -0.449899 0.024412 0.043784
v -0.449899 0.012922 0.043784
v -0.451100 0.001496 0.043784
v -0.453489 -0.009742 0.043784
v -0.457039 -0.020669 0.043784
v -0.461712 -0.031165 0.043784
v -0.467457 -0.041115 0.043784
v -0.474210 -0.050410 0.043784
v -0.481898 -0.058948 0.043784
v -0.490436 -0.066635 0.043784
v -0.499731 -0.073389 0.043784
v -0.509681 -0.079133 0.043784
v -0.520177 -0.083806 0.043784
v -0.531103 -0.087357 0.043784
v -0.542342 -0.089745 0.043784
v -0.553768 -0.090946 0.043784
v -0.565257 -0.090946 0.043784
v -0.587921 -0.087357 0.043784
v -0.598848 -0.083806 0.043784
v -0.609344 -0.079133 0.043784
v -0.619294 -0.073389 0.043784
v -0.637127 -0.058948 0.043784
v -0.644815 -0.050409 0.043784
v -0.651568 -0.041115 0.043784
v -0.657312 -0.031165 0.043784
v -0.665536 -0.009742 0.043784
v -0.667925 0.001496 0.043784
v -0.669126 0.012922 0.043784
v -0.669126 0.024412 0.043784
v -0.665536 0.047076 0.043784
v -0.661986 0.058003 0.043784
v -0.657312 0.068499 0.043784
v -0.651568 0.078449 0.043784
v -0.637127 0.096282 0.043784
v -0.628589 0.103969 0.043784
v -0.619294 0.110722 0.043784
v -0.609344 0.116467 0.043784
v -0.587921 0.124690 0.043784
v -0.576683 0.127079 0.043784
v -0.565257 0.128280 0.072562
v -0.553768 0.128280 0.072562
v -0.531103 0.124690 0.072562
v -0.520177 0.121140 0.072562
v -0.509681 0.116467 0.072562
v -0.499731 0.110722 0.072562
v -0.481898 0.096282 0.072562
v -0.474210 0.087743 0.072562
v -0.467457 0.078449 0.072562
v -0.461712 0.068499 0.072562
v -0.453489 0.047076 0.072562
v -0.451100 0.035838 0.072562
v -0.449899 0.024412 0.072562
v -0.449899 0.012922 0.072562
v -0.451100 0.001496 0.072562
v -0.453489 -0.009742 0.072562
v -0.457039 -0.020669 0.072562
v -0.461712 -0.031165 0.072562
v -0.467457 -0.041115 0.072562
v -0.474210 -0.050410 0.072562
v -0.481898 -0.058948 0.072562
v -0.490436 -0.066635 0.072562
v -0.499731 -0.073389 0.072562
v -0.509681 -0.079133 0.072562
v -0.520177 -0.083806 0.072562
v -0.531103 -0.087357 0.072562
v -0.542342 -0.089745 0.072562
v -0.553768 -0.090946 0.072562
v -0.565257 -0.090946 0.072562
v -0.587921 -0.087357 0.072562
v -0.598848 -0.083806 0.072562
v -0.609344 -0.079133 0.072562
v -0.619294 -0.073389 0.072562
v -0.637127 -0.058948 0.072562
v -0.644815 -0.050409 0.072562
v -0.651568 -0.041115 0.072562
v -0.657312 -0.031165 0.072562
v -0.665536 -0.009742 0.072562
v -0.667925 0.001496 0.072562
v -0.669126 0.012922 0.072562
v -0.669126 0.024412 0.072562
v -0.665536 0.047076 0.072562
v -0.661986 0.058003 0.072562
v -0.657312 0.068499 0.072562
v -0.651568 0.078449 0.072562
v -0.637127 0.096282 0.072562
v -0.628589 0.103969 0.072562
v -0.619294 0.110722 0.072562
v -0.609344 0.116467 0.072562
v -0.587921 0.124690 0.072562
v -0.576683 0.127079 0.072562
v -0.540119 0.091044 0.043784
v -0.540119 0.091044 0.072562
v -0.532660 0.088620 0.043784
v -0.532660 0.088620 0.072562
v -0.525495 0.085430 0.043784
v -0.525495 0.085430 0.072562
v -0.518703 0.081509 0.043784
v -0.518703 0.081509 0.072562
v -0.487135 0.038060 0.043784
v -0.487135 0.038060 0.072562
v -0.485505 0.030389 0.043784
v -0.485505 0.030389 0.072562
v -0.484685 0.022588 0.043784
v -0.484685 0.022588 0.072562
v -0.484685 0.014745 0.043784
v -0.484685 0.014745 0.072562
v -0.485408 0.007559 0.043784
v -0.485408 0.007559 0.072562
v -0.506529 -0.034317 0.043784
v -0.506529 -0.034317 0.072562
v -0.512357 -0.039565 0.043784
v -0.512357 -0.039565 0.072562
v -0.518702 -0.044175 0.043784
v -0.518702 -0.044175 0.072562
v -0.525495 -0.048096 0.043784
v -0.525495 -0.048096 0.072562
v -0.532080 -0.051064 0.043784
v -0.532080 -0.051064 0.072562
v -0.578906 -0.053710 0.043784
v -0.578906 -0.053710 0.072562
v -0.586365 -0.051286 0.043784
v -0.586365 -0.051286 0.072562
v -0.593530 -0.048096 0.043784
v -0.593530 -0.048096 0.072562
v -0.600322 -0.044175 0.043784
v -0.600322 -0.044175 0.072562
v -0.631889 -0.000726 0.043784
v -0.631889 -0.000726 0.072562
v -0.633520 0.006945 0.043784
v -0.633520 0.006945 0.072562
v -0.634340 0.014745 0.043784
v -0.634340 0.014745 0.072562
v -0.634340 0.022589 0.043784
v -0.634340 0.022589 0.072562
v -0.612496 0.071651 0.043784
v -0.612496 0.071651 0.072562
v -0.606667 0.076899 0.043784
v -0.606667 0.076899 0.072562
v -0.600322 0.081509 0.043784
v -0.600322 0.081509 0.072562
v -0.593530 0.085430 0.043784
v -0.593530 0.085430 0.072562
v -0.549351 0.058237 0.043784
v -0.549351 0.058237 0.072562
v -0.544858 0.056843 0.043784
v -0.544858 0.056843 0.072562
v -0.540947 0.055102 0.043784
v -0.540947 0.055102 0.072562
v -0.536905 0.052696 0.043784
v -0.536905 0.052696 0.072562
v -0.520163 0.029652 0.043784
v -0.520163 0.029652 0.072562
v -0.519123 0.025064 0.043784
v -0.519123 0.025064 0.072562
v -0.518676 0.020807 0.043784
v -0.518676 0.020807 0.072562
v -0.518739 0.016103 0.043784
v -0.518739 0.016103 0.072562
v -0.521176 0.001598 0.043784
v -0.521176 0.001598 0.072562
v -0.530324 -0.009918 0.043784
v -0.530324 -0.009918 0.072562
v -0.533778 -0.013112 0.043784
v -0.533778 -0.013112 0.072562
v -0.537241 -0.015628 0.043784
v -0.537241 -0.015628 0.072562
v -0.541346 -0.017926 0.043784
v -0.541346 -0.017926 0.072562
v -0.555126 -0.023068 0.043784
v -0.555126 -0.023068 0.072562
v -0.569674 -0.020903 0.043784
v -0.569674 -0.020903 0.072562
v -0.574167 -0.019509 0.043784
v -0.574167 -0.019509 0.072562
v -0.578077 -0.017768 0.043784
v -0.578077 -0.017768 0.072562
v -0.582120 -0.015362 0.043784
v -0.582120 -0.015362 0.072562
v -0.598862 0.007682 0.043784
v -0.598862 0.007682 0.072562
v -0.599901 0.012270 0.043784
v -0.599901 0.012270 0.072562
v -0.600349 0.016527 0.043784
v -0.600349 0.016527 0.072562
v -0.600286 0.021231 0.043784
v -0.600286 0.021231 0.072562
v -0.588701 0.047252 0.043784
v -0.588701 0.047252 0.072562
v -0.585247 0.050446 0.043784
v -0.585247 0.050446 0.072562
v -0.581784 0.052962 0.043784
v -0.581784 0.052962 0.072562
v -0.577679 0.055260 0.043784
v -0.577679 0.055260 0.072562
v -0.559512 0.018667 0.072562
v -0.552558 0.045751 0.033525
v -0.549482 0.044796 0.033525
v -0.559512 0.018667 0.033525
v -0.546806 0.043605 0.033525
v -0.544039 0.041958 0.033525
v -0.536276 0.035550 0.033525
v -0.532580 0.026186 0.033525
v -0.531869 0.023045 0.033525
v -0.531562 0.020132 0.033525
v -0.531605 0.016912 0.033525
v -0.533273 0.006984 0.033525
v -0.539535 -0.000898 0.033525
v -0.541899 -0.003084 0.033525
v -0.544269 -0.004806 0.033525
v -0.547079 -0.006379 0.033525
v -0.556510 -0.009898 0.033525
v -0.566467 -0.008417 0.033525
v -0.569543 -0.007463 0.033525
v -0.572219 -0.006271 0.033525
v -0.574986 -0.004624 0.033525
v -0.582749 0.001784 0.033525
v -0.586445 0.011148 0.033525
v -0.587156 0.014289 0.033525
v -0.587462 0.017202 0.033525
v -0.587419 0.020422 0.033525
v -0.585751 0.030349 0.033525
v -0.579490 0.038232 0.033525
v -0.577126 0.040418 0.033525
v -0.574756 0.042140 0.033525
v -0.571946 0.043713 0.033525
v -0.562515 0.047232 0.033525
v -0.543496 0.118844 0.043784
v -0.545122 0.124906 0.043784
v -0.550612 0.127948 0.043784
v -0.541643 0.133817 0.043784
v -0.535716 0.125671 0.043784
v -0.543496 0.118844 0.072562
v -0.535716 0.125671 0.072562
v -0.541643 0.133817 0.072562
v -0.550612 0.127948 0.072562
v -0.545122 0.124906 0.072562
v -0.495784 0.097601 0.043784
v -0.495916 0.107951 0.043784
v -0.485896 0.108997 0.043784
v -0.484256 0.098405 0.043784
v -0.490190 0.100449 0.043784
v -0.495784 0.097601 0.072562
v -0.490190 0.100449 0.072562
v -0.484256 0.098405 0.072562
v -0.485896 0.108997 0.072562
v -0.495916 0.107951 0.072562
v -0.464748 0.054885 0.043784
v -0.460311 0.059324 0.043784
v -0.460422 0.065600 0.043784
v -0.450855 0.060767 0.043784
v -0.454946 0.051560 0.043784
v -0.464748 0.054885 0.072562
v -0.454946 0.051560 0.072562
v -0.450855 0.060767 0.072562
v -0.460422 0.065600 0.072562
v -0.460311 0.059324 0.072562
v -0.575529 -0.081510 0.043784
v -0.573903 -0.087572 0.043784
v -0.568413 -0.090615 0.043784
v -0.577381 -0.096483 0.043784
v -0.583309 -0.088337 0.043784
v -0.575529 -0.081510 0.072562
v -0.583309 -0.088337 0.072562
v -0.577381 -0.096483 0.072562
v -0.568413 -0.090615 0.072562
v -0.573903 -0.087572 0.072562
v -0.623241 -0.060267 0.043784
v -0.623109 -0.070617 0.043784
v -0.633129 -0.071663 0.043784
v -0.634769 -0.061071 0.043784
v -0.628834 -0.063115 0.043784
v -0.623241 -0.060267 0.072562
v -0.628834 -0.063115 0.072562
v -0.634769 -0.061071 0.072562
v -0.633129 -0.071663 0.072562
v -0.623109 -0.070617 0.072562
v -0.654276 -0.017551 0.043784
v -0.658713 -0.021990 0.043784
v -0.658603 -0.028266 0.043784
v -0.668170 -0.023433 0.043784
v -0.664079 -0.014227 0.043784
v -0.654276 -0.017551 0.072562
v -0.664079 -0.014227 0.072562
v -0.668170 -0.023433 0.072562
v -0.658603 -0.028266 0.072562
v -0.658713 -0.021990 0.072562
v -0.659736 0.034391 0.043784
v -0.668633 0.029101 0.043784
v -0.674548 0.037256 0.043784
v -0.666196 0.043972 0.043784
v -0.664999 0.037811 0.043784
v -0.659736 0.034391 0.072562
v -0.664999 0.037811 0.072562
v -0.666196 0.043972 0.072562
v -0.674548 0.037256 0.072562
v -0.668633 0.029101 0.072562
v -0.638260 0.082626 0.043784
v -0.644323 0.084249 0.043784
v -0.649703 0.081016 0.043784
v -0.650301 0.091717 0.043784
v -0.640282 0.092777 0.043784
v -0.638260 0.082626 0.072562
v -0.640282 0.092777 0.072562
v -0.650301 0.091717 0.072562
v -0.649703 0.081016 0.072562
v -0.644323 0.084249 0.072562
v -0.596007 0.113325 0.043784
v -0.605036 0.118385 0.043784
v -0.600932 0.127585 0.043784
v -0.590939 0.123710 0.043784
v -0.595677 0.119593 0.043784
v -0.596007 0.113325 0.072562
v -0.595677 0.119593 0.072562
v -0.590939 0.123710 0.072562
v -0.600932 0.127585 0.072562
v -0.605036 0.118385 0.072562
v -0.549881 0.087376 0.043784
v -0.547653 0.092730 0.043784
v -0.546364 0.098383 0.043784
v -0.541531 0.091351 0.043784
v -0.549881 0.087376 0.072562
v -0.541531 0.091351 0.072562
v -0.546364 0.098383 0.072562
v -0.547653 0.092730 0.072562
v -0.514897 0.071800 0.043784
v -0.517529 0.080665 0.043784
v -0.509070 0.081779 0.043784
v -0.512408 0.077038 0.043784
v -0.514897 0.071800 0.072562
v -0.512408 0.077038 0.072562
v -0.509070 0.081779 0.072562
v -0.517529 0.080665 0.072562
v -0.495193 0.044680 0.043784
v -0.489443 0.045428 0.043784
v -0.483902 0.047138 0.043784
v -0.487576 0.039437 0.043784
v -0.495193 0.044680 0.072562
v -0.487576 0.039437 0.072562
v -0.483902 0.047138 0.072562
v -0.489443 0.045428 0.072562
v -0.504825 -0.024029 0.043784
v -0.501302 -0.028635 0.043784
v -0.497050 -0.032578 0.043784
v -0.505557 -0.033247 0.043784
v -0.504825 -0.024029 0.072562
v -0.505557 -0.033247 0.072562
v -0.497050 -0.032578 0.072562
v -0.501302 -0.028635 0.072562
v -0.569144 -0.050042 0.043784
v -0.571371 -0.055396 0.043784
v -0.572661 -0.061049 0.043784
v -0.577493 -0.054017 0.043784
v -0.569144 -0.050042 0.072562
v -0.577493 -0.054017 0.072562
v -0.572661 -0.061049 0.072562
v -0.571371 -0.055396 0.072562
v -0.604128 -0.034466 0.043784
v -0.601495 -0.043331 0.043784
v -0.609955 -0.044445 0.043784
v -0.606616 -0.039704 0.043784
v -0.604128 -0.034466 0.072562
v -0.606616 -0.039704 0.072562
v -0.609955 -0.044445 0.072562
v -0.601495 -0.043331 0.072562
v -0.623832 -0.007346 0.043784
v -0.629582 -0.008094 0.043784
v -0.635123 -0.009804 0.043784
v -0.631449 -0.002103 0.043784
v -0.623832 -0.007346 0.072562
v -0.631449 -0.002103 0.072562
v -0.635123 -0.009804 0.072562
v -0.629582 -0.008094 0.072562
v -0.627835 0.030739 0.043784
v -0.634195 0.024027 0.043784
v -0.639390 0.030795 0.043784
v -0.633615 0.030275 0.043784
v -0.627835 0.030739 0.072562
v -0.633615 0.030275 0.072562
v -0.639390 0.030795 0.072562
v -0.634195 0.024027 0.072562
v -0.614200 0.061363 0.043784
v -0.617723 0.065969 0.043784
v -0.621974 0.069912 0.043784
v -0.613468 0.070581 0.043784
v -0.614200 0.061363 0.072562
v -0.613468 0.070581 0.072562
v -0.621974 0.069912 0.072562
v -0.617723 0.065969 0.072562
v -0.583219 0.083872 0.043784
v -0.592212 0.086024 0.043784
v -0.588948 0.093907 0.043784
v -0.586511 0.088645 0.043784
v -0.583219 0.083872 0.072562
v -0.586511 0.088645 0.072562
v -0.588948 0.093907 0.072562
v -0.592212 0.086024 0.072562
v -0.563413 0.055780 0.040184
v -0.569312 0.058382 0.043784
v -0.570559 0.068492 0.043784
v -0.564488 0.066006 0.043784
v -0.559067 0.069700 0.043784
v -0.558184 0.059551 0.043784
v -0.563295 0.054656 0.072562
v -0.558184 0.059551 0.072562
v -0.559067 0.069700 0.072562
v -0.564488 0.066006 0.072562
v -0.570559 0.068492 0.072562
v -0.569312 0.058382 0.072562
v -0.529322 0.040602 0.040184
v -0.530018 0.047011 0.043784
v -0.521886 0.053146 0.043784
v -0.521003 0.046646 0.043784
v -0.515094 0.043798 0.043784
v -0.523441 0.037959 0.043784
v -0.530237 0.039937 0.072562
v -0.523441 0.037959 0.072562
v -0.515094 0.043798 0.072562
v -0.521003 0.046646 0.072562
v -0.521886 0.053146 0.072562
v -0.530018 0.047011 0.072562
v -0.589703 -0.003268 0.040184
v -0.589007 -0.009677 0.043784
v -0.597139 -0.015812 0.043784
v -0.598022 -0.009312 0.043784
v -0.603931 -0.006464 0.043784
v -0.595584 -0.000625 0.043784
v -0.588788 -0.002603 0.072562
v -0.595584 -0.000625 0.072562
v -0.603931 -0.006464 0.072562
v -0.598022 -0.009312 0.072562
v -0.597139 -0.015812 0.072562
v -0.589007 -0.009677 0.072562
v -0.593603 0.033845 0.040184
v -0.598806 0.030038 0.043784
v -0.608186 0.034013 0.043784
v -0.602997 0.038028 0.043784
v -0.603486 0.044570 0.043784
v -0.594255 0.040260 0.043784
v -0.592571 0.033385 0.072562
v -0.594255 0.040260 0.072562
v -0.603486 0.044570 0.072562
v -0.602997 0.038028 0.072562
v -0.608186 0.034013 0.072562
v -0.598806 0.030038 0.072562
v -0.542342 0.127079 0.043784
v -0.542342 0.127079 0.072562
v -0.490436 0.103969 0.043784
v -0.490436 0.103969 0.072562
v -0.457039 0.058003 0.043784
v -0.457039 0.058003 0.072562
v -0.576683 -0.089745 0.043784
v -0.576683 -0.089745 0.072562
v -0.628589 -0.066635 0.043784
v -0.628589 -0.066635 0.072562
v -0.661986 -0.020669 0.043784
v -0.661986 -0.020669 0.072562
v -0.667925 0.035838 0.043784
v -0.667925 0.035838 0.072562
v -0.644815 0.087743 0.043784
v -0.644815 0.087743 0.072562
v -0.598848 0.121140 0.043784
v -0.598848 0.121140 0.072562
v -0.563899 0.060402 0.043784
v -0.563899 0.060402 0.072562
v -0.525562 0.043333 0.043784
v -0.525562 0.043333 0.072562
v -0.593463 -0.005999 0.043784
v -0.593463 -0.005999 0.072562
v -0.597849 0.035735 0.043784
v -0.597849 0.035735 0.072562
vn -0.0000 -0.0000 -1.0000
vn -0.9767 0.2144 -0.0000
vn -0.0000 1.0000 -0.0000
vn 0.9767 0.2144 -0.0000
vn 0.1045 0.9945 -0.0000
vn -0.9108 0.4128 -0.0000
vn 0.2079 0.9781 -0.0000
vn 1.0000 0.0066 -0.0000
vn 0.3090 0.9511 -0.0000
vn -0.8051 0.5931 -0.0000
vn 0.4067 0.9135 -0.0000
vn 0.9795 -0.2014 -0.0000
vn 0.5000 0.8660 -0.0000
vn -0.6642 0.7476 -0.0000
vn 0.5878 0.8090 -0.0000
vn 0.9162 -0.4007 -0.0000
vn 0.6691 0.7431 -0.0000
vn -0.4942 0.8693 -0.0000
vn 0.7431 0.6691 -0.0000
vn 0.8129 -0.5824 -0.0000
vn 0.8090 0.5878 -0.0000
vn -0.3027 0.9531 -0.0000
vn 0.8660 0.5000 -0.0000
vn 0.6741 -0.7387 -0.0000
vn 0.9135 0.4067 -0.0000
vn -0.0979 0.9952 -0.0000
vn 0.9511 0.3090 -0.0000
vn 0.5057 -0.8627 -0.0000
vn 0.9781 0.2079 -0.0000
vn 0.1111 0.9938 -0.0000
vn 0.9945 0.1045 -0.0000
vn 0.3153 -0.9490 -0.0000
vn 1.0000 -0.0000 -0.0000
vn 0.3153 0.9490 -0.0000
vn 0.9945 -0.1045 -0.0000
vn 0.1111 -0.9938 -0.0000
vn 0.9781 -0.2079 -0.0000
vn 0.5057 0.8627 -0.0000
vn 0.9511 -0.3090 -0.0000
vn -0.0979 -0.9952 -0.0000
vn 0.9135 -0.4067 -0.0000
vn 0.6741 0.7387 -0.0000
vn 0.8660 -0.5000 -0.0000
vn -0.3027 -0.9531 -0.0000
vn 0.8090 -0.5878 -0.0000
vn 0.8129 0.5824 -0.0000
vn 0.7431 -0.6691 -0.0000
vn -0.4942 -0.8693 -0.0000
vn 0.6691 -0.7431 -0.0000
vn 0.9162 0.4007 -0.0000
vn 0.5878 -0.8090 -0.0000
vn -0.6642 -0.7476 -0.0000
vn 0.5000 -0.8660 -0.0000
vn 0.9795 0.2014 -0.0000
vn 0.4067 -0.9135 -0.0000
vn -0.8051 -0.5931 -0.0000
vn 0.3090 -0.9511 -0.0000
vn 1.0000 -0.0066 -0.0000
vn 0.2079 -0.9781 -0.0000
vn -0.9108 -0.4128 -0.0000
vn 0.1045 -0.9945 -0.0000
vn 0.9767 -0.2144 -0.0000
vn -0.0000 -1.0000 -0.0000
vn -0.9767 -0.2144 -0.0000
vn -0.1045 -0.9945 -0.0000
vn 0.9108 -0.4128 -0.0000
vn -0.2079 -0.9781 -0.0000
vn -1.0000 -0.0066 -0.0000
vn -0.3090 -0.9511 -0.0000
vn 0.8051 -0.5931 -0.0000
vn -0.4067 -0.9135 -0.0000
vn -0.9795 0.2014 -0.0000
vn -0.5000 -0.8660 -0.0000
vn 0.6642 -0.7476 -0.0000
vn -0.5878 -0.8090 -0.0000
vn -0.9162 0.4007 -0.0000
vn -0.6691 -0.7431 -0.0000
vn 0.4942 -0.8693 -0.0000
vn -0.7431 -0.6691 -0.0000
vn -0.8129 0.5824 -0.0000
vn -0.8090 -0.5878 -0.0000
vn 0.3027 -0.9531 -0.0000
vn -0.8660 -0.5000 -0.0000
vn -0.6741 0.7387 -0.0000
vn -0.9135 -0.4067 -0.0000
vn 0.0979 -0.9952 -0.0000
vn -0.9511 -0.3090 -0.0000
vn -0.5057 0.8627 -0.0000
vn -0.9781 -0.2079 -0.0000
vn -0.1111 -0.9938 -0.0000
vn -0.9945 -0.1045 -0.0000
vn -0.3153 0.9490 -0.0000
vn -1.0000 -0.0000 -0.0000
vn -0.3153 -0.9490 -0.0000
vn -0.9945 0.1045 -0.0000
vn -0.1111 0.9938 -0.0000
vn -0.9781 0.2079 -0.0000
vn -0.5057 -0.8627 -0.0000
vn -0.9511 0.3090 -0.0000
vn 0.0979 0.9952 -0.0000
vn -0.9135 0.4067 -0.0000
vn -0.6741 -0.7387 -0.0000
vn -0.8660 0.5000 -0.0000
vn 0.3027 0.9531 -0.0000
vn -0.8090 0.5878 -0.0000
vn -0.8129 -0.5824 -0.0000
vn -0.7431 0.6691 -0.0000
vn 0.4942 0.8693 -0.0000
vn -0.6691 0.7431 -0.0000
vn -0.9162 -0.4007 -0.0000
vn -0.5878 0.8090 -0.0000
vn 0.6642 0.7476 -0.0000
vn -0.5000 0.8660 -0.0000
vn -0.9795 -0.2014 -0.0000
vn -0.4067 0.9135 -0.0000
vn 0.8051 0.5931 -0.0000
vn -0.3090 0.9511 -0.0000
vn -1.0000 0.0066 -0.0000
vn -0.2079 0.9781 -0.0000
vn 0.9108 0.4128 -0.0000
vn -0.1045 0.9945 -0.0000
vn -0.0000 -0.0000 1.0000
vn 0.0523 -0.9986 -0.0000
vn -0.0226 -0.9997 -0.0000
vn -0.3635 -0.9316 -0.0000
vn -0.4491 -0.8935 -0.0000
vn -0.7278 -0.6858 -0.0000
vn -0.7771 -0.6293 -0.0000
vn -0.8387 -0.5446 -0.0000
vn -0.8771 -0.4803 -0.0000
vn -0.9885 -0.1510 -0.0000
vn -0.9659 0.2588 -0.0000
vn -0.9336 0.3584 -0.0000
vn -0.8910 0.4540 -0.0000
vn -0.8387 0.5446 -0.0000
vn -0.2588 0.9659 -0.0000
vn -0.1564 0.9877 -0.0000
vn -0.0523 0.9986 -0.0000
vn 0.0226 0.9997 -0.0000
vn 0.3635 0.9316 -0.0000
vn 0.4491 0.8935 -0.0000
vn 0.7278 0.6858 -0.0000
vn 0.7771 0.6293 -0.0000
vn 0.8387 0.5446 -0.0000
vn 0.8771 0.4803 -0.0000
vn 0.9885 0.1510 -0.0000
vn 0.9983 0.0579 -0.0000
vn 0.9578 -0.2874 -0.0000
vn 0.9336 -0.3584 -0.0000
vn 0.8910 -0.4540 -0.0000
vn 0.8545 -0.5195 -0.0000
vn 0.6250 -0.7806 -0.0000
vn 0.5493 -0.8356 -0.0000
vn 0.2300 -0.9732 -0.0000
vn 0.1564 -0.9877 -0.0000
vn -0.9989 0.0467 -0.0000
vn -0.9876 0.1572 -0.0000
vn 0.7031 -0.7111 -0.0000
vn 0.7777 -0.6287 -0.0000
vn -0.4590 0.8884 -0.0000
vn -0.3576 0.9339 -0.0000
vn -0.1740 -0.9847 -0.0000
vn -0.0015 -1.0000 -0.0000
vn 0.6154 0.7882 -0.0000
vn 0.6265 0.7794 -0.0000
vn -0.9398 -0.3417 -0.0000
vn -0.8668 -0.4987 -0.0000
vn 0.9989 -0.0467 -0.0000
vn 0.9876 -0.1572 -0.0000
vn -0.7031 0.7111 -0.0000
vn -0.7777 0.6287 -0.0000
vn 0.4590 -0.8884 -0.0000
vn 0.3576 -0.9339 -0.0000
vn 0.2642 0.9645 -0.0000
vn 0.1556 0.9878 -0.0000
vn -0.5399 -0.8417 -0.0000
vn -0.6300 -0.7766 -0.0000
vn 0.9674 0.2534 -0.0000
vn 0.9333 0.3591 -0.0000
vn -0.8960 0.4441 -0.0000
vn -0.8255 0.5643 -0.0000
vn 0.9295 -0.3687 -0.0000
vn 0.9718 -0.2359 -0.0000
vn -0.0634 0.9980 -0.0000
vn 0.0760 0.9971 -0.0000
vn 0.1644 -0.9864 -0.0000
vn 0.8356 0.5493 -0.0000
vn 0.8430 0.5379 -0.0000
vn -0.7721 -0.6355 -0.0000
vn 0.8935 -0.4490 -0.0000
vn 0.8873 -0.4611 -0.0000
vn -0.9295 0.3687 -0.0000
vn -0.9718 0.2359 -0.0000
vn 0.0634 -0.9980 -0.0000
vn -0.0760 -0.9971 -0.0000
vn -0.1454 0.9894 -0.0000
vn -0.2816 0.9595 -0.0000
vn -0.8326 -0.5539 -0.0000
vn -0.9015 -0.4328 -0.0000
vn 0.7841 0.6206 -0.0000
vn 0.6902 0.7236 -0.0000
vn 0.1846 0.5952 -0.7821
vn 0.2533 0.5690 -0.7823
vn 0.3187 0.5355 -0.7821
vn 0.3977 0.4818 -0.7808
vn 0.4955 0.3600 -0.7905
vn 0.6077 0.1377 -0.7821
vn 0.6194 0.0651 -0.7823
vn 0.6231 -0.0083 -0.7821
vn 0.6161 -0.1035 -0.7808
vn 0.4892 -0.3886 -0.7808
vn 0.4231 -0.4575 -0.7821
vn 0.3661 -0.5039 -0.7823
vn 0.3043 -0.5438 -0.7821
vn 0.2184 -0.5853 -0.7808
vn -0.0919 -0.6179 -0.7808
vn -0.1846 -0.5952 -0.7821
vn -0.2534 -0.5690 -0.7823
vn -0.3188 -0.5355 -0.7821
vn -0.3977 -0.4818 -0.7808
vn -0.4955 -0.3600 -0.7905
vn -0.6077 -0.1377 -0.7821
vn -0.6194 -0.0651 -0.7823
vn -0.6231 0.0083 -0.7821
vn -0.6161 0.1035 -0.7808
vn -0.5595 0.2491 -0.7905
vn -0.4231 0.4575 -0.7821
vn -0.3661 0.5039 -0.7823
vn -0.3043 0.5438 -0.7821
vn -0.2184 0.5853 -0.7808
vn -0.0640 0.6091 -0.7905
vn 0.0919 0.6179 -0.7808
vn 0.5811 0.2293 -0.7808
vn -0.5811 -0.2293 -0.7808
vn -0.4892 0.3886 -0.7808
vn -0.4847 -0.8747 -0.0000
vn -0.9659 -0.2591 -0.0000
vn 0.4537 -0.8911 -0.0000
vn -0.3257 -0.9455 -0.0000
vn -0.9998 -0.0175 -0.0000
vn -0.7073 0.7069 -0.0000
vn 0.4847 0.8747 -0.0000
vn 0.9659 0.2591 -0.0000
vn -0.4537 0.8911 -0.0000
vn 0.3257 0.9455 -0.0000
vn 0.9998 0.0175 -0.0000
vn 0.7073 -0.7069 -0.0000
vn 0.5449 0.8385 -0.0000
vn 0.9816 0.1907 -0.0000
vn 0.5151 -0.8571 -0.0000
vn -0.2586 -0.9660 -0.0000
vn 0.9986 -0.0526 -0.0000
vn 0.6560 -0.7548 -0.0000
vn -0.9526 0.3044 -0.0000
vn 0.8636 -0.5042 -0.0000
vn -0.2127 0.9771 -0.0000
vn 0.7399 0.6728 -0.0000
vn 0.9526 -0.3044 -0.0000
vn -0.8636 0.5042 -0.0000
vn 0.2127 -0.9771 -0.0000
vn 0.0049 1.0000 -0.0000
vn -0.7399 -0.6728 -0.0000
vn 0.8685 0.4958 -0.0000
vn -0.5631 0.8264 -0.0000
vn 0.3790 0.9254 -0.0000
vn 0.4341 0.9008 -0.0000
vn 0.9909 0.1345 -0.0000
vn -0.4341 -0.9008 -0.0000
vn -0.9909 -0.1345 -0.0000
vn -0.9972 -0.0745 -0.0000
vn -0.6119 0.7909 -0.0000
vt 0.236934 0.542808
vt 0.241507 0.521975
vt 0.258493 0.521975
vt 0.263066 0.542808
vt 0.246080 0.501141
vt 0.253920 0.501141
vt 0.280297 0.544619
vt 0.289102 0.525192
vt 0.305716 0.528723
vt 0.305858 0.550052
vt 0.297906 0.505764
vt 0.305575 0.507394
vt 0.322336 0.555406
vt 0.334988 0.538234
vt 0.350505 0.545143
vt 0.346209 0.566035
vt 0.347639 0.521062
vt 0.354801 0.524251
vt 0.361214 0.574698
vt 0.377159 0.560532
vt 0.390901 0.570516
vt 0.382355 0.590058
vt 0.393104 0.546365
vt 0.399447 0.550973
vt 0.395231 0.601651
vt 0.413773 0.591110
vt 0.425139 0.603733
vt 0.412717 0.621071
vt 0.432315 0.580568
vt 0.437561 0.586394
vt 0.422901 0.635088
vt 0.443229 0.628632
vt 0.451722 0.643342
vt 0.435967 0.657719
vt 0.463558 0.622176
vt 0.467478 0.628965
vt 0.443014 0.673548
vt 0.464241 0.671459
vt 0.469490 0.687614
vt 0.451089 0.698401
vt 0.485467 0.669370
vt 0.487890 0.676826
vt 0.454691 0.715348
vt 0.475888 0.717718
vt 0.477664 0.734611
vt 0.457423 0.741337
vt 0.497086 0.720089
vt 0.497905 0.727886
vt 0.457423 0.758663
vt 0.477664 0.765389
vt 0.475888 0.782282
vt 0.454691 0.784652
vt 0.497905 0.772115
vt 0.497086 0.779911
vt 0.451089 0.801599
vt 0.469490 0.812386
vt 0.464241 0.828541
vt 0.443014 0.826452
vt 0.487890 0.823174
vt 0.485467 0.830630
vt 0.435967 0.842281
vt 0.451722 0.856658
vt 0.443229 0.871368
vt 0.422901 0.864912
vt 0.467478 0.871035
vt 0.463558 0.877824
vt 0.412717 0.878929
vt 0.425139 0.896267
vt 0.413773 0.908890
vt 0.395231 0.898349
vt 0.437561 0.913606
vt 0.432315 0.919432
vt 0.382355 0.909942
vt 0.390901 0.929484
vt 0.377159 0.939468
vt 0.361214 0.925302
vt 0.399447 0.949027
vt 0.393104 0.953635
vt 0.346209 0.933965
vt 0.350505 0.954857
vt 0.334988 0.961766
vt 0.322336 0.944594
vt 0.354801 0.975749
vt 0.347639 0.978938
vt 0.305858 0.949948
vt 0.305716 0.971277
vt 0.289102 0.974808
vt 0.280297 0.955381
vt 0.305575 0.992606
vt 0.297906 0.994236
vt 0.263066 0.957192
vt 0.258493 0.978025
vt 0.241507 0.978025
vt 0.236934 0.957192
vt 0.253920 0.998859
vt 0.246080 0.998859
vt 0.219703 0.955381
vt 0.210898 0.974808
vt 0.194283 0.971277
vt 0.194142 0.949948
vt 0.202094 0.994236
vt 0.194425 0.992606
vt 0.177664 0.944594
vt 0.165012 0.961766
vt 0.149495 0.954857
vt 0.153791 0.933965
vt 0.152361 0.978938
vt 0.145199 0.975749
vt 0.138786 0.925302
vt 0.122841 0.939468
vt 0.109099 0.929484
vt 0.117645 0.909942
vt 0.106896 0.953635
vt 0.100553 0.949027
vt 0.104769 0.898349
vt 0.086227 0.908890
vt 0.074861 0.896267
vt 0.087283 0.878929
vt 0.067685 0.919432
vt 0.062439 0.913606
vt 0.077099 0.864912
vt 0.056771 0.871368
vt 0.048278 0.856658
vt 0.064033 0.842281
vt 0.036442 0.877824
vt 0.032522 0.871035
vt 0.056986 0.826452
vt 0.035759 0.828541
vt 0.030511 0.812386
vt 0.048911 0.801599
vt 0.014533 0.830630
vt 0.012110 0.823174
vt 0.045309 0.784652
vt 0.024112 0.782282
vt 0.022336 0.765389
vt 0.042577 0.758663
vt 0.002914 0.779911
vt 0.002095 0.772114
vt 0.042577 0.741337
vt 0.022336 0.734611
vt 0.024112 0.717718
vt 0.045309 0.715348
vt 0.002095 0.727885
vt 0.002914 0.720089
vt 0.048911 0.698401
vt 0.030511 0.687614
vt 0.035759 0.671459
vt 0.056986 0.673548
vt 0.012110 0.676826
vt 0.014533 0.669370
vt 0.064033 0.657719
vt 0.048278 0.643342
vt 0.056771 0.628632
vt 0.077099 0.635088
vt 0.032522 0.628965
vt 0.036442 0.622176
vt 0.087283 0.621071
vt 0.074861 0.603733
vt 0.086227 0.591110
vt 0.104769 0.601651
vt 0.062439 0.586394
vt 0.067685 0.580568
vt 0.117645 0.590058
vt 0.109099 0.570516
vt 0.122841 0.560532
vt 0.138786 0.574698
vt 0.100553 0.550973
vt 0.106896 0.546365
vt 0.153791 0.566035
vt 0.149495 0.545143
vt 0.165012 0.538234
vt 0.177664 0.555406
vt 0.145199 0.524251
vt 0.152361 0.521062
vt 0.194142 0.550052
vt 0.194283 0.528723
vt 0.210898 0.525192
vt 0.219703 0.544619
vt 0.194425 0.507394
vt 0.202094 0.505764
vt 0.500000 1.000000
vt 0.500000 0.500000
vt 0.503218 0.500000
vt 0.503218 1.000000
vt 0.506435 0.500000
vt 0.506435 1.000000
vt 0.507618 0.500000
vt 0.507618 1.000000
vt 0.510835 0.500000
vt 0.510835 1.000000
vt 0.514053 0.500000
vt 0.514053 1.000000
vt 0.516667 0.500000
vt 0.516667 1.000000
vt 0.519884 0.500000
vt 0.519884 1.000000
vt 0.523102 0.500000
vt 0.523102 1.000000
vt 0.524284 0.500000
vt 0.524284 1.000000
vt 0.527502 0.500000
vt 0.527502 1.000000
vt 0.530720 0.500000
vt 0.530720 1.000000
vt 0.533333 0.500000
vt 0.533333 1.000000
vt 0.536551 0.500000
vt 0.536551 1.000000
vt 0.539769 0.500000
vt 0.539769 1.000000
vt 0.540951 0.500000
vt 0.540951 1.000000
vt 0.544169 0.500000
vt 0.544169 1.000000
vt 0.547386 0.500000
vt 0.547386 1.000000
vt 0.550000 0.500000
vt 0.550000 1.000000
vt 0.553218 0.500000
vt 0.553218 1.000000
vt 0.556435 0.500000
vt 0.556435 1.000000
vt 0.557618 0.500000
vt 0.557618 1.000000
vt 0.560835 0.500000
vt 0.560835 1.000000
vt 0.564053 0.500000
vt 0.564053 1.000000
vt 0.566667 0.500000
vt 0.566667 1.000000
vt 0.569884 0.500000
vt 0.569884 1.000000
vt 0.573102 0.500000
vt 0.573102 1.000000
vt 0.574284 0.500000
vt 0.574284 1.000000
vt 0.577502 0.500000
vt 0.577502 1.000000
vt 0.580720 0.500000
vt 0.580720 1.000000
vt 0.583333 0.500000
vt 0.583333 1.000000
vt 0.586551 0.500000
vt 0.586551 1.000000
vt 0.589769 0.500000
vt 0.589769 1.000000
vt 0.590951 0.500000
vt 0.590951 1.000000
vt 0.594169 0.500000
vt 0.594169 1.000000
vt 0.597386 0.500000
vt 0.597386 1.000000
vt 0.600000 0.500000
vt 0.600000 1.000000
vt 0.603218 0.500000
vt 0.603218 1.000000
vt 0.606435 0.500000
vt 0.606435 1.000000
vt 0.607618 0.500000
vt 0.607618 1.000000
vt 0.610835 0.500000
vt 0.610835 1.000000
vt 0.614053 0.500000
vt 0.614053 1.000000
vt 0.616667 0.500000
vt 0.616667 1.000000
vt 0.619884 0.500000
vt 0.619884 1.000000
vt 0.623102 0.500000
vt 0.623102 1.000000
vt 0.624285 0.500000
vt 0.624285 1.000000
vt 0.627502 0.500000
vt 0.627502 1.000000
vt 0.630720 0.500000
vt 0.630720 1.000000
vt 0.633333 0.500000
vt 0.633333 1.000000
vt 0.636551 0.500000
vt 0.636551 1.000000
vt 0.639769 0.500000
vt 0.639769 1.000000
vt 0.640951 0.500000
vt 0.640951 1.000000
vt 0.644169 0.500000
vt 0.644169 1.000000
vt 0.647386 0.500000
vt 0.647386 1.000000
vt 0.650000 0.500000
vt 0.650000 1.000000
vt 0.653218 0.500000
vt 0.653218 1.000000
vt 0.656435 0.500000
vt 0.656435 1.000000
vt 0.657618 0.500000
vt 0.657618 1.000000
vt 0.660835 0.500000
vt 0.660835 1.000000
vt 0.664053 0.500000
vt 0.664053 1.000000
vt 0.666667 0.500000
vt 0.666667 1.000000
vt 0.669884 0.500000
vt 0.669884 1.000000
vt 0.673102 0.500000
vt 0.673102 1.000000
vt 0.674285 0.500000
vt 0.674285 1.000000
vt 0.677502 0.500000
vt 0.677502 1.000000
vt 0.680720 0.500000
vt 0.680720 1.000000
vt 0.683333 0.500000
vt 0.683333 1.000000
vt 0.686551 0.500000
vt 0.686551 1.000000
vt 0.689769 0.500000
vt 0.689769 1.000000
vt 0.690951 0.500000
vt 0.690951 1.000000
vt 0.694169 0.500000
vt 0.694169 1.000000
vt 0.697386 0.500000
vt 0.697386 1.000000
vt 0.700000 0.500000
vt 0.700000 1.000000
vt 0.703218 0.500000
vt 0.703218 1.000000
vt 0.706435 0.500000
vt 0.706435 1.000000
vt 0.707618 0.500000
vt 0.707618 1.000000
vt 0.710835 0.500000
vt 0.710835 1.000000
vt 0.714053 0.500000
vt 0.714053 1.000000
vt 0.716667 0.500000
vt 0.716667 1.000000
vt 0.719884 0.500000
vt 0.719884 1.000000
vt 0.723102 0.500000
vt 0.723102 1.000000
vt 0.724285 0.500000
vt 0.724285 1.000000
vt 0.727502 0.500000
vt 0.727502 1.000000
vt 0.730720 0.500000
vt 0.730720 1.000000
vt 0.733333 0.500000
vt 0.733333 1.000000
vt 0.736551 0.500000
vt 0.736551 1.000000
vt 0.739769 0.500000
vt 0.739769 1.000000
vt 0.740951 0.500000
vt 0.740951 1.000000
vt 0.744169 0.500000
vt 0.744169 1.000000
vt 0.747386 0.500000
vt 0.747386 1.000000
vt 0.750000 0.500000
vt 0.750000 1.000000
vt 0.753218 0.500000
vt 0.753218 1.000000
vt 0.756435 0.500000
vt 0.756435 1.000000
vt 0.757618 0.500000
vt 0.757618 1.000000
vt 0.760835 0.500000
vt 0.760835 1.000000
vt 0.764053 0.500000
vt 0.764053 1.000000
vt 0.766667 0.500000
vt 0.766667 1.000000
vt 0.769884 0.500000
vt 0.769884 1.000000
vt 0.773102 0.500000
vt 0.773102 1.000000
vt 0.774284 0.500000
vt 0.774284 1.000000
vt 0.777502 0.500000
vt 0.777502 1.000000
vt 0.780720 0.500000
vt 0.780720 1.000000
vt 0.783333 0.500000
vt 0.783333 1.000000
vt 0.786551 0.500000
vt 0.786551 1.000000
vt 0.789768 0.500000
vt 0.789768 1.000000
vt 0.790951 0.500000
vt 0.790951 1.000000
vt 0.794169 0.500000
vt 0.794169 1.000000
vt 0.797386 0.500000
vt 0.797386 1.000000
vt 0.800000 0.500000
vt 0.800000 1.000000
vt 0.803217 0.500000
vt 0.803217 1.000000
vt 0.806435 0.500000
vt 0.806435 1.000000
vt 0.807618 0.500000
vt 0.807618 1.000000
vt 0.810835 0.500000
vt 0.810835 1.000000
vt 0.814053 0.500000
vt 0.814053 1.000000
vt 0.816666 0.500000
vt 0.816666 1.000000
vt 0.819884 0.500000
vt 0.819884 1.000000
vt 0.823102 0.500000
vt 0.823102 1.000000
vt 0.824284 0.500000
vt 0.824284 1.000000
vt 0.827502 0.500000
vt 0.827502 1.000000
vt 0.830719 0.500000
vt 0.830719 1.000000
vt 0.833333 0.500000
vt 0.833333 1.000000
vt 0.836551 0.500000
vt 0.836551 1.000000
vt 0.839768 0.500000
vt 0.839768 1.000000
vt 0.840951 0.500000
vt 0.840951 1.000000
vt 0.844169 0.500000
vt 0.844169 1.000000
vt 0.847386 0.500000
vt 0.847386 1.000000
vt 0.850000 0.500000
vt 0.850000 1.000000
vt 0.853217 0.500000
vt 0.853217 1.000000
vt 0.856435 0.500000
vt 0.856435 1.000000
vt 0.857618 0.500000
vt 0.857618 1.000000
vt 0.860835 0.500000
vt 0.860835 1.000000
vt 0.864053 0.500000
vt 0.864053 1.000000
vt 0.866666 0.500000
vt 0.866666 1.000000
vt 0.869884 0.500000
vt 0.869884 1.000000
vt 0.873102 0.500000
vt 0.873102 1.000000
vt 0.874284 0.500000
vt 0.874284 1.000000
vt 0.877502 0.500000
vt 0.877502 1.000000
vt 0.880719 0.500000
vt 0.880719 1.000000
vt 0.883333 0.500000
vt 0.883333 1.000000
vt 0.886551 0.500000
vt 0.886551 1.000000
vt 0.889768 0.500000
vt 0.889768 1.000000
vt 0.890951 0.500000
vt 0.890951 1.000000
vt 0.894168 0.500000
vt 0.894168 1.000000
vt 0.897386 0.500000
vt 0.897386 1.000000
vt 0.900000 0.500000
vt 0.900000 1.000000
vt 0.903217 0.500000
vt 0.903217 1.000000
vt 0.906435 0.500000
vt 0.906435 1.000000
vt 0.907617 0.500000
vt 0.907617 1.000000
vt 0.910835 0.500000
vt 0.910835 1.000000
vt 0.914053 0.500000
vt 0.914053 1.000000
vt 0.916666 0.500000
vt 0.916666 1.000000
vt 0.919884 0.500000
vt 0.919884 1.000000
vt 0.923101 0.500000
vt 0.923101 1.000000
vt 0.924284 0.500000
vt 0.924284 1.000000
vt 0.927502 0.500000
vt 0.927502 1.000000
vt 0.930719 0.500000
vt 0.930719 1.000000
vt 0.933333 0.500000
vt 0.933333 1.000000
vt 0.936550 0.500000
vt 0.936550 1.000000
vt 0.939768 0.500000
vt 0.939768 1.000000
vt 0.940951 0.500000
vt 0.940951 1.000000
vt 0.944168 0.500000
vt 0.944168 1.000000
vt 0.947386 0.500000
vt 0.947386 1.000000
vt 0.950000 0.500000
vt 0.950000 1.000000
vt 0.953217 0.500000
vt 0.953217 1.000000
vt 0.956435 0.500000
vt 0.956435 1.000000
vt 0.957617 0.500000
vt 0.957617 1.000000
vt 0.960835 0.500000
vt 0.960835 1.000000
vt 0.964052 0.500000
vt 0.964052 1.000000
vt 0.966666 0.500000
vt 0.966666 1.000000
vt 0.969884 0.500000
vt 0.969884 1.000000
vt 0.973101 0.500000
vt 0.973101 1.000000
vt 0.974284 0.500000
vt 0.974284 1.000000
vt 0.977502 0.500000
vt 0.977502 1.000000
vt 0.980719 0.500000
vt 0.980719 1.000000
vt 0.983333 0.500000
vt 0.983333 1.000000
vt 0.986550 0.500000
vt 0.986550 1.000000
vt 0.989768 0.500000
vt 0.989768 1.000000
vt 0.990951 0.500000
vt 0.990951 1.000000
vt 0.994168 0.500000
vt 0.994168 1.000000
vt 0.997386 0.500000
vt 0.997386 1.000000
vt 1.000000 0.500000
vt 1.000000 1.000000
vt 0.263066 0.457192
vt 0.258493 0.478025
vt 0.241507 0.478025
vt 0.236934 0.457192
vt 0.253920 0.498859
vt 0.246080 0.498859
vt 0.305858 0.449948
vt 0.305716 0.471277
vt 0.289102 0.474808
vt 0.280297 0.455381
vt 0.305575 0.492606
vt 0.297906 0.494236
vt 0.346209 0.433965
vt 0.350505 0.454857
vt 0.334988 0.461766
vt 0.322336 0.444594
vt 0.354801 0.475749
vt 0.347639 0.478938
vt 0.382355 0.409942
vt 0.390901 0.429484
vt 0.377159 0.439468
vt 0.361214 0.425302
vt 0.399447 0.449027
vt 0.393104 0.453635
vt 0.412717 0.378929
vt 0.425139 0.396267
vt 0.413773 0.408890
vt 0.395231 0.398349
vt 0.437561 0.413606
vt 0.432315 0.419432
vt 0.435967 0.342281
vt 0.451722 0.356658
vt 0.443229 0.371368
vt 0.422901 0.364912
vt 0.467478 0.371035
vt 0.463558 0.377824
vt 0.451089 0.301599
vt 0.469490 0.312386
vt 0.464241 0.328541
vt 0.443014 0.326452
vt 0.487890 0.323174
vt 0.485467 0.330630
vt 0.457423 0.258663
vt 0.477664 0.265389
vt 0.475888 0.282282
vt 0.454691 0.284652
vt 0.497905 0.272114
vt 0.497086 0.279911
vt 0.454691 0.215348
vt 0.475888 0.217718
vt 0.477664 0.234611
vt 0.457423 0.241337
vt 0.497086 0.220089
vt 0.497905 0.227886
vt 0.443014 0.173548
vt 0.464241 0.171459
vt 0.469490 0.187614
vt 0.451089 0.198401
vt 0.485467 0.169370
vt 0.487890 0.176826
vt 0.422901 0.135088
vt 0.443229 0.128632
vt 0.451722 0.143342
vt 0.435967 0.157720
vt 0.463558 0.122176
vt 0.467478 0.128965
vt 0.395231 0.101651
vt 0.413773 0.091110
vt 0.425139 0.103733
vt 0.412717 0.121071
vt 0.432315 0.080568
vt 0.437561 0.086394
vt 0.361214 0.074698
vt 0.377159 0.060532
vt 0.390901 0.070516
vt 0.382355 0.090058
vt 0.393104 0.046365
vt 0.399447 0.050973
vt 0.322336 0.055406
vt 0.334988 0.038234
vt 0.350505 0.045143
vt 0.346209 0.066035
vt 0.347639 0.021062
vt 0.354801 0.024251
vt 0.280297 0.044619
vt 0.289102 0.025192
vt 0.305716 0.028723
vt 0.305858 0.050052
vt 0.297906 0.005764
vt 0.305575 0.007394
vt 0.236934 0.042808
vt 0.241507 0.021975
vt 0.258493 0.021975
vt 0.263066 0.042808
vt 0.246080 0.001141
vt 0.253920 0.001141
vt 0.194142 0.050052
vt 0.194283 0.028723
vt 0.210898 0.025192
vt 0.219703 0.044619
vt 0.194425 0.007394
vt 0.202094 0.005764
vt 0.153791 0.066035
vt 0.149495 0.045143
vt 0.165012 0.038234
vt 0.177664 0.055406
vt 0.145199 0.024251
vt 0.152361 0.021062
vt 0.117645 0.090058
vt 0.109099 0.070516
vt 0.122841 0.060532
vt 0.138786 0.074698
vt 0.100553 0.050973
vt 0.106896 0.046365
vt 0.087283 0.121071
vt 0.074861 0.103733
vt 0.086227 0.091110
vt 0.104769 0.101651
vt 0.062439 0.086394
vt 0.067685 0.080568
vt 0.064033 0.157719
vt 0.048278 0.143342
vt 0.056771 0.128632
vt 0.077099 0.135088
vt 0.032522 0.128965
vt 0.036442 0.122176
vt 0.048911 0.198401
vt 0.030511 0.187614
vt 0.035759 0.171459
vt 0.056986 0.173548
vt 0.012110 0.176826
vt 0.014533 0.169370
vt 0.042577 0.241337
vt 0.022336 0.234611
vt 0.024112 0.217718
vt 0.045309 0.215348
vt 0.002095 0.227886
vt 0.002914 0.220089
vt 0.045309 0.284652
vt 0.024112 0.282282
vt 0.022336 0.265389
vt 0.042577 0.258663
vt 0.002914 0.279911
vt 0.002095 0.272115
vt 0.056986 0.326452
vt 0.035759 0.328541
vt 0.030511 0.312386
vt 0.048911 0.301599
vt 0.014533 0.330630
vt 0.012110 0.323174
vt 0.077099 0.364912
vt 0.056771 0.371368
vt 0.048278 0.356658
vt 0.064033 0.342280
vt 0.036442 0.377824
vt 0.032522 0.371035
vt 0.104769 0.398349
vt 0.086227 0.408890
vt 0.074861 0.396267
vt 0.087283 0.378929
vt 0.067685 0.419432
vt 0.062439 0.413606
vt 0.138786 0.425302
vt 0.122841 0.439468
vt 0.109099 0.429484
vt 0.117645 0.409942
vt 0.106896 0.453635
vt 0.100553 0.449027
vt 0.177664 0.444594
vt 0.165012 0.461766
vt 0.149495 0.454857
vt 0.153791 0.433965
vt 0.152361 0.478938
vt 0.145199 0.475749
vt 0.219703 0.455381
vt 0.210898 0.474808
vt 0.194283 0.471277
vt 0.194142 0.449948
vt 0.202094 0.494236
vt 0.194425 0.492606
vt 0.508333 0.500000
vt 0.508333 0.000000
vt 0.500000 0.000000
vt 0.510635 0.500000
vt 0.510635 0.000000
vt 0.564365 0.000000
vt 0.564365 0.500000
vt 0.566667 0.000000
vt 0.575000 0.500000
vt 0.575000 0.000000
vt 0.583333 0.500000
vt 0.583333 0.000000
vt 0.591667 0.500000
vt 0.591667 0.000000
vt 0.593968 0.500000
vt 0.593968 0.000000
vt 0.641667 0.500000
vt 0.650000 0.500000
vt 0.650000 0.000000
vt 0.641667 0.000000
vt 0.658333 0.500000
vt 0.658333 0.000000
vt 0.666667 0.000000
vt 0.675000 0.500000
vt 0.675000 0.000000
vt 0.683333 0.500000
vt 0.683333 0.000000
vt 0.725000 0.500000
vt 0.733333 0.000000
vt 0.725000 0.000000
vt 0.741667 0.500000
vt 0.741667 0.000000
vt 0.750000 0.000000
vt 0.758333 0.500000
vt 0.758333 0.000000
vt 0.760635 0.500000
vt 0.760635 0.000000
vt 0.814365 0.000000
vt 0.814365 0.500000
vt 0.816667 0.500000
vt 0.816667 0.000000
vt 0.825000 0.500000
vt 0.825000 0.000000
vt 0.833333 0.500000
vt 0.833333 0.000000
vt 0.841667 0.500000
vt 0.841667 0.000000
vt 0.843968 0.500000
vt 0.843968 0.000000
vt 0.897698 0.000000
vt 0.897698 0.500000
vt 0.900000 0.500000
vt 0.900000 0.000000
vt 0.908333 0.500000
vt 0.908333 0.000000
vt 0.916667 0.500000
vt 0.916667 0.000000
vt 0.925000 0.500000
vt 0.925000 0.000000
vt 0.927302 0.500000
vt 0.927302 0.000000
vt 0.981032 0.000000
vt 0.981032 0.500000
vt 0.983333 0.500000
vt 0.983333 0.000000
vt 0.991667 0.500000
vt 0.991667 0.000000
vt 1.000000 0.000000
vt 0.241277 0.583562
vt 0.258723 0.583562
vt 0.277133 0.575155
vt 0.263515 0.584065
vt 0.258723 0.416438
vt 0.241277 0.416438
vt 0.293137 0.589012
vt 0.309728 0.594403
vt 0.293137 0.410988
vt 0.277133 0.424845
vt 0.286133 0.412476
vt 0.309728 0.405597
vt 0.325665 0.601499
vt 0.340773 0.610222
vt 0.325665 0.398501
vt 0.340773 0.389778
vt 0.361780 0.612842
vt 0.346566 0.614430
vt 0.367851 0.367851
vt 0.361780 0.387158
vt 0.364270 0.371075
vt 0.367851 0.632149
vt 0.379524 0.645113
vt 0.389778 0.659227
vt 0.379524 0.354887
vt 0.389778 0.340773
vt 0.398501 0.674335
vt 0.414987 0.686075
vt 0.400461 0.678737
vt 0.398501 0.325665
vt 0.410988 0.706864
vt 0.414615 0.723928
vt 0.410988 0.293136
vt 0.414987 0.313925
vt 0.408775 0.299946
vt 0.414615 0.276072
vt 0.416438 0.741277
vt 0.416438 0.758723
vt 0.416438 0.258723
vt 0.416438 0.241277
vt 0.414615 0.776072
vt 0.410988 0.793136
vt 0.414615 0.223928
vt 0.410988 0.206863
vt 0.405597 0.809728
vt 0.398501 0.825665
vt 0.405597 0.190272
vt 0.398501 0.174335
vt 0.389778 0.840773
vt 0.379524 0.854887
vt 0.389778 0.159227
vt 0.379524 0.145113
vt 0.367851 0.867851
vt 0.354887 0.879524
vt 0.367851 0.132149
vt 0.354887 0.120476
vt 0.340773 0.889778
vt 0.325665 0.898501
vt 0.340773 0.110222
vt 0.325665 0.101499
vt 0.309728 0.905597
vt 0.293136 0.910988
vt 0.309728 0.094403
vt 0.293136 0.089012
vt 0.276072 0.914615
vt 0.258723 0.916438
vt 0.276072 0.085385
vt 0.258723 0.083562
vt 0.241277 0.916438
vt 0.222867 0.924845
vt 0.236485 0.915935
vt 0.241277 0.083562
vt 0.206863 0.910988
vt 0.190272 0.905597
vt 0.206863 0.089012
vt 0.222867 0.075155
vt 0.213867 0.087524
vt 0.190272 0.094403
vt 0.174335 0.898501
vt 0.159227 0.889778
vt 0.174335 0.101499
vt 0.159227 0.110222
vt 0.138220 0.887158
vt 0.153434 0.885570
vt 0.132149 0.132149
vt 0.138220 0.112842
vt 0.135730 0.128925
vt 0.132149 0.867851
vt 0.120476 0.854887
vt 0.110222 0.840773
vt 0.120476 0.145113
vt 0.110222 0.159227
vt 0.101499 0.825665
vt 0.085013 0.813925
vt 0.099539 0.821263
vt 0.101499 0.174335
vt 0.089012 0.793136
vt 0.085385 0.776072
vt 0.089012 0.206864
vt 0.085013 0.186075
vt 0.091225 0.200054
vt 0.085385 0.223928
vt 0.083562 0.758723
vt 0.083562 0.741277
vt 0.083562 0.241277
vt 0.083562 0.258723
vt 0.075328 0.721774
vt 0.084310 0.734157
vt 0.089012 0.293137
vt 0.075328 0.278226
vt 0.088011 0.288424
vt 0.089012 0.706863
vt 0.094403 0.690272
vt 0.101499 0.674335
vt 0.094403 0.309728
vt 0.101499 0.325665
vt 0.110222 0.659227
vt 0.112146 0.639080
vt 0.113054 0.655329
vt 0.110222 0.340773
vt 0.132149 0.632149
vt 0.145113 0.620476
vt 0.132149 0.367851
vt 0.112146 0.360920
vt 0.127358 0.362530
vt 0.145113 0.379524
vt 0.159227 0.610222
vt 0.174335 0.601499
vt 0.159227 0.389778
vt 0.174335 0.398501
vt 0.187108 0.584617
vt 0.180876 0.598587
vt 0.206863 0.410988
vt 0.187108 0.415383
vt 0.202281 0.409499
vt 0.206863 0.589012
vt 0.223928 0.585385
vt 0.223928 0.414615
vt 0.525000 0.000000
vt 0.521580 0.000000
vt 0.516667 0.000000
vt 0.523332 0.000000
vt 0.525000 0.500000
vt 0.533333 0.000000
vt 0.541667 0.500000
vt 0.541667 0.000000
vt 0.550000 0.000000
vt 0.553420 0.500000
vt 0.558333 0.500000
vt 0.551667 0.500000
vt 0.558333 0.000000
vt 0.608333 0.000000
vt 0.604913 0.000000
vt 0.600000 0.000000
vt 0.606666 0.000000
vt 0.608333 0.500000
vt 0.616667 0.000000
vt 0.625000 0.500000
vt 0.625000 0.000000
vt 0.633333 0.500000
vt 0.633333 0.000000
vt 0.691667 0.500000
vt 0.689999 0.500000
vt 0.691667 0.000000
vt 0.689999 0.000000
vt 0.700000 0.500000
vt 0.700000 0.000000
vt 0.708333 0.500000
vt 0.708333 0.000000
vt 0.716667 0.000000
vt 0.775000 0.000000
vt 0.771580 0.000000
vt 0.766667 0.000000
vt 0.773333 0.000000
vt 0.775000 0.500000
vt 0.783333 0.000000
vt 0.791667 0.500000
vt 0.791667 0.000000
vt 0.800000 0.500000
vt 0.800000 0.000000
vt 0.803420 0.500000
vt 0.808333 0.500000
vt 0.801667 0.500000
vt 0.808333 0.000000
vt 0.858333 0.000000
vt 0.854913 0.000000
vt 0.850000 0.000000
vt 0.856666 0.000000
vt 0.850000 0.500000
vt 0.858333 0.500000
vt 0.866667 0.500000
vt 0.866667 0.000000
vt 0.875000 0.500000
vt 0.875000 0.000000
vt 0.883333 0.500000
vt 0.883333 0.000000
vt 0.886753 0.500000
vt 0.891667 0.500000
vt 0.891667 0.500000
vt 0.885001 0.500000
vt 0.891667 0.000000
vt 0.941667 0.000000
vt 0.938247 0.000000
vt 0.933333 0.000000
vt 0.939999 0.000000
vt 0.933333 0.500000
vt 0.941667 0.500000
vt 0.950000 0.500000
vt 0.950000 0.000000
vt 0.958333 0.500000
vt 0.958333 0.000000
vt 0.966667 0.500000
vt 0.966667 0.000000
vt 0.970087 0.500000
vt 0.975000 0.500000
vt 0.968334 0.500000
vt 0.975000 0.000000
vt 0.975000 0.000000
vt 0.519940 0.000000
vt 0.555060 0.500000
vt 0.603274 0.000000
vt 0.805060 0.500000
vt 0.808333 0.000000
vt 0.850000 0.000000
vt 0.853274 0.000000
vt 0.891667 0.500000
vt 0.888393 0.500000
vt 0.936607 0.000000
vt 0.933333 0.500000
vt 0.971726 0.500000
vt 0.750000 0.000000
vt 0.911309 0.000000
vt 0.872162 0.000000
vt 0.827975 0.000000
vt 0.800302 0.000000
vt 0.577975 0.000000
vt 0.584723 0.000000
vt 0.798221 0.000000
vt 0.944021 0.000000
vt 0.741667 0.500000
vt 0.580358 0.500000
vt 0.830358 0.500000
vt 0.913691 0.500000
vt 0.693446 0.500000
vt 0.521580 0.500000
vt 0.523332 0.500000
vt 0.286133 0.587524
vt 0.263515 0.415935
vt 0.364270 0.628925
vt 0.553420 0.000000
vt 0.551667 0.000000
vt 0.346566 0.385570
vt 0.604913 0.500000
vt 0.606666 0.500000
vt 0.408775 0.700054
vt 0.400461 0.321263
vt 0.771580 0.500000
vt 0.773333 0.500000
vt 0.213867 0.912476
vt 0.236485 0.084065
vt 0.135730 0.871075
vt 0.803420 0.000000
vt 0.801667 0.000000
vt 0.153434 0.114430
vt 0.854913 0.500000
vt 0.856666 0.500000
vt 0.091225 0.799946
vt 0.099539 0.178737
vt 0.088011 0.711577
vt 0.886753 0.000000
vt 0.885001 0.000000
vt 0.084310 0.265843
vt 0.938246 0.500000
vt 0.939999 0.500000
vt 0.127358 0.637470
vt 0.113054 0.344671
vt 0.202281 0.590501
vt 0.970087 0.000000
vt 0.968334 0.000000
vt 0.180876 0.401413
vt 0.519940 0.500000
vt 0.555060 0.000000
vt 0.603274 0.500000
vt 0.805060 0.000000
vt 0.853274 0.500000
vt 0.888393 0.000000
vt 0.936607 0.500000
vt 0.971726 0.000000
vt 0.517622 0.500000
vt 0.516659 0.500000
vt 0.517648 -0.000000
vt 0.557352 0.500000
vt 0.557378 -0.000000
vt 0.558340 0.000000
vt 0.600955 0.500000
vt 0.599993 0.500000
vt 0.600981 -0.000000
vt 0.767622 0.500000
vt 0.766659 0.500000
vt 0.767648 -0.000000
vt 0.807352 0.500000
vt 0.807378 -0.000000
vt 0.808340 0.000000
vt 0.850955 0.500000
vt 0.849993 0.500000
vt 0.850981 -0.000000
vt 0.890685 0.500000
vt 0.890711 -0.000000
vt 0.891674 0.000000
vt 0.934289 0.500000
vt 0.933326 0.500000
vt 0.934315 -0.000000
vt 0.974019 0.500000
vt 0.974045 -0.000000
vt 0.975007 0.000000
vt 0.558505 0.500000
vt 0.927775 -0.000000
vt 0.600000 0.500000
vt 0.596319 0.500000
vt 0.566645 -0.000000
vt 0.846319 0.500000
vt 0.810595 -0.000000
vt 0.933333 0.500000
vt 0.929653 0.500000
vt 0.891911 -0.000000
s 1
usemtl blinn10.001
f 1/1/1 2/2/1 5/3/1 6/4/1
f 2/2/1 3/5/1 4/6/1 5/3/1
f 7/7/1 8/8/1 11/9/1 12/10/1
f 8/8/1 9/11/1 10/12/1 11/9/1
f 13/13/1 14/14/1 17/15/1 18/16/1
f 14/14/1 15/17/1 16/18/1 17/15/1
f 19/19/1 20/20/1 23/21/1 24/22/1
f 20/20/1 21/23/1 22/24/1 23/21/1
f 25/25/1 26/26/1 29/27/1 30/28/1
f 26/26/1 27/29/1 28/30/1 29/27/1
f 31/31/1 32/32/1 35/33/1 36/34/1
f 32/32/1 33/35/1 34/36/1 35/33/1
f 37/37/1 38/38/1 41/39/1 42/40/1
f 38/38/1 39/41/1 40/42/1 41/39/1
f 43/43/1 44/44/1 47/45/1 48/46/1
f 44/44/1 45/47/1 46/48/1 47/45/1
f 49/49/1 50/50/1 53/51/1 54/52/1
f 50/50/1 51/53/1 52/54/1 53/51/1
f 55/55/1 56/56/1 59/57/1 60/58/1
f 56/56/1 57/59/1 58/60/1 59/57/1
f 61/61/1 62/62/1 65/63/1 66/64/1
f 62/62/1 63/65/1 64/66/1 65/63/1
f 67/67/1 68/68/1 71/69/1 72/70/1
f 68/68/1 69/71/1 70/72/1 71/69/1
f 73/73/1 74/74/1 77/75/1 78/76/1
f 74/74/1 75/77/1 76/78/1 77/75/1
f 79/79/1 80/80/1 83/81/1 84/82/1
f 80/80/1 81/83/1 82/84/1 83/81/1
f 85/85/1 86/86/1 89/87/1 90/88/1
f 86/86/1 87/89/1 88/90/1 89/87/1
f 91/91/1 92/92/1 95/93/1 96/94/1
f 92/92/1 93/95/1 94/96/1 95/93/1
f 97/97/1 98/98/1 101/99/1 102/100/1
f 98/98/1 99/101/1 100/102/1 101/99/1
f 103/103/1 104/104/1 107/105/1 108/106/1
f 104/104/1 105/107/1 106/108/1 107/105/1
f 109/109/1 110/110/1 113/111/1 114/112/1
f 110/110/1 111/113/1 112/114/1 113/111/1
f 115/115/1 116/116/1 119/117/1 120/118/1
f 116/116/1 117/119/1 118/120/1 119/117/1
f 121/121/1 122/122/1 125/123/1 126/124/1
f 122/122/1 123/125/1 124/126/1 125/123/1
f 127/127/1 128/128/1 131/129/1 132/130/1
f 128/128/1 129/131/1 130/132/1 131/129/1
f 133/133/1 134/134/1 137/135/1 138/136/1
f 134/134/1 135/137/1 136/138/1 137/135/1
f 139/139/1 140/140/1 143/141/1 144/142/1
f 140/140/1 141/143/1 142/144/1 143/141/1
f 145/145/1 146/146/1 149/147/1 150/148/1
f 146/146/1 147/149/1 148/150/1 149/147/1
f 151/151/1 152/152/1 155/153/1 156/154/1
f 152/152/1 153/155/1 154/156/1 155/153/1
f 157/157/1 158/158/1 161/159/1 162/160/1
f 158/158/1 159/161/1 160/162/1 161/159/1
f 163/163/1 164/164/1 167/165/1 168/166/1
f 164/164/1 165/167/1 166/168/1 167/165/1
f 169/169/1 170/170/1 173/171/1 174/172/1
f 170/170/1 171/173/1 172/174/1 173/171/1
f 175/175/1 176/176/1 179/177/1 180/178/1
f 176/176/1 177/179/1 178/180/1 179/177/1
f 186/543/122 185/544/122 182/545/122 181/546/122
f 185/544/122 184/547/122 183/548/122 182/545/122
f 192/549/122 191/550/122 188/551/122 187/552/122
f 191/550/122 190/553/122 189/554/122 188/551/122
f 198/555/122 197/556/122 194/557/122 193/558/122
f 197/556/122 196/559/122 195/560/122 194/557/122
f 204/561/122 203/562/122 200/563/122 199/564/122
f 203/562/122 202/565/122 201/566/122 200/563/122
f 210/567/122 209/568/122 206/569/122 205/570/122
f 209/568/122 208/571/122 207/572/122 206/569/122
f 216/573/122 215/574/122 212/575/122 211/576/122
f 215/574/122 214/577/122 213/578/122 212/575/122
f 222/579/122 221/580/122 218/581/122 217/582/122
f 221/580/122 220/583/122 219/584/122 218/581/122
f 228/585/122 227/586/122 224/587/122 223/588/122
f 227/586/122 226/589/122 225/590/122 224/587/122
f 234/591/122 233/592/122 230/593/122 229/594/122
f 233/592/122 232/595/122 231/596/122 230/593/122
f 240/597/122 239/598/122 236/599/122 235/600/122
f 239/598/122 238/601/122 237/602/122 236/599/122
f 246/603/122 245/604/122 242/605/122 241/606/122
f 245/604/122 244/607/122 243/608/122 242/605/122
f 252/609/122 251/610/122 248/611/122 247/612/122
f 251/610/122 250/613/122 249/614/122 248/611/122
f 258/615/122 257/616/122 254/617/122 253/618/122
f 257/616/122 256/619/122 255/620/122 254/617/122
f 264/621/122 263/622/122 260/623/122 259/624/122
f 263/622/122 262/625/122 261/626/122 260/623/122
f 270/627/122 269/628/122 266/629/122 265/630/122
f 269/628/122 268/631/122 267/632/122 266/629/122
f 276/633/122 275/634/122 272/635/122 271/636/122
f 275/634/122 274/637/122 273/638/122 272/635/122
f 282/639/122 281/640/122 278/641/122 277/642/122
f 281/640/122 280/643/122 279/644/122 278/641/122
f 288/645/122 287/646/122 284/647/122 283/648/122
f 287/646/122 286/649/122 285/650/122 284/647/122
f 294/651/122 293/652/122 290/653/122 289/654/122
f 293/652/122 292/655/122 291/656/122 290/653/122
f 300/657/122 299/658/122 296/659/122 295/660/122
f 299/658/122 298/661/122 297/662/122 296/659/122
f 306/663/122 305/664/122 302/665/122 301/666/122
f 305/664/122 304/667/122 303/668/122 302/665/122
f 312/669/122 311/670/122 308/671/122 307/672/122
f 311/670/122 310/673/122 309/674/122 308/671/122
f 318/675/122 317/676/122 314/677/122 313/678/122
f 317/676/122 316/679/122 315/680/122 314/677/122
f 324/681/122 323/682/122 320/683/122 319/684/122
f 323/682/122 322/685/122 321/686/122 320/683/122
f 330/687/122 329/688/122 326/689/122 325/690/122
f 329/688/122 328/691/122 327/692/122 326/689/122
f 336/693/122 335/694/122 332/695/122 331/696/122
f 335/694/122 334/697/122 333/698/122 332/695/122
f 342/699/122 341/700/122 338/701/122 337/702/122
f 341/700/122 340/703/122 339/704/122 338/701/122
f 348/705/122 347/706/122 344/707/122 343/708/122
f 347/706/122 346/709/122 345/710/122 344/707/122
f 354/711/122 353/712/122 350/713/122 349/714/122
f 353/712/122 352/715/122 351/716/122 350/713/122
f 360/717/122 359/718/122 356/719/122 355/720/122
f 359/718/122 358/721/122 357/722/122 356/719/122
f 361/791/1 1/1/1 6/4/1 362/792/1
f 362/792/1 6/4/1 7/7/1 602/793/1 601/794/1
f 413/795/122 186/543/122 181/546/122 412/796/122
f 363/797/1 12/10/1 13/13/1 364/798/1
f 414/799/122 192/549/122 187/552/122 606/800/122 605/801/122
f 415/802/122 193/558/122 192/549/122 414/799/122
f 364/798/1 13/13/1 18/16/1 365/803/1
f 365/803/1 18/16/1 19/19/1 366/804/1
f 416/805/122 198/555/122 193/558/122 415/802/122
f 417/806/122 199/564/122 198/555/122 416/805/122
f 366/804/1 19/19/1 24/22/1 611/807/1 610/808/1
f 418/809/122 205/570/122 204/561/122 617/810/122 616/811/122
f 367/812/1 25/25/1 30/28/1 368/813/1
f 368/813/1 30/28/1 31/31/1 369/814/1
f 419/815/122 210/567/122 205/570/122 418/809/122
f 420/816/122 211/576/122 210/567/122 419/815/122
f 369/814/1 31/31/1 36/34/1 370/817/1
f 370/817/1 36/34/1 37/37/1 622/818/1 621/819/1
f 421/820/122 216/573/122 211/576/122 420/816/122
f 371/821/1 42/40/1 43/43/1 372/822/1
f 422/823/122 222/579/122 217/582/122 626/824/122 625/825/122
f 423/826/122 223/588/122 222/579/122 422/823/122
f 372/822/1 43/43/1 48/46/1 373/827/1
f 373/827/1 48/46/1 49/49/1 374/828/1
f 424/829/122 228/585/122 223/588/122 423/826/122
f 425/830/122 229/594/122 228/585/122 424/829/122
f 374/828/1 49/49/1 54/52/1 375/831/1
f 375/831/1 54/52/1 55/55/1 376/832/1
f 426/833/122 234/591/122 229/594/122 425/830/122
f 427/834/122 235/600/122 234/591/122 426/833/122
f 376/832/1 55/55/1 60/58/1 377/835/1
f 377/835/1 60/58/1 61/61/1 378/836/1
f 428/837/122 240/597/122 235/600/122 427/834/122
f 429/838/122 241/606/122 240/597/122 428/837/122
f 378/836/1 61/61/1 66/64/1 379/839/1
f 379/839/1 66/64/1 67/67/1 380/840/1
f 430/841/122 246/603/122 241/606/122 429/838/122
f 431/842/122 247/612/122 246/603/122 430/841/122
f 380/840/1 67/67/1 72/70/1 381/843/1
f 381/843/1 72/70/1 73/73/1 382/844/1
f 432/845/122 252/609/122 247/612/122 431/842/122
f 433/846/122 253/618/122 252/609/122 432/845/122
f 382/844/1 73/73/1 78/76/1 383/847/1
f 383/847/1 78/76/1 79/79/1 384/848/1
f 434/849/122 258/615/122 253/618/122 433/846/122
f 435/850/122 259/624/122 258/615/122 434/849/122
f 384/848/1 79/79/1 84/82/1 385/851/1
f 385/851/1 84/82/1 85/85/1 386/852/1
f 436/853/122 264/621/122 259/624/122 435/850/122
f 437/854/122 265/630/122 264/621/122 436/853/122
f 386/852/1 85/85/1 90/88/1 387/855/1
f 387/855/1 90/88/1 91/91/1 388/856/1
f 438/857/122 270/627/122 265/630/122 437/854/122
f 439/858/122 271/636/122 270/627/122 438/857/122
f 388/856/1 91/91/1 96/94/1 389/859/1
f 389/859/1 96/94/1 97/97/1 632/860/1 631/861/1
f 440/862/122 276/633/122 271/636/122 439/858/122
f 390/863/1 102/100/1 103/103/1 391/864/1
f 441/865/122 282/639/122 277/642/122 636/866/122 635/867/122
f 442/868/122 283/648/122 282/639/122 441/865/122
f 391/864/1 103/103/1 108/106/1 392/869/1
f 392/869/1 108/106/1 109/109/1 393/870/1
f 443/871/122 288/645/122 283/648/122 442/868/122
f 444/872/122 289/654/122 288/645/122 443/871/122
f 393/870/1 109/109/1 114/112/1 641/873/1 640/874/1
f 445/875/122 295/660/122 294/651/122 647/876/122 646/877/122
f 394/878/1 115/115/1 120/118/1 395/879/1
f 395/879/1 120/118/1 121/121/1 396/880/1
f 446/881/122 300/657/122 295/660/122 445/875/122
f 447/882/122 301/666/122 300/657/122 446/881/122
f 396/880/1 121/121/1 126/124/1 397/883/1
f 397/883/1 126/124/1 127/127/1 652/884/1 651/885/1
f 448/886/122 306/663/122 301/666/122 447/882/122
f 398/887/1 132/130/1 133/133/1 399/888/1
f 449/889/122 312/669/122 307/672/122 656/890/122 655/891/122
f 450/892/122 313/678/122 312/669/122 449/889/122
f 399/888/1 133/133/1 138/136/1 400/893/1
f 400/893/1 138/136/1 139/139/1 401/894/1
f 451/895/122 318/675/122 313/678/122 450/892/122
f 452/896/122 319/684/122 318/675/122 451/895/122
f 401/894/1 139/139/1 144/142/1 661/897/1 660/898/1
f 453/899/122 325/690/122 324/681/122 667/900/122 666/901/122
f 402/902/1 145/145/1 150/148/1 403/903/1
f 403/903/1 150/148/1 151/151/1 404/904/1
f 454/905/122 330/687/122 325/690/122 453/899/122
f 455/906/122 331/696/122 330/687/122 454/905/122
f 404/904/1 151/151/1 156/154/1 405/907/1
f 405/907/1 156/154/1 157/157/1 672/908/1 671/909/1
f 456/910/122 336/693/122 331/696/122 455/906/122
f 406/911/1 162/160/1 163/163/1 407/912/1
f 457/913/122 342/699/122 337/702/122 676/914/122 675/915/122
f 458/916/122 343/708/122 342/699/122 457/913/122
f 407/912/1 163/163/1 168/166/1 408/917/1
f 408/917/1 168/166/1 169/169/1 409/918/1
f 459/919/122 348/705/122 343/708/122 458/916/122
f 460/920/122 349/714/122 348/705/122 459/919/122
f 409/918/1 169/169/1 174/172/1 681/921/1 680/922/1
f 461/923/122 355/720/122 354/711/122 687/924/122 686/925/122
f 410/926/1 175/175/1 180/178/1 411/927/1
f 411/927/1 180/178/1 1/1/1 361/791/1
f 462/928/122 360/717/122 355/720/122 461/923/122
f 412/796/122 181/546/122 360/717/122 462/928/122
f 414/929/122 605/930/122 604/931/122 695/931/122 694/932/122 464/929/122
f 363/933/1 364/205/1 465/205/1 463/933/1
f 415/934/122 414/929/122 464/929/122 466/934/122
f 364/205/1 365/935/1 467/935/1 465/205/1
f 416/936/122 415/934/122 466/934/122 468/936/122
f 365/935/1 366/217/1 469/217/1 467/935/1
f 417/937/122 416/936/122 468/936/122 470/937/122
f 366/217/1 610/938/1 609/939/1 699/939/1 698/940/1 469/217/1
f 422/942/122 625/943/122 624/944/122 711/944/122 710/945/122 472/942/122
f 371/946/1 372/265/1 473/265/1 471/946/1
f 423/947/122 422/942/122 472/942/122 474/947/122
f 372/265/1 373/948/1 475/948/1 473/265/1
f 424/949/122 423/947/122 474/947/122 476/949/122
f 373/948/1 374/950/1 477/950/1 475/948/1
f 425/951/122 424/949/122 476/949/122 478/951/122
f 374/950/1 375/739/1 479/739/1 477/950/1
f 426/742/122 425/951/122 478/951/122 480/742/122
f 380/748/1 381/952/1 481/952/1 716/953/1 715/748/1
f 432/954/122 431/749/122 719/749/122 718/955/122 482/954/122
f 381/952/1 382/956/1 483/956/1 481/952/1
f 433/957/122 432/954/122 482/954/122 484/957/122
f 382/956/1 383/958/1 485/958/1 483/956/1
f 434/959/122 433/957/122 484/957/122 486/959/122
f 383/958/1 384/337/1 487/337/1 485/958/1
f 435/960/122 434/959/122 486/959/122 488/960/122
f 384/337/1 385/750/1 489/750/1 487/337/1
f 436/752/122 435/960/122 488/960/122 490/752/122
f 441/961/122 635/962/122 634/963/122 727/963/122 726/964/122 492/961/122
f 390/965/1 391/385/1 493/385/1 491/965/1
f 442/966/122 441/961/122 492/961/122 494/966/122
f 391/385/1 392/967/1 495/967/1 493/385/1
f 443/968/122 442/966/122 494/966/122 496/968/122
f 392/967/1 393/969/1 497/969/1 495/967/1
f 444/970/122 443/968/122 496/968/122 498/970/122
f 393/969/1 640/971/1 639/972/1 731/972/1 730/973/1 497/969/1
f 449/975/122 655/976/122 654/977/122 743/977/122 742/978/122 500/975/122
f 398/980/1 399/981/1 501/981/1 499/980/1
f 450/982/122 449/975/122 500/975/122 502/982/122
f 399/981/1 400/983/1 503/983/1 501/981/1
f 451/984/122 450/982/122 502/982/122 504/984/122
f 400/983/1 401/985/1 505/985/1 503/983/1
f 452/986/122 451/984/122 504/984/122 506/986/122
f 401/985/1 660/987/1 659/988/1 747/989/1 746/990/1 505/985/1
f 457/992/122 675/993/122 674/994/122 759/994/122 758/995/122 508/992/122
f 406/997/1 407/998/1 509/998/1 507/997/1
f 458/999/122 457/992/122 508/992/122 510/999/122
f 407/998/1 408/1000/1 511/1000/1 509/998/1
f 459/1001/122 458/999/122 510/999/122 512/1001/122
f 408/1000/1 409/1002/1 513/1002/1 511/1000/1
f 460/1003/122 459/1001/122 512/1001/122 514/1003/122
f 409/1002/1 680/1004/1 679/1005/1 763/1005/1 762/1006/1 513/1002/1
f 464/929/122 694/932/122 693/931/122 777/931/122 776/1009/122 516/929/122
f 463/933/1 465/205/1 517/205/1 515/933/1
f 466/934/122 464/929/122 516/929/122 518/934/122
f 465/205/1 467/935/1 519/935/1 517/205/1
f 468/936/122 466/934/122 518/934/122 520/936/122
f 467/935/1 469/217/1 521/217/1 519/935/1
f 470/937/122 468/936/122 520/936/122 522/937/122
f 469/217/1 698/940/1 697/939/1 783/939/1 782/1010/1 521/217/1
f 472/942/122 710/945/122 709/944/122 789/944/122 788/1011/122 524/942/122
f 471/946/1 473/265/1 525/265/1 523/946/1
f 474/947/122 472/942/122 524/942/122 526/947/122
f 473/265/1 475/948/1 527/948/1 525/265/1
f 476/949/122 474/947/122 526/947/122 528/949/122
f 475/948/1 477/950/1 529/950/1 527/948/1
f 478/951/122 476/949/122 528/949/122 530/951/122
f 477/950/1 479/739/1 531/739/1 529/950/1
f 480/742/122 478/951/122 530/951/122 532/742/122
f 482/954/122 718/955/122 717/749/122 532/749/122 534/954/122
f 481/952/1 483/956/1 535/956/1 533/952/1
f 484/957/122 482/954/122 534/954/122 536/957/122
f 483/956/1 485/958/1 537/958/1 535/956/1
f 486/959/122 484/957/122 536/957/122 538/959/122
f 485/958/1 487/337/1 539/337/1 537/958/1
f 488/960/122 486/959/122 538/959/122 540/960/122
f 487/337/1 489/750/1 541/750/1 539/337/1
f 490/752/122 488/960/122 540/960/122 542/752/122
f 492/961/122 726/964/122 725/963/122 542/963/122 544/961/122
f 491/965/1 493/385/1 545/385/1 543/965/1
f 494/966/122 492/961/122 544/961/122 546/966/122
f 493/385/1 495/967/1 547/967/1 545/385/1
f 496/968/122 494/966/122 546/966/122 548/968/122
f 495/967/1 497/969/1 549/969/1 547/967/1
f 498/970/122 496/968/122 548/968/122 550/970/122
f 497/969/1 730/973/1 729/972/1 795/972/1 794/1012/1 549/969/1
f 500/975/122 742/978/122 741/977/122 801/1014/122 800/1015/122 552/975/122
f 499/980/1 501/981/1 553/981/1 551/980/1
f 502/982/122 500/975/122 552/975/122 554/982/122
f 501/981/1 503/983/1 555/983/1 553/981/1
f 504/984/122 502/982/122 554/982/122 556/984/122
f 503/983/1 505/985/1 557/985/1 555/983/1
f 506/986/122 504/984/122 556/984/122 558/986/122
f 505/985/1 746/990/1 745/988/1 807/1016/1 806/1017/1 557/985/1
f 508/992/122 758/995/122 757/994/122 813/994/122 812/1018/122 560/992/122
f 507/997/1 509/998/1 561/998/1 559/997/1
f 510/999/122 508/992/122 560/992/122 562/999/122
f 509/998/1 511/1000/1 563/1000/1 561/998/1
f 512/1001/122 510/999/122 562/999/122 564/1001/122
f 511/1000/1 513/1002/1 565/1002/1 563/1000/1
f 514/1003/122 512/1001/122 564/1001/122 566/1003/122
f 513/1002/1 762/1006/1 761/1005/1 771/1005/1 770/1020/1 565/1002/1
f 566/1003/122 564/1001/122 567/1021/122
f 564/1001/122 562/999/122 567/1021/122
f 562/999/122 560/992/122 567/1021/122
f 560/992/122 812/1022/122 811/1023/122 567/1021/122
f 558/986/122 556/984/122 567/1021/122
f 556/984/122 554/982/122 567/1021/122
f 554/982/122 552/975/122 567/1021/122
f 552/975/122 800/1024/122 799/1025/122 567/1021/122
f 550/970/122 548/968/122 567/1021/122
f 548/968/122 546/966/122 567/1021/122
f 546/966/122 544/961/122 567/1021/122
f 544/961/122 542/752/122 567/1021/122
f 542/752/122 540/960/122 567/1021/122
f 540/960/122 538/959/122 567/1021/122
f 538/959/122 536/957/122 567/1021/122
f 536/957/122 534/954/122 567/1021/122
f 534/954/122 532/742/122 567/1021/122
f 532/742/122 530/951/122 567/1021/122
f 530/951/122 528/949/122 567/1021/122
f 528/949/122 526/947/122 567/1021/122
f 526/947/122 524/942/122 567/1021/122
f 524/942/122 788/1026/122 787/1027/122 567/1021/122
f 522/937/122 520/936/122 567/1021/122
f 520/936/122 518/934/122 567/1021/122
f 518/934/122 516/929/122 567/1021/122
f 516/929/122 776/1028/122 775/1029/122 567/1021/122
f 568/933/1 569/205/1 570/1030/1
f 569/205/1 571/935/1 570/1030/1
f 571/935/1 572/217/1 570/1030/1
f 572/217/1 573/253/1 570/1030/1
f 573/253/1 574/946/1 570/1030/1
f 574/946/1 575/265/1 570/1030/1
f 575/265/1 576/948/1 570/1030/1
f 576/948/1 577/950/1 570/1030/1
f 577/950/1 578/748/1 570/1030/1
f 578/748/1 579/952/1 570/1030/1
f 579/952/1 580/956/1 570/1030/1
f 580/956/1 581/958/1 570/1030/1
f 581/958/1 582/337/1 570/1030/1
f 582/337/1 583/373/1 570/1030/1
f 583/373/1 584/965/1 570/1030/1
f 584/965/1 585/385/1 570/1030/1
f 585/385/1 586/967/1 570/1030/1
f 586/967/1 587/969/1 570/1030/1
f 587/969/1 588/979/1 570/1030/1
f 588/979/1 589/980/1 570/1030/1
f 589/980/1 590/981/1 570/1030/1
f 590/981/1 591/983/1 570/1030/1
f 591/983/1 592/985/1 570/1030/1
f 592/985/1 593/996/1 570/1030/1
f 593/996/1 594/997/1 570/1030/1
f 594/997/1 595/998/1 570/1030/1
f 595/998/1 596/1000/1 570/1030/1
f 596/1000/1 597/1002/1 570/1030/1
f 597/1002/1 598/193/1 570/1030/1
f 598/193/1 568/933/1 570/1030/1
f 515/933/202 517/205/202 569/205/202 568/933/202
f 517/205/203 519/935/203 571/935/203 569/205/203
f 519/935/204 521/217/204 572/217/204 571/935/204
f 521/217/205 782/1031/205 781/253/206 573/253/205 572/217/205
f 523/946/207 525/265/207 575/265/207 574/946/207
f 525/265/208 527/948/208 576/948/208 575/265/208
f 527/948/209 529/950/209 577/950/209 576/948/209
f 529/950/210 531/748/210 578/748/210 577/950/210
f 531/748/211 533/952/211 579/952/211 578/748/211
f 533/952/212 535/956/212 580/956/212 579/952/212
f 535/956/213 537/958/213 581/958/213 580/956/213
f 537/958/214 539/337/214 582/337/214 581/958/214
f 539/337/215 541/373/215 583/373/215 582/337/215
f 541/373/216 543/965/216 584/965/216 583/373/216
f 543/965/217 545/385/217 585/385/217 584/965/217
f 545/385/218 547/967/218 586/967/218 585/385/218
f 547/967/219 549/969/219 587/969/219 586/967/219
f 549/969/220 794/1032/220 793/979/221 588/979/220 587/969/220
f 551/980/222 553/981/222 590/981/222 589/980/222
f 553/981/223 555/983/223 591/983/223 590/981/223
f 555/983/224 557/985/224 592/985/224 591/983/224
f 557/985/225 806/1033/225 805/996/226 593/996/225 592/985/225
f 559/997/227 561/998/227 595/998/227 594/997/227
f 561/998/228 563/1000/228 596/1000/228 595/998/228
f 563/1000/229 565/1002/229 597/1002/229 596/1000/229
f 565/1002/230 770/1034/230 769/193/231 598/193/230 597/1002/230
f 599/193/1 603/1035/1 363/933/1 463/933/1 692/1036/1 691/193/1
f 603/1037/1 602/793/1 7/7/1 12/10/1 363/797/1
f 607/1038/122 606/800/122 187/552/122 186/543/122 413/795/122
f 612/1039/1 611/807/1 24/22/1 25/25/1 367/812/1
f 614/941/122 618/1040/122 417/937/122 470/937/122 704/1041/122 703/941/122
f 618/1042/122 617/810/122 204/561/122 199/564/122 417/806/122
f 619/253/1 623/1043/1 371/946/1 471/946/1 708/1044/1 707/253/1
f 623/1045/1 622/818/1 37/37/1 42/40/1 371/821/1
f 627/1046/122 626/824/122 217/582/122 216/573/122 421/820/122
f 629/373/1 633/1047/1 390/965/1 491/965/1 724/1048/1 723/373/1
f 633/1049/1 632/860/1 97/97/1 102/100/1 390/863/1
f 637/1050/122 636/866/122 277/642/122 276/633/122 440/862/122
f 642/1051/1 641/873/1 114/112/1 115/115/1 394/878/1
f 644/974/122 648/1052/122 444/970/122 498/970/122 736/1053/122 735/974/122
f 648/1054/122 647/876/122 294/651/122 289/654/122 444/872/122
f 649/979/1 653/1055/1 398/980/1 499/980/1 740/1056/1 739/979/1
f 653/1057/1 652/884/1 127/127/1 132/130/1 398/887/1
f 657/1058/122 656/890/122 307/672/122 306/663/122 448/886/122
f 662/1059/1 661/897/1 144/142/1 145/145/1 402/902/1
f 664/991/122 668/1060/122 452/986/122 506/986/122 752/1061/122 751/991/122
f 668/1062/122 667/900/122 324/681/122 319/684/122 452/896/122
f 669/996/1 673/1063/1 406/997/1 507/997/1 756/1064/1 755/996/1
f 673/1065/1 672/908/1 157/157/1 162/160/1 406/911/1
f 677/1066/122 676/914/122 337/702/122 336/693/122 456/910/122
f 682/1067/1 681/921/1 174/172/1 175/175/1 410/926/1
f 684/1007/122 688/1068/122 460/1003/122 514/1003/122 768/1069/122 767/1008/122
f 688/1070/122 687/924/122 354/711/122 349/714/122 460/920/122
f 689/193/1 692/1036/1 463/933/1 515/933/1 774/1071/1 773/193/1
f 701/941/122 704/1041/122 470/937/122 522/937/122 792/1072/122 791/941/122
f 705/253/1 708/1044/1 471/946/1 523/946/1 786/1073/1 785/253/1
f 713/748/1 716/953/1 481/952/1 533/952/1 531/748/1
f 721/373/1 724/1048/1 491/965/1 543/965/1 541/373/1
f 733/974/122 736/1053/122 498/970/122 550/970/122 804/1074/122 803/1013/122
f 737/979/1 740/1056/1 499/980/1 551/980/1 798/1075/1 797/979/1
f 749/991/122 752/1061/122 506/986/122 558/986/122 816/1076/122 815/991/122
f 753/996/1 756/1064/1 507/997/1 559/997/1 810/1077/1 809/1019/1
f 765/1007/122 768/1069/122 514/1003/122 566/1003/122 780/1078/122 779/1007/122
f 769/193/231 774/1071/232 515/933/232 568/933/232 598/193/232
f 775/1029/122 780/1078/122 566/1003/122 567/1021/122
f 781/253/206 786/1073/233 523/946/233 574/946/233 573/253/233
f 787/1027/122 792/1072/122 522/937/122 567/1021/122
f 793/979/221 798/1075/234 551/980/234 589/980/234 588/979/234
f 799/1025/122 804/1074/122 550/970/122 567/1021/122
f 805/996/226 810/1077/235 559/997/235 594/997/235 593/996/235
f 811/1023/122 816/1076/122 558/986/122 567/1021/122
f 692/1036/1 689/193/1 690/193/1
f 692/1036/1 690/193/1 691/193/1
f 694/932/122 695/931/122 696/931/122
f 694/932/122 696/931/122 693/931/122
f 698/940/1 699/939/1 700/939/1
f 698/940/1 700/939/1 697/939/1
f 704/1041/122 701/941/122 702/941/122
f 704/1041/122 702/941/122 703/941/122
f 708/1044/1 705/253/1 706/253/1
f 708/1044/1 706/253/1 707/253/1
f 710/945/122 711/944/122 712/944/122
f 710/945/122 712/944/122 709/944/122
f 716/953/1 713/748/1 714/748/1
f 716/953/1 714/748/1 715/748/1
f 718/955/122 719/749/122 720/749/122
f 718/955/122 720/749/122 717/749/122
f 724/1048/1 721/373/1 722/373/1
f 724/1048/1 722/373/1 723/373/1
f 726/964/122 727/963/122 728/963/122
f 726/964/122 728/963/122 725/963/122
f 730/973/1 731/972/1 732/972/1
f 730/973/1 732/972/1 729/972/1
f 736/1053/122 733/974/122 734/974/122
f 736/1053/122 734/974/122 735/974/122
f 740/1056/1 737/979/1 738/979/1
f 740/1056/1 738/979/1 739/979/1
f 742/978/122 743/977/122 744/977/122
f 742/978/122 744/977/122 741/977/122
f 746/990/1 747/989/1 748/988/1
f 746/990/1 748/988/1 745/988/1
f 752/1061/122 749/991/122 750/991/122
f 752/1061/122 750/991/122 751/991/122
f 756/1064/1 753/996/1 754/996/1
f 756/1064/1 754/996/1 755/996/1
f 758/995/122 759/994/122 760/994/122
f 758/995/122 760/994/122 757/994/122
f 762/1006/1 763/1005/1 764/1005/1
f 762/1006/1 764/1005/1 761/1005/1
f 768/1069/122 765/1007/122 766/1007/122
f 768/1069/122 766/1007/122 767/1008/122
f 599/193/1 600/193/1 817/1079/1 603/1035/1
f 603/1035/1 817/1079/1 602/1080/1
f 602/1080/1 817/1079/1 600/193/1 601/726/1
f 607/727/122 608/931/122 818/1081/122 606/931/122
f 606/931/122 818/1081/122 605/930/122
f 605/930/122 818/1081/122 608/931/122 604/931/122
f 612/729/1 613/939/1 819/1082/1 611/939/1
f 611/939/1 819/1082/1 610/938/1
f 610/938/1 819/1082/1 613/939/1 609/939/1
f 614/941/122 615/941/122 820/1083/122 618/1040/122
f 618/1040/122 820/1083/122 617/1084/122
f 617/1084/122 820/1083/122 615/941/122 616/728/122
f 619/253/1 620/253/1 821/1085/1 623/1043/1
f 623/1043/1 821/1085/1 622/1086/1
f 622/1086/1 821/1085/1 620/253/1 621/737/1
f 627/738/122 628/944/122 822/1087/122 626/944/122
f 626/944/122 822/1087/122 625/943/122
f 625/943/122 822/1087/122 628/944/122 624/944/122
f 629/373/1 630/373/1 823/1088/1 633/1047/1
f 633/1047/1 823/1088/1 632/1089/1
f 632/1089/1 823/1088/1 630/373/1 631/758/1
f 637/759/122 638/963/122 824/1090/122 636/963/122
f 636/963/122 824/1090/122 635/962/122
f 635/962/122 824/1090/122 638/963/122 634/963/122
f 642/761/1 643/972/1 825/1091/1 641/972/1
f 641/972/1 825/1091/1 640/971/1
f 640/971/1 825/1091/1 643/972/1 639/972/1
f 644/974/122 645/974/122 826/1092/122 648/1052/122
f 648/1052/122 826/1092/122 647/1093/122
f 647/1093/122 826/1092/122 645/974/122 646/760/122
f 649/979/1 650/979/1 827/1094/1 653/1055/1
f 653/1055/1 827/1094/1 652/1095/1
f 652/1095/1 827/1094/1 650/979/1 651/770/1
f 657/771/122 658/977/122 828/1096/122 656/977/122
f 656/977/122 828/1096/122 655/976/122
f 655/976/122 828/1096/122 658/977/122 654/977/122
f 662/773/1 663/988/1 829/1097/1 661/988/1
f 661/988/1 829/1097/1 660/987/1
f 660/987/1 829/1097/1 663/988/1 659/988/1
f 664/991/122 665/991/122 830/1098/122 668/1060/122
f 668/1060/122 830/1098/122 667/1099/122
f 667/1099/122 830/1098/122 665/991/122 666/772/122
f 669/996/1 670/996/1 831/1100/1 673/1063/1
f 673/1063/1 831/1100/1 672/1101/1
f 672/1101/1 831/1100/1 670/996/1 671/782/1
f 677/783/122 678/994/122 832/1102/122 676/994/122
f 676/994/122 832/1102/122 675/993/122
f 675/993/122 832/1102/122 678/994/122 674/994/122
f 682/785/1 683/1005/1 833/1103/1 681/1005/1
f 681/1005/1 833/1103/1 680/1004/1
f 680/1004/1 833/1103/1 683/1005/1 679/1005/1
f 684/1007/122 685/1007/122 834/1104/122 688/1068/122
f 688/1068/122 834/1104/122 687/1105/122
f 687/1105/122 834/1104/122 685/1007/122 686/784/122
f 771/193/1 772/193/1 835/1106/1 770/1034/1
f 770/1034/230 835/1106/231 769/193/231
f 769/193/231 835/1106/231 774/1071/232
f 774/1071/1 835/1106/1 772/193/1 773/193/1
f 777/1007/122 778/1007/122 836/1107/122 776/1028/122
f 776/1028/122 836/1107/122 775/1029/122
f 775/1029/122 836/1107/122 780/1078/122
f 780/1078/122 836/1107/122 778/1007/122 779/1007/122
f 783/1108/1 784/253/1 837/1109/1 782/1031/1
f 782/1031/205 837/1109/206 781/253/206
f 781/253/206 837/1109/206 786/1073/233
f 786/1073/1 837/1109/1 784/253/1 785/253/1
f 789/941/122 790/941/122 838/1110/122 788/1026/122
f 788/1026/122 838/1110/122 787/1027/122
f 787/1027/122 838/1110/122 792/1072/122
f 792/1072/122 838/1110/122 790/941/122 791/941/122
f 795/979/1 796/979/1 839/1111/1 794/1032/1
f 794/1032/220 839/1111/221 793/979/221
f 793/979/221 839/1111/221 798/1075/234
f 798/1075/1 839/1111/1 796/979/1 797/979/1
f 801/974/122 802/974/122 840/1112/122 800/1024/122
f 800/1024/122 840/1112/122 799/1025/122
f 799/1025/122 840/1112/122 804/1074/122
f 804/1074/122 840/1112/122 802/974/122 803/1013/122
f 807/1113/1 808/996/1 841/1114/1 806/1033/1
f 806/1033/225 841/1114/226 805/996/226
f 805/996/226 841/1114/226 810/1077/235
f 810/1077/1 841/1114/1 808/996/1 809/1019/1
f 813/991/122 814/991/122 842/1115/122 812/1022/122
f 812/1022/122 842/1115/122 811/1023/122
f 811/1023/122 842/1115/122 816/1076/122
f 816/1076/122 842/1115/122 814/991/122 815/991/122
usemtl LaminaMetal.001
f 1/181/2 181/182/2 182/183/2 2/184/2
f 2/184/2 182/183/2 183/185/2 3/186/2
f 3/186/3 183/185/3 184/187/3 4/188/3
f 4/188/4 184/187/4 185/189/4 5/190/4
f 5/190/4 185/189/4 186/191/4 6/192/4
f 6/192/5 186/191/5 187/193/5 7/194/5
f 7/194/6 187/193/6 188/195/6 8/196/6
f 8/196/6 188/195/6 189/197/6 9/198/6
f 9/198/7 189/197/7 190/199/7 10/200/7
f 10/200/8 190/199/8 191/201/8 11/202/8
f 11/202/8 191/201/8 192/203/8 12/204/8
f 12/204/9 192/203/9 193/205/9 13/206/9
f 13/206/10 193/205/10 194/207/10 14/208/10
f 14/208/10 194/207/10 195/209/10 15/210/10
f 15/210/11 195/209/11 196/211/11 16/212/11
f 16/212/12 196/211/12 197/213/12 17/214/12
f 17/214/12 197/213/12 198/215/12 18/216/12
f 18/216/13 198/215/13 199/217/13 19/218/13
f 19/218/14 199/217/14 200/219/14 20/220/14
f 20/220/14 200/219/14 201/221/14 21/222/14
f 21/222/15 201/221/15 202/223/15 22/224/15
f 22/224/16 202/223/16 203/225/16 23/226/16
f 23/226/16 203/225/16 204/227/16 24/228/16
f 24/228/17 204/227/17 205/229/17 25/230/17
f 25/230/18 205/229/18 206/231/18 26/232/18
f 26/232/18 206/231/18 207/233/18 27/234/18
f 27/234/19 207/233/19 208/235/19 28/236/19
f 28/236/20 208/235/20 209/237/20 29/238/20
f 29/238/20 209/237/20 210/239/20 30/240/20
f 30/240/21 210/239/21 211/241/21 31/242/21
f 31/242/22 211/241/22 212/243/22 32/244/22
f 32/244/22 212/243/22 213/245/22 33/246/22
f 33/246/23 213/245/23 214/247/23 34/248/23
f 34/248/24 214/247/24 215/249/24 35/250/24
f 35/250/24 215/249/24 216/251/24 36/252/24
f 36/252/25 216/251/25 217/253/25 37/254/25
f 37/254/26 217/253/26 218/255/26 38/256/26
f 38/256/26 218/255/26 219/257/26 39/258/26
f 39/258/27 219/257/27 220/259/27 40/260/27
f 40/260/28 220/259/28 221/261/28 41/262/28
f 41/262/28 221/261/28 222/263/28 42/264/28
f 42/264/29 222/263/29 223/265/29 43/266/29
f 43/266/30 223/265/30 224/267/30 44/268/30
f 44/268/30 224/267/30 225/269/30 45/270/30
f 45/270/31 225/269/31 226/271/31 46/272/31
f 46/272/32 226/271/32 227/273/32 47/274/32
f 47/274/32 227/273/32 228/275/32 48/276/32
f 48/276/33 228/275/33 229/277/33 49/278/33
f 49/278/34 229/277/34 230/279/34 50/280/34
f 50/280/34 230/279/34 231/281/34 51/282/34
f 51/282/35 231/281/35 232/283/35 52/284/35
f 52/284/36 232/283/36 233/285/36 53/286/36
f 53/286/36 233/285/36 234/287/36 54/288/36
f 54/288/37 234/287/37 235/289/37 55/290/37
f 55/290/38 235/289/38 236/291/38 56/292/38
f 56/292/38 236/291/38 237/293/38 57/294/38
f 57/294/39 237/293/39 238/295/39 58/296/39
f 58/296/40 238/295/40 239/297/40 59/298/40
f 59/298/40 239/297/40 240/299/40 60/300/40
f 60/300/41 240/299/41 241/301/41 61/302/41
f 61/302/42 241/301/42 242/303/42 62/304/42
f 62/304/42 242/303/42 243/305/42 63/306/42
f 63/306/43 243/305/43 244/307/43 64/308/43
f 64/308/44 244/307/44 245/309/44 65/310/44
f 65/310/44 245/309/44 246/311/44 66/312/44
f 66/312/45 246/311/45 247/313/45 67/314/45
f 67/314/46 247/313/46 248/315/46 68/316/46
f 68/316/46 248/315/46 249/317/46 69/318/46
f 69/318/47 249/317/47 250/319/47 70/320/47
f 70/320/48 250/319/48 251/321/48 71/322/48
f 71/322/48 251/321/48 252/323/48 72/324/48
f 72/324/49 252/323/49 253/325/49 73/326/49
f 73/326/50 253/325/50 254/327/50 74/328/50
f 74/328/50 254/327/50 255/329/50 75/330/50
f 75/330/51 255/329/51 256/331/51 76/332/51
f 76/332/52 256/331/52 257/333/52 77/334/52
f 77/334/52 257/333/52 258/335/52 78/336/52
f 78/336/53 258/335/53 259/337/53 79/338/53
f 79/338/54 259/337/54 260/339/54 80/340/54
f 80/340/54 260/339/54 261/341/54 81/342/54
f 81/342/55 261/341/55 262/343/55 82/344/55
f 82/344/56 262/343/56 263/345/56 83/346/56
f 83/346/56 263/345/56 264/347/56 84/348/56
f 84/348/57 264/347/57 265/349/57 85/350/57
f 85/350/58 265/349/58 266/351/58 86/352/58
f 86/352/58 266/351/58 267/353/58 87/354/58
f 87/354/59 267/353/59 268/355/59 88/356/59
f 88/356/60 268/355/60 269/357/60 89/358/60
f 89/358/60 269/357/60 270/359/60 90/360/60
f 90/360/61 270/359/61 271/361/61 91/362/61
f 91/362/62 271/361/62 272/363/62 92/364/62
f 92/364/62 272/363/62 273/365/62 93/366/62
f 93/366/63 273/365/63 274/367/63 94/368/63
f 94/368/64 274/367/64 275/369/64 95/370/64
f 95/370/64 275/369/64 276/371/64 96/372/64
f 96/372/65 276/371/65 277/373/65 97/374/65
f 97/374/66 277/373/66 278/375/66 98/376/66
f 98/376/66 278/375/66 279/377/66 99/378/66
f 99/378/67 279/377/67 280/379/67 100/380/67
f 100/380/68 280/379/68 281/381/68 101/382/68
f 101/382/68 281/381/68 282/383/68 102/384/68
f 102/384/69 282/383/69 283/385/69 103/386/69
f 103/386/70 283/385/70 284/387/70 104/388/70
f 104/388/70 284/387/70 285/389/70 105/390/70
f 105/390/71 285/389/71 286/391/71 106/392/71
f 106/392/72 286/391/72 287/393/72 107/394/72
f 107/394/72 287/393/72 288/395/72 108/396/72
f 108/396/73 288/395/73 289/397/73 109/398/73
f 109/398/74 289/397/74 290/399/74 110/400/74
f 110/400/74 290/399/74 291/401/74 111/402/74
f 111/402/75 291/401/75 292/403/75 112/404/75
f 112/404/76 292/403/76 293/405/76 113/406/76
f 113/406/76 293/405/76 294/407/76 114/408/76
f 114/408/77 294/407/77 295/409/77 115/410/77
f 115/410/78 295/409/78 296/411/78 116/412/78
f 116/412/78 296/411/78 297/413/78 117/414/78
f 117/414/79 297/413/79 298/415/79 118/416/79
f 118/416/80 298/415/80 299/417/80 119/418/80
f 119/418/80 299/417/80 300/419/80 120/420/80
f 120/420/81 300/419/81 301/421/81 121/422/81
f 121/422/82 301/421/82 302/423/82 122/424/82
f 122/424/82 302/423/82 303/425/82 123/426/82
f 123/426/83 303/425/83 304/427/83 124/428/83
f 124/428/84 304/427/84 305/429/84 125/430/84
f 125/430/84 305/429/84 306/431/84 126/432/84
f 126/432/85 306/431/85 307/433/85 127/434/85
f 127/434/86 307/433/86 308/435/86 128/436/86
f 128/436/86 308/435/86 309/437/86 129/438/86
f 129/438/87 309/437/87 310/439/87 130/440/87
f 130/440/88 310/439/88 311/441/88 131/442/88
f 131/442/88 311/441/88 312/443/88 132/444/88
f 132/444/89 312/443/89 313/445/89 133/446/89
f 133/446/90 313/445/90 314/447/90 134/448/90
f 134/448/90 314/447/90 315/449/90 135/450/90
f 135/450/91 315/449/91 316/451/91 136/452/91
f 136/452/92 316/451/92 317/453/92 137/454/92
f 137/454/92 317/453/92 318/455/92 138/456/92
f 138/456/93 318/455/93 319/457/93 139/458/93
f 139/458/94 319/457/94 320/459/94 140/460/94
f 140/460/94 320/459/94 321/461/94 141/462/94
f 141/462/95 321/461/95 322/463/95 142/464/95
f 142/464/96 322/463/96 323/465/96 143/466/96
f 143/466/96 323/465/96 324/467/96 144/468/96
f 144/468/97 324/467/97 325/469/97 145/470/97
f 145/470/98 325/469/98 326/471/98 146/472/98
f 146/472/98 326/471/98 327/473/98 147/474/98
f 147/474/99 327/473/99 328/475/99 148/476/99
f 148/476/100 328/475/100 329/477/100 149/478/100
f 149/478/100 329/477/100 330/479/100 150/480/100
f 150/480/101 330/479/101 331/481/101 151/482/101
f 151/482/102 331/481/102 332/483/102 152/484/102
f 152/484/102 332/483/102 333/485/102 153/486/102
f 153/486/103 333/485/103 334/487/103 154/488/103
f 154/488/104 334/487/104 335/489/104 155/490/104
f 155/490/104 335/489/104 336/491/104 156/492/104
f 156/492/105 336/491/105 337/493/105 157/494/105
f 157/494/106 337/493/106 338/495/106 158/496/106
f 158/496/106 338/495/106 339/497/106 159/498/106
f 159/498/107 339/497/107 340/499/107 160/500/107
f 160/500/108 340/499/108 341/501/108 161/502/108
f 161/502/108 341/501/108 342/503/108 162/504/108
f 162/504/109 342/503/109 343/505/109 163/506/109
f 163/506/110 343/505/110 344/507/110 164/508/110
f 164/508/110 344/507/110 345/509/110 165/510/110
f 165/510/111 345/509/111 346/511/111 166/512/111
f 166/512/112 346/511/112 347/513/112 167/514/112
f 167/514/112 347/513/112 348/515/112 168/516/112
f 168/516/113 348/515/113 349/517/113 169/518/113
f 169/518/114 349/517/114 350/519/114 170/520/114
f 170/520/114 350/519/114 351/521/114 171/522/114
f 171/522/115 351/521/115 352/523/115 172/524/115
f 172/524/116 352/523/116 353/525/116 173/526/116
f 173/526/116 353/525/116 354/527/116 174/528/116
f 174/528/117 354/527/117 355/529/117 175/530/117
f 175/530/118 355/529/118 356/531/118 176/532/118
f 176/532/118 356/531/118 357/533/118 177/534/118
f 177/534/119 357/533/119 358/535/119 178/536/119
f 178/536/120 358/535/120 359/537/120 179/538/120
f 179/538/120 359/537/120 360/539/120 180/540/120
f 180/540/121 360/539/121 181/541/121 1/542/121
f 361/182/123 362/723/124 413/724/124 412/725/123
f 362/723/124 601/726/125 607/727/125 413/724/124
f 616/728/126 612/729/126 367/229/127 418/730/127
f 367/229/127 368/731/128 419/732/128 418/730/127
f 368/731/128 369/733/129 420/734/129 419/732/128
f 369/733/129 370/735/130 421/736/130 420/734/129
f 370/735/130 621/737/131 627/738/131 421/736/130
f 375/739/97 376/740/132 427/741/132 426/742/97
f 376/740/132 377/743/133 428/744/133 427/741/132
f 377/743/133 378/301/134 429/745/134 428/744/133
f 378/301/134 379/746/135 430/747/135 429/745/134
f 379/746/135 380/748/105 431/749/105 430/747/135
f 385/750/117 386/349/136 437/751/136 436/752/117
f 386/349/136 387/753/137 438/754/137 437/751/136
f 387/753/137 388/361/138 439/755/138 438/754/137
f 388/361/138 389/756/139 440/757/139 439/755/138
f 389/756/139 631/758/140 637/759/140 440/757/139
f 646/760/141 642/761/141 394/762/142 445/763/142
f 394/762/142 395/764/143 446/765/143 445/763/142
f 395/764/143 396/766/144 447/767/144 446/765/143
f 396/766/144 397/768/145 448/769/145 447/767/144
f 397/768/145 651/770/146 657/771/146 448/769/145
f 666/772/147 662/773/147 402/774/148 453/775/148
f 402/774/148 403/776/149 454/777/149 453/775/148
f 403/776/149 404/778/150 455/779/150 454/777/149
f 404/778/150 405/780/151 456/781/151 455/779/150
f 405/780/151 671/782/152 677/783/152 456/781/151
f 686/784/153 682/785/153 410/786/154 461/787/154
f 410/786/154 411/788/155 462/789/155 461/787/154
f 411/788/155 361/541/123 412/790/123 462/789/155
f 604/931/156 599/193/156 691/193/157 695/931/157
f 609/939/158 614/941/158 703/941/159 699/939/159
f 624/944/160 619/253/160 707/253/161 711/944/161
f 375/739/162 426/742/162 480/742/163 479/739/163
f 431/749/164 380/748/164 715/748/165 719/749/165
f 385/750/166 436/752/166 490/752/167 489/750/167
f 634/963/168 629/373/168 723/373/169 727/963/169
f 639/972/170 644/974/170 735/974/171 731/972/171
f 654/977/172 649/979/172 739/979/173 743/977/173
f 659/988/174 664/991/174 751/991/175 747/989/175
f 674/994/176 669/996/176 755/996/177 759/994/177
f 679/1005/178 684/1007/178 767/1008/179 763/1005/179
f 693/931/180 689/193/180 773/193/181 777/931/181
f 697/939/182 701/941/182 791/941/183 783/939/183
f 709/944/184 705/253/184 785/253/185 789/944/185
f 479/739/163 480/742/163 532/742/186 531/739/186
f 717/749/187 713/748/187 531/748/188 532/749/188
f 489/750/167 490/752/167 542/752/189 541/750/189
f 725/963/190 721/373/190 541/373/191 542/963/191
f 729/972/192 733/974/192 803/1013/193 795/972/193
f 741/977/194 737/979/194 797/979/195 801/1014/195
f 745/988/196 749/991/196 815/991/197 807/1016/197
f 757/994/198 753/996/198 809/1019/199 813/994/199
f 761/1005/200 765/1007/200 779/1007/201 771/1005/201
f 601/726/125 600/193/236 608/931/236 607/727/125
f 600/193/237 599/193/156 604/931/156 608/931/237
f 609/939/158 613/939/238 615/941/238 614/941/158
f 613/939/239 612/729/126 616/728/126 615/941/239
f 621/737/131 620/253/240 628/944/240 627/738/131
f 620/253/241 619/253/160 624/944/160 628/944/241
f 631/758/140 630/373/242 638/963/242 637/759/140
f 630/373/243 629/373/168 634/963/168 638/963/243
f 639/972/170 643/972/244 645/974/244 644/974/170
f 643/972/245 642/761/141 646/760/141 645/974/245
f 651/770/146 650/979/246 658/977/246 657/771/146
f 650/979/247 649/979/172 654/977/172 658/977/247
f 659/988/174 663/988/248 665/991/248 664/991/174
f 663/988/249 662/773/147 666/772/147 665/991/249
f 671/782/152 670/996/250 678/994/250 677/783/152
f 670/996/251 669/996/176 674/994/176 678/994/251
f 679/1005/178 683/1005/252 685/1007/252 684/1007/178
f 683/1005/253 682/785/153 686/784/153 685/1007/253
f 691/193/157 690/193/254 696/931/254 695/931/157
f 690/193/254 689/193/180 693/931/180 696/931/254
f 697/939/182 700/939/255 702/941/255 701/941/182
f 700/939/255 699/939/159 703/941/159 702/941/255
f 707/253/161 706/253/256 712/944/256 711/944/161
f 706/253/256 705/253/184 709/944/184 712/944/256
f 715/748/165 714/748/257 720/749/257 719/749/165
f 714/748/257 713/748/187 717/749/187 720/749/257
f 723/373/169 722/373/258 728/963/258 727/963/169
f 722/373/258 721/373/190 725/963/190 728/963/258
f 729/972/192 732/972/259 734/974/259 733/974/192
f 732/972/259 731/972/171 735/974/171 734/974/259
f 739/979/173 738/979/260 744/977/260 743/977/173
f 738/979/260 737/979/194 741/977/194 744/977/260
f 745/988/196 748/988/261 750/991/261 749/991/196
f 748/988/261 747/989/175 751/991/175 750/991/261
f 755/996/177 754/996/262 760/994/262 759/994/177
f 754/996/262 753/996/198 757/994/198 760/994/262
f 761/1005/200 764/1005/263 766/1007/263 765/1007/200
f 764/1005/263 763/1005/179 767/1008/179 766/1007/263
f 773/193/181 772/193/264 778/931/264 777/931/181
f 772/1005/265 771/1005/201 779/1007/201 778/1007/265
f 785/253/185 784/253/266 790/944/266 789/944/185
f 784/939/267 783/939/183 791/941/183 790/941/267
f 797/979/195 796/979/268 802/977/268 801/1014/195
f 796/972/269 795/972/193 803/1013/193 802/974/269
f 809/1019/199 808/996/270 814/994/270 813/994/199
f 808/988/271 807/1016/197 815/991/197 814/991/271
