# Blender 5.0.1
# www.blender.org
mtllib Engranaje3.mtl
o pasted__pCube10
v -0.251073 0.279363 0.060589
v -0.245014 0.287837 0.060604
v -0.312558 0.323326 0.060301
v -0.306498 0.331801 0.060316
v -0.312534 0.323320 0.054152
v -0.306474 0.331794 0.054167
v -0.251049 0.279356 0.054440
v -0.244989 0.287831 0.054455
vn -0.0039 0.0011 1.0000
vn -0.8134 0.5816 -0.0038
vn 0.0039 -0.0011 -1.0000
vn 0.8134 -0.5816 0.0038
vn 0.5816 0.8134 0.0014
vn -0.5816 -0.8134 -0.0014
vt 0.375000 0.000000
vt 0.625000 0.000000
vt 0.625000 0.250000
vt 0.375000 0.250000
vt 0.625000 0.500000
vt 0.375000 0.500000
vt 0.625000 0.750000
vt 0.375000 0.750000
vt 0.625000 1.000000
vt 0.375000 1.000000
vt 0.875000 0.000000
vt 0.875000 0.250000
vt 0.125000 0.000000
vt 0.125000 0.250000
s 1
usemtl blinn7.001
f 1/1/1 2/2/1 4/3/1 3/4/1
f 3/4/2 4/3/2 6/5/2 5/6/2
f 5/6/3 6/5/3 8/7/3 7/8/3
f 7/8/4 8/7/4 2/9/4 1/10/4
f 2/2/5 8/11/5 6/12/5 4/3/5
f 7/13/6 1/1/6 3/4/6 5/14/6
o pasted__pCube8
v -0.236095 0.268208 0.060660
v -0.246464 0.269218 0.060618
v -0.243426 0.192978 0.060711
v -0.253795 0.193989 0.060669
v -0.243402 0.192972 0.054562
v -0.253771 0.193982 0.054520
v -0.236071 0.268201 0.054511
v -0.246440 0.269212 0.054469
vn -0.0039 0.0011 1.0000
vn -0.0970 -0.9953 0.0007
vn 0.0039 -0.0011 -1.0000
vn 0.0970 0.9953 -0.0007
vn -0.9953 0.0970 -0.0040
vn 0.9953 -0.0970 0.0040
vt 0.375000 0.000000
vt 0.625000 0.000000
vt 0.625000 0.250000
vt 0.375000 0.250000
vt 0.625000 0.500000
vt 0.375000 0.500000
vt 0.625000 0.750000
vt 0.375000 0.750000
vt 0.625000 1.000000
vt 0.375000 1.000000
vt 0.875000 0.000000
vt 0.875000 0.250000
vt 0.125000 0.000000
vt 0.125000 0.250000
s 1
usemtl blinn7.001
f 9/15/7 10/16/7 12/17/7 11/18/7
f 11/18/8 12/17/8 14/19/8 13/20/8
f 13/20/9 14/19/9 16/21/9 15/22/9
f 15/22/10 16/21/10 10/23/10 9/24/10
f 10/16/11 16/25/11 14/26/11 12/17/11
f 15/27/12 9/15/12 11/18/12 13/28/12
o pasted__pGear2
v -0.253349 0.187426 0.061600
v -0.253608 0.180512 0.061607
v -0.252636 0.173478 0.061618
v -0.248531 0.173077 0.061634
v -0.246219 0.179792 0.061636
v -0.245139 0.186626 0.061633
v -0.232844 0.186812 0.061681
v -0.231559 0.180013 0.061694
v -0.229046 0.173371 0.061711
v -0.224955 0.173894 0.061726
v -0.224195 0.180955 0.061722
v -0.224662 0.187859 0.061712
v -0.212717 0.190775 0.061756
v -0.209951 0.184433 0.061774
v -0.206023 0.178517 0.061796
v -0.202151 0.179937 0.061809
v -0.202981 0.186990 0.061799
v -0.204973 0.193616 0.061784
v -0.193977 0.199117 0.061821
v -0.189869 0.193550 0.061843
v -0.184723 0.188656 0.061869
v -0.181264 0.190903 0.061880
v -0.183643 0.197594 0.061863
v -0.187059 0.203611 0.061844
v -0.177563 0.211421 0.061873
v -0.172318 0.206907 0.061898
v -0.166213 0.203281 0.061926
v -0.163340 0.206241 0.061934
v -0.167148 0.212235 0.061913
v -0.171818 0.217341 0.061889
v -0.164298 0.227069 0.061908
v -0.158180 0.223835 0.061936
v -0.151421 0.221659 0.061964
v -0.149279 0.225184 0.061969
v -0.154326 0.230180 0.061944
v -0.160015 0.234119 0.061918
v -0.154847 0.245276 0.061926
v -0.148164 0.243484 0.061954
v -0.141089 0.242867 0.061983
v -0.139786 0.246780 0.061984
v -0.145817 0.250528 0.061956
v -0.152240 0.253102 0.061928
v -0.149685 0.265129 0.061925
v -0.142770 0.264870 0.061953
v -0.135736 0.265842 0.061979
v -0.135336 0.269947 0.061977
v -0.142050 0.272259 0.061948
v -0.148885 0.273339 0.061920
v -0.149070 0.285634 0.061906
v -0.142271 0.286920 0.061931
v -0.135629 0.289433 0.061955
v -0.136153 0.293524 0.061948
v -0.143213 0.294284 0.061920
v -0.150117 0.293816 0.061893
v -0.153033 0.305761 0.061869
v -0.146691 0.308527 0.061891
v -0.140775 0.312455 0.061910
v -0.142195 0.316327 0.061901
v -0.149248 0.315497 0.061874
v -0.155874 0.313505 0.061850
v -0.161376 0.324502 0.061817
v -0.155808 0.328610 0.061834
v -0.150914 0.333756 0.061848
v -0.153161 0.337215 0.061835
v -0.159852 0.334836 0.061812
v -0.165869 0.331419 0.061792
v -0.173679 0.340916 0.061751
v -0.169165 0.346160 0.061763
v -0.165539 0.352266 0.061771
v -0.168499 0.355138 0.061756
v -0.174493 0.351330 0.061737
v -0.179599 0.346660 0.061722
v -0.189326 0.354181 0.061675
v -0.186093 0.360298 0.061682
v -0.183916 0.367058 0.061683
v -0.187441 0.369199 0.061667
v -0.192438 0.364153 0.061653
v -0.196376 0.358464 0.061643
v -0.207533 0.363631 0.061594
v -0.205742 0.370315 0.061594
v -0.205124 0.377389 0.061589
v -0.209037 0.378693 0.061572
v -0.212785 0.372661 0.061564
v -0.215360 0.366238 0.061560
v -0.227387 0.368794 0.061510
v -0.227127 0.375708 0.061504
v -0.228099 0.382743 0.061493
v -0.232204 0.383143 0.061476
v -0.234516 0.376428 0.061474
v -0.235597 0.369594 0.061477
v -0.247891 0.369408 0.061429
v -0.249177 0.376207 0.061417
v -0.251690 0.382849 0.061400
v -0.255781 0.382326 0.061385
v -0.256541 0.375265 0.061389
v -0.256073 0.368361 0.061398
v -0.268018 0.365445 0.061354
v -0.270784 0.371787 0.061337
v -0.274712 0.377704 0.061315
v -0.278584 0.376283 0.061301
v -0.277754 0.369230 0.061312
v -0.275762 0.362604 0.061327
v -0.286759 0.357103 0.061290
v -0.290867 0.362670 0.061267
v -0.296013 0.367564 0.061242
v -0.299472 0.365317 0.061231
v -0.297093 0.358626 0.061247
v -0.293676 0.352609 0.061267
v -0.303173 0.344799 0.061238
v -0.308417 0.349313 0.061213
v -0.314523 0.352939 0.061185
v -0.317395 0.349979 0.061177
v -0.313587 0.343985 0.061198
v -0.308917 0.338879 0.061222
v -0.316438 0.329151 0.061202
v -0.322555 0.332385 0.061175
v -0.329315 0.334561 0.061146
v -0.331456 0.331036 0.061141
v -0.326410 0.326040 0.061167
v -0.320721 0.322101 0.061193
v -0.325888 0.310944 0.061185
v -0.332572 0.312736 0.061156
v -0.339646 0.313353 0.061128
v -0.340950 0.309440 0.061127
v -0.334918 0.305692 0.061155
v -0.328495 0.303118 0.061183
v -0.331051 0.291091 0.061185
v -0.337965 0.291350 0.061158
v -0.344999 0.290378 0.061131
v -0.345399 0.286273 0.061134
v -0.338685 0.283961 0.061163
v -0.331851 0.282881 0.061191
v -0.331665 0.270586 0.061205
v -0.338464 0.269301 0.061179
v -0.345106 0.266787 0.061156
v -0.344583 0.262696 0.061162
v -0.337522 0.261936 0.061191
v -0.330619 0.262404 0.061217
v -0.327702 0.250459 0.061241
v -0.334045 0.247693 0.061219
v -0.339961 0.243765 0.061200
v -0.338540 0.239893 0.061210
v -0.331487 0.240723 0.061237
v -0.324861 0.242715 0.061261
v -0.319360 0.231718 0.061294
v -0.324928 0.227610 0.061277
v -0.329821 0.222464 0.061263
v -0.327575 0.219005 0.061275
v -0.320884 0.221384 0.061299
v -0.314867 0.224801 0.061319
v -0.307057 0.215304 0.061360
v -0.311570 0.210060 0.061348
v -0.315196 0.203954 0.061340
v -0.312236 0.201082 0.061354
v -0.306242 0.204890 0.061374
v -0.301136 0.209560 0.061389
v -0.291409 0.202039 0.061435
v -0.294643 0.195922 0.061429
v -0.296819 0.189162 0.061428
v -0.293294 0.187021 0.061444
v -0.288298 0.192067 0.061458
v -0.284359 0.197756 0.061468
v -0.273202 0.192589 0.061517
v -0.274994 0.185905 0.061517
v -0.275611 0.178831 0.061522
v -0.271698 0.177527 0.061539
v -0.267950 0.183559 0.061547
v -0.265376 0.189982 0.061550
v -0.253317 0.187418 0.053606
v -0.253577 0.180504 0.053612
v -0.252605 0.173469 0.053623
v -0.248500 0.173069 0.053640
v -0.246188 0.179784 0.053642
v -0.245107 0.186618 0.053639
v -0.232813 0.186803 0.053687
v -0.231527 0.180004 0.053699
v -0.229014 0.173363 0.053716
v -0.224923 0.173886 0.053732
v -0.224163 0.180947 0.053727
v -0.224631 0.187850 0.053718
v -0.212686 0.190766 0.053762
v -0.209920 0.184424 0.053779
v -0.205992 0.178508 0.053801
v -0.202120 0.179929 0.053815
v -0.202950 0.186981 0.053804
v -0.204942 0.193608 0.053789
v -0.193945 0.199109 0.053827
v -0.189837 0.193541 0.053849
v -0.184691 0.188648 0.053874
v -0.181232 0.190894 0.053885
v -0.183611 0.197585 0.053869
v -0.187028 0.203602 0.053849
v -0.177531 0.211413 0.053878
v -0.172287 0.206899 0.053903
v -0.166181 0.203273 0.053931
v -0.163309 0.206233 0.053939
v -0.167117 0.212227 0.053918
v -0.171787 0.217333 0.053894
v -0.164266 0.227060 0.053914
v -0.158149 0.223826 0.053941
v -0.151389 0.221650 0.053970
v -0.149248 0.225175 0.053975
v -0.154294 0.230171 0.053950
v -0.159983 0.234110 0.053923
v -0.154816 0.245267 0.053932
v -0.148132 0.243476 0.053960
v -0.141058 0.242858 0.053988
v -0.139754 0.246771 0.053989
v -0.145786 0.250519 0.053961
v -0.152209 0.253094 0.053933
v -0.149653 0.265121 0.053931
v -0.142739 0.264861 0.053958
v -0.135705 0.265834 0.053985
v -0.135305 0.269939 0.053982
v -0.142019 0.272251 0.053953
v -0.148853 0.273331 0.053925
v -0.149039 0.285625 0.053911
v -0.142240 0.286911 0.053937
v -0.135598 0.289424 0.053960
v -0.136121 0.293515 0.053954
v -0.143182 0.294275 0.053925
v -0.150085 0.293808 0.053899
v -0.153002 0.305752 0.053875
v -0.146659 0.308519 0.053897
v -0.140743 0.312447 0.053916
v -0.142164 0.316319 0.053906
v -0.149217 0.315489 0.053879
v -0.155843 0.313497 0.053855
v -0.161344 0.324493 0.053822
v -0.155776 0.328601 0.053840
v -0.150883 0.333747 0.053853
v -0.153129 0.337206 0.053841
v -0.159820 0.334827 0.053817
v -0.165837 0.331411 0.053797
v -0.173648 0.340907 0.053756
v -0.169134 0.346152 0.053769
v -0.165508 0.352258 0.053776
v -0.168468 0.355130 0.053762
v -0.174462 0.351322 0.053742
v -0.179568 0.346652 0.053727
v -0.189295 0.354172 0.053681
v -0.186061 0.360290 0.053687
v -0.183885 0.367049 0.053688
v -0.187410 0.369191 0.053672
v -0.192406 0.364144 0.053658
v -0.196345 0.358456 0.053649
v -0.207502 0.363623 0.053599
v -0.205710 0.370306 0.053599
v -0.205093 0.377381 0.053594
v -0.209006 0.378684 0.053577
v -0.212754 0.372653 0.053569
v -0.215328 0.366230 0.053566
v -0.227355 0.368785 0.053516
v -0.227096 0.375700 0.053510
v -0.228068 0.382734 0.053498
v -0.232173 0.383134 0.053482
v -0.234485 0.376420 0.053480
v -0.235565 0.369585 0.053483
v -0.247860 0.369400 0.053435
v -0.249145 0.376199 0.053422
v -0.251658 0.382841 0.053406
v -0.255749 0.382317 0.053390
v -0.256509 0.375257 0.053394
v -0.256042 0.368353 0.053404
v -0.267987 0.365437 0.053360
v -0.270753 0.371779 0.053342
v -0.274681 0.377695 0.053321
v -0.278553 0.376274 0.053307
v -0.277723 0.369222 0.053318
v -0.275731 0.362595 0.053332
v -0.286727 0.357094 0.053295
v -0.290835 0.362662 0.053273
v -0.295981 0.367555 0.053248
v -0.299440 0.365309 0.053236
v -0.297061 0.358618 0.053253
v -0.293645 0.352601 0.053273
v -0.303142 0.344791 0.053244
v -0.308386 0.349304 0.053218
v -0.314492 0.352930 0.053190
v -0.317364 0.349970 0.053182
v -0.313556 0.343976 0.053203
v -0.308886 0.338870 0.053227
v -0.316406 0.329143 0.053208
v -0.322524 0.332377 0.053181
v -0.329283 0.334553 0.053152
v -0.331425 0.331028 0.053147
v -0.326378 0.326032 0.053172
v -0.320690 0.322093 0.053199
v -0.325857 0.310936 0.053190
v -0.332540 0.312727 0.053162
v -0.339615 0.313345 0.053134
v -0.340918 0.309432 0.053133
v -0.334887 0.305684 0.053160
v -0.328464 0.303110 0.053188
v -0.331019 0.291082 0.053191
v -0.337934 0.291342 0.053163
v -0.344968 0.290370 0.053137
v -0.345368 0.286264 0.053140
v -0.338654 0.283953 0.053168
v -0.331819 0.282872 0.053196
v -0.331634 0.270578 0.053210
v -0.338433 0.269292 0.053185
v -0.345075 0.266779 0.053161
v -0.344551 0.262688 0.053168
v -0.337491 0.261928 0.053196
v -0.330587 0.262396 0.053223
v -0.327671 0.250451 0.053247
v -0.334013 0.247684 0.053225
v -0.339929 0.243756 0.053206
v -0.338509 0.239884 0.053216
v -0.331456 0.240714 0.053242
v -0.324830 0.242706 0.053266
v -0.319329 0.231710 0.053300
v -0.324896 0.227602 0.053282
v -0.329790 0.222456 0.053268
v -0.327543 0.218997 0.053281
v -0.320852 0.221376 0.053305
v -0.314835 0.224792 0.053325
v -0.307025 0.215296 0.053365
v -0.311539 0.210051 0.053353
v -0.315165 0.203946 0.053345
v -0.312205 0.201073 0.053360
v -0.306211 0.204881 0.053379
v -0.301105 0.209551 0.053395
v -0.291378 0.202031 0.053441
v -0.294611 0.195913 0.053435
v -0.296788 0.189154 0.053433
v -0.293263 0.187012 0.053449
v -0.288267 0.192059 0.053464
v -0.284328 0.197748 0.053473
v -0.273171 0.192580 0.053522
v -0.274962 0.185897 0.053522
v -0.275580 0.178822 0.053527
v -0.271667 0.177519 0.053544
v -0.267919 0.183551 0.053552
v -0.265345 0.189973 0.053556
v -0.251614 0.205298 0.061588
v -0.243391 0.204497 0.061621
v -0.235130 0.204621 0.061654
v -0.226935 0.205670 0.061685
v -0.218908 0.207629 0.061714
v -0.211152 0.210475 0.061742
v -0.203763 0.214172 0.061767
v -0.196834 0.218672 0.061789
v -0.190453 0.223920 0.061809
v -0.184700 0.229850 0.061825
v -0.179646 0.236386 0.061838
v -0.175357 0.243447 0.061847
v -0.171884 0.250944 0.061853
v -0.169273 0.258783 0.061855
v -0.167556 0.266864 0.061853
v -0.166755 0.275087 0.061848
v -0.166879 0.283348 0.061838
v -0.167928 0.291544 0.061826
v -0.169888 0.299570 0.061809
v -0.172733 0.307326 0.061790
v -0.176430 0.314715 0.061768
v -0.180930 0.321644 0.061743
v -0.186178 0.328025 0.061715
v -0.192108 0.333779 0.061686
v -0.198644 0.338832 0.061655
v -0.205705 0.343122 0.061623
v -0.213202 0.346594 0.061590
v -0.221040 0.349205 0.061556
v -0.229122 0.350922 0.061522
v -0.237345 0.351723 0.061489
v -0.245606 0.351599 0.061457
v -0.253801 0.350550 0.061426
v -0.261827 0.348591 0.061396
v -0.269583 0.345745 0.061369
v -0.276972 0.342048 0.061344
v -0.283901 0.337548 0.061321
v -0.290282 0.332300 0.061302
v -0.296036 0.326370 0.061286
v -0.301089 0.319834 0.061273
v -0.305379 0.312773 0.061263
v -0.308851 0.305276 0.061258
v -0.311462 0.297437 0.061256
v -0.313179 0.289356 0.061257
v -0.313980 0.281133 0.061263
v -0.313856 0.272872 0.061272
v -0.312807 0.264676 0.061285
v -0.310848 0.256650 0.061301
v -0.308002 0.248894 0.061321
v -0.304306 0.241505 0.061343
v -0.299805 0.234576 0.061368
v -0.294557 0.228195 0.061395
v -0.288628 0.222442 0.061425
v -0.282092 0.217388 0.061456
v -0.275031 0.213098 0.061488
v -0.267534 0.209626 0.061521
v -0.259695 0.207015 0.061555
v -0.251582 0.205290 0.053594
v -0.243359 0.204488 0.053627
v -0.235098 0.204613 0.053659
v -0.226903 0.205661 0.053690
v -0.218877 0.207621 0.053720
v -0.211121 0.210467 0.053747
v -0.203732 0.214163 0.053772
v -0.196803 0.218664 0.053795
v -0.190422 0.223912 0.053814
v -0.184668 0.229841 0.053831
v -0.179615 0.236378 0.053843
v -0.175325 0.243439 0.053853
v -0.171853 0.250936 0.053859
v -0.169242 0.258774 0.053861
v -0.167525 0.266856 0.053859
v -0.166724 0.275079 0.053853
v -0.166848 0.283340 0.053844
v -0.167897 0.291535 0.053831
v -0.169856 0.299561 0.053815
v -0.172702 0.307318 0.053796
v -0.176398 0.314707 0.053773
v -0.180899 0.321635 0.053748
v -0.186147 0.328017 0.053721
v -0.192076 0.333770 0.053691
v -0.198612 0.338823 0.053660
v -0.205673 0.343113 0.053628
v -0.213170 0.346586 0.053595
v -0.221009 0.349197 0.053562
v -0.229090 0.350913 0.053528
v -0.237313 0.351715 0.053495
v -0.245574 0.351590 0.053462
v -0.253770 0.350542 0.053431
v -0.261796 0.348582 0.053402
v -0.269552 0.345736 0.053374
v -0.276941 0.342040 0.053349
v -0.283870 0.337539 0.053327
v -0.290251 0.332291 0.053307
v -0.296004 0.326362 0.053291
v -0.301058 0.319826 0.053278
v -0.305347 0.312764 0.053269
v -0.308820 0.305268 0.053263
v -0.311431 0.297429 0.053261
v -0.313148 0.289347 0.053263
v -0.313949 0.281124 0.053268
v -0.313825 0.272863 0.053278
v -0.312776 0.264668 0.053290
v -0.310817 0.256642 0.053307
v -0.307971 0.248885 0.053326
v -0.304274 0.241496 0.053348
v -0.299774 0.234568 0.053373
v -0.294526 0.228187 0.053401
v -0.288597 0.222433 0.053430
v -0.282060 0.217380 0.053461
v -0.274999 0.213090 0.053493
v -0.267502 0.209618 0.053527
v -0.259664 0.207007 0.053560
vn -0.0039 0.0011 1.0000
vn -0.9993 0.0375 -0.0040
vn -0.9987 -0.0510 -0.0039
vn -0.9906 -0.1369 -0.0037
vn -0.0970 -0.9953 0.0007
vn 0.9455 -0.3256 0.0041
vn 0.9701 -0.2428 0.0041
vn 0.9877 -0.1561 0.0040
vn 0.0151 -0.9999 0.0011
vn -0.9826 -0.1858 -0.0037
vn -0.9623 -0.2719 -0.0035
vn -0.9353 -0.3539 -0.0033
vn 0.1269 -0.9919 0.0015
vn 0.9943 -0.1070 0.0040
vn 0.9998 -0.0209 0.0039
vn 0.9977 0.0676 0.0038
vn 0.2372 -0.9715 0.0020
vn -0.9166 -0.3998 -0.0032
vn -0.8777 -0.4793 -0.0029
vn -0.8331 -0.5531 -0.0027
vn 0.3445 -0.9388 0.0023
vn 0.9931 0.1169 0.0038
vn 0.9794 0.2021 0.0036
vn 0.9577 0.2879 0.0035
vn 0.4474 -0.8943 0.0027
vn -0.8047 -0.5937 -0.0025
vn -0.7490 -0.6626 -0.0022
vn -0.6891 -0.7246 -0.0019
vn 0.5447 -0.8386 0.0030
vn 0.9422 0.3350 0.0033
vn 0.9098 0.4149 0.0031
vn 0.8696 0.4938 0.0029
vn 0.6352 -0.7724 0.0033
vn -0.6524 -0.7579 -0.0018
vn -0.5828 -0.8126 -0.0014
vn -0.5106 -0.8598 -0.0011
vn 0.7177 -0.6964 0.0036
vn 0.8441 0.5363 0.0027
vn 0.7947 0.6069 0.0025
vn 0.7379 0.6749 0.0022
vn 0.7911 -0.6116 0.0038
vn -0.4674 -0.8841 -0.0009
vn -0.3873 -0.9219 -0.0005
vn -0.3065 -0.9519 -0.0002
vn 0.8546 -0.5192 0.0039
vn 0.7036 0.7106 0.0020
vn 0.6397 0.7686 0.0017
vn 0.5692 0.8222 0.0014
vn 0.9074 -0.4203 0.0040
vn -0.2589 -0.9659 -0.0000
vn -0.1725 -0.9850 0.0004
vn -0.0870 -0.9962 0.0007
vn 0.9487 -0.3160 0.0041
vn 0.5278 0.8494 0.0012
vn 0.4527 0.8917 0.0008
vn 0.3720 0.9282 0.0005
vn 0.9782 -0.2078 0.0041
vn -0.0375 -0.9993 0.0009
vn 0.0510 -0.9987 0.0013
vn 0.1369 -0.9906 0.0016
vn 0.9953 -0.0970 0.0040
vn 0.3256 0.9455 0.0003
vn 0.2428 0.9701 -0.0001
vn 0.1561 0.9877 -0.0004
vn 0.9999 0.0151 0.0039
vn 0.1858 -0.9826 0.0018
vn 0.2720 -0.9623 0.0021
vn 0.3539 -0.9353 0.0024
vn 0.9919 0.1269 0.0038
vn 0.1070 0.9943 -0.0006
vn 0.0209 0.9998 -0.0010
vn -0.0676 0.9977 -0.0013
vn 0.9715 0.2372 0.0036
vn 0.3998 -0.9166 0.0025
vn 0.4792 -0.8777 0.0028
vn 0.5531 -0.8331 0.0031
vn 0.9388 0.3445 0.0033
vn -0.1169 0.9931 -0.0015
vn -0.2021 0.9794 -0.0018
vn -0.2879 0.9577 -0.0021
vn 0.8943 0.4474 0.0030
vn 0.5937 -0.8047 0.0032
vn 0.6625 -0.7490 0.0034
vn 0.7246 -0.6891 0.0036
vn 0.8386 0.5447 0.0027
vn -0.3350 0.9422 -0.0023
vn -0.4150 0.9098 -0.0026
vn -0.4938 0.8696 -0.0029
vn 0.7723 0.6352 0.0024
vn 0.7579 -0.6524 0.0037
vn 0.8126 -0.5828 0.0038
vn 0.8598 -0.5106 0.0039
vn 0.6964 0.7177 0.0020
vn -0.5362 0.8441 -0.0030
vn -0.6069 0.7947 -0.0032
vn -0.6749 0.7379 -0.0034
vn 0.6116 0.7911 0.0016
vn 0.8841 -0.4674 0.0040
vn 0.9219 -0.3873 0.0040
vn 0.9519 -0.3065 0.0041
vn 0.5192 0.8546 0.0011
vn -0.7106 0.7036 -0.0035
vn -0.7686 0.6397 -0.0037
vn -0.8222 0.5692 -0.0038
vn 0.4203 0.9074 0.0007
vn 0.9659 -0.2589 0.0041
vn 0.9850 -0.1725 0.0041
vn 0.9962 -0.0870 0.0040
vn 0.3160 0.9487 0.0002
vn -0.8494 0.5278 -0.0039
vn -0.8917 0.4527 -0.0040
vn -0.9282 0.3720 -0.0040
vn 0.2078 0.9782 -0.0002
vn 0.9993 -0.0375 0.0040
vn 0.9987 0.0510 0.0039
vn 0.9906 0.1369 0.0037
vn 0.0970 0.9953 -0.0007
vn -0.9455 0.3256 -0.0041
vn -0.9700 0.2429 -0.0041
vn -0.9877 0.1561 -0.0040
vn -0.0151 0.9999 -0.0011
vn 0.9826 0.1858 0.0037
vn 0.9623 0.2720 0.0035
vn 0.9353 0.3539 0.0033
vn -0.1269 0.9919 -0.0015
vn -0.9943 0.1070 -0.0040
vn -0.9998 0.0209 -0.0039
vn -0.9977 -0.0676 -0.0038
vn -0.2372 0.9715 -0.0020
vn 0.9166 0.3998 0.0032
vn 0.8776 0.4793 0.0029
vn 0.8331 0.5531 0.0027
vn -0.3445 0.9388 -0.0023
vn -0.9931 -0.1169 -0.0038
vn -0.9794 -0.2020 -0.0036
vn -0.9577 -0.2879 -0.0035
vn -0.4474 0.8943 -0.0027
vn 0.8047 0.5937 0.0025
vn 0.7490 0.6625 0.0022
vn 0.6891 0.7246 0.0019
vn -0.5447 0.8386 -0.0030
vn -0.9422 -0.3350 -0.0033
vn -0.9098 -0.4150 -0.0031
vn -0.8696 -0.4938 -0.0029
vn -0.6352 0.7724 -0.0033
vn 0.6524 0.7579 0.0018
vn 0.5828 0.8126 0.0014
vn 0.5106 0.8598 0.0011
vn -0.7177 0.6964 -0.0036
vn -0.8441 -0.5363 -0.0027
vn -0.7947 -0.6070 -0.0025
vn -0.7379 -0.6749 -0.0022
vn -0.7911 0.6116 -0.0038
vn 0.4674 0.8841 0.0009
vn 0.3873 0.9219 0.0005
vn 0.3065 0.9519 0.0002
vn -0.8546 0.5192 -0.0039
vn -0.7036 -0.7106 -0.0020
vn -0.6396 -0.7687 -0.0017
vn -0.5692 -0.8222 -0.0014
vn -0.9074 0.4203 -0.0040
vn 0.2589 0.9659 -0.0000
vn 0.1725 0.9850 -0.0004
vn 0.0870 0.9962 -0.0007
vn -0.9487 0.3160 -0.0041
vn -0.5278 -0.8494 -0.0012
vn -0.4527 -0.8917 -0.0008
vn -0.3720 -0.9282 -0.0005
vn -0.9782 0.2078 -0.0041
vn 0.0375 0.9993 -0.0009
vn -0.0509 0.9987 -0.0013
vn -0.1369 0.9906 -0.0016
vn -0.9953 0.0970 -0.0040
vn -0.3256 -0.9455 -0.0003
vn -0.2428 -0.9701 0.0001
vn -0.1561 -0.9877 0.0004
vn -0.9999 -0.0151 -0.0039
vn -0.1858 0.9826 -0.0018
vn -0.2719 0.9623 -0.0021
vn -0.3539 0.9353 -0.0024
vn -0.9919 -0.1269 -0.0038
vn -0.1070 -0.9943 0.0006
vn -0.0209 -0.9998 0.0010
vn 0.0676 -0.9977 0.0013
vn -0.9715 -0.2372 -0.0036
vn -0.3998 0.9166 -0.0025
vn -0.4793 0.8776 -0.0028
vn -0.5531 0.8331 -0.0031
vn -0.9388 -0.3445 -0.0033
vn 0.1169 -0.9931 0.0015
vn 0.2021 -0.9794 0.0018
vn 0.2879 -0.9577 0.0021
vn -0.8943 -0.4474 -0.0030
vn -0.5937 0.8047 -0.0032
vn -0.6625 0.7490 -0.0034
vn -0.7246 0.6891 -0.0036
vn -0.8386 -0.5447 -0.0027
vn 0.3350 -0.9422 0.0023
vn 0.4150 -0.9098 0.0026
vn 0.4938 -0.8696 0.0029
vn -0.7723 -0.6352 -0.0024
vn -0.7579 0.6524 -0.0037
vn -0.8127 0.5827 -0.0038
vn -0.8598 0.5106 -0.0039
vn -0.6964 -0.7177 -0.0020
vn 0.5362 -0.8441 0.0030
vn 0.6069 -0.7947 0.0032
vn 0.6749 -0.7379 0.0034
vn -0.6116 -0.7911 -0.0016
vn -0.8841 0.4674 -0.0040
vn -0.9219 0.3873 -0.0040
vn -0.9519 0.3065 -0.0041
vn -0.5192 -0.8546 -0.0011
vn 0.7106 -0.7036 0.0035
vn 0.7686 -0.6398 0.0037
vn 0.8222 -0.5692 0.0038
vn -0.4203 -0.9074 -0.0007
vn -0.9659 0.2589 -0.0041
vn -0.9850 0.1725 -0.0041
vn -0.9962 0.0870 -0.0040
vn -0.3160 -0.9487 -0.0002
vn 0.8494 -0.5278 0.0039
vn 0.8917 -0.4526 0.0040
vn 0.9282 -0.3720 0.0040
vn -0.2078 -0.9782 0.0002
vn 0.0039 -0.0011 -1.0000
vn 0.1526 0.9883 -0.0004
vn 0.0410 0.9992 -0.0009
vn -0.0711 0.9975 -0.0013
vn -0.1823 0.9832 -0.0018
vn -0.2913 0.9566 -0.0022
vn -0.3965 0.9180 -0.0025
vn -0.4968 0.8678 -0.0029
vn -0.5909 0.8068 -0.0032
vn -0.6775 0.7355 -0.0034
vn -0.7556 0.6550 -0.0037
vn -0.8242 0.5663 -0.0038
vn -0.8824 0.4705 -0.0040
vn -0.9295 0.3687 -0.0040
vn -0.9650 0.2623 -0.0041
vn -0.9883 0.1526 -0.0040
vn -0.9992 0.0410 -0.0040
vn -0.9975 -0.0711 -0.0038
vn -0.9832 -0.1823 -0.0037
vn -0.9566 -0.2913 -0.0034
vn -0.9180 -0.3966 -0.0032
vn -0.8678 -0.4968 -0.0029
vn -0.8067 -0.5909 -0.0025
vn -0.7355 -0.6775 -0.0022
vn -0.6550 -0.7556 -0.0018
vn -0.5663 -0.8242 -0.0014
vn -0.4705 -0.8824 -0.0009
vn -0.3687 -0.9295 -0.0005
vn -0.2623 -0.9650 -0.0000
vn -0.1526 -0.9883 0.0004
vn -0.0410 -0.9992 0.0009
vn 0.0711 -0.9975 0.0013
vn 0.1823 -0.9832 0.0018
vn 0.2913 -0.9566 0.0022
vn 0.3965 -0.9180 0.0025
vn 0.4968 -0.8678 0.0029
vn 0.5909 -0.8068 0.0032
vn 0.6775 -0.7355 0.0034
vn 0.7556 -0.6550 0.0037
vn 0.8242 -0.5663 0.0038
vn 0.8824 -0.4705 0.0040
vn 0.9295 -0.3687 0.0040
vn 0.9650 -0.2623 0.0041
vn 0.9883 -0.1526 0.0040
vn 0.9992 -0.0410 0.0040
vn 0.9975 0.0711 0.0038
vn 0.9832 0.1823 0.0037
vn 0.9566 0.2913 0.0034
vn 0.9180 0.3966 0.0032
vn 0.8678 0.4968 0.0029
vn 0.8067 0.5909 0.0025
vn 0.7355 0.6775 0.0022
vn 0.6550 0.7556 0.0018
vn 0.5663 0.8242 0.0014
vn 0.4705 0.8824 0.0009
vn 0.3687 0.9295 0.0005
vn 0.2623 0.9650 -0.0000
vt 0.240264 0.533976
vt 0.241238 0.517671
vt 0.258762 0.517671
vt 0.259736 0.533976
vt 0.245132 0.501367
vt 0.254868 0.501367
vt 0.288578 0.537225
vt 0.293155 0.521546
vt 0.310241 0.525446
vt 0.307562 0.541558
vt 0.300580 0.506517
vt 0.310072 0.508684
vt 0.334958 0.551144
vt 0.342909 0.536877
vt 0.358698 0.544481
vt 0.352501 0.559593
vt 0.353492 0.523877
vt 0.362264 0.528102
vt 0.377077 0.575035
vt 0.388004 0.562895
vt 0.401705 0.573821
vt 0.392301 0.587176
vt 0.401214 0.552576
vt 0.408826 0.558646
vt 0.412824 0.607699
vt 0.426179 0.598295
vt 0.437105 0.611996
vt 0.424965 0.622923
vt 0.441354 0.591174
vt 0.447424 0.598786
vt 0.440407 0.647499
vt 0.455519 0.641302
vt 0.463123 0.657091
vt 0.448856 0.665042
vt 0.471899 0.637736
vt 0.476123 0.646508
vt 0.458442 0.692438
vt 0.474554 0.689759
vt 0.478454 0.706845
vt 0.462775 0.711422
vt 0.491316 0.689928
vt 0.493483 0.699420
vt 0.466024 0.740264
vt 0.482329 0.741238
vt 0.482329 0.758762
vt 0.466024 0.759736
vt 0.498633 0.745132
vt 0.498633 0.754868
vt 0.462775 0.788578
vt 0.478454 0.793155
vt 0.474554 0.810241
vt 0.458442 0.807562
vt 0.493483 0.800580
vt 0.491316 0.810072
vt 0.448856 0.834958
vt 0.463123 0.842909
vt 0.455519 0.858698
vt 0.440407 0.852501
vt 0.476123 0.853492
vt 0.471899 0.862264
vt 0.424965 0.877077
vt 0.437105 0.888004
vt 0.426179 0.901705
vt 0.412824 0.892301
vt 0.447424 0.901214
vt 0.441354 0.908826
vt 0.392301 0.912824
vt 0.401705 0.926179
vt 0.388004 0.937105
vt 0.377077 0.924965
vt 0.408826 0.941354
vt 0.401214 0.947424
vt 0.352501 0.940407
vt 0.358698 0.955519
vt 0.342909 0.963123
vt 0.334958 0.948856
vt 0.362264 0.971899
vt 0.353492 0.976123
vt 0.307562 0.958442
vt 0.310241 0.974554
vt 0.293155 0.978454
vt 0.288578 0.962775
vt 0.310072 0.991316
vt 0.300580 0.993483
vt 0.259736 0.966024
vt 0.258762 0.982329
vt 0.241238 0.982329
vt 0.240264 0.966024
vt 0.254868 0.998633
vt 0.245132 0.998633
vt 0.211422 0.962775
vt 0.206845 0.978454
vt 0.189759 0.974554
vt 0.192438 0.958442
vt 0.199420 0.993483
vt 0.189928 0.991316
vt 0.165042 0.948856
vt 0.157091 0.963123
vt 0.141302 0.955519
vt 0.147499 0.940407
vt 0.146508 0.976123
vt 0.137736 0.971898
vt 0.122923 0.924965
vt 0.111996 0.937105
vt 0.098295 0.926179
vt 0.107699 0.912824
vt 0.098786 0.947424
vt 0.091174 0.941354
vt 0.087176 0.892301
vt 0.073821 0.901705
vt 0.062895 0.888004
vt 0.075035 0.877077
vt 0.058646 0.908826
vt 0.052576 0.901214
vt 0.059593 0.852501
vt 0.044481 0.858698
vt 0.036877 0.842909
vt 0.051144 0.834958
vt 0.028102 0.862264
vt 0.023877 0.853492
vt 0.041558 0.807562
vt 0.025446 0.810241
vt 0.021546 0.793155
vt 0.037225 0.788578
vt 0.008684 0.810072
vt 0.006517 0.800580
vt 0.033976 0.759736
vt 0.017671 0.758762
vt 0.017671 0.741238
vt 0.033976 0.740264
vt 0.001367 0.754868
vt 0.001367 0.745132
vt 0.037225 0.711422
vt 0.021546 0.706845
vt 0.025446 0.689759
vt 0.041558 0.692438
vt 0.006517 0.699420
vt 0.008684 0.689928
vt 0.051144 0.665042
vt 0.036877 0.657091
vt 0.044481 0.641302
vt 0.059593 0.647499
vt 0.023877 0.646508
vt 0.028102 0.637736
vt 0.075035 0.622923
vt 0.062895 0.611996
vt 0.073821 0.598295
vt 0.087176 0.607699
vt 0.052576 0.598786
vt 0.058646 0.591174
vt 0.107699 0.587176
vt 0.098295 0.573821
vt 0.111996 0.562895
vt 0.122923 0.575035
vt 0.091174 0.558646
vt 0.098786 0.552576
vt 0.147499 0.559593
vt 0.141302 0.544481
vt 0.157091 0.536877
vt 0.165042 0.551144
vt 0.137736 0.528102
vt 0.146508 0.523877
vt 0.192438 0.541558
vt 0.189759 0.525446
vt 0.206845 0.521546
vt 0.211422 0.537225
vt 0.189928 0.508684
vt 0.199420 0.506517
vt 0.500000 1.000000
vt 0.500000 0.500000
vt 0.502779 0.500000
vt 0.502779 1.000000
vt 0.505631 0.500000
vt 0.505631 1.000000
vt 0.507288 0.500000
vt 0.507288 1.000000
vt 0.510140 0.500000
vt 0.510140 1.000000
vt 0.512919 0.500000
vt 0.512919 1.000000
vt 0.517857 0.500000
vt 0.517857 1.000000
vt 0.520636 0.500000
vt 0.520636 1.000000
vt 0.523488 0.500000
vt 0.523488 1.000000
vt 0.525145 0.500000
vt 0.525145 1.000000
vt 0.527997 0.500000
vt 0.527997 1.000000
vt 0.530776 0.500000
vt 0.530776 1.000000
vt 0.535714 0.500000
vt 0.535714 1.000000
vt 0.538493 0.500000
vt 0.538493 1.000000
vt 0.541345 0.500000
vt 0.541345 1.000000
vt 0.543002 0.500000
vt 0.543002 1.000000
vt 0.545854 0.500000
vt 0.545854 1.000000
vt 0.548633 0.500000
vt 0.548633 1.000000
vt 0.553571 0.500000
vt 0.553571 1.000000
vt 0.556350 0.500000
vt 0.556350 1.000000
vt 0.559203 0.500000
vt 0.559203 1.000000
vt 0.560859 0.500000
vt 0.560859 1.000000
vt 0.563711 0.500000
vt 0.563711 1.000000
vt 0.566490 0.500000
vt 0.566490 1.000000
vt 0.571429 0.500000
vt 0.571429 1.000000
vt 0.574208 0.500000
vt 0.574208 1.000000
vt 0.577060 0.500000
vt 0.577060 1.000000
vt 0.578716 0.500000
vt 0.578716 1.000000
vt 0.581568 0.500000
vt 0.581568 1.000000
vt 0.584347 0.500000
vt 0.584347 1.000000
vt 0.589286 0.500000
vt 0.589286 1.000000
vt 0.592065 0.500000
vt 0.592065 1.000000
vt 0.594917 0.500000
vt 0.594917 1.000000
vt 0.596573 0.500000
vt 0.596573 1.000000
vt 0.599425 0.500000
vt 0.599425 1.000000
vt 0.602205 0.500000
vt 0.602205 1.000000
vt 0.607143 0.500000
vt 0.607143 1.000000
vt 0.609922 0.500000
vt 0.609922 1.000000
vt 0.612774 0.500000
vt 0.612774 1.000000
vt 0.614431 0.500000
vt 0.614431 1.000000
vt 0.617283 0.500000
vt 0.617283 1.000000
vt 0.620062 0.500000
vt 0.620062 1.000000
vt 0.625000 0.500000
vt 0.625000 1.000000
vt 0.627779 0.500000
vt 0.627779 1.000000
vt 0.630631 0.500000
vt 0.630631 1.000000
vt 0.632288 0.500000
vt 0.632288 1.000000
vt 0.635140 0.500000
vt 0.635140 1.000000
vt 0.637919 0.500000
vt 0.637919 1.000000
vt 0.642857 0.500000
vt 0.642857 1.000000
vt 0.645636 0.500000
vt 0.645636 1.000000
vt 0.648488 0.500000
vt 0.648488 1.000000
vt 0.650145 0.500000
vt 0.650145 1.000000
vt 0.652997 0.500000
vt 0.652997 1.000000
vt 0.655776 0.500000
vt 0.655776 1.000000
vt 0.660714 0.500000
vt 0.660714 1.000000
vt 0.663493 0.500000
vt 0.663493 1.000000
vt 0.666345 0.500000
vt 0.666345 1.000000
vt 0.668002 0.500000
vt 0.668002 1.000000
vt 0.670854 0.500000
vt 0.670854 1.000000
vt 0.673633 0.500000
vt 0.673633 1.000000
vt 0.678571 0.500000
vt 0.678571 1.000000
vt 0.681350 0.500000
vt 0.681350 1.000000
vt 0.684203 0.500000
vt 0.684203 1.000000
vt 0.685859 0.500000
vt 0.685859 1.000000
vt 0.688711 0.500000
vt 0.688711 1.000000
vt 0.691490 0.500000
vt 0.691490 1.000000
vt 0.696429 0.500000
vt 0.696429 1.000000
vt 0.699208 0.500000
vt 0.699208 1.000000
vt 0.702060 0.500000
vt 0.702060 1.000000
vt 0.703716 0.500000
vt 0.703716 1.000000
vt 0.706568 0.500000
vt 0.706568 1.000000
vt 0.709347 0.500000
vt 0.709347 1.000000
vt 0.714286 0.500000
vt 0.714286 1.000000
vt 0.717065 0.500000
vt 0.717065 1.000000
vt 0.719917 0.500000
vt 0.719917 1.000000
vt 0.721573 0.500000
vt 0.721573 1.000000
vt 0.724426 0.500000
vt 0.724426 1.000000
vt 0.727205 0.500000
vt 0.727205 1.000000
vt 0.732143 0.500000
vt 0.732143 1.000000
vt 0.734922 0.500000
vt 0.734922 1.000000
vt 0.737774 0.500000
vt 0.737774 1.000000
vt 0.739431 0.500000
vt 0.739431 1.000000
vt 0.742283 0.500000
vt 0.742283 1.000000
vt 0.745062 0.500000
vt 0.745062 1.000000
vt 0.750000 0.500000
vt 0.750000 1.000000
vt 0.752779 0.500000
vt 0.752779 1.000000
vt 0.755631 0.500000
vt 0.755631 1.000000
vt 0.757288 0.500000
vt 0.757288 1.000000
vt 0.760140 0.500000
vt 0.760140 1.000000
vt 0.762919 0.500000
vt 0.762919 1.000000
vt 0.767857 0.500000
vt 0.767857 1.000000
vt 0.770636 0.500000
vt 0.770636 1.000000
vt 0.773488 0.500000
vt 0.773488 1.000000
vt 0.775145 0.500000
vt 0.775145 1.000000
vt 0.777997 0.500000
vt 0.777997 1.000000
vt 0.780776 0.500000
vt 0.780776 1.000000
vt 0.785714 0.500000
vt 0.785714 1.000000
vt 0.788493 0.500000
vt 0.788493 1.000000
vt 0.791345 0.500000
vt 0.791345 1.000000
vt 0.793002 0.500000
vt 0.793002 1.000000
vt 0.795854 0.500000
vt 0.795854 1.000000
vt 0.798633 0.500000
vt 0.798633 1.000000
vt 0.803572 0.500000
vt 0.803572 1.000000
vt 0.806351 0.500000
vt 0.806351 1.000000
vt 0.809203 0.500000
vt 0.809203 1.000000
vt 0.810859 0.500000
vt 0.810859 1.000000
vt 0.813711 0.500000
vt 0.813711 1.000000
vt 0.816490 0.500000
vt 0.816490 1.000000
vt 0.821429 0.500000
vt 0.821429 1.000000
vt 0.824208 0.500000
vt 0.824208 1.000000
vt 0.827060 0.500000
vt 0.827060 1.000000
vt 0.828716 0.500000
vt 0.828716 1.000000
vt 0.831568 0.500000
vt 0.831568 1.000000
vt 0.834347 0.500000
vt 0.834347 1.000000
vt 0.839286 0.500000
vt 0.839286 1.000000
vt 0.842065 0.500000
vt 0.842065 1.000000
vt 0.844917 0.500000
vt 0.844917 1.000000
vt 0.846574 0.500000
vt 0.846574 1.000000
vt 0.849426 0.500000
vt 0.849426 1.000000
vt 0.852205 0.500000
vt 0.852205 1.000000
vt 0.857143 0.500000
vt 0.857143 1.000000
vt 0.859922 0.500000
vt 0.859922 1.000000
vt 0.862774 0.500000
vt 0.862774 1.000000
vt 0.864431 0.500000
vt 0.864431 1.000000
vt 0.867283 0.500000
vt 0.867283 1.000000
vt 0.870062 0.500000
vt 0.870062 1.000000
vt 0.875000 0.500000
vt 0.875000 1.000000
vt 0.877779 0.500000
vt 0.877779 1.000000
vt 0.880631 0.500000
vt 0.880631 1.000000
vt 0.882288 0.500000
vt 0.882288 1.000000
vt 0.885140 0.500000
vt 0.885140 1.000000
vt 0.887919 0.500000
vt 0.887919 1.000000
vt 0.892857 0.500000
vt 0.892857 1.000000
vt 0.895636 0.500000
vt 0.895636 1.000000
vt 0.898488 0.500000
vt 0.898488 1.000000
vt 0.900145 0.500000
vt 0.900145 1.000000
vt 0.902997 0.500000
vt 0.902997 1.000000
vt 0.905776 0.500000
vt 0.905776 1.000000
vt 0.910715 0.500000
vt 0.910715 1.000000
vt 0.913494 0.500000
vt 0.913494 1.000000
vt 0.916346 0.500000
vt 0.916346 1.000000
vt 0.918002 0.500000
vt 0.918002 1.000000
vt 0.920854 0.500000
vt 0.920854 1.000000
vt 0.923633 0.500000
vt 0.923633 1.000000
vt 0.928572 0.500000
vt 0.928572 1.000000
vt 0.931351 0.500000
vt 0.931351 1.000000
vt 0.934203 0.500000
vt 0.934203 1.000000
vt 0.935859 0.500000
vt 0.935859 1.000000
vt 0.938711 0.500000
vt 0.938711 1.000000
vt 0.941490 0.500000
vt 0.941490 1.000000
vt 0.946429 0.500000
vt 0.946429 1.000000
vt 0.949208 0.500000
vt 0.949208 1.000000
vt 0.952060 0.500000
vt 0.952060 1.000000
vt 0.953717 0.500000
vt 0.953717 1.000000
vt 0.956569 0.500000
vt 0.956569 1.000000
vt 0.959348 0.500000
vt 0.959348 1.000000
vt 0.964286 0.500000
vt 0.964286 1.000000
vt 0.967065 0.500000
vt 0.967065 1.000000
vt 0.969917 0.500000
vt 0.969917 1.000000
vt 0.971574 0.500000
vt 0.971574 1.000000
vt 0.974426 0.500000
vt 0.974426 1.000000
vt 0.977205 0.500000
vt 0.977205 1.000000
vt 0.982143 0.500000
vt 0.982143 1.000000
vt 0.984922 0.500000
vt 0.984922 1.000000
vt 0.987774 0.500000
vt 0.987774 1.000000
vt 0.989431 0.500000
vt 0.989431 1.000000
vt 0.992283 0.500000
vt 0.992283 1.000000
vt 0.995062 0.500000
vt 0.995062 1.000000
vt 1.000000 0.500000
vt 1.000000 1.000000
vt 0.259736 0.466024
vt 0.258762 0.482329
vt 0.241238 0.482329
vt 0.240264 0.466024
vt 0.254868 0.498633
vt 0.245132 0.498633
vt 0.307562 0.458442
vt 0.310241 0.474554
vt 0.293155 0.478454
vt 0.288578 0.462775
vt 0.310072 0.491316
vt 0.300580 0.493483
vt 0.352501 0.440407
vt 0.358698 0.455519
vt 0.342909 0.463123
vt 0.334958 0.448856
vt 0.362264 0.471898
vt 0.353492 0.476123
vt 0.392301 0.412824
vt 0.401705 0.426179
vt 0.388004 0.437105
vt 0.377077 0.424965
vt 0.408826 0.441354
vt 0.401214 0.447424
vt 0.424965 0.377077
vt 0.437105 0.388004
vt 0.426179 0.401705
vt 0.412824 0.392301
vt 0.447424 0.401214
vt 0.441354 0.408826
vt 0.448856 0.334958
vt 0.463123 0.342909
vt 0.455519 0.358698
vt 0.440407 0.352501
vt 0.476123 0.353492
vt 0.471899 0.362264
vt 0.462775 0.288578
vt 0.478454 0.293155
vt 0.474554 0.310241
vt 0.458442 0.307562
vt 0.493483 0.300580
vt 0.491316 0.310072
vt 0.466024 0.240264
vt 0.482329 0.241238
vt 0.482329 0.258762
vt 0.466024 0.259736
vt 0.498633 0.245132
vt 0.498633 0.254868
vt 0.458442 0.192438
vt 0.474554 0.189759
vt 0.478454 0.206845
vt 0.462775 0.211422
vt 0.491316 0.189928
vt 0.493483 0.199420
vt 0.440407 0.147499
vt 0.455519 0.141302
vt 0.463123 0.157091
vt 0.448856 0.165042
vt 0.471899 0.137736
vt 0.476123 0.146508
vt 0.412824 0.107699
vt 0.426179 0.098295
vt 0.437105 0.111996
vt 0.424965 0.122923
vt 0.441354 0.091174
vt 0.447424 0.098786
vt 0.377077 0.075035
vt 0.388004 0.062895
vt 0.401705 0.073821
vt 0.392301 0.087176
vt 0.401214 0.052576
vt 0.408826 0.058646
vt 0.334958 0.051144
vt 0.342909 0.036877
vt 0.358698 0.044481
vt 0.352501 0.059593
vt 0.353492 0.023877
vt 0.362264 0.028101
vt 0.288578 0.037225
vt 0.293155 0.021546
vt 0.310241 0.025446
vt 0.307562 0.041558
vt 0.300580 0.006517
vt 0.310072 0.008684
vt 0.240264 0.033976
vt 0.241238 0.017671
vt 0.258762 0.017671
vt 0.259736 0.033976
vt 0.245132 0.001367
vt 0.254868 0.001367
vt 0.192438 0.041558
vt 0.189759 0.025446
vt 0.206845 0.021546
vt 0.211422 0.037225
vt 0.189928 0.008684
vt 0.199420 0.006517
vt 0.147499 0.059593
vt 0.141302 0.044481
vt 0.157091 0.036877
vt 0.165042 0.051144
vt 0.137736 0.028102
vt 0.146508 0.023877
vt 0.107699 0.087176
vt 0.098295 0.073821
vt 0.111996 0.062895
vt 0.122923 0.075035
vt 0.091174 0.058646
vt 0.098786 0.052576
vt 0.075035 0.122923
vt 0.062895 0.111996
vt 0.073821 0.098295
vt 0.087176 0.107699
vt 0.052576 0.098786
vt 0.058646 0.091174
vt 0.051144 0.165042
vt 0.036877 0.157091
vt 0.044481 0.141302
vt 0.059593 0.147499
vt 0.023877 0.146508
vt 0.028102 0.137736
vt 0.037225 0.211422
vt 0.021546 0.206845
vt 0.025446 0.189759
vt 0.041558 0.192438
vt 0.006517 0.199420
vt 0.008684 0.189928
vt 0.033976 0.259736
vt 0.017671 0.258762
vt 0.017671 0.241238
vt 0.033976 0.240264
vt 0.001367 0.254868
vt 0.001367 0.245132
vt 0.041558 0.307562
vt 0.025446 0.310241
vt 0.021546 0.293155
vt 0.037225 0.288578
vt 0.008684 0.310072
vt 0.006517 0.300580
vt 0.059593 0.352501
vt 0.044481 0.358698
vt 0.036877 0.342909
vt 0.051144 0.334958
vt 0.028102 0.362264
vt 0.023877 0.353492
vt 0.087176 0.392301
vt 0.073821 0.401705
vt 0.062895 0.388004
vt 0.075035 0.377077
vt 0.058646 0.408826
vt 0.052576 0.401214
vt 0.122923 0.424965
vt 0.111996 0.437105
vt 0.098295 0.426179
vt 0.107699 0.412824
vt 0.098786 0.447424
vt 0.091174 0.441354
vt 0.165042 0.448856
vt 0.157091 0.463123
vt 0.141302 0.455519
vt 0.147499 0.440407
vt 0.146508 0.476123
vt 0.137736 0.471898
vt 0.211422 0.462775
vt 0.206845 0.478454
vt 0.189759 0.474554
vt 0.192438 0.458442
vt 0.199420 0.493483
vt 0.189928 0.491316
vt 0.508929 0.500000
vt 0.508929 0.000000
vt 0.500000 0.000000
vt 0.517857 0.000000
vt 0.526786 0.500000
vt 0.526786 0.000000
vt 0.535714 0.000000
vt 0.544643 0.500000
vt 0.544643 0.000000
vt 0.553571 0.500000
vt 0.553571 0.000000
vt 0.562500 0.500000
vt 0.562500 0.000000
vt 0.571429 0.000000
vt 0.580357 0.500000
vt 0.580357 0.000000
vt 0.589286 0.000000
vt 0.598214 0.500000
vt 0.598214 0.000000
vt 0.607143 0.000000
vt 0.616071 0.500000
vt 0.616071 0.000000
vt 0.625000 0.000000
vt 0.633929 0.500000
vt 0.633929 0.000000
vt 0.642857 0.500000
vt 0.642857 0.000000
vt 0.651786 0.500000
vt 0.651786 0.000000
vt 0.660714 0.500000
vt 0.660714 0.000000
vt 0.669643 0.500000
vt 0.669643 0.000000
vt 0.678571 0.000000
vt 0.687500 0.500000
vt 0.687500 0.000000
vt 0.696429 0.500000
vt 0.696429 0.000000
vt 0.705357 0.500000
vt 0.705357 0.000000
vt 0.714286 0.000000
vt 0.723214 0.500000
vt 0.723214 0.000000
vt 0.732143 0.500000
vt 0.732143 0.000000
vt 0.741071 0.500000
vt 0.741071 0.000000
vt 0.750000 0.500000
vt 0.750000 0.000000
vt 0.758929 0.500000
vt 0.758929 0.000000
vt 0.767857 0.500000
vt 0.767857 0.000000
vt 0.776786 0.500000
vt 0.776786 0.000000
vt 0.785714 0.500000
vt 0.785714 0.000000
vt 0.794643 0.500000
vt 0.794643 0.000000
vt 0.803571 0.500000
vt 0.803571 0.000000
vt 0.812500 0.500000
vt 0.812500 0.000000
vt 0.821429 0.500000
vt 0.821429 0.000000
vt 0.830357 0.500000
vt 0.830357 0.000000
vt 0.839286 0.500000
vt 0.839286 0.000000
vt 0.848214 0.500000
vt 0.848214 0.000000
vt 0.857143 0.500000
vt 0.857143 0.000000
vt 0.866071 0.500000
vt 0.866071 0.000000
vt 0.875000 0.500000
vt 0.875000 0.000000
vt 0.883929 0.500000
vt 0.883929 0.000000
vt 0.892857 0.500000
vt 0.892857 0.000000
vt 0.901786 0.500000
vt 0.901786 0.000000
vt 0.910714 0.500000
vt 0.910714 0.000000
vt 0.919643 0.500000
vt 0.919643 0.000000
vt 0.928571 0.500000
vt 0.928571 0.000000
vt 0.937500 0.500000
vt 0.937500 0.000000
vt 0.946429 0.500000
vt 0.946429 0.000000
vt 0.955357 0.500000
vt 0.955357 0.000000
vt 0.964286 0.500000
vt 0.964286 0.000000
vt 0.973214 0.500000
vt 0.973214 0.000000
vt 0.982143 0.500000
vt 0.982143 0.000000
vt 0.991071 0.500000
vt 0.991071 0.000000
vt 1.000000 0.000000
vt 0.240249 0.576361
vt 0.259751 0.576361
vt 0.279132 0.578544
vt 0.259751 0.423639
vt 0.240249 0.423639
vt 0.279132 0.421456
vt 0.298145 0.582884
vt 0.316554 0.589325
vt 0.298145 0.417116
vt 0.316554 0.410675
vt 0.334125 0.597787
vt 0.350639 0.608163
vt 0.334125 0.402213
vt 0.350639 0.391837
vt 0.365886 0.620323
vt 0.379677 0.634114
vt 0.365886 0.379677
vt 0.379677 0.365886
vt 0.391837 0.649361
vt 0.402213 0.665875
vt 0.391837 0.350638
vt 0.402213 0.334125
vt 0.410675 0.683446
vt 0.417116 0.701855
vt 0.410675 0.316554
vt 0.417116 0.298145
vt 0.421456 0.720868
vt 0.423639 0.740249
vt 0.421456 0.279132
vt 0.423639 0.259751
vt 0.423639 0.759751
vt 0.421456 0.779132
vt 0.423639 0.240249
vt 0.421456 0.220868
vt 0.417116 0.798145
vt 0.410675 0.816554
vt 0.417116 0.201855
vt 0.410675 0.183446
vt 0.402213 0.834125
vt 0.391837 0.850639
vt 0.402213 0.165875
vt 0.391837 0.149361
vt 0.379677 0.865886
vt 0.365886 0.879677
vt 0.379677 0.134114
vt 0.365886 0.120323
vt 0.350638 0.891837
vt 0.334125 0.902213
vt 0.350638 0.108163
vt 0.334125 0.097787
vt 0.316554 0.910675
vt 0.298145 0.917116
vt 0.316554 0.089325
vt 0.298145 0.082884
vt 0.279132 0.921456
vt 0.259751 0.923639
vt 0.279132 0.078544
vt 0.259751 0.076361
vt 0.240249 0.923639
vt 0.220868 0.921456
vt 0.240249 0.076361
vt 0.220868 0.078544
vt 0.201855 0.917116
vt 0.183446 0.910675
vt 0.201855 0.082884
vt 0.183446 0.089325
vt 0.165875 0.902213
vt 0.149361 0.891837
vt 0.165875 0.097787
vt 0.149361 0.108163
vt 0.134114 0.879677
vt 0.120323 0.865886
vt 0.134114 0.120323
vt 0.120323 0.134114
vt 0.108163 0.850638
vt 0.097787 0.834125
vt 0.108163 0.149362
vt 0.097787 0.165875
vt 0.089325 0.816554
vt 0.082884 0.798145
vt 0.089325 0.183446
vt 0.082884 0.201855
vt 0.078544 0.779132
vt 0.076361 0.759751
vt 0.078544 0.220868
vt 0.076361 0.240249
vt 0.076361 0.740249
vt 0.078544 0.720868
vt 0.076361 0.259751
vt 0.078544 0.279132
vt 0.082884 0.701855
vt 0.089325 0.683446
vt 0.082884 0.298145
vt 0.089325 0.316554
vt 0.097787 0.665875
vt 0.108163 0.649361
vt 0.097787 0.334125
vt 0.108163 0.350639
vt 0.120323 0.634114
vt 0.134114 0.620323
vt 0.120323 0.365886
vt 0.134114 0.379677
vt 0.149361 0.608163
vt 0.165875 0.597787
vt 0.149361 0.391837
vt 0.165875 0.402213
vt 0.183446 0.589325
vt 0.201855 0.582884
vt 0.183446 0.410675
vt 0.201855 0.417116
vt 0.220868 0.578544
vt 0.220868 0.421456
s 1
usemtl RojoOscuro.001
f 17/29/13 18/30/13 21/31/13 22/32/13
f 18/30/13 19/33/13 20/34/13 21/31/13
f 23/35/13 24/36/13 27/37/13 28/38/13
f 24/36/13 25/39/13 26/40/13 27/37/13
f 29/41/13 30/42/13 33/43/13 34/44/13
f 30/42/13 31/45/13 32/46/13 33/43/13
f 35/47/13 36/48/13 39/49/13 40/50/13
f 36/48/13 37/51/13 38/52/13 39/49/13
f 41/53/13 42/54/13 45/55/13 46/56/13
f 42/54/13 43/57/13 44/58/13 45/55/13
f 47/59/13 48/60/13 51/61/13 52/62/13
f 48/60/13 49/63/13 50/64/13 51/61/13
f 53/65/13 54/66/13 57/67/13 58/68/13
f 54/66/13 55/69/13 56/70/13 57/67/13
f 59/71/13 60/72/13 63/73/13 64/74/13
f 60/72/13 61/75/13 62/76/13 63/73/13
f 65/77/13 66/78/13 69/79/13 70/80/13
f 66/78/13 67/81/13 68/82/13 69/79/13
f 71/83/13 72/84/13 75/85/13 76/86/13
f 72/84/13 73/87/13 74/88/13 75/85/13
f 77/89/13 78/90/13 81/91/13 82/92/13
f 78/90/13 79/93/13 80/94/13 81/91/13
f 83/95/13 84/96/13 87/97/13 88/98/13
f 84/96/13 85/99/13 86/100/13 87/97/13
f 89/101/13 90/102/13 93/103/13 94/104/13
f 90/102/13 91/105/13 92/106/13 93/103/13
f 95/107/13 96/108/13 99/109/13 100/110/13
f 96/108/13 97/111/13 98/112/13 99/109/13
f 101/113/13 102/114/13 105/115/13 106/116/13
f 102/114/13 103/117/13 104/118/13 105/115/13
f 107/119/13 108/120/13 111/121/13 112/122/13
f 108/120/13 109/123/13 110/124/13 111/121/13
f 113/125/13 114/126/13 117/127/13 118/128/13
f 114/126/13 115/129/13 116/130/13 117/127/13
f 119/131/13 120/132/13 123/133/13 124/134/13
f 120/132/13 121/135/13 122/136/13 123/133/13
f 125/137/13 126/138/13 129/139/13 130/140/13
f 126/138/13 127/141/13 128/142/13 129/139/13
f 131/143/13 132/144/13 135/145/13 136/146/13
f 132/144/13 133/147/13 134/148/13 135/145/13
f 137/149/13 138/150/13 141/151/13 142/152/13
f 138/150/13 139/153/13 140/154/13 141/151/13
f 143/155/13 144/156/13 147/157/13 148/158/13
f 144/156/13 145/159/13 146/160/13 147/157/13
f 149/161/13 150/162/13 153/163/13 154/164/13
f 150/162/13 151/165/13 152/166/13 153/163/13
f 155/167/13 156/168/13 159/169/13 160/170/13
f 156/168/13 157/171/13 158/172/13 159/169/13
f 161/173/13 162/174/13 165/175/13 166/176/13
f 162/174/13 163/177/13 164/178/13 165/175/13
f 167/179/13 168/180/13 171/181/13 172/182/13
f 168/180/13 169/183/13 170/184/13 171/181/13
f 173/185/13 174/186/13 177/187/13 178/188/13
f 174/186/13 175/189/13 176/190/13 177/187/13
f 179/191/13 180/192/13 183/193/13 184/194/13
f 180/192/13 181/195/13 182/196/13 183/193/13
f 190/535/238 189/536/238 186/537/238 185/538/238
f 189/536/238 188/539/238 187/540/238 186/537/238
f 196/541/238 195/542/238 192/543/238 191/544/238
f 195/542/238 194/545/238 193/546/238 192/543/238
f 202/547/238 201/548/238 198/549/238 197/550/238
f 201/548/238 200/551/238 199/552/238 198/549/238
f 208/553/238 207/554/238 204/555/238 203/556/238
f 207/554/238 206/557/238 205/558/238 204/555/238
f 214/559/238 213/560/238 210/561/238 209/562/238
f 213/560/238 212/563/238 211/564/238 210/561/238
f 220/565/238 219/566/238 216/567/238 215/568/238
f 219/566/238 218/569/238 217/570/238 216/567/238
f 226/571/238 225/572/238 222/573/238 221/574/238
f 225/572/238 224/575/238 223/576/238 222/573/238
f 232/577/238 231/578/238 228/579/238 227/580/238
f 231/578/238 230/581/238 229/582/238 228/579/238
f 238/583/238 237/584/238 234/585/238 233/586/238
f 237/584/238 236/587/238 235/588/238 234/585/238
f 244/589/238 243/590/238 240/591/238 239/592/238
f 243/590/238 242/593/238 241/594/238 240/591/238
f 250/595/238 249/596/238 246/597/238 245/598/238
f 249/596/238 248/599/238 247/600/238 246/597/238
f 256/601/238 255/602/238 252/603/238 251/604/238
f 255/602/238 254/605/238 253/606/238 252/603/238
f 262/607/238 261/608/238 258/609/238 257/610/238
f 261/608/238 260/611/238 259/612/238 258/609/238
f 268/613/238 267/614/238 264/615/238 263/616/238
f 267/614/238 266/617/238 265/618/238 264/615/238
f 274/619/238 273/620/238 270/621/238 269/622/238
f 273/620/238 272/623/238 271/624/238 270/621/238
f 280/625/238 279/626/238 276/627/238 275/628/238
f 279/626/238 278/629/238 277/630/238 276/627/238
f 286/631/238 285/632/238 282/633/238 281/634/238
f 285/632/238 284/635/238 283/636/238 282/633/238
f 292/637/238 291/638/238 288/639/238 287/640/238
f 291/638/238 290/641/238 289/642/238 288/639/238
f 298/643/238 297/644/238 294/645/238 293/646/238
f 297/644/238 296/647/238 295/648/238 294/645/238
f 304/649/238 303/650/238 300/651/238 299/652/238
f 303/650/238 302/653/238 301/654/238 300/651/238
f 310/655/238 309/656/238 306/657/238 305/658/238
f 309/656/238 308/659/238 307/660/238 306/657/238
f 316/661/238 315/662/238 312/663/238 311/664/238
f 315/662/238 314/665/238 313/666/238 312/663/238
f 322/667/238 321/668/238 318/669/238 317/670/238
f 321/668/238 320/671/238 319/672/238 318/669/238
f 328/673/238 327/674/238 324/675/238 323/676/238
f 327/674/238 326/677/238 325/678/238 324/675/238
f 334/679/238 333/680/238 330/681/238 329/682/238
f 333/680/238 332/683/238 331/684/238 330/681/238
f 340/685/238 339/686/238 336/687/238 335/688/238
f 339/686/238 338/689/238 337/690/238 336/687/238
f 346/691/238 345/692/238 342/693/238 341/694/238
f 345/692/238 344/695/238 343/696/238 342/693/238
f 352/697/238 351/698/238 348/699/238 347/700/238
f 351/698/238 350/701/238 349/702/238 348/699/238
f 353/807/13 17/29/13 22/32/13 354/808/13
f 354/808/13 22/32/13 23/35/13 355/809/13
f 410/810/238 190/535/238 185/538/238 409/811/238
f 411/812/238 191/544/238 190/535/238 410/810/238
f 355/809/13 23/35/13 28/38/13 356/813/13
f 356/813/13 28/38/13 29/41/13 357/814/13
f 412/815/238 196/541/238 191/544/238 411/812/238
f 413/816/238 197/550/238 196/541/238 412/815/238
f 357/814/13 29/41/13 34/44/13 358/817/13
f 358/817/13 34/44/13 35/47/13 359/818/13
f 414/819/238 202/547/238 197/550/238 413/816/238
f 415/820/238 203/556/238 202/547/238 414/819/238
f 359/818/13 35/47/13 40/50/13 360/821/13
f 360/821/13 40/50/13 41/53/13 361/822/13
f 416/823/238 208/553/238 203/556/238 415/820/238
f 417/824/238 209/562/238 208/553/238 416/823/238
f 361/822/13 41/53/13 46/56/13 362/825/13
f 362/825/13 46/56/13 47/59/13 363/826/13
f 418/827/238 214/559/238 209/562/238 417/824/238
f 419/828/238 215/568/238 214/559/238 418/827/238
f 363/826/13 47/59/13 52/62/13 364/829/13
f 364/829/13 52/62/13 53/65/13 365/830/13
f 420/831/238 220/565/238 215/568/238 419/828/238
f 421/832/238 221/574/238 220/565/238 420/831/238
f 365/830/13 53/65/13 58/68/13 366/833/13
f 366/833/13 58/68/13 59/71/13 367/834/13
f 422/835/238 226/571/238 221/574/238 421/832/238
f 423/836/238 227/580/238 226/571/238 422/835/238
f 367/834/13 59/71/13 64/74/13 368/837/13
f 368/837/13 64/74/13 65/77/13 369/838/13
f 424/839/238 232/577/238 227/580/238 423/836/238
f 425/840/238 233/586/238 232/577/238 424/839/238
f 369/838/13 65/77/13 70/80/13 370/841/13
f 370/841/13 70/80/13 71/83/13 371/842/13
f 426/843/238 238/583/238 233/586/238 425/840/238
f 427/844/238 239/592/238 238/583/238 426/843/238
f 371/842/13 71/83/13 76/86/13 372/845/13
f 372/845/13 76/86/13 77/89/13 373/846/13
f 428/847/238 244/589/238 239/592/238 427/844/238
f 429/848/238 245/598/238 244/589/238 428/847/238
f 373/846/13 77/89/13 82/92/13 374/849/13
f 374/849/13 82/92/13 83/95/13 375/850/13
f 430/851/238 250/595/238 245/598/238 429/848/238
f 431/852/238 251/604/238 250/595/238 430/851/238
f 375/850/13 83/95/13 88/98/13 376/853/13
f 376/853/13 88/98/13 89/101/13 377/854/13
f 432/855/238 256/601/238 251/604/238 431/852/238
f 433/856/238 257/610/238 256/601/238 432/855/238
f 377/854/13 89/101/13 94/104/13 378/857/13
f 378/857/13 94/104/13 95/107/13 379/858/13
f 434/859/238 262/607/238 257/610/238 433/856/238
f 435/860/238 263/616/238 262/607/238 434/859/238
f 379/858/13 95/107/13 100/110/13 380/861/13
f 380/861/13 100/110/13 101/113/13 381/862/13
f 436/863/238 268/613/238 263/616/238 435/860/238
f 437/864/238 269/622/238 268/613/238 436/863/238
f 381/862/13 101/113/13 106/116/13 382/865/13
f 382/865/13 106/116/13 107/119/13 383/866/13
f 438/867/238 274/619/238 269/622/238 437/864/238
f 439/868/238 275/628/238 274/619/238 438/867/238
f 383/866/13 107/119/13 112/122/13 384/869/13
f 384/869/13 112/122/13 113/125/13 385/870/13
f 440/871/238 280/625/238 275/628/238 439/868/238
f 441/872/238 281/634/238 280/625/238 440/871/238
f 385/870/13 113/125/13 118/128/13 386/873/13
f 386/873/13 118/128/13 119/131/13 387/874/13
f 442/875/238 286/631/238 281/634/238 441/872/238
f 443/876/238 287/640/238 286/631/238 442/875/238
f 387/874/13 119/131/13 124/134/13 388/877/13
f 388/877/13 124/134/13 125/137/13 389/878/13
f 444/879/238 292/637/238 287/640/238 443/876/238
f 445/880/238 293/646/238 292/637/238 444/879/238
f 389/878/13 125/137/13 130/140/13 390/881/13
f 390/881/13 130/140/13 131/143/13 391/882/13
f 446/883/238 298/643/238 293/646/238 445/880/238
f 447/884/238 299/652/238 298/643/238 446/883/238
f 391/882/13 131/143/13 136/146/13 392/885/13
f 392/885/13 136/146/13 137/149/13 393/886/13
f 448/887/238 304/649/238 299/652/238 447/884/238
f 449/888/238 305/658/238 304/649/238 448/887/238
f 393/886/13 137/149/13 142/152/13 394/889/13
f 394/889/13 142/152/13 143/155/13 395/890/13
f 450/891/238 310/655/238 305/658/238 449/888/238
f 451/892/238 311/664/238 310/655/238 450/891/238
f 395/890/13 143/155/13 148/158/13 396/893/13
f 396/893/13 148/158/13 149/161/13 397/894/13
f 452/895/238 316/661/238 311/664/238 451/892/238
f 453/896/238 317/670/238 316/661/238 452/895/238
f 397/894/13 149/161/13 154/164/13 398/897/13
f 398/897/13 154/164/13 155/167/13 399/898/13
f 454/899/238 322/667/238 317/670/238 453/896/238
f 455/900/238 323/676/238 322/667/238 454/899/238
f 399/898/13 155/167/13 160/170/13 400/901/13
f 400/901/13 160/170/13 161/173/13 401/902/13
f 456/903/238 328/673/238 323/676/238 455/900/238
f 457/904/238 329/682/238 328/673/238 456/903/238
f 401/902/13 161/173/13 166/176/13 402/905/13
f 402/905/13 166/176/13 167/179/13 403/906/13
f 458/907/238 334/679/238 329/682/238 457/904/238
f 459/908/238 335/688/238 334/679/238 458/907/238
f 403/906/13 167/179/13 172/182/13 404/909/13
f 404/909/13 172/182/13 173/185/13 405/910/13
f 460/911/238 340/685/238 335/688/238 459/908/238
f 461/912/238 341/694/238 340/685/238 460/911/238
f 405/910/13 173/185/13 178/188/13 406/913/13
f 406/913/13 178/188/13 179/191/13 407/914/13
f 462/915/238 346/691/238 341/694/238 461/912/238
f 463/916/238 347/700/238 346/691/238 462/915/238
f 407/914/13 179/191/13 184/194/13 408/917/13
f 408/917/13 184/194/13 17/29/13 353/807/13
f 464/918/238 352/697/238 347/700/238 463/916/238
f 409/811/238 185/538/238 352/697/238 464/918/238
usemtl LaminaMetal.001
f 17/197/14 185/198/14 186/199/15 18/200/15
f 18/200/15 186/199/15 187/201/16 19/202/16
f 19/202/17 187/201/17 188/203/17 20/204/17
f 20/204/18 188/203/18 189/205/19 21/206/19
f 21/206/19 189/205/19 190/207/20 22/208/20
f 22/208/21 190/207/21 191/209/21 23/210/21
f 23/210/22 191/209/22 192/211/23 24/212/23
f 24/212/23 192/211/23 193/213/24 25/214/24
f 25/214/25 193/213/25 194/215/25 26/216/25
f 26/216/26 194/215/26 195/217/27 27/218/27
f 27/218/27 195/217/27 196/219/28 28/220/28
f 28/220/29 196/219/29 197/221/29 29/222/29
f 29/222/30 197/221/30 198/223/31 30/224/31
f 30/224/31 198/223/31 199/225/32 31/226/32
f 31/226/33 199/225/33 200/227/33 32/228/33
f 32/228/34 200/227/34 201/229/35 33/230/35
f 33/230/35 201/229/35 202/231/36 34/232/36
f 34/232/37 202/231/37 203/233/37 35/234/37
f 35/234/38 203/233/38 204/235/39 36/236/39
f 36/236/39 204/235/39 205/237/40 37/238/40
f 37/238/41 205/237/41 206/239/41 38/240/41
f 38/240/42 206/239/42 207/241/43 39/242/43
f 39/242/43 207/241/43 208/243/44 40/244/44
f 40/244/45 208/243/45 209/245/45 41/246/45
f 41/246/46 209/245/46 210/247/47 42/248/47
f 42/248/47 210/247/47 211/249/48 43/250/48
f 43/250/49 211/249/49 212/251/49 44/252/49
f 44/252/50 212/251/50 213/253/51 45/254/51
f 45/254/51 213/253/51 214/255/52 46/256/52
f 46/256/53 214/255/53 215/257/53 47/258/53
f 47/258/54 215/257/54 216/259/55 48/260/55
f 48/260/55 216/259/55 217/261/56 49/262/56
f 49/262/57 217/261/57 218/263/57 50/264/57
f 50/264/58 218/263/58 219/265/59 51/266/59
f 51/266/59 219/265/59 220/267/60 52/268/60
f 52/268/61 220/267/61 221/269/61 53/270/61
f 53/270/62 221/269/62 222/271/63 54/272/63
f 54/272/63 222/271/63 223/273/64 55/274/64
f 55/274/65 223/273/65 224/275/65 56/276/65
f 56/276/66 224/275/66 225/277/67 57/278/67
f 57/278/67 225/277/67 226/279/68 58/280/68
f 58/280/69 226/279/69 227/281/69 59/282/69
f 59/282/70 227/281/70 228/283/71 60/284/71
f 60/284/71 228/283/71 229/285/72 61/286/72
f 61/286/73 229/285/73 230/287/73 62/288/73
f 62/288/74 230/287/74 231/289/75 63/290/75
f 63/290/75 231/289/75 232/291/76 64/292/76
f 64/292/77 232/291/77 233/293/77 65/294/77
f 65/294/78 233/293/78 234/295/79 66/296/79
f 66/296/79 234/295/79 235/297/80 67/298/80
f 67/298/81 235/297/81 236/299/81 68/300/81
f 68/300/82 236/299/82 237/301/83 69/302/83
f 69/302/83 237/301/83 238/303/84 70/304/84
f 70/304/85 238/303/85 239/305/85 71/306/85
f 71/306/86 239/305/86 240/307/87 72/308/87
f 72/308/87 240/307/87 241/309/88 73/310/88
f 73/310/89 241/309/89 242/311/89 74/312/89
f 74/312/90 242/311/90 243/313/91 75/314/91
f 75/314/91 243/313/91 244/315/92 76/316/92
f 76/316/93 244/315/93 245/317/93 77/318/93
f 77/318/94 245/317/94 246/319/95 78/320/95
f 78/320/95 246/319/95 247/321/96 79/322/96
f 79/322/97 247/321/97 248/323/97 80/324/97
f 80/324/98 248/323/98 249/325/99 81/326/99
f 81/326/99 249/325/99 250/327/100 82/328/100
f 82/328/101 250/327/101 251/329/101 83/330/101
f 83/330/102 251/329/102 252/331/103 84/332/103
f 84/332/103 252/331/103 253/333/104 85/334/104
f 85/334/105 253/333/105 254/335/105 86/336/105
f 86/336/106 254/335/106 255/337/107 87/338/107
f 87/338/107 255/337/107 256/339/108 88/340/108
f 88/340/109 256/339/109 257/341/109 89/342/109
f 89/342/110 257/341/110 258/343/111 90/344/111
f 90/344/111 258/343/111 259/345/112 91/346/112
f 91/346/113 259/345/113 260/347/113 92/348/113
f 92/348/114 260/347/114 261/349/115 93/350/115
f 93/350/115 261/349/115 262/351/116 94/352/116
f 94/352/117 262/351/117 263/353/117 95/354/117
f 95/354/118 263/353/118 264/355/119 96/356/119
f 96/356/119 264/355/119 265/357/120 97/358/120
f 97/358/121 265/357/121 266/359/121 98/360/121
f 98/360/122 266/359/122 267/361/123 99/362/123
f 99/362/123 267/361/123 268/363/124 100/364/124
f 100/364/125 268/363/125 269/365/125 101/366/125
f 101/366/126 269/365/126 270/367/127 102/368/127
f 102/368/127 270/367/127 271/369/128 103/370/128
f 103/370/129 271/369/129 272/371/129 104/372/129
f 104/372/130 272/371/130 273/373/131 105/374/131
f 105/374/131 273/373/131 274/375/132 106/376/132
f 106/376/133 274/375/133 275/377/133 107/378/133
f 107/378/134 275/377/134 276/379/135 108/380/135
f 108/380/135 276/379/135 277/381/136 109/382/136
f 109/382/137 277/381/137 278/383/137 110/384/137
f 110/384/138 278/383/138 279/385/139 111/386/139
f 111/386/139 279/385/139 280/387/140 112/388/140
f 112/388/141 280/387/141 281/389/141 113/390/141
f 113/390/142 281/389/142 282/391/143 114/392/143
f 114/392/143 282/391/143 283/393/144 115/394/144
f 115/394/145 283/393/145 284/395/145 116/396/145
f 116/396/146 284/395/146 285/397/147 117/398/147
f 117/398/147 285/397/147 286/399/148 118/400/148
f 118/400/149 286/399/149 287/401/149 119/402/149
f 119/402/150 287/401/150 288/403/151 120/404/151
f 120/404/151 288/403/151 289/405/152 121/406/152
f 121/406/153 289/405/153 290/407/153 122/408/153
f 122/408/154 290/407/154 291/409/155 123/410/155
f 123/410/155 291/409/155 292/411/156 124/412/156
f 124/412/157 292/411/157 293/413/157 125/414/157
f 125/414/158 293/413/158 294/415/159 126/416/159
f 126/416/159 294/415/159 295/417/160 127/418/160
f 127/418/161 295/417/161 296/419/161 128/420/161
f 128/420/162 296/419/162 297/421/163 129/422/163
f 129/422/163 297/421/163 298/423/164 130/424/164
f 130/424/165 298/423/165 299/425/165 131/426/165
f 131/426/166 299/425/166 300/427/167 132/428/167
f 132/428/167 300/427/167 301/429/168 133/430/168
f 133/430/169 301/429/169 302/431/169 134/432/169
f 134/432/170 302/431/170 303/433/171 135/434/171
f 135/434/171 303/433/171 304/435/172 136/436/172
f 136/436/173 304/435/173 305/437/173 137/438/173
f 137/438/174 305/437/174 306/439/175 138/440/175
f 138/440/175 306/439/175 307/441/176 139/442/176
f 139/442/177 307/441/177 308/443/177 140/444/177
f 140/444/178 308/443/178 309/445/179 141/446/179
f 141/446/179 309/445/179 310/447/180 142/448/180
f 142/448/181 310/447/181 311/449/181 143/450/181
f 143/450/182 311/449/182 312/451/183 144/452/183
f 144/452/183 312/451/183 313/453/184 145/454/184
f 145/454/185 313/453/185 314/455/185 146/456/185
f 146/456/186 314/455/186 315/457/187 147/458/187
f 147/458/187 315/457/187 316/459/188 148/460/188
f 148/460/189 316/459/189 317/461/189 149/462/189
f 149/462/190 317/461/190 318/463/191 150/464/191
f 150/464/191 318/463/191 319/465/192 151/466/192
f 151/466/193 319/465/193 320/467/193 152/468/193
f 152/468/194 320/467/194 321/469/195 153/470/195
f 153/470/195 321/469/195 322/471/196 154/472/196
f 154/472/197 322/471/197 323/473/197 155/474/197
f 155/474/198 323/473/198 324/475/199 156/476/199
f 156/476/199 324/475/199 325/477/200 157/478/200
f 157/478/201 325/477/201 326/479/201 158/480/201
f 158/480/202 326/479/202 327/481/203 159/482/203
f 159/482/203 327/481/203 328/483/204 160/484/204
f 160/484/205 328/483/205 329/485/205 161/486/205
f 161/486/206 329/485/206 330/487/207 162/488/207
f 162/488/207 330/487/207 331/489/208 163/490/208
f 163/490/209 331/489/209 332/491/209 164/492/209
f 164/492/210 332/491/210 333/493/211 165/494/211
f 165/494/211 333/493/211 334/495/212 166/496/212
f 166/496/213 334/495/213 335/497/213 167/498/213
f 167/498/214 335/497/214 336/499/215 168/500/215
f 168/500/215 336/499/215 337/501/216 169/502/216
f 169/502/217 337/501/217 338/503/217 170/504/217
f 170/504/218 338/503/218 339/505/219 171/506/219
f 171/506/219 339/505/219 340/507/220 172/508/220
f 172/508/221 340/507/221 341/509/221 173/510/221
f 173/510/222 341/509/222 342/511/223 174/512/223
f 174/512/223 342/511/223 343/513/224 175/514/224
f 175/514/225 343/513/225 344/515/225 176/516/225
f 176/516/226 344/515/226 345/517/227 177/518/227
f 177/518/227 345/517/227 346/519/228 178/520/228
f 178/520/229 346/519/229 347/521/229 179/522/229
f 179/522/230 347/521/230 348/523/231 180/524/231
f 180/524/231 348/523/231 349/525/232 181/526/232
f 181/526/233 349/525/233 350/527/233 182/528/233
f 182/528/234 350/527/234 351/529/235 183/530/235
f 183/530/235 351/529/235 352/531/236 184/532/236
f 184/532/237 352/531/237 185/533/237 17/534/237
f 353/198/239 354/703/240 410/704/240 409/705/239
f 354/703/240 355/209/241 411/706/241 410/704/240
f 355/209/241 356/707/242 412/708/242 411/706/241
f 356/707/242 357/221/243 413/709/243 412/708/242
f 357/221/243 358/710/244 414/711/244 413/709/243
f 358/710/244 359/712/245 415/713/245 414/711/244
f 359/712/245 360/714/246 416/715/246 415/713/245
f 360/714/246 361/245/247 417/716/247 416/715/246
f 361/245/247 362/717/248 418/718/248 417/716/247
f 362/717/248 363/257/249 419/719/249 418/718/248
f 363/257/249 364/720/250 420/721/250 419/719/249
f 364/720/250 365/269/251 421/722/251 420/721/250
f 365/269/251 366/723/252 422/724/252 421/722/251
f 366/723/252 367/281/253 423/725/253 422/724/252
f 367/281/253 368/726/254 424/727/254 423/725/253
f 368/726/254 369/728/255 425/729/255 424/727/254
f 369/728/255 370/730/256 426/731/256 425/729/255
f 370/730/256 371/732/257 427/733/257 426/731/256
f 371/732/257 372/734/258 428/735/258 427/733/257
f 372/734/258 373/317/259 429/736/259 428/735/258
f 373/317/259 374/737/260 430/738/260 429/736/259
f 374/737/260 375/739/261 431/740/261 430/738/260
f 375/739/261 376/741/262 432/742/262 431/740/261
f 376/741/262 377/341/263 433/743/263 432/742/262
f 377/341/263 378/744/264 434/745/264 433/743/263
f 378/744/264 379/746/265 435/747/265 434/745/264
f 379/746/265 380/748/266 436/749/266 435/747/265
f 380/748/266 381/750/267 437/751/267 436/749/266
f 381/750/267 382/752/268 438/753/268 437/751/267
f 382/752/268 383/754/269 439/755/269 438/753/268
f 383/754/269 384/756/270 440/757/270 439/755/269
f 384/756/270 385/758/271 441/759/271 440/757/270
f 385/758/271 386/760/272 442/761/272 441/759/271
f 386/760/272 387/762/273 443/763/273 442/761/272
f 387/762/273 388/764/274 444/765/274 443/763/273
f 388/764/274 389/766/275 445/767/275 444/765/274
f 389/766/275 390/768/276 446/769/276 445/767/275
f 390/768/276 391/770/277 447/771/277 446/769/276
f 391/770/277 392/772/278 448/773/278 447/771/277
f 392/772/278 393/774/279 449/775/279 448/773/278
f 393/774/279 394/776/280 450/777/280 449/775/279
f 394/776/280 395/778/281 451/779/281 450/777/280
f 395/778/281 396/780/282 452/781/282 451/779/281
f 396/780/282 397/782/283 453/783/283 452/781/282
f 397/782/283 398/784/284 454/785/284 453/783/283
f 398/784/284 399/786/285 455/787/285 454/785/284
f 399/786/285 400/788/286 456/789/286 455/787/285
f 400/788/286 401/790/287 457/791/287 456/789/286
f 401/790/287 402/792/288 458/793/288 457/791/287
f 402/792/288 403/794/289 459/795/289 458/793/288
f 403/794/289 404/796/290 460/797/290 459/795/289
f 404/796/290 405/798/291 461/799/291 460/797/290
f 405/798/291 406/800/292 462/801/292 461/799/291
f 406/800/292 407/802/293 463/803/293 462/801/292
f 407/802/293 408/804/294 464/805/294 463/803/293
f 408/804/294 353/533/239 409/806/239 464/805/294
o pasted__pCube5
v -0.244633 0.288010 0.060605
v -0.234264 0.287000 0.060647
v -0.237302 0.363240 0.060555
v -0.226933 0.362229 0.060596
v -0.237278 0.363233 0.054406
v -0.226909 0.362223 0.054447
v -0.244609 0.288004 0.054456
v -0.234240 0.286993 0.054498
vn -0.0039 0.0011 1.0000
vn 0.0970 0.9953 -0.0007
vn 0.0039 -0.0011 -1.0000
vn -0.0970 -0.9953 0.0007
vn 0.9953 -0.0970 0.0040
vn -0.9953 0.0970 -0.0040
vt 0.375000 0.000000
vt 0.625000 0.000000
vt 0.625000 0.250000
vt 0.375000 0.250000
vt 0.625000 0.500000
vt 0.375000 0.500000
vt 0.625000 0.750000
vt 0.375000 0.750000
vt 0.625000 1.000000
vt 0.375000 1.000000
vt 0.875000 0.000000
vt 0.875000 0.250000
vt 0.125000 0.000000
vt 0.125000 0.250000
s 1
usemtl blinn7.001
f 465/919/295 466/920/295 468/921/295 467/922/295
f 467/922/296 468/921/296 470/923/296 469/924/296
f 469/924/297 470/923/297 472/925/297 471/926/297
f 471/926/298 472/925/298 466/927/298 465/928/298
f 466/920/299 472/929/299 470/930/299 468/921/299
f 471/931/300 465/919/300 467/922/300 469/932/300
o pasted__pasted__pGear2.001
v -0.246315 0.264847 0.066650
v -0.244837 0.260862 0.066684
v -0.243359 0.256878 0.066718
v -0.241510 0.256697 0.066743
v -0.239290 0.260322 0.066760
v -0.237071 0.263946 0.066776
v -0.233704 0.265181 0.066817
v -0.229667 0.263853 0.066875
v -0.225631 0.262524 0.066934
v -0.224337 0.263857 0.066946
v -0.225787 0.267852 0.066913
v -0.227237 0.271847 0.066879
v -0.226103 0.275249 0.066882
v -0.222548 0.277577 0.066921
v -0.218992 0.279905 0.066960
v -0.219228 0.281747 0.066950
v -0.223255 0.283104 0.066892
v -0.227282 0.284462 0.066833
v -0.229235 0.287469 0.066796
v -0.228838 0.291700 0.066787
v -0.228441 0.295932 0.066777
v -0.230029 0.296896 0.066752
v -0.233601 0.294594 0.066713
v -0.237173 0.292291 0.066673
v -0.240742 0.292639 0.066625
v -0.243803 0.295588 0.066573
v -0.246863 0.298536 0.066522
v -0.248607 0.297897 0.066501
v -0.249034 0.293668 0.066511
v -0.249461 0.289440 0.066520
v -0.251959 0.286866 0.066496
v -0.256172 0.286312 0.066442
v -0.260386 0.285758 0.066388
v -0.260973 0.283995 0.066386
v -0.257933 0.281025 0.066437
v -0.254894 0.278055 0.066489
v -0.254439 0.274498 0.066507
v -0.256632 0.270858 0.066491
v -0.258826 0.267218 0.066475
v -0.257814 0.265660 0.066494
v -0.253597 0.266184 0.066548
v -0.249379 0.266709 0.066603
v -0.246305 0.264844 0.058656
v -0.244827 0.260860 0.058690
v -0.243349 0.256875 0.058724
v -0.241501 0.256695 0.058749
v -0.239281 0.260319 0.058765
v -0.237062 0.263944 0.058782
v -0.233695 0.265179 0.058822
v -0.229658 0.263850 0.058881
v -0.225621 0.262521 0.058939
v -0.224328 0.263854 0.058952
v -0.225778 0.267849 0.058918
v -0.227227 0.271844 0.058885
v -0.226094 0.275247 0.058887
v -0.222538 0.277574 0.058926
v -0.218982 0.279902 0.058965
v -0.219218 0.281744 0.058956
v -0.223245 0.283102 0.058897
v -0.227273 0.284459 0.058839
v -0.229226 0.287466 0.058802
v -0.228829 0.291698 0.058792
v -0.228432 0.295929 0.058782
v -0.230019 0.296894 0.058758
v -0.233591 0.294591 0.058718
v -0.237164 0.292289 0.058679
v -0.240733 0.292637 0.058630
v -0.243793 0.295585 0.058579
v -0.246854 0.298534 0.058528
v -0.248598 0.297894 0.058507
v -0.249025 0.293666 0.058516
v -0.249452 0.289437 0.058526
v -0.251949 0.286864 0.058502
v -0.256163 0.286309 0.058447
v -0.260376 0.285755 0.058393
v -0.260963 0.283993 0.058392
v -0.257924 0.281023 0.058443
v -0.254884 0.278052 0.058494
v -0.254429 0.274495 0.058513
v -0.256623 0.270855 0.058497
v -0.258817 0.267215 0.058481
v -0.257805 0.265657 0.058500
v -0.253588 0.266182 0.058554
v -0.249370 0.266706 0.058608
v -0.241314 0.275203 0.058685
v -0.239959 0.275071 0.058703
v -0.238682 0.275540 0.058719
v -0.237734 0.276517 0.058728
v -0.237304 0.277808 0.058729
v -0.237477 0.279158 0.058722
v -0.238218 0.280299 0.058708
v -0.239381 0.281006 0.058690
v -0.240736 0.281138 0.058671
v -0.242013 0.280669 0.058656
v -0.242961 0.279692 0.058647
v -0.243391 0.278401 0.058646
v -0.243218 0.277051 0.058653
v -0.242477 0.275910 0.058667
v -0.245363 0.267046 0.066655
v -0.237631 0.266292 0.066761
v -0.234815 0.267325 0.066794
v -0.229405 0.272901 0.066846
v -0.228457 0.275747 0.066849
v -0.229443 0.283453 0.066808
v -0.231077 0.285968 0.066777
v -0.237717 0.290002 0.066674
v -0.240702 0.290293 0.066634
v -0.247996 0.287617 0.066546
v -0.250084 0.285464 0.066526
v -0.252540 0.278094 0.066520
v -0.252159 0.275118 0.066535
v -0.247927 0.268603 0.066615
v -0.240378 0.278137 0.065294
v -0.245362 0.267045 0.065267
v -0.237630 0.266292 0.065373
v -0.234814 0.267325 0.065406
v -0.229404 0.272900 0.065458
v -0.228456 0.275746 0.065461
v -0.229442 0.283452 0.065420
v -0.231076 0.285968 0.065389
v -0.237715 0.290002 0.065286
v -0.240701 0.290293 0.065246
v -0.247994 0.287617 0.065158
v -0.250083 0.285464 0.065138
v -0.252538 0.278093 0.065132
v -0.252157 0.275118 0.065148
v -0.247926 0.268603 0.065227
vn -0.0133 0.0036 0.9999
vn -0.9376 -0.3478 -0.0010
vn -0.0970 -0.9953 0.0002
vn 0.8528 -0.5223 0.0011
vn 0.8528 -0.5222 0.0011
vn 0.3444 -0.9388 0.0007
vn -0.3126 -0.9499 -0.0001
vn -0.3127 -0.9499 -0.0001
vn 0.7177 -0.6964 0.0011
vn 0.9400 0.3411 0.0010
vn 0.9487 -0.3160 0.0012
vn 0.5477 -0.8367 0.0009
vn 0.9919 0.1269 0.0011
vn 0.3194 0.9476 0.0001
vn 0.8386 0.5447 0.0008
vn 0.9956 -0.0935 0.0012
vn 0.5192 0.8547 0.0003
vn -0.5417 0.8406 -0.0009
vn -0.5417 0.8405 -0.0009
vn 0.0970 0.9953 -0.0002
vn 0.6938 0.7201 0.0006
vn -0.3445 0.9388 -0.0007
vn -0.9949 0.1005 -0.0012
vn -0.7177 0.6964 -0.0011
vn -0.1304 0.9915 -0.0005
vn -0.9487 0.3160 -0.0012
vn -0.6989 -0.7152 -0.0006
vn -0.9919 -0.1269 -0.0011
vn -0.8565 0.5162 -0.0012
vn -0.8386 -0.5447 -0.0008
vn 0.1234 -0.9924 0.0004
vn -0.5192 -0.8546 -0.0003
vn 0.0133 -0.0036 -0.9999
vn -0.3444 0.9388 -0.0007
vn -0.7177 0.6964 -0.0010
vn 0.7177 -0.6964 0.0010
vn 0.5192 0.8546 0.0003
vt 0.199380 0.599838
vt 0.219628 0.558172
vt 0.280372 0.558172
vt 0.300620 0.599838
vt 0.239876 0.516505
vt 0.260124 0.516505
vt 0.335840 0.616800
vt 0.381041 0.606651
vt 0.418914 0.654143
vt 0.398962 0.695952
vt 0.426241 0.596503
vt 0.438866 0.612334
vt 0.407661 0.734063
vt 0.443777 0.763075
vt 0.430260 0.822296
vt 0.385133 0.832765
vt 0.479893 0.792087
vt 0.475388 0.811828
vt 0.360759 0.863328
vt 0.360595 0.909653
vt 0.305867 0.936009
vt 0.269546 0.907254
vt 0.360431 0.955979
vt 0.342188 0.964764
vt 0.230454 0.907254
vt 0.194133 0.936009
vt 0.139405 0.909653
vt 0.139241 0.863328
vt 0.157812 0.964764
vt 0.139569 0.955979
vt 0.114867 0.832765
vt 0.069740 0.822296
vt 0.056223 0.763075
vt 0.092339 0.734063
vt 0.024612 0.811828
vt 0.020107 0.792087
vt 0.101038 0.695952
vt 0.081086 0.654143
vt 0.118959 0.606651
vt 0.164160 0.616800
vt 0.061134 0.612334
vt 0.073759 0.596503
vt 0.500000 1.000000
vt 0.500000 0.500000
vt 0.513526 0.500000
vt 0.513526 1.000000
vt 0.527052 0.500000
vt 0.527052 1.000000
vt 0.532963 0.500000
vt 0.532963 1.000000
vt 0.546489 0.500000
vt 0.546489 1.000000
vt 0.560015 0.500000
vt 0.560015 1.000000
vt 0.571429 0.500000
vt 0.571429 1.000000
vt 0.584954 0.500000
vt 0.584954 1.000000
vt 0.598480 0.500000
vt 0.598480 1.000000
vt 0.604392 0.500000
vt 0.604392 1.000000
vt 0.617918 0.500000
vt 0.617918 1.000000
vt 0.631444 0.500000
vt 0.631444 1.000000
vt 0.642857 0.500000
vt 0.642857 1.000000
vt 0.656383 0.500000
vt 0.656383 1.000000
vt 0.669909 0.500000
vt 0.669909 1.000000
vt 0.675821 0.500000
vt 0.675821 1.000000
vt 0.689346 0.500000
vt 0.689346 1.000000
vt 0.702872 0.500000
vt 0.702872 1.000000
vt 0.714286 0.500000
vt 0.714286 1.000000
vt 0.727812 0.500000
vt 0.727812 1.000000
vt 0.741337 0.500000
vt 0.741337 1.000000
vt 0.747249 0.500000
vt 0.747249 1.000000
vt 0.760775 0.500000
vt 0.760775 1.000000
vt 0.774301 0.500000
vt 0.774301 1.000000
vt 0.785714 0.500000
vt 0.785714 1.000000
vt 0.799240 0.500000
vt 0.799240 1.000000
vt 0.812766 0.500000
vt 0.812766 1.000000
vt 0.818678 0.500000
vt 0.818678 1.000000
vt 0.832204 0.500000
vt 0.832204 1.000000
vt 0.845729 0.500000
vt 0.845729 1.000000
vt 0.857143 0.500000
vt 0.857143 1.000000
vt 0.870669 0.500000
vt 0.870669 1.000000
vt 0.884194 0.500000
vt 0.884194 1.000000
vt 0.890106 0.500000
vt 0.890106 1.000000
vt 0.903632 0.500000
vt 0.903632 1.000000
vt 0.917158 0.500000
vt 0.917158 1.000000
vt 0.928571 0.500000
vt 0.928571 1.000000
vt 0.942097 0.500000
vt 0.942097 1.000000
vt 0.955623 0.500000
vt 0.955623 1.000000
vt 0.961535 0.500000
vt 0.961535 1.000000
vt 0.975061 0.500000
vt 0.975061 1.000000
vt 0.988586 0.500000
vt 0.988586 1.000000
vt 1.000000 0.500000
vt 1.000000 1.000000
vt 0.300620 0.400161
vt 0.280372 0.441828
vt 0.219628 0.441828
vt 0.199380 0.400161
vt 0.260124 0.483495
vt 0.239876 0.483495
vt 0.398962 0.304048
vt 0.418914 0.345857
vt 0.381041 0.393349
vt 0.335840 0.383200
vt 0.438866 0.387666
vt 0.426241 0.403497
vt 0.385133 0.167235
vt 0.430260 0.177704
vt 0.443777 0.236925
vt 0.407661 0.265937
vt 0.475388 0.188172
vt 0.479893 0.207913
vt 0.269546 0.092746
vt 0.305867 0.063991
vt 0.360595 0.090347
vt 0.360759 0.136672
vt 0.342188 0.035236
vt 0.360431 0.044021
vt 0.139241 0.136672
vt 0.139405 0.090347
vt 0.194133 0.063991
vt 0.230454 0.092746
vt 0.139569 0.044021
vt 0.157812 0.035236
vt 0.092339 0.265937
vt 0.056223 0.236925
vt 0.069740 0.177704
vt 0.114867 0.167235
vt 0.020107 0.207913
vt 0.024612 0.188172
vt 0.164160 0.383200
vt 0.118959 0.393349
vt 0.081086 0.345857
vt 0.101038 0.304048
vt 0.073759 0.403497
vt 0.061134 0.387666
vt 0.250000 0.750000
vt 0.257417 0.282498
vt 0.242583 0.282498
vt 0.270783 0.276061
vt 0.280032 0.264463
vt 0.283333 0.250000
vt 0.280032 0.235537
vt 0.270783 0.223939
vt 0.257417 0.217502
vt 0.242583 0.217502
vt 0.229217 0.223939
vt 0.219968 0.235537
vt 0.216667 0.250000
vt 0.219968 0.264463
vt 0.229217 0.276061
s 1
usemtl Marron.001
f 473/933/301 474/934/301 477/935/301 478/936/301
f 474/934/301 475/937/301 476/938/301 477/935/301
f 479/939/301 480/940/301 483/941/301 484/942/301
f 480/940/301 481/943/301 482/944/301 483/941/301
f 485/945/301 486/946/301 489/947/301 490/948/301
f 486/946/301 487/949/301 488/950/301 489/947/301
f 491/951/301 492/952/301 495/953/301 496/954/301
f 492/952/301 493/955/301 494/956/301 495/953/301
f 497/957/301 498/958/301 501/959/301 502/960/301
f 498/958/301 499/961/301 500/962/301 501/959/301
f 503/963/301 504/964/301 507/965/301 508/966/301
f 504/964/301 505/967/301 506/968/301 507/965/301
f 509/969/301 510/970/301 513/971/301 514/972/301
f 510/970/301 511/973/301 512/974/301 513/971/301
f 480/990/308 522/989/308 523/991/308 481/992/308
f 485/1000/312 527/999/312 528/1001/312 486/1002/312
f 532/1073/333 531/1074/333 528/1075/333 527/1076/333
f 473/933/301 478/936/301 572/936/301 571/933/301
f 478/936/301 479/939/301 573/939/301 572/936/301
f 479/939/301 484/942/301 574/942/301 573/939/301
f 484/942/301 485/945/301 575/945/301 574/942/301
f 485/945/301 490/948/301 576/948/301 575/945/301
f 490/948/301 491/951/301 577/951/301 576/948/301
f 491/951/301 496/954/301 578/954/301 577/951/301
f 496/954/301 497/957/301 579/957/301 578/954/301
f 497/957/301 502/960/301 580/960/301 579/957/301
f 502/960/301 503/963/301 581/963/301 580/960/301
f 503/963/301 508/966/301 582/966/301 581/963/301
f 508/966/301 509/969/301 583/969/301 582/966/301
f 509/969/301 514/972/301 584/972/301 583/969/301
f 514/972/301 473/933/301 571/933/301 584/972/301
f 571/933/320 572/936/320 587/936/320 586/933/320
f 572/936/334 573/939/334 588/939/334 587/936/334
f 573/939/335 574/942/335 589/942/335 588/939/335
f 574/942/326 575/945/326 590/945/326 589/942/326
f 575/945/328 576/948/328 591/948/328 590/945/328
f 576/948/330 577/951/330 592/951/330 591/948/330
f 577/951/332 578/954/332 593/954/332 592/951/332
f 578/954/303 579/957/303 594/957/303 593/954/303
f 579/957/306 580/960/306 595/960/306 594/957/306
f 580/960/336 581/963/336 596/963/336 595/960/336
f 581/963/311 582/966/311 597/966/311 596/963/311
f 582/966/313 583/969/313 598/969/313 597/966/313
f 583/969/315 584/972/315 599/972/315 598/969/315
f 584/972/337 571/933/337 586/933/337 599/972/337
usemtl LaminaMetal.001
f 473/975/302 515/976/302 516/977/302 474/978/302
f 474/978/302 516/977/302 517/979/302 475/980/302
f 475/980/303 517/979/303 518/981/303 476/982/303
f 476/982/304 518/981/304 519/983/305 477/984/305
f 477/984/305 519/983/305 520/985/305 478/986/305
f 478/986/306 520/985/306 521/987/306 479/988/306
f 479/988/307 521/987/307 522/989/308 480/990/308
f 481/992/309 523/991/309 524/993/309 482/994/309
f 482/994/310 524/993/310 525/995/310 483/996/310
f 483/996/310 525/995/310 526/997/310 484/998/310
f 484/998/311 526/997/311 527/999/311 485/1000/311
f 486/1002/312 528/1001/312 529/1003/312 487/1004/312
f 487/1004/313 529/1003/313 530/1005/313 488/1006/313
f 488/1006/314 530/1005/314 531/1007/314 489/1008/314
f 489/1008/314 531/1007/314 532/1009/314 490/1010/314
f 490/1010/315 532/1009/315 533/1011/315 491/1012/315
f 491/1012/316 533/1011/316 534/1013/316 492/1014/316
f 492/1014/316 534/1013/316 535/1015/316 493/1016/316
f 493/1016/317 535/1015/317 536/1017/317 494/1018/317
f 494/1018/318 536/1017/318 537/1019/319 495/1020/319
f 495/1020/319 537/1019/319 538/1021/319 496/1022/319
f 496/1022/320 538/1021/320 539/1023/320 497/1024/320
f 497/1024/321 539/1023/321 540/1025/321 498/1026/321
f 498/1026/321 540/1025/321 541/1027/321 499/1028/321
f 499/1028/322 541/1027/322 542/1029/322 500/1030/322
f 500/1030/323 542/1029/323 543/1031/323 501/1032/323
f 501/1032/323 543/1031/323 544/1033/323 502/1034/323
f 502/1034/324 544/1033/324 545/1035/324 503/1036/324
f 503/1036/325 545/1035/325 546/1037/325 504/1038/325
f 504/1038/325 546/1037/325 547/1039/325 505/1040/325
f 505/1040/326 547/1039/326 548/1041/326 506/1042/326
f 506/1042/327 548/1041/327 549/1043/327 507/1044/327
f 507/1044/327 549/1043/327 550/1045/327 508/1046/327
f 508/1046/328 550/1045/328 551/1047/328 509/1048/328
f 509/1048/329 551/1047/329 552/1049/329 510/1050/329
f 510/1050/329 552/1049/329 553/1051/329 511/1052/329
f 511/1052/330 553/1051/330 554/1053/330 512/1054/330
f 512/1054/331 554/1053/331 555/1055/331 513/1056/331
f 513/1056/331 555/1055/331 556/1057/331 514/1058/331
f 514/1058/332 556/1057/332 515/1059/332 473/1060/332
f 520/1061/333 519/1062/333 516/1063/333 515/1064/333
f 519/1062/333 518/1065/333 517/1066/333 516/1063/333
f 526/1067/333 525/1068/333 522/1069/333 521/1070/333
f 525/1068/333 524/1071/333 523/1072/333 522/1069/333
f 531/1074/333 530/1077/333 529/1078/333 528/1075/333
f 538/1079/333 537/1080/333 534/1081/333 533/1082/333
f 537/1080/333 536/1083/333 535/1084/333 534/1081/333
f 544/1085/333 543/1086/333 540/1087/333 539/1088/333
f 543/1086/333 542/1089/333 541/1090/333 540/1087/333
f 550/1091/333 549/1092/333 546/1093/333 545/1094/333
f 549/1092/333 548/1095/333 547/1096/333 546/1093/333
f 556/1097/333 555/1098/333 552/1099/333 551/1100/333
f 555/1098/333 554/1101/333 553/1102/333 552/1099/333
f 585/1103/301 586/933/301 587/936/301
f 585/1103/301 587/936/301 588/939/301
f 558/1104/333 520/1061/333 515/1064/333 557/1105/333
f 559/1106/333 521/1070/333 520/1061/333 558/1104/333
f 585/1103/301 588/939/301 589/942/301
f 585/1103/301 589/942/301 590/945/301
f 560/1107/333 526/1067/333 521/1070/333 559/1106/333
f 561/1108/333 527/1076/333 526/1067/333 560/1107/333
f 585/1103/301 590/945/301 591/948/301
f 585/1103/301 591/948/301 592/951/301
f 562/1109/333 532/1073/333 527/1076/333 561/1108/333
f 563/1110/333 533/1082/333 532/1073/333 562/1109/333
f 585/1103/301 592/951/301 593/954/301
f 585/1103/301 593/954/301 594/957/301
f 564/1111/333 538/1079/333 533/1082/333 563/1110/333
f 565/1112/333 539/1088/333 538/1079/333 564/1111/333
f 585/1103/301 594/957/301 595/960/301
f 585/1103/301 595/960/301 596/963/301
f 566/1113/333 544/1085/333 539/1088/333 565/1112/333
f 567/1114/333 545/1094/333 544/1085/333 566/1113/333
f 585/1103/301 596/963/301 597/966/301
f 585/1103/301 597/966/301 598/969/301
f 568/1115/333 550/1091/333 545/1094/333 567/1114/333
f 569/1116/333 551/1100/333 550/1091/333 568/1115/333
f 585/1103/301 598/969/301 599/972/301
f 585/1103/301 599/972/301 586/933/301
f 570/1117/333 556/1097/333 551/1100/333 569/1116/333
f 557/1105/333 515/1064/333 556/1097/333 570/1117/333
f 557/1105/333 570/1117/333 569/1116/333 568/1115/333 567/1114/333 566/1113/333 565/1112/333 564/1111/333 563/1110/333 562/1109/333 561/1108/333 560/1107/333 559/1106/333 558/1104/333
o pasted__pCube7
v -0.229655 0.276855 0.060676
v -0.235715 0.268381 0.060661
v -0.168170 0.232892 0.060964
v -0.174230 0.224417 0.060949
v -0.168146 0.232885 0.054815
v -0.174206 0.224411 0.054800
v -0.229631 0.276849 0.054527
v -0.235691 0.268374 0.054512
vn -0.0039 0.0011 1.0000
vn 0.8134 -0.5816 0.0038
vn 0.0039 -0.0011 -1.0000
vn -0.8134 0.5816 -0.0038
vn -0.5816 -0.8134 -0.0014
vn 0.5816 0.8134 0.0014
vt 0.375000 0.000000
vt 0.625000 0.000000
vt 0.625000 0.250000
vt 0.375000 0.250000
vt 0.625000 0.500000
vt 0.375000 0.500000
vt 0.625000 0.750000
vt 0.375000 0.750000
vt 0.625000 1.000000
vt 0.375000 1.000000
vt 0.875000 0.000000
vt 0.875000 0.250000
vt 0.125000 0.000000
vt 0.125000 0.250000
s 1
usemtl blinn7.001
f 600/1118/338 601/1119/338 603/1120/338 602/1121/338
f 602/1121/339 603/1120/339 605/1122/339 604/1123/339
f 604/1123/340 605/1122/340 607/1124/340 606/1125/340
f 606/1125/341 607/1124/341 601/1126/341 600/1127/341
f 601/1119/342 607/1128/342 605/1129/342 603/1120/342
f 606/1130/343 600/1118/343 602/1121/343 604/1131/343
o pasted__pCube6
v -0.233924 0.286756 0.060649
v -0.229615 0.277272 0.060676
v -0.165108 0.318023 0.060886
v -0.160799 0.308538 0.060913
v -0.165084 0.318016 0.054737
v -0.160775 0.308531 0.054764
v -0.233900 0.286750 0.054500
v -0.229591 0.277265 0.054527
vn -0.0039 0.0011 1.0000
vn 0.9104 0.4137 0.0031
vn 0.0039 -0.0011 -1.0000
vn -0.9104 -0.4137 -0.0031
vn 0.4136 -0.9104 0.0026
vn -0.4136 0.9104 -0.0026
vt 0.375000 0.000000
vt 0.625000 0.000000
vt 0.625000 0.250000
vt 0.375000 0.250000
vt 0.625000 0.500000
vt 0.375000 0.500000
vt 0.625000 0.750000
vt 0.375000 0.750000
vt 0.625000 1.000000
vt 0.375000 1.000000
vt 0.875000 0.000000
vt 0.875000 0.250000
vt 0.125000 0.000000
vt 0.125000 0.250000
s 1
usemtl blinn7.001
f 608/1132/344 609/1133/344 611/1134/344 610/1135/344
f 610/1135/345 611/1134/345 613/1136/345 612/1137/345
f 612/1137/346 613/1136/346 615/1138/346 614/1139/346
f 614/1139/347 615/1138/347 609/1140/347 608/1141/347
f 609/1133/348 615/1142/348 613/1143/348 611/1134/348
f 614/1144/349 608/1132/349 610/1135/349 612/1145/349
o pasted__pCube9
v -0.246804 0.269462 0.060616
v -0.251114 0.278946 0.060589
v -0.315620 0.238195 0.060379
v -0.319929 0.247680 0.060352
v -0.315596 0.238189 0.054230
v -0.319905 0.247674 0.054203
v -0.246780 0.269455 0.054467
v -0.251089 0.278940 0.054440
vn -0.0039 0.0011 1.0000
vn -0.9104 -0.4137 -0.0031
vn 0.0039 -0.0011 -1.0000
vn 0.9104 0.4137 0.0031
vn -0.4136 0.9104 -0.0026
vn 0.4136 -0.9104 0.0026
vt 0.375000 0.000000
vt 0.625000 0.000000
vt 0.625000 0.250000
vt 0.375000 0.250000
vt 0.625000 0.500000
vt 0.375000 0.500000
vt 0.625000 0.750000
vt 0.375000 0.750000
vt 0.625000 1.000000
vt 0.375000 1.000000
vt 0.875000 0.000000
vt 0.875000 0.250000
vt 0.125000 0.000000
vt 0.125000 0.250000
s 1
usemtl blinn7.001
f 616/1146/350 617/1147/350 619/1148/350 618/1149/350
f 618/1149/351 619/1148/351 621/1150/351 620/1151/351
f 620/1151/352 621/1150/352 623/1152/352 622/1153/352
f 622/1153/353 623/1152/353 617/1154/353 616/1155/353
f 617/1147/354 623/1156/354 621/1157/354 619/1148/354
f 622/1158/355 616/1146/355 618/1149/355 620/1159/355
