# Blender 5.0.1
# www.blender.org
mtllib Engranaje2.mtl
o pCube9
v -0.107633 0.189262 0.059212
v -0.110941 0.189262 0.059212
v -0.107633 0.149502 0.059212
v -0.110941 0.149502 0.059212
v -0.107633 0.149502 0.055904
v -0.110941 0.149502 0.055904
v -0.107633 0.189262 0.055904
v -0.110941 0.189262 0.055904
vn -0.0000 -0.0000 1.0000
vn -0.0000 -1.0000 -0.0000
vn -0.0000 -0.0000 -1.0000
vn -0.0000 1.0000 -0.0000
vn -1.0000 -0.0000 -0.0000
vn 1.0000 -0.0000 -0.0000
vt 0.375000 0.000000
vt 0.625000 0.000000
vt 0.625000 0.250000
vt 0.375000 0.250000
vt 0.625000 0.500000
vt 0.375000 0.500000
vt 0.625000 0.750000
vt 0.375000 0.750000
vt 0.625000 1.000000
vt 0.375000 1.000000
vt 0.875000 0.000000
vt 0.875000 0.250000
vt 0.125000 0.000000
vt 0.125000 0.250000
s 1
usemtl blinn7.001
f 1/1/1 2/2/1 4/3/1 3/4/1
f 3/4/2 4/3/2 6/5/2 5/6/2
f 5/6/3 6/5/3 8/7/3 7/8/3
f 7/8/4 8/7/4 2/9/4 1/10/4
f 2/2/5 8/11/5 6/12/5 4/3/5
f 7/13/6 1/1/6 3/4/6 5/14/6
o pCube12
v -0.113968 0.196570 0.059212
v -0.111629 0.198909 0.059212
v -0.142083 0.224685 0.059212
v -0.139744 0.227023 0.059212
v -0.142083 0.224685 0.055904
v -0.139744 0.227023 0.055904
v -0.113968 0.196570 0.055904
v -0.111629 0.198909 0.055904
vn -0.0000 -0.0000 1.0000
vn -0.7071 0.7071 -0.0000
vn -0.0000 -0.0000 -1.0000
vn 0.7071 -0.7071 -0.0000
vn 0.7071 0.7071 -0.0000
vn -0.7071 -0.7071 -0.0000
vt 0.375000 0.000000
vt 0.625000 0.000000
vt 0.625000 0.250000
vt 0.375000 0.250000
vt 0.625000 0.500000
vt 0.375000 0.500000
vt 0.625000 0.750000
vt 0.375000 0.750000
vt 0.625000 1.000000
vt 0.375000 1.000000
vt 0.875000 0.000000
vt 0.875000 0.250000
vt 0.125000 0.000000
vt 0.125000 0.250000
s 1
usemtl blinn7.001
f 9/15/7 10/16/7 12/17/7 11/18/7
f 11/18/8 12/17/8 14/19/8 13/20/8
f 13/20/9 14/19/9 16/21/9 15/22/9
f 15/22/10 16/21/10 10/23/10 9/24/10
f 10/16/11 16/25/11 14/26/11 12/17/11
f 15/27/12 9/15/12 11/18/12 13/28/12
o pGear2
v -0.113068 0.146715 0.061555
v -0.112690 0.140659 0.061555
v -0.111177 0.134604 0.061555
v -0.107397 0.134604 0.061555
v -0.105885 0.140659 0.061555
v -0.105507 0.146715 0.061555
v -0.094597 0.148885 0.061555
v -0.091931 0.143435 0.061555
v -0.088216 0.138419 0.061555
v -0.084724 0.139866 0.061555
v -0.085644 0.146039 0.061555
v -0.087612 0.151778 0.061555
v -0.078364 0.157958 0.061555
v -0.073814 0.153943 0.061555
v -0.068463 0.150731 0.061555
v -0.065790 0.153404 0.061555
v -0.069003 0.158755 0.061555
v -0.073017 0.163304 0.061555
v -0.066838 0.172553 0.061555
v -0.061098 0.170585 0.061555
v -0.054925 0.169664 0.061555
v -0.053478 0.173157 0.061555
v -0.058494 0.176871 0.061555
v -0.063944 0.179538 0.061555
v -0.061774 0.190448 0.061555
v -0.055719 0.190826 0.061555
v -0.049663 0.192338 0.061555
v -0.049663 0.196118 0.061555
v -0.055719 0.197630 0.061555
v -0.061774 0.198008 0.061555
v -0.063944 0.208918 0.061555
v -0.058494 0.211584 0.061555
v -0.053478 0.215299 0.061555
v -0.054925 0.218791 0.061555
v -0.061098 0.217871 0.061555
v -0.066838 0.215903 0.061555
v -0.073017 0.225152 0.061555
v -0.069003 0.229701 0.061555
v -0.065790 0.235052 0.061555
v -0.068463 0.237725 0.061555
v -0.073814 0.234512 0.061555
v -0.078364 0.230498 0.061555
v -0.087612 0.236678 0.061555
v -0.085644 0.242417 0.061555
v -0.084724 0.248590 0.061555
v -0.088216 0.250037 0.061555
v -0.091931 0.245021 0.061555
v -0.094597 0.239571 0.061555
v -0.105507 0.241741 0.061555
v -0.105885 0.247797 0.061555
v -0.107397 0.253852 0.061555
v -0.111177 0.253852 0.061555
v -0.112690 0.247797 0.061555
v -0.113068 0.241741 0.061555
v -0.123977 0.239571 0.061555
v -0.126644 0.245021 0.061555
v -0.130358 0.250037 0.061555
v -0.133851 0.248590 0.061555
v -0.132930 0.242417 0.061555
v -0.130962 0.236678 0.061555
v -0.140211 0.230498 0.061555
v -0.144760 0.234512 0.061555
v -0.150111 0.237725 0.061555
v -0.152784 0.235052 0.061555
v -0.149572 0.229701 0.061555
v -0.145557 0.225152 0.061555
v -0.151737 0.215903 0.061555
v -0.157476 0.217871 0.061555
v -0.163649 0.218791 0.061555
v -0.165096 0.215299 0.061555
v -0.160080 0.211584 0.061555
v -0.154630 0.208918 0.061555
v -0.156800 0.198008 0.061555
v -0.162856 0.197630 0.061555
v -0.168911 0.196118 0.061555
v -0.168911 0.192338 0.061555
v -0.162856 0.190826 0.061555
v -0.156800 0.190448 0.061555
v -0.154630 0.179538 0.061555
v -0.160080 0.176871 0.061555
v -0.165096 0.173157 0.061555
v -0.163649 0.169664 0.061555
v -0.157476 0.170585 0.061555
v -0.151737 0.172553 0.061555
v -0.145557 0.163304 0.061555
v -0.149572 0.158755 0.061555
v -0.152784 0.153404 0.061555
v -0.150111 0.150731 0.061555
v -0.144760 0.153943 0.061555
v -0.140211 0.157958 0.061555
v -0.130962 0.151778 0.061555
v -0.132930 0.146039 0.061555
v -0.133851 0.139866 0.061555
v -0.130358 0.138419 0.061555
v -0.126644 0.143435 0.061555
v -0.123977 0.148885 0.061555
v -0.113068 0.146715 0.053561
v -0.112690 0.140659 0.053561
v -0.111177 0.134604 0.053561
v -0.107397 0.134604 0.053561
v -0.105885 0.140659 0.053561
v -0.105507 0.146715 0.053561
v -0.094597 0.148885 0.053561
v -0.091931 0.143435 0.053561
v -0.088216 0.138419 0.053561
v -0.084724 0.139866 0.053561
v -0.085644 0.146039 0.053561
v -0.087612 0.151778 0.053561
v -0.078364 0.157958 0.053561
v -0.073814 0.153943 0.053561
v -0.068463 0.150731 0.053561
v -0.065790 0.153404 0.053561
v -0.069003 0.158755 0.053561
v -0.073017 0.163304 0.053561
v -0.066838 0.172553 0.053561
v -0.061098 0.170585 0.053561
v -0.054925 0.169664 0.053561
v -0.053478 0.173157 0.053561
v -0.058494 0.176871 0.053561
v -0.063944 0.179538 0.053561
v -0.061774 0.190448 0.053561
v -0.055719 0.190826 0.053561
v -0.049663 0.192338 0.053561
v -0.049663 0.196118 0.053561
v -0.055719 0.197630 0.053561
v -0.061774 0.198008 0.053561
v -0.063944 0.208918 0.053561
v -0.058494 0.211584 0.053561
v -0.053478 0.215299 0.053561
v -0.054925 0.218791 0.053561
v -0.061098 0.217871 0.053561
v -0.066838 0.215903 0.053561
v -0.073017 0.225152 0.053561
v -0.069003 0.229701 0.053561
v -0.065790 0.235052 0.053561
v -0.068463 0.237725 0.053561
v -0.073814 0.234512 0.053561
v -0.078364 0.230498 0.053561
v -0.087612 0.236678 0.053561
v -0.085644 0.242417 0.053561
v -0.084724 0.248590 0.053561
v -0.088216 0.250037 0.053561
v -0.091931 0.245021 0.053561
v -0.094597 0.239571 0.053561
v -0.105507 0.241741 0.053561
v -0.105885 0.247797 0.053561
v -0.107397 0.253852 0.053561
v -0.111177 0.253852 0.053561
v -0.112690 0.247797 0.053561
v -0.113068 0.241741 0.053561
v -0.123977 0.239571 0.053561
v -0.126644 0.245021 0.053561
v -0.130358 0.250037 0.053561
v -0.133851 0.248590 0.053561
v -0.132930 0.242417 0.053561
v -0.130962 0.236678 0.053561
v -0.140211 0.230498 0.053561
v -0.144760 0.234512 0.053561
v -0.150111 0.237725 0.053561
v -0.152784 0.235052 0.053561
v -0.149572 0.229701 0.053561
v -0.145557 0.225152 0.053561
v -0.151737 0.215903 0.053561
v -0.157476 0.217871 0.053561
v -0.163649 0.218791 0.053561
v -0.165096 0.215299 0.053561
v -0.160080 0.211584 0.053561
v -0.154630 0.208918 0.053561
v -0.156800 0.198008 0.053561
v -0.162856 0.197630 0.053561
v -0.168911 0.196118 0.053561
v -0.168911 0.192338 0.053561
v -0.162856 0.190826 0.053561
v -0.156800 0.190448 0.053561
v -0.154630 0.179538 0.053561
v -0.160080 0.176871 0.053561
v -0.165096 0.173157 0.053561
v -0.163649 0.169664 0.053561
v -0.157476 0.170585 0.053561
v -0.151737 0.172553 0.053561
v -0.145557 0.163304 0.053561
v -0.149572 0.158755 0.053561
v -0.152784 0.153404 0.053561
v -0.150111 0.150731 0.053561
v -0.144760 0.153943 0.053561
v -0.140211 0.157958 0.053561
v -0.130962 0.151778 0.053561
v -0.132930 0.146039 0.053561
v -0.133851 0.139866 0.053561
v -0.130358 0.138419 0.053561
v -0.126644 0.143435 0.053561
v -0.123977 0.148885 0.053561
v -0.113561 0.150838 0.061555
v -0.105014 0.150838 0.061555
v -0.096631 0.152506 0.061555
v -0.088735 0.155777 0.061555
v -0.081628 0.160525 0.061555
v -0.075584 0.166569 0.061555
v -0.070836 0.173675 0.061555
v -0.067565 0.181572 0.061555
v -0.065898 0.189954 0.061555
v -0.065898 0.198501 0.061555
v -0.067565 0.206884 0.061555
v -0.070836 0.214781 0.061555
v -0.075584 0.221887 0.061555
v -0.081628 0.227931 0.061555
v -0.088735 0.232679 0.061555
v -0.096631 0.235950 0.061555
v -0.105014 0.237618 0.061555
v -0.113561 0.237618 0.061555
v -0.121943 0.235950 0.061555
v -0.129840 0.232679 0.061555
v -0.136946 0.227931 0.061555
v -0.142990 0.221887 0.061555
v -0.147739 0.214781 0.061555
v -0.151009 0.206884 0.061555
v -0.152677 0.198501 0.061555
v -0.152677 0.189954 0.061555
v -0.151009 0.181572 0.061555
v -0.147739 0.173675 0.061555
v -0.142990 0.166569 0.061555
v -0.136946 0.160525 0.061555
v -0.129840 0.155777 0.061555
v -0.121943 0.152506 0.061555
v -0.113561 0.150838 0.053561
v -0.105014 0.150838 0.053561
v -0.096631 0.152506 0.053561
v -0.088735 0.155777 0.053561
v -0.081628 0.160525 0.053561
v -0.075584 0.166569 0.053561
v -0.070836 0.173675 0.053561
v -0.067565 0.181572 0.053561
v -0.065898 0.189954 0.053561
v -0.065898 0.198501 0.053561
v -0.067565 0.206884 0.053561
v -0.070836 0.214781 0.053561
v -0.075584 0.221887 0.053561
v -0.081628 0.227931 0.053561
v -0.088735 0.232679 0.053561
v -0.096631 0.235950 0.053561
v -0.105014 0.237618 0.053561
v -0.113561 0.237618 0.053561
v -0.121943 0.235950 0.053561
v -0.129840 0.232679 0.053561
v -0.136946 0.227931 0.053561
v -0.142990 0.221887 0.053561
v -0.147739 0.214781 0.053561
v -0.151009 0.206884 0.053561
v -0.152677 0.198501 0.053561
v -0.152677 0.189954 0.053561
v -0.151009 0.181572 0.053561
v -0.147739 0.173675 0.053561
v -0.142990 0.166569 0.053561
v -0.136946 0.160525 0.053561
v -0.129840 0.155777 0.053561
v -0.121943 0.152506 0.053561
vn -0.0000 -0.0000 1.0000
vn -0.9981 -0.0623 -0.0000
vn -0.9880 -0.1542 -0.0000
vn -0.9702 -0.2423 -0.0000
vn -0.0000 -1.0000 -0.0000
vn 0.9702 -0.2423 -0.0000
vn 0.9880 -0.1543 -0.0000
vn 0.9981 -0.0623 -0.0000
vn 0.1951 -0.9808 -0.0000
vn -0.8982 -0.4395 -0.0000
vn -0.8538 -0.5205 -0.0000
vn -0.8036 -0.5951 -0.0000
vn 0.3827 -0.9239 -0.0000
vn 0.9891 0.1474 -0.0000
vn 0.9718 0.2356 -0.0000
vn 0.9459 0.3244 -0.0000
vn 0.5556 -0.8315 -0.0000
vn -0.6617 -0.7498 -0.0000
vn -0.5896 -0.8077 -0.0000
vn -0.5147 -0.8574 -0.0000
vn 0.7071 -0.7071 -0.0000
vn 0.8574 0.5147 -0.0000
vn 0.8077 0.5896 -0.0000
vn 0.7498 0.6617 -0.0000
vn 0.8315 -0.5556 -0.0000
vn -0.3244 -0.9459 -0.0000
vn -0.2356 -0.9718 -0.0000
vn -0.1474 -0.9891 -0.0000
vn 0.9239 -0.3827 -0.0000
vn 0.5951 0.8036 -0.0000
vn 0.5205 0.8539 -0.0000
vn 0.4395 0.8982 -0.0000
vn 0.9808 -0.1951 -0.0000
vn 0.0623 -0.9981 -0.0000
vn 0.1542 -0.9880 -0.0000
vn 0.2423 -0.9702 -0.0000
vn 1.0000 -0.0000 -0.0000
vn 0.2423 0.9702 -0.0000
vn 0.1543 0.9880 -0.0000
vn 0.0623 0.9981 -0.0000
vn 0.9808 0.1951 -0.0000
vn 0.4395 -0.8982 -0.0000
vn 0.5206 -0.8538 -0.0000
vn 0.5951 -0.8036 -0.0000
vn 0.9239 0.3827 -0.0000
vn -0.1474 0.9891 -0.0000
vn -0.2356 0.9718 -0.0000
vn -0.3244 0.9459 -0.0000
vn 0.8315 0.5556 -0.0000
vn 0.7498 -0.6617 -0.0000
vn 0.8077 -0.5896 -0.0000
vn 0.8574 -0.5147 -0.0000
vn 0.7071 0.7071 -0.0000
vn -0.5147 0.8574 -0.0000
vn -0.5897 0.8076 -0.0000
vn -0.6617 0.7498 -0.0000
vn 0.5556 0.8315 -0.0000
vn 0.9459 -0.3244 -0.0000
vn 0.9718 -0.2357 -0.0000
vn 0.9891 -0.1474 -0.0000
vn 0.3827 0.9239 -0.0000
vn -0.8036 0.5951 -0.0000
vn -0.8538 0.5206 -0.0000
vn -0.8982 0.4395 -0.0000
vn 0.1951 0.9808 -0.0000
vn 0.9981 0.0623 -0.0000
vn 0.9880 0.1543 -0.0000
vn 0.9702 0.2423 -0.0000
vn -0.0000 1.0000 -0.0000
vn -0.9702 0.2423 -0.0000
vn -0.9880 0.1542 -0.0000
vn -0.9981 0.0623 -0.0000
vn -0.1951 0.9808 -0.0000
vn 0.8982 0.4395 -0.0000
vn 0.8538 0.5205 -0.0000
vn 0.8036 0.5951 -0.0000
vn -0.3827 0.9239 -0.0000
vn -0.9891 -0.1474 -0.0000
vn -0.9718 -0.2357 -0.0000
vn -0.9459 -0.3244 -0.0000
vn -0.5556 0.8315 -0.0000
vn 0.6617 0.7498 -0.0000
vn 0.5896 0.8077 -0.0000
vn 0.5147 0.8574 -0.0000
vn -0.7071 0.7071 -0.0000
vn -0.8574 -0.5147 -0.0000
vn -0.8077 -0.5896 -0.0000
vn -0.7498 -0.6617 -0.0000
vn -0.8315 0.5556 -0.0000
vn 0.3244 0.9459 -0.0000
vn 0.2356 0.9718 -0.0000
vn 0.1474 0.9891 -0.0000
vn -0.9239 0.3827 -0.0000
vn -0.5951 -0.8036 -0.0000
vn -0.5205 -0.8538 -0.0000
vn -0.4395 -0.8982 -0.0000
vn -0.9808 0.1951 -0.0000
vn -0.0623 0.9981 -0.0000
vn -0.1542 0.9880 -0.0000
vn -0.2423 0.9702 -0.0000
vn -1.0000 -0.0000 -0.0000
vn -0.2423 -0.9702 -0.0000
vn -0.1543 -0.9880 -0.0000
vn -0.0623 -0.9981 -0.0000
vn -0.9808 -0.1951 -0.0000
vn -0.4395 0.8982 -0.0000
vn -0.5205 0.8538 -0.0000
vn -0.5951 0.8036 -0.0000
vn -0.9239 -0.3827 -0.0000
vn 0.1474 -0.9891 -0.0000
vn 0.2356 -0.9718 -0.0000
vn 0.3244 -0.9459 -0.0000
vn -0.8315 -0.5556 -0.0000
vn -0.7498 0.6617 -0.0000
vn -0.8077 0.5896 -0.0000
vn -0.8574 0.5147 -0.0000
vn -0.7071 -0.7071 -0.0000
vn 0.5147 -0.8574 -0.0000
vn 0.5896 -0.8077 -0.0000
vn 0.6617 -0.7498 -0.0000
vn -0.5556 -0.8315 -0.0000
vn -0.9459 0.3244 -0.0000
vn -0.9718 0.2357 -0.0000
vn -0.9891 0.1474 -0.0000
vn -0.3827 -0.9239 -0.0000
vn 0.8036 -0.5951 -0.0000
vn 0.8538 -0.5206 -0.0000
vn 0.8982 -0.4395 -0.0000
vn -0.1951 -0.9808 -0.0000
vn -0.0000 -0.0000 -1.0000
vn 0.0980 0.9952 -0.0000
vn -0.0980 0.9952 -0.0000
vn -0.2903 0.9569 -0.0000
vn -0.4714 0.8819 -0.0000
vn -0.6344 0.7730 -0.0000
vn -0.7730 0.6344 -0.0000
vn -0.8819 0.4714 -0.0000
vn -0.9569 0.2903 -0.0000
vn -0.9952 0.0980 -0.0000
vn -0.9952 -0.0980 -0.0000
vn -0.9569 -0.2903 -0.0000
vn -0.8819 -0.4714 -0.0000
vn -0.7730 -0.6344 -0.0000
vn -0.6344 -0.7730 -0.0000
vn -0.4714 -0.8819 -0.0000
vn -0.2903 -0.9569 -0.0000
vn -0.0980 -0.9952 -0.0000
vn 0.0980 -0.9952 -0.0000
vn 0.2903 -0.9569 -0.0000
vn 0.4714 -0.8819 -0.0000
vn 0.6344 -0.7730 -0.0000
vn 0.7730 -0.6344 -0.0000
vn 0.8819 -0.4714 -0.0000
vn 0.9569 -0.2903 -0.0000
vn 0.9952 -0.0980 -0.0000
vn 0.9952 0.0980 -0.0000
vn 0.9569 0.2903 -0.0000
vn 0.8819 0.4714 -0.0000
vn 0.7730 0.6344 -0.0000
vn 0.6344 0.7730 -0.0000
vn 0.4714 0.8819 -0.0000
vn 0.2903 0.9569 -0.0000
vt 0.234393 0.553843
vt 0.235954 0.528843
vt 0.264046 0.528843
vt 0.265607 0.553843
vt 0.242196 0.503843
vt 0.257804 0.503843
vt 0.310647 0.562802
vt 0.321656 0.540302
vt 0.347610 0.551053
vt 0.339485 0.574747
vt 0.336991 0.519594
vt 0.351410 0.525567
vt 0.377668 0.600260
vt 0.396449 0.583686
vt 0.416314 0.603551
vt 0.399740 0.622332
vt 0.418541 0.570423
vt 0.429577 0.581459
vt 0.425253 0.660515
vt 0.448947 0.652390
vt 0.459698 0.678344
vt 0.437198 0.689353
vt 0.474433 0.648590
vt 0.480406 0.663009
vt 0.446157 0.734393
vt 0.471157 0.735954
vt 0.471157 0.764047
vt 0.446157 0.765607
vt 0.496157 0.742196
vt 0.496157 0.757804
vt 0.437198 0.810647
vt 0.459698 0.821656
vt 0.448947 0.847610
vt 0.425253 0.839485
vt 0.480406 0.836991
vt 0.474433 0.851410
vt 0.399740 0.877668
vt 0.416314 0.896449
vt 0.396449 0.916314
vt 0.377668 0.899740
vt 0.429577 0.918541
vt 0.418541 0.929577
vt 0.339485 0.925253
vt 0.347610 0.948947
vt 0.321656 0.959698
vt 0.310647 0.937198
vt 0.351410 0.974433
vt 0.336991 0.980406
vt 0.265607 0.946157
vt 0.264046 0.971157
vt 0.235953 0.971157
vt 0.234393 0.946157
vt 0.257804 0.996157
vt 0.242196 0.996157
vt 0.189353 0.937198
vt 0.178344 0.959698
vt 0.152390 0.948947
vt 0.160515 0.925253
vt 0.163009 0.980406
vt 0.148590 0.974433
vt 0.122332 0.899740
vt 0.103551 0.916314
vt 0.083686 0.896449
vt 0.100260 0.877668
vt 0.081459 0.929577
vt 0.070423 0.918541
vt 0.074747 0.839485
vt 0.051053 0.847610
vt 0.040302 0.821656
vt 0.062802 0.810647
vt 0.025567 0.851410
vt 0.019594 0.836991
vt 0.053843 0.765607
vt 0.028843 0.764046
vt 0.028843 0.735953
vt 0.053843 0.734393
vt 0.003843 0.757804
vt 0.003843 0.742196
vt 0.062802 0.689353
vt 0.040302 0.678344
vt 0.051053 0.652390
vt 0.074747 0.660515
vt 0.019594 0.663009
vt 0.025567 0.648590
vt 0.100260 0.622332
vt 0.083686 0.603551
vt 0.103551 0.583686
vt 0.122332 0.600260
vt 0.070423 0.581459
vt 0.081459 0.570423
vt 0.160515 0.574747
vt 0.152390 0.551053
vt 0.178344 0.540302
vt 0.189353 0.562802
vt 0.148590 0.525567
vt 0.163009 0.519594
vt 0.500000 1.000000
vt 0.500000 0.500000
vt 0.504798 0.500000
vt 0.504798 1.000000
vt 0.509733 0.500000
vt 0.509733 1.000000
vt 0.512722 0.500000
vt 0.512722 1.000000
vt 0.517657 0.500000
vt 0.517657 1.000000
vt 0.522455 0.500000
vt 0.522455 1.000000
vt 0.531250 0.500000
vt 0.531250 1.000000
vt 0.536048 0.500000
vt 0.536048 1.000000
vt 0.540983 0.500000
vt 0.540983 1.000000
vt 0.543972 0.500000
vt 0.543972 1.000000
vt 0.548907 0.500000
vt 0.548907 1.000000
vt 0.553705 0.500000
vt 0.553705 1.000000
vt 0.562500 0.500000
vt 0.562500 1.000000
vt 0.567298 0.500000
vt 0.567298 1.000000
vt 0.572233 0.500000
vt 0.572233 1.000000
vt 0.575222 0.500000
vt 0.575222 1.000000
vt 0.580157 0.500000
vt 0.580157 1.000000
vt 0.584955 0.500000
vt 0.584955 1.000000
vt 0.593750 0.500000
vt 0.593750 1.000000
vt 0.598548 0.500000
vt 0.598548 1.000000
vt 0.603483 0.500000
vt 0.603483 1.000000
vt 0.606472 0.500000
vt 0.606472 1.000000
vt 0.611407 0.500000
vt 0.611407 1.000000
vt 0.616205 0.500000
vt 0.616205 1.000000
vt 0.625000 0.500000
vt 0.625000 1.000000
vt 0.629798 0.500000
vt 0.629798 1.000000
vt 0.634733 0.500000
vt 0.634733 1.000000
vt 0.637722 0.500000
vt 0.637722 1.000000
vt 0.642657 0.500000
vt 0.642657 1.000000
vt 0.647455 0.500000
vt 0.647455 1.000000
vt 0.656250 0.500000
vt 0.656250 1.000000
vt 0.661048 0.500000
vt 0.661048 1.000000
vt 0.665983 0.500000
vt 0.665983 1.000000
vt 0.668972 0.500000
vt 0.668972 1.000000
vt 0.673907 0.500000
vt 0.673907 1.000000
vt 0.678705 0.500000
vt 0.678705 1.000000
vt 0.687500 0.500000
vt 0.687500 1.000000
vt 0.692297 0.500000
vt 0.692297 1.000000
vt 0.697233 0.500000
vt 0.697233 1.000000
vt 0.700222 0.500000
vt 0.700222 1.000000
vt 0.705157 0.500000
vt 0.705157 1.000000
vt 0.709955 0.500000
vt 0.709955 1.000000
vt 0.718750 0.500000
vt 0.718750 1.000000
vt 0.723547 0.500000
vt 0.723547 1.000000
vt 0.728483 0.500000
vt 0.728483 1.000000
vt 0.731472 0.500000
vt 0.731472 1.000000
vt 0.736407 0.500000
vt 0.736407 1.000000
vt 0.741205 0.500000
vt 0.741205 1.000000
vt 0.750000 0.500000
vt 0.750000 1.000000
vt 0.754797 0.500000
vt 0.754797 1.000000
vt 0.759733 0.500000
vt 0.759733 1.000000
vt 0.762722 0.500000
vt 0.762722 1.000000
vt 0.767657 0.500000
vt 0.767657 1.000000
vt 0.772455 0.500000
vt 0.772455 1.000000
vt 0.781250 0.500000
vt 0.781250 1.000000
vt 0.786048 0.500000
vt 0.786048 1.000000
vt 0.790983 0.500000
vt 0.790983 1.000000
vt 0.793972 0.500000
vt 0.793972 1.000000
vt 0.798907 0.500000
vt 0.798907 1.000000
vt 0.803705 0.500000
vt 0.803705 1.000000
vt 0.812500 0.500000
vt 0.812500 1.000000
vt 0.817298 0.500000
vt 0.817298 1.000000
vt 0.822233 0.500000
vt 0.822233 1.000000
vt 0.825222 0.500000
vt 0.825222 1.000000
vt 0.830157 0.500000
vt 0.830157 1.000000
vt 0.834955 0.500000
vt 0.834955 1.000000
vt 0.843750 0.500000
vt 0.843750 1.000000
vt 0.848548 0.500000
vt 0.848548 1.000000
vt 0.853483 0.500000
vt 0.853483 1.000000
vt 0.856472 0.500000
vt 0.856472 1.000000
vt 0.861407 0.500000
vt 0.861407 1.000000
vt 0.866205 0.500000
vt 0.866205 1.000000
vt 0.875000 0.500000
vt 0.875000 1.000000
vt 0.879798 0.500000
vt 0.879798 1.000000
vt 0.884733 0.500000
vt 0.884733 1.000000
vt 0.887722 0.500000
vt 0.887722 1.000000
vt 0.892657 0.500000
vt 0.892657 1.000000
vt 0.897455 0.500000
vt 0.897455 1.000000
vt 0.906250 0.500000
vt 0.906250 1.000000
vt 0.911048 0.500000
vt 0.911048 1.000000
vt 0.915983 0.500000
vt 0.915983 1.000000
vt 0.918972 0.500000
vt 0.918972 1.000000
vt 0.923907 0.500000
vt 0.923907 1.000000
vt 0.928705 0.500000
vt 0.928705 1.000000
vt 0.937500 0.500000
vt 0.937500 1.000000
vt 0.942298 0.500000
vt 0.942298 1.000000
vt 0.947233 0.500000
vt 0.947233 1.000000
vt 0.950222 0.500000
vt 0.950222 1.000000
vt 0.955157 0.500000
vt 0.955157 1.000000
vt 0.959955 0.500000
vt 0.959955 1.000000
vt 0.968750 0.500000
vt 0.968750 1.000000
vt 0.973548 0.500000
vt 0.973548 1.000000
vt 0.978483 0.500000
vt 0.978483 1.000000
vt 0.981472 0.500000
vt 0.981472 1.000000
vt 0.986407 0.500000
vt 0.986407 1.000000
vt 0.991205 0.500000
vt 0.991205 1.000000
vt 1.000000 0.500000
vt 1.000000 1.000000
vt 0.265607 0.446157
vt 0.264046 0.471157
vt 0.235954 0.471157
vt 0.234393 0.446157
vt 0.257804 0.496157
vt 0.242196 0.496157
vt 0.339485 0.425253
vt 0.347610 0.448947
vt 0.321656 0.459698
vt 0.310647 0.437198
vt 0.351410 0.474433
vt 0.336991 0.480406
vt 0.399740 0.377668
vt 0.416314 0.396449
vt 0.396449 0.416314
vt 0.377668 0.399740
vt 0.429577 0.418541
vt 0.418541 0.429577
vt 0.437198 0.310647
vt 0.459698 0.321656
vt 0.448947 0.347610
vt 0.425253 0.339485
vt 0.480406 0.336991
vt 0.474433 0.351410
vt 0.446157 0.234393
vt 0.471157 0.235953
vt 0.471157 0.264046
vt 0.446157 0.265607
vt 0.496157 0.242196
vt 0.496157 0.257804
vt 0.425253 0.160515
vt 0.448947 0.152390
vt 0.459698 0.178344
vt 0.437198 0.189353
vt 0.474433 0.148590
vt 0.480406 0.163009
vt 0.377668 0.100260
vt 0.396449 0.083686
vt 0.416314 0.103551
vt 0.399740 0.122332
vt 0.418541 0.070423
vt 0.429577 0.081459
vt 0.310647 0.062802
vt 0.321656 0.040302
vt 0.347610 0.051053
vt 0.339485 0.074747
vt 0.336991 0.019594
vt 0.351410 0.025567
vt 0.234393 0.053843
vt 0.235953 0.028843
vt 0.264046 0.028843
vt 0.265607 0.053843
vt 0.242196 0.003843
vt 0.257804 0.003843
vt 0.160515 0.074747
vt 0.152390 0.051053
vt 0.178344 0.040302
vt 0.189353 0.062802
vt 0.148590 0.025567
vt 0.163009 0.019594
vt 0.100260 0.122332
vt 0.083686 0.103551
vt 0.103551 0.083686
vt 0.122332 0.100260
vt 0.070423 0.081459
vt 0.081459 0.070423
vt 0.062802 0.189353
vt 0.040302 0.178344
vt 0.051053 0.152390
vt 0.074747 0.160515
vt 0.019594 0.163009
vt 0.025567 0.148590
vt 0.053843 0.265607
vt 0.028843 0.264047
vt 0.028843 0.235954
vt 0.053843 0.234393
vt 0.003843 0.257804
vt 0.003843 0.242196
vt 0.074747 0.339485
vt 0.051053 0.347610
vt 0.040302 0.321656
vt 0.062802 0.310647
vt 0.025567 0.351410
vt 0.019594 0.336991
vt 0.122332 0.399740
vt 0.103551 0.416314
vt 0.083686 0.396449
vt 0.100260 0.377668
vt 0.081459 0.429577
vt 0.070423 0.418541
vt 0.189353 0.437198
vt 0.178344 0.459698
vt 0.152390 0.448947
vt 0.160515 0.425253
vt 0.163009 0.480406
vt 0.148590 0.474433
vt 0.515625 0.500000
vt 0.515625 0.000000
vt 0.500000 0.000000
vt 0.531250 0.000000
vt 0.546875 0.500000
vt 0.546875 0.000000
vt 0.562500 0.000000
vt 0.578125 0.500000
vt 0.578125 0.000000
vt 0.593750 0.000000
vt 0.609375 0.500000
vt 0.609375 0.000000
vt 0.625000 0.000000
vt 0.640625 0.500000
vt 0.640625 0.000000
vt 0.656250 0.000000
vt 0.671875 0.500000
vt 0.671875 0.000000
vt 0.687500 0.000000
vt 0.703125 0.500000
vt 0.703125 0.000000
vt 0.718750 0.000000
vt 0.734375 0.500000
vt 0.734375 0.000000
vt 0.750000 0.000000
vt 0.765625 0.500000
vt 0.765625 0.000000
vt 0.781250 0.000000
vt 0.796875 0.500000
vt 0.796875 0.000000
vt 0.812500 0.000000
vt 0.828125 0.500000
vt 0.828125 0.000000
vt 0.843750 0.500000
vt 0.843750 0.000000
vt 0.859375 0.500000
vt 0.859375 0.000000
vt 0.875000 0.500000
vt 0.875000 0.000000
vt 0.890625 0.500000
vt 0.890625 0.000000
vt 0.906250 0.500000
vt 0.906250 0.000000
vt 0.921875 0.500000
vt 0.921875 0.000000
vt 0.937500 0.500000
vt 0.937500 0.000000
vt 0.953125 0.500000
vt 0.953125 0.000000
vt 0.968750 0.500000
vt 0.968750 0.000000
vt 0.984375 0.500000
vt 0.984375 0.000000
vt 1.000000 0.000000
vt 0.232357 0.570867
vt 0.267643 0.570867
vt 0.302251 0.577751
vt 0.267643 0.429133
vt 0.232357 0.429133
vt 0.302251 0.422249
vt 0.334851 0.591254
vt 0.364191 0.610858
vt 0.334851 0.408746
vt 0.364191 0.389142
vt 0.389142 0.635809
vt 0.408746 0.665149
vt 0.389142 0.364191
vt 0.408746 0.334851
vt 0.422249 0.697749
vt 0.429133 0.732357
vt 0.422249 0.302251
vt 0.429133 0.267643
vt 0.429133 0.767643
vt 0.422249 0.802251
vt 0.429133 0.232357
vt 0.422249 0.197749
vt 0.408746 0.834851
vt 0.389142 0.864191
vt 0.408746 0.165149
vt 0.389142 0.135809
vt 0.364191 0.889142
vt 0.334851 0.908746
vt 0.364191 0.110858
vt 0.334851 0.091254
vt 0.302251 0.922249
vt 0.267643 0.929133
vt 0.302251 0.077751
vt 0.267643 0.070867
vt 0.232357 0.929133
vt 0.197749 0.922249
vt 0.232357 0.070867
vt 0.197749 0.077751
vt 0.165149 0.908746
vt 0.135809 0.889142
vt 0.165149 0.091254
vt 0.135809 0.110858
vt 0.110858 0.864191
vt 0.091254 0.834851
vt 0.110858 0.135809
vt 0.091254 0.165149
vt 0.077751 0.802251
vt 0.070867 0.767643
vt 0.077751 0.197749
vt 0.070867 0.232357
vt 0.070867 0.732357
vt 0.077751 0.697749
vt 0.070867 0.267643
vt 0.077751 0.302251
vt 0.091254 0.665149
vt 0.110858 0.635809
vt 0.091254 0.334851
vt 0.110858 0.364191
vt 0.135809 0.610858
vt 0.165149 0.591254
vt 0.135809 0.389142
vt 0.165149 0.408746
vt 0.197749 0.577751
vt 0.197749 0.422249
s 1
usemtl blinn10.001
f 17/29/13 18/30/13 21/31/13 22/32/13
f 18/30/13 19/33/13 20/34/13 21/31/13
f 23/35/13 24/36/13 27/37/13 28/38/13
f 24/36/13 25/39/13 26/40/13 27/37/13
f 29/41/13 30/42/13 33/43/13 34/44/13
f 30/42/13 31/45/13 32/46/13 33/43/13
f 35/47/13 36/48/13 39/49/13 40/50/13
f 36/48/13 37/51/13 38/52/13 39/49/13
f 41/53/13 42/54/13 45/55/13 46/56/13
f 42/54/13 43/57/13 44/58/13 45/55/13
f 47/59/13 48/60/13 51/61/13 52/62/13
f 48/60/13 49/63/13 50/64/13 51/61/13
f 53/65/13 54/66/13 57/67/13 58/68/13
f 54/66/13 55/69/13 56/70/13 57/67/13
f 59/71/13 60/72/13 63/73/13 64/74/13
f 60/72/13 61/75/13 62/76/13 63/73/13
f 65/77/13 66/78/13 69/79/13 70/80/13
f 66/78/13 67/81/13 68/82/13 69/79/13
f 71/83/13 72/84/13 75/85/13 76/86/13
f 72/84/13 73/87/13 74/88/13 75/85/13
f 77/89/13 78/90/13 81/91/13 82/92/13
f 78/90/13 79/93/13 80/94/13 81/91/13
f 83/95/13 84/96/13 87/97/13 88/98/13
f 84/96/13 85/99/13 86/100/13 87/97/13
f 89/101/13 90/102/13 93/103/13 94/104/13
f 90/102/13 91/105/13 92/106/13 93/103/13
f 95/107/13 96/108/13 99/109/13 100/110/13
f 96/108/13 97/111/13 98/112/13 99/109/13
f 101/113/13 102/114/13 105/115/13 106/116/13
f 102/114/13 103/117/13 104/118/13 105/115/13
f 107/119/13 108/120/13 111/121/13 112/122/13
f 108/120/13 109/123/13 110/124/13 111/121/13
f 118/319/142 117/320/142 114/321/142 113/322/142
f 117/320/142 116/323/142 115/324/142 114/321/142
f 124/325/142 123/326/142 120/327/142 119/328/142
f 123/326/142 122/329/142 121/330/142 120/327/142
f 130/331/142 129/332/142 126/333/142 125/334/142
f 129/332/142 128/335/142 127/336/142 126/333/142
f 136/337/142 135/338/142 132/339/142 131/340/142
f 135/338/142 134/341/142 133/342/142 132/339/142
f 142/343/142 141/344/142 138/345/142 137/346/142
f 141/344/142 140/347/142 139/348/142 138/345/142
f 148/349/142 147/350/142 144/351/142 143/352/142
f 147/350/142 146/353/142 145/354/142 144/351/142
f 154/355/142 153/356/142 150/357/142 149/358/142
f 153/356/142 152/359/142 151/360/142 150/357/142
f 160/361/142 159/362/142 156/363/142 155/364/142
f 159/362/142 158/365/142 157/366/142 156/363/142
f 166/367/142 165/368/142 162/369/142 161/370/142
f 165/368/142 164/371/142 163/372/142 162/369/142
f 172/373/142 171/374/142 168/375/142 167/376/142
f 171/374/142 170/377/142 169/378/142 168/375/142
f 178/379/142 177/380/142 174/381/142 173/382/142
f 177/380/142 176/383/142 175/384/142 174/381/142
f 184/385/142 183/386/142 180/387/142 179/388/142
f 183/386/142 182/389/142 181/390/142 180/387/142
f 190/391/142 189/392/142 186/393/142 185/394/142
f 189/392/142 188/395/142 187/396/142 186/393/142
f 196/397/142 195/398/142 192/399/142 191/400/142
f 195/398/142 194/401/142 193/402/142 192/399/142
f 202/403/142 201/404/142 198/405/142 197/406/142
f 201/404/142 200/407/142 199/408/142 198/405/142
f 208/409/142 207/410/142 204/411/142 203/412/142
f 207/410/142 206/413/142 205/414/142 204/411/142
f 209/469/13 17/29/13 22/32/13 210/470/13
f 210/470/13 22/32/13 23/35/13 211/471/13
f 242/472/142 118/319/142 113/322/142 241/473/142
f 243/474/142 119/328/142 118/319/142 242/472/142
f 211/471/13 23/35/13 28/38/13 212/475/13
f 212/475/13 28/38/13 29/41/13 213/476/13
f 244/477/142 124/325/142 119/328/142 243/474/142
f 245/478/142 125/334/142 124/325/142 244/477/142
f 213/476/13 29/41/13 34/44/13 214/479/13
f 214/479/13 34/44/13 35/47/13 215/480/13
f 246/481/142 130/331/142 125/334/142 245/478/142
f 247/482/142 131/340/142 130/331/142 246/481/142
f 215/480/13 35/47/13 40/50/13 216/483/13
f 216/483/13 40/50/13 41/53/13 217/484/13
f 248/485/142 136/337/142 131/340/142 247/482/142
f 249/486/142 137/346/142 136/337/142 248/485/142
f 217/484/13 41/53/13 46/56/13 218/487/13
f 218/487/13 46/56/13 47/59/13 219/488/13
f 250/489/142 142/343/142 137/346/142 249/486/142
f 251/490/142 143/352/142 142/343/142 250/489/142
f 219/488/13 47/59/13 52/62/13 220/491/13
f 220/491/13 52/62/13 53/65/13 221/492/13
f 252/493/142 148/349/142 143/352/142 251/490/142
f 253/494/142 149/358/142 148/349/142 252/493/142
f 221/492/13 53/65/13 58/68/13 222/495/13
f 222/495/13 58/68/13 59/71/13 223/496/13
f 254/497/142 154/355/142 149/358/142 253/494/142
f 255/498/142 155/364/142 154/355/142 254/497/142
f 223/496/13 59/71/13 64/74/13 224/499/13
f 224/499/13 64/74/13 65/77/13 225/500/13
f 256/501/142 160/361/142 155/364/142 255/498/142
f 257/502/142 161/370/142 160/361/142 256/501/142
f 225/500/13 65/77/13 70/80/13 226/503/13
f 226/503/13 70/80/13 71/83/13 227/504/13
f 258/505/142 166/367/142 161/370/142 257/502/142
f 259/506/142 167/376/142 166/367/142 258/505/142
f 227/504/13 71/83/13 76/86/13 228/507/13
f 228/507/13 76/86/13 77/89/13 229/508/13
f 260/509/142 172/373/142 167/376/142 259/506/142
f 261/510/142 173/382/142 172/373/142 260/509/142
f 229/508/13 77/89/13 82/92/13 230/511/13
f 230/511/13 82/92/13 83/95/13 231/512/13
f 262/513/142 178/379/142 173/382/142 261/510/142
f 263/514/142 179/388/142 178/379/142 262/513/142
f 231/512/13 83/95/13 88/98/13 232/515/13
f 232/515/13 88/98/13 89/101/13 233/516/13
f 264/517/142 184/385/142 179/388/142 263/514/142
f 265/518/142 185/394/142 184/385/142 264/517/142
f 233/516/13 89/101/13 94/104/13 234/519/13
f 234/519/13 94/104/13 95/107/13 235/520/13
f 266/521/142 190/391/142 185/394/142 265/518/142
f 267/522/142 191/400/142 190/391/142 266/521/142
f 235/520/13 95/107/13 100/110/13 236/523/13
f 236/523/13 100/110/13 101/113/13 237/524/13
f 268/525/142 196/397/142 191/400/142 267/522/142
f 269/526/142 197/406/142 196/397/142 268/525/142
f 237/524/13 101/113/13 106/116/13 238/527/13
f 238/527/13 106/116/13 107/119/13 239/528/13
f 270/529/142 202/403/142 197/406/142 269/526/142
f 271/530/142 203/412/142 202/403/142 270/529/142
f 239/528/13 107/119/13 112/122/13 240/531/13
f 240/531/13 112/122/13 17/29/13 209/469/13
f 272/532/142 208/409/142 203/412/142 271/530/142
f 241/473/142 113/322/142 208/409/142 272/532/142
usemtl LaminaMetal.001
f 17/125/14 113/126/14 114/127/15 18/128/15
f 18/128/15 114/127/15 115/129/16 19/130/16
f 19/130/17 115/129/17 116/131/17 20/132/17
f 20/132/18 116/131/18 117/133/19 21/134/19
f 21/134/19 117/133/19 118/135/20 22/136/20
f 22/136/21 118/135/21 119/137/21 23/138/21
f 23/138/22 119/137/22 120/139/23 24/140/23
f 24/140/23 120/139/23 121/141/24 25/142/24
f 25/142/25 121/141/25 122/143/25 26/144/25
f 26/144/26 122/143/26 123/145/27 27/146/27
f 27/146/27 123/145/27 124/147/28 28/148/28
f 28/148/29 124/147/29 125/149/29 29/150/29
f 29/150/30 125/149/30 126/151/31 30/152/31
f 30/152/31 126/151/31 127/153/32 31/154/32
f 31/154/33 127/153/33 128/155/33 32/156/33
f 32/156/34 128/155/34 129/157/35 33/158/35
f 33/158/35 129/157/35 130/159/36 34/160/36
f 34/160/37 130/159/37 131/161/37 35/162/37
f 35/162/38 131/161/38 132/163/39 36/164/39
f 36/164/39 132/163/39 133/165/40 37/166/40
f 37/166/41 133/165/41 134/167/41 38/168/41
f 38/168/42 134/167/42 135/169/43 39/170/43
f 39/170/43 135/169/43 136/171/44 40/172/44
f 40/172/45 136/171/45 137/173/45 41/174/45
f 41/174/46 137/173/46 138/175/47 42/176/47
f 42/176/47 138/175/47 139/177/48 43/178/48
f 43/178/49 139/177/49 140/179/49 44/180/49
f 44/180/50 140/179/50 141/181/51 45/182/51
f 45/182/51 141/181/51 142/183/52 46/184/52
f 46/184/53 142/183/53 143/185/53 47/186/53
f 47/186/54 143/185/54 144/187/55 48/188/55
f 48/188/55 144/187/55 145/189/56 49/190/56
f 49/190/57 145/189/57 146/191/57 50/192/57
f 50/192/58 146/191/58 147/193/59 51/194/59
f 51/194/59 147/193/59 148/195/60 52/196/60
f 52/196/61 148/195/61 149/197/61 53/198/61
f 53/198/62 149/197/62 150/199/63 54/200/63
f 54/200/63 150/199/63 151/201/64 55/202/64
f 55/202/65 151/201/65 152/203/65 56/204/65
f 56/204/66 152/203/66 153/205/67 57/206/67
f 57/206/67 153/205/67 154/207/68 58/208/68
f 58/208/69 154/207/69 155/209/69 59/210/69
f 59/210/70 155/209/70 156/211/71 60/212/71
f 60/212/71 156/211/71 157/213/72 61/214/72
f 61/214/73 157/213/73 158/215/73 62/216/73
f 62/216/74 158/215/74 159/217/75 63/218/75
f 63/218/75 159/217/75 160/219/76 64/220/76
f 64/220/77 160/219/77 161/221/77 65/222/77
f 65/222/78 161/221/78 162/223/79 66/224/79
f 66/224/79 162/223/79 163/225/80 67/226/80
f 67/226/81 163/225/81 164/227/81 68/228/81
f 68/228/82 164/227/82 165/229/83 69/230/83
f 69/230/83 165/229/83 166/231/84 70/232/84
f 70/232/85 166/231/85 167/233/85 71/234/85
f 71/234/86 167/233/86 168/235/87 72/236/87
f 72/236/87 168/235/87 169/237/88 73/238/88
f 73/238/89 169/237/89 170/239/89 74/240/89
f 74/240/90 170/239/90 171/241/91 75/242/91
f 75/242/91 171/241/91 172/243/92 76/244/92
f 76/244/93 172/243/93 173/245/93 77/246/93
f 77/246/94 173/245/94 174/247/95 78/248/95
f 78/248/95 174/247/95 175/249/96 79/250/96
f 79/250/97 175/249/97 176/251/97 80/252/97
f 80/252/98 176/251/98 177/253/99 81/254/99
f 81/254/99 177/253/99 178/255/100 82/256/100
f 82/256/101 178/255/101 179/257/101 83/258/101
f 83/258/102 179/257/102 180/259/103 84/260/103
f 84/260/103 180/259/103 181/261/104 85/262/104
f 85/262/105 181/261/105 182/263/105 86/264/105
f 86/264/106 182/263/106 183/265/107 87/266/107
f 87/266/107 183/265/107 184/267/108 88/268/108
f 88/268/109 184/267/109 185/269/109 89/270/109
f 89/270/110 185/269/110 186/271/111 90/272/111
f 90/272/111 186/271/111 187/273/112 91/274/112
f 91/274/113 187/273/113 188/275/113 92/276/113
f 92/276/114 188/275/114 189/277/115 93/278/115
f 93/278/115 189/277/115 190/279/116 94/280/116
f 94/280/117 190/279/117 191/281/117 95/282/117
f 95/282/118 191/281/118 192/283/119 96/284/119
f 96/284/119 192/283/119 193/285/120 97/286/120
f 97/286/121 193/285/121 194/287/121 98/288/121
f 98/288/122 194/287/122 195/289/123 99/290/123
f 99/290/123 195/289/123 196/291/124 100/292/124
f 100/292/125 196/291/125 197/293/125 101/294/125
f 101/294/126 197/293/126 198/295/127 102/296/127
f 102/296/127 198/295/127 199/297/128 103/298/128
f 103/298/129 199/297/129 200/299/129 104/300/129
f 104/300/130 200/299/130 201/301/131 105/302/131
f 105/302/131 201/301/131 202/303/132 106/304/132
f 106/304/133 202/303/133 203/305/133 107/306/133
f 107/306/134 203/305/134 204/307/135 108/308/135
f 108/308/135 204/307/135 205/309/136 109/310/136
f 109/310/137 205/309/137 206/311/137 110/312/137
f 110/312/138 206/311/138 207/313/139 111/314/139
f 111/314/139 207/313/139 208/315/140 112/316/140
f 112/316/141 208/315/141 113/317/141 17/318/141
f 209/126/143 210/415/144 242/416/144 241/417/143
f 210/415/144 211/137/145 243/418/145 242/416/144
f 211/137/145 212/419/146 244/420/146 243/418/145
f 212/419/146 213/149/147 245/421/147 244/420/146
f 213/149/147 214/422/148 246/423/148 245/421/147
f 214/422/148 215/161/149 247/424/149 246/423/148
f 215/161/149 216/425/150 248/426/150 247/424/149
f 216/425/150 217/173/151 249/427/151 248/426/150
f 217/173/151 218/428/152 250/429/152 249/427/151
f 218/428/152 219/185/153 251/430/153 250/429/152
f 219/185/153 220/431/154 252/432/154 251/430/153
f 220/431/154 221/197/155 253/433/155 252/432/154
f 221/197/155 222/434/156 254/435/156 253/433/155
f 222/434/156 223/209/157 255/436/157 254/435/156
f 223/209/157 224/437/158 256/438/158 255/436/157
f 224/437/158 225/221/159 257/439/159 256/438/158
f 225/221/159 226/440/160 258/441/160 257/439/159
f 226/440/160 227/233/161 259/442/161 258/441/160
f 227/233/161 228/443/162 260/444/162 259/442/161
f 228/443/162 229/245/163 261/445/163 260/444/162
f 229/245/163 230/446/164 262/447/164 261/445/163
f 230/446/164 231/448/165 263/449/165 262/447/164
f 231/448/165 232/450/166 264/451/166 263/449/165
f 232/450/166 233/452/167 265/453/167 264/451/166
f 233/452/167 234/454/168 266/455/168 265/453/167
f 234/454/168 235/456/169 267/457/169 266/455/168
f 235/456/169 236/458/170 268/459/170 267/457/169
f 236/458/170 237/460/171 269/461/171 268/459/170
f 237/460/171 238/462/172 270/463/172 269/461/171
f 238/462/172 239/464/173 271/465/173 270/463/172
f 239/464/173 240/466/174 272/467/174 271/465/173
f 240/466/174 209/317/143 241/468/143 272/467/174
o pCube7
v -0.104321 0.195882 0.059212
v -0.104321 0.192574 0.059212
v -0.064561 0.195882 0.059212
v -0.064561 0.192574 0.059212
v -0.064561 0.195882 0.055904
v -0.064561 0.192574 0.055904
v -0.104321 0.195882 0.055904
v -0.104321 0.192574 0.055904
vn -0.0000 -0.0000 1.0000
vn 1.0000 -0.0000 -0.0000
vn -0.0000 -0.0000 -1.0000
vn -1.0000 -0.0000 -0.0000
vn -0.0000 -1.0000 -0.0000
vn -0.0000 1.0000 -0.0000
vt 0.375000 0.000000
vt 0.625000 0.000000
vt 0.625000 0.250000
vt 0.375000 0.250000
vt 0.625000 0.500000
vt 0.375000 0.500000
vt 0.625000 0.750000
vt 0.375000 0.750000
vt 0.625000 1.000000
vt 0.375000 1.000000
vt 0.875000 0.000000
vt 0.875000 0.250000
vt 0.125000 0.000000
vt 0.125000 0.250000
s 1
usemtl blinn7.001
f 273/533/175 274/534/175 276/535/175 275/536/175
f 275/536/176 276/535/176 278/537/176 277/538/176
f 277/538/177 278/537/177 280/539/177 279/540/177
f 279/540/178 280/539/178 274/541/178 273/542/178
f 274/534/179 280/543/179 278/544/179 276/535/179
f 279/545/180 273/533/180 275/536/180 277/546/180
o pCube6
v -0.106945 0.198909 0.059212
v -0.104606 0.196570 0.059212
v -0.078830 0.227023 0.059212
v -0.076492 0.224685 0.059212
v -0.078830 0.227023 0.055904
v -0.076492 0.224685 0.055904
v -0.106945 0.198909 0.055904
v -0.104606 0.196570 0.055904
vn -0.0000 -0.0000 1.0000
vn 0.7071 0.7071 -0.0000
vn -0.0000 -0.0000 -1.0000
vn -0.7071 -0.7071 -0.0000
vn 0.7071 -0.7071 -0.0000
vn -0.7071 0.7071 -0.0000
vt 0.375000 0.000000
vt 0.625000 0.000000
vt 0.625000 0.250000
vt 0.375000 0.250000
vt 0.625000 0.500000
vt 0.375000 0.500000
vt 0.625000 0.750000
vt 0.375000 0.750000
vt 0.625000 1.000000
vt 0.375000 1.000000
vt 0.875000 0.000000
vt 0.875000 0.250000
vt 0.125000 0.000000
vt 0.125000 0.250000
s 1
usemtl blinn7.001
f 281/547/181 282/548/181 284/549/181 283/550/181
f 283/550/182 284/549/182 286/551/182 285/552/182
f 285/552/183 286/551/183 288/553/183 287/554/183
f 287/554/184 288/553/184 282/555/184 281/556/184
f 282/548/185 288/557/185 286/558/185 284/549/185
f 287/559/186 281/547/186 283/550/186 285/560/186
o pCube10
v -0.111629 0.189547 0.059212
v -0.113968 0.191886 0.059212
v -0.139744 0.161432 0.059212
v -0.142083 0.163771 0.059212
v -0.139744 0.161432 0.055904
v -0.142083 0.163771 0.055904
v -0.111629 0.189547 0.055904
v -0.113968 0.191886 0.055904
vn -0.0000 -0.0000 1.0000
vn -0.7071 -0.7071 -0.0000
vn -0.0000 -0.0000 -1.0000
vn 0.7071 0.7071 -0.0000
vn -0.7071 0.7071 -0.0000
vn 0.7071 -0.7071 -0.0000
vt 0.375000 0.000000
vt 0.625000 0.000000
vt 0.625000 0.250000
vt 0.375000 0.250000
vt 0.625000 0.500000
vt 0.375000 0.500000
vt 0.625000 0.750000
vt 0.375000 0.750000
vt 0.625000 1.000000
vt 0.375000 1.000000
vt 0.875000 0.000000
vt 0.875000 0.250000
vt 0.125000 0.000000
vt 0.125000 0.250000
s 1
usemtl blinn7.001
f 289/561/187 290/562/187 292/563/187 291/564/187
f 291/564/188 292/563/188 294/565/188 293/566/188
f 293/566/189 294/565/189 296/567/189 295/568/189
f 295/568/190 296/567/190 290/569/190 289/570/190
f 290/562/191 296/571/191 294/572/191 292/563/191
f 295/573/192 289/561/192 291/564/192 293/574/192
o pCube8
v -0.104606 0.191886 0.059212
v -0.106945 0.189547 0.059212
v -0.076492 0.163771 0.059212
v -0.078830 0.161432 0.059212
v -0.076492 0.163771 0.055904
v -0.078830 0.161432 0.055904
v -0.104606 0.191886 0.055904
v -0.106945 0.189547 0.055904
vn -0.0000 -0.0000 1.0000
vn 0.7071 -0.7071 -0.0000
vn -0.0000 -0.0000 -1.0000
vn -0.7071 0.7071 -0.0000
vn -0.7071 -0.7071 -0.0000
vn 0.7071 0.7071 -0.0000
vt 0.375000 0.000000
vt 0.625000 0.000000
vt 0.625000 0.250000
vt 0.375000 0.250000
vt 0.625000 0.500000
vt 0.375000 0.500000
vt 0.625000 0.750000
vt 0.375000 0.750000
vt 0.625000 1.000000
vt 0.375000 1.000000
vt 0.875000 0.000000
vt 0.875000 0.250000
vt 0.125000 0.000000
vt 0.125000 0.250000
s 1
usemtl blinn7.001
f 297/575/193 298/576/193 300/577/193 299/578/193
f 299/578/194 300/577/194 302/579/194 301/580/194
f 301/580/195 302/579/195 304/581/195 303/582/195
f 303/582/196 304/581/196 298/583/196 297/584/196
f 298/576/197 304/585/197 302/586/197 300/577/197
f 303/587/198 297/575/198 299/578/198 301/588/198
o pCube11
v -0.114253 0.192574 0.059212
v -0.114253 0.195882 0.059212
v -0.154013 0.192574 0.059212
v -0.154013 0.195882 0.059212
v -0.154013 0.192574 0.055904
v -0.154013 0.195882 0.055904
v -0.114253 0.192574 0.055904
v -0.114253 0.195882 0.055904
vn -0.0000 -0.0000 1.0000
vn -1.0000 -0.0000 -0.0000
vn -0.0000 -0.0000 -1.0000
vn 1.0000 -0.0000 -0.0000
vn -0.0000 1.0000 -0.0000
vn -0.0000 -1.0000 -0.0000
vt 0.375000 0.000000
vt 0.625000 0.000000
vt 0.625000 0.250000
vt 0.375000 0.250000
vt 0.625000 0.500000
vt 0.375000 0.500000
vt 0.625000 0.750000
vt 0.375000 0.750000
vt 0.625000 1.000000
vt 0.375000 1.000000
vt 0.875000 0.000000
vt 0.875000 0.250000
vt 0.125000 0.000000
vt 0.125000 0.250000
s 1
usemtl blinn7.001
f 305/589/199 306/590/199 308/591/199 307/592/199
f 307/592/200 308/591/200 310/593/200 309/594/200
f 309/594/201 310/593/201 312/595/201 311/596/201
f 311/596/202 312/595/202 306/597/202 305/598/202
f 306/590/203 312/599/203 310/600/203 308/591/203
f 311/601/204 305/589/204 307/592/204 309/602/204
o pCube5
v -0.110941 0.199194 0.059212
v -0.107633 0.199194 0.059212
v -0.110941 0.238954 0.059212
v -0.107633 0.238954 0.059212
v -0.110941 0.238954 0.055904
v -0.107633 0.238954 0.055904
v -0.110941 0.199194 0.055904
v -0.107633 0.199194 0.055904
vn -0.0000 -0.0000 1.0000
vn -0.0000 1.0000 -0.0000
vn -0.0000 -0.0000 -1.0000
vn -0.0000 -1.0000 -0.0000
vn 1.0000 -0.0000 -0.0000
vn -1.0000 -0.0000 -0.0000
vt 0.375000 0.000000
vt 0.625000 0.000000
vt 0.625000 0.250000
vt 0.375000 0.250000
vt 0.625000 0.500000
vt 0.375000 0.500000
vt 0.625000 0.750000
vt 0.375000 0.750000
vt 0.625000 1.000000
vt 0.375000 1.000000
vt 0.875000 0.000000
vt 0.875000 0.250000
vt 0.125000 0.000000
vt 0.125000 0.250000
s 1
usemtl blinn7.001
f 313/603/205 314/604/205 316/605/205 315/606/205
f 315/606/206 316/605/206 318/607/206 317/608/206
f 317/608/207 318/607/207 320/609/207 319/610/207
f 319/610/208 320/609/208 314/611/208 313/612/208
f 314/604/209 320/613/209 318/614/209 316/605/209
f 319/615/210 313/603/210 315/606/210 317/616/210
