# Blender 5.0.1
# www.blender.org
mtllib Engranajeatras2.mtl
o pasted__pasted__pGear3
v -0.356077 0.207286 -0.032301
v -0.353102 0.204251 -0.032251
v -0.350127 0.201216 -0.032200
v -0.348366 0.201806 -0.032179
v -0.347818 0.206020 -0.032186
v -0.347270 0.210234 -0.032194
v -0.344700 0.212735 -0.032169
v -0.340472 0.213169 -0.032114
v -0.336245 0.213602 -0.032060
v -0.335607 0.215347 -0.032057
v -0.338560 0.218403 -0.032108
v -0.341514 0.221459 -0.032158
v -0.341867 0.225028 -0.032175
v -0.339570 0.228604 -0.032158
v -0.337273 0.232179 -0.032140
v -0.338240 0.233765 -0.032158
v -0.342470 0.233362 -0.032213
v -0.346701 0.232958 -0.032268
v -0.349711 0.234907 -0.032315
v -0.351075 0.238933 -0.032348
v -0.352438 0.242958 -0.032380
v -0.354281 0.243191 -0.032406
v -0.356603 0.239632 -0.032424
v -0.358925 0.236072 -0.032442
v -0.362326 0.234934 -0.032483
v -0.366323 0.236378 -0.032542
v -0.370320 0.237822 -0.032600
v -0.371651 0.236526 -0.032613
v -0.370317 0.232491 -0.032581
v -0.368982 0.228456 -0.032549
v -0.370212 0.225088 -0.032553
v -0.373833 0.222863 -0.032593
v -0.377454 0.220638 -0.032634
v -0.377271 0.218790 -0.032624
v -0.373284 0.217318 -0.032566
v -0.369297 0.215845 -0.032508
v -0.367431 0.212783 -0.032472
v -0.367949 0.208565 -0.032464
v -0.368467 0.204347 -0.032455
v -0.366908 0.203338 -0.032431
v -0.363271 0.205537 -0.032391
v -0.359635 0.207736 -0.032350
v -0.356068 0.207284 -0.040296
v -0.353093 0.204248 -0.040245
v -0.350118 0.201213 -0.040195
v -0.348357 0.201803 -0.040173
v -0.347809 0.206017 -0.040181
v -0.347261 0.210232 -0.040189
v -0.344691 0.212733 -0.040164
v -0.340463 0.213166 -0.040109
v -0.336235 0.213600 -0.040054
v -0.335598 0.215345 -0.040052
v -0.338551 0.218401 -0.040102
v -0.341504 0.221457 -0.040152
v -0.341858 0.225026 -0.040170
v -0.339561 0.228601 -0.040152
v -0.337264 0.232177 -0.040134
v -0.338230 0.233763 -0.040153
v -0.342461 0.233359 -0.040208
v -0.346692 0.232956 -0.040263
v -0.349702 0.234905 -0.040310
v -0.351065 0.238930 -0.040342
v -0.352429 0.242955 -0.040375
v -0.354271 0.243188 -0.040400
v -0.356594 0.239629 -0.040418
v -0.358916 0.236070 -0.040437
v -0.362317 0.234931 -0.040478
v -0.366314 0.236375 -0.040536
v -0.370311 0.237819 -0.040595
v -0.371642 0.236524 -0.040608
v -0.370307 0.232489 -0.040575
v -0.368972 0.228454 -0.040543
v -0.370203 0.225085 -0.040548
v -0.373824 0.222860 -0.040588
v -0.377445 0.220636 -0.040628
v -0.377262 0.218787 -0.040619
v -0.373275 0.217315 -0.040561
v -0.369288 0.215843 -0.040502
v -0.367422 0.212781 -0.040466
v -0.367940 0.208563 -0.040458
v -0.368458 0.204345 -0.040450
v -0.366899 0.203335 -0.040426
v -0.363262 0.205534 -0.040385
v -0.359625 0.207733 -0.040344
v -0.356046 0.221823 -0.032353
v -0.355736 0.218778 -0.040332
v -0.354445 0.219210 -0.040317
v -0.353470 0.220159 -0.040307
v -0.353003 0.221437 -0.040305
v -0.353137 0.222791 -0.040312
v -0.353846 0.223953 -0.040326
v -0.354988 0.224693 -0.040344
v -0.356338 0.224864 -0.040362
v -0.357629 0.224432 -0.040378
v -0.358604 0.223483 -0.040387
v -0.359071 0.222204 -0.040389
v -0.358937 0.220850 -0.040382
v -0.358228 0.219688 -0.040369
v -0.357086 0.218948 -0.040351
vn -0.0133 0.0036 0.9999
vn -0.7142 -0.7000 -0.0006
vn 0.3174 -0.9483 0.0007
vn 0.9917 -0.1290 0.0012
vn 0.9916 -0.1290 0.0012
vn 0.6974 -0.7166 0.0010
vn 0.1020 -0.9948 0.0004
vn 0.9393 -0.3431 0.0012
vn 0.7191 0.6949 0.0006
vn 0.9951 0.0985 0.0011
vn 0.8413 -0.5405 0.0011
vn 0.8539 0.5205 0.0008
vn -0.0949 0.9955 -0.0004
vn 0.5435 0.8394 0.0004
vn 0.9471 0.3208 0.0010
vn 0.1254 0.9921 -0.0002
vn -0.8375 0.5464 -0.0011
vn -0.3174 0.9483 -0.0007
vn 0.3397 0.9405 0.0001
vn -0.6974 0.7166 -0.0010
vn -0.9494 -0.3141 -0.0010
vn -0.9393 0.3431 -0.0012
vn -0.5235 0.8520 -0.0009
vn -0.9951 -0.0985 -0.0011
vn -0.3464 -0.9381 -0.0001
vn -0.8539 -0.5205 -0.0008
vn -0.9925 0.1219 -0.0012
vn -0.5435 -0.8394 -0.0004
vn 0.5175 -0.8557 0.0009
vn -0.1254 -0.9921 0.0002
vn 0.0133 -0.0036 -0.9999
vt 0.199380 0.599838
vt 0.219628 0.558172
vt 0.280372 0.558172
vt 0.300620 0.599838
vt 0.239876 0.516505
vt 0.260124 0.516505
vt 0.335840 0.616800
vt 0.381041 0.606651
vt 0.418914 0.654143
vt 0.398962 0.695952
vt 0.426241 0.596503
vt 0.438866 0.612334
vt 0.407661 0.734063
vt 0.443777 0.763075
vt 0.430260 0.822296
vt 0.385133 0.832765
vt 0.479893 0.792087
vt 0.475388 0.811828
vt 0.360759 0.863328
vt 0.360595 0.909653
vt 0.305867 0.936009
vt 0.269546 0.907254
vt 0.360431 0.955979
vt 0.342188 0.964764
vt 0.230454 0.907254
vt 0.194133 0.936009
vt 0.139405 0.909653
vt 0.139241 0.863328
vt 0.157812 0.964764
vt 0.139569 0.955979
vt 0.114867 0.832765
vt 0.069740 0.822296
vt 0.056223 0.763075
vt 0.092339 0.734063
vt 0.024612 0.811828
vt 0.020107 0.792087
vt 0.101038 0.695952
vt 0.081086 0.654143
vt 0.118959 0.606651
vt 0.164160 0.616800
vt 0.061134 0.612334
vt 0.073759 0.596503
vt 0.500000 1.000000
vt 0.500000 0.500000
vt 0.513526 0.500000
vt 0.513526 1.000000
vt 0.527052 0.500000
vt 0.527052 1.000000
vt 0.532963 0.500000
vt 0.532963 1.000000
vt 0.546489 0.500000
vt 0.546489 1.000000
vt 0.560015 0.500000
vt 0.560015 1.000000
vt 0.571429 0.500000
vt 0.571429 1.000000
vt 0.584954 0.500000
vt 0.584954 1.000000
vt 0.598480 0.500000
vt 0.598480 1.000000
vt 0.604392 0.500000
vt 0.604392 1.000000
vt 0.617918 0.500000
vt 0.617918 1.000000
vt 0.631444 0.500000
vt 0.631444 1.000000
vt 0.642857 0.500000
vt 0.642857 1.000000
vt 0.656383 0.500000
vt 0.656383 1.000000
vt 0.669909 0.500000
vt 0.669909 1.000000
vt 0.675821 0.500000
vt 0.675821 1.000000
vt 0.689346 0.500000
vt 0.689346 1.000000
vt 0.702872 0.500000
vt 0.702872 1.000000
vt 0.714286 0.500000
vt 0.714286 1.000000
vt 0.727812 0.500000
vt 0.727812 1.000000
vt 0.741337 0.500000
vt 0.741337 1.000000
vt 0.747249 0.500000
vt 0.747249 1.000000
vt 0.760775 0.500000
vt 0.760775 1.000000
vt 0.774301 0.500000
vt 0.774301 1.000000
vt 0.785714 0.500000
vt 0.785714 1.000000
vt 0.799240 0.500000
vt 0.799240 1.000000
vt 0.812766 0.500000
vt 0.812766 1.000000
vt 0.818678 0.500000
vt 0.818678 1.000000
vt 0.832204 0.500000
vt 0.832204 1.000000
vt 0.845729 0.500000
vt 0.845729 1.000000
vt 0.857143 0.500000
vt 0.857143 1.000000
vt 0.870669 0.500000
vt 0.870669 1.000000
vt 0.884194 0.500000
vt 0.884194 1.000000
vt 0.890106 0.500000
vt 0.890106 1.000000
vt 0.903632 0.500000
vt 0.903632 1.000000
vt 0.917158 0.500000
vt 0.917158 1.000000
vt 0.928571 0.500000
vt 0.928571 1.000000
vt 0.942097 0.500000
vt 0.942097 1.000000
vt 0.955623 0.500000
vt 0.955623 1.000000
vt 0.961535 0.500000
vt 0.961535 1.000000
vt 0.975061 0.500000
vt 0.975061 1.000000
vt 0.988586 0.500000
vt 0.988586 1.000000
vt 1.000000 0.500000
vt 1.000000 1.000000
vt 0.300620 0.400161
vt 0.280372 0.441828
vt 0.219628 0.441828
vt 0.199380 0.400161
vt 0.260124 0.483495
vt 0.239876 0.483495
vt 0.398962 0.304048
vt 0.418914 0.345857
vt 0.381041 0.393349
vt 0.335840 0.383200
vt 0.438866 0.387666
vt 0.426241 0.403497
vt 0.385133 0.167235
vt 0.430260 0.177704
vt 0.443777 0.236925
vt 0.407661 0.265937
vt 0.475388 0.188172
vt 0.479893 0.207913
vt 0.269546 0.092746
vt 0.305867 0.063991
vt 0.360595 0.090347
vt 0.360759 0.136672
vt 0.342188 0.035236
vt 0.360431 0.044021
vt 0.139241 0.136672
vt 0.139405 0.090347
vt 0.194133 0.063991
vt 0.230454 0.092746
vt 0.139569 0.044021
vt 0.157812 0.035236
vt 0.092339 0.265937
vt 0.056223 0.236925
vt 0.069740 0.177704
vt 0.114867 0.167235
vt 0.020107 0.207913
vt 0.024612 0.188172
vt 0.164160 0.383200
vt 0.118959 0.393349
vt 0.081086 0.345857
vt 0.101038 0.304048
vt 0.073759 0.403497
vt 0.061134 0.387666
vt 0.250000 0.750000
vt 0.257417 0.282498
vt 0.242583 0.282498
vt 0.270783 0.276061
vt 0.280032 0.264463
vt 0.283333 0.250000
vt 0.280032 0.235537
vt 0.270783 0.223939
vt 0.257417 0.217502
vt 0.242583 0.217502
vt 0.229217 0.223939
vt 0.219968 0.235537
vt 0.216667 0.250000
vt 0.219968 0.264463
vt 0.229217 0.276061
s 1
usemtl RojoOscuro.001
f 1/1/1 2/2/1 5/3/1 6/4/1
f 2/2/1 3/5/1 4/6/1 5/3/1
f 7/7/1 8/8/1 11/9/1 12/10/1
f 8/8/1 9/11/1 10/12/1 11/9/1
f 13/13/1 14/14/1 17/15/1 18/16/1
f 14/14/1 15/17/1 16/18/1 17/15/1
f 19/19/1 20/20/1 23/21/1 24/22/1
f 20/20/1 21/23/1 22/24/1 23/21/1
f 25/25/1 26/26/1 29/27/1 30/28/1
f 26/26/1 27/29/1 28/30/1 29/27/1
f 31/31/1 32/32/1 35/33/1 36/34/1
f 32/32/1 33/35/1 34/36/1 35/33/1
f 37/37/1 38/38/1 41/39/1 42/40/1
f 38/38/1 39/41/1 40/42/1 41/39/1
f 48/129/31 47/130/31 44/131/31 43/132/31
f 47/130/31 46/133/31 45/134/31 44/131/31
f 54/135/31 53/136/31 50/137/31 49/138/31
f 53/136/31 52/139/31 51/140/31 50/137/31
f 60/141/31 59/142/31 56/143/31 55/144/31
f 59/142/31 58/145/31 57/146/31 56/143/31
f 66/147/31 65/148/31 62/149/31 61/150/31
f 65/148/31 64/151/31 63/152/31 62/149/31
f 72/153/31 71/154/31 68/155/31 67/156/31
f 71/154/31 70/157/31 69/158/31 68/155/31
f 78/159/31 77/160/31 74/161/31 73/162/31
f 77/160/31 76/163/31 75/164/31 74/161/31
f 84/165/31 83/166/31 80/167/31 79/168/31
f 83/166/31 82/169/31 81/170/31 80/167/31
f 85/171/1 1/1/1 6/4/1
f 85/171/1 6/4/1 7/7/1
f 87/172/31 48/129/31 43/132/31 86/173/31
f 88/174/31 49/138/31 48/129/31 87/172/31
f 85/171/1 7/7/1 12/10/1
f 85/171/1 12/10/1 13/13/1
f 89/175/31 54/135/31 49/138/31 88/174/31
f 90/176/31 55/144/31 54/135/31 89/175/31
f 85/171/1 13/13/1 18/16/1
f 85/171/1 18/16/1 19/19/1
f 91/177/31 60/141/31 55/144/31 90/176/31
f 92/178/31 61/150/31 60/141/31 91/177/31
f 85/171/1 19/19/1 24/22/1
f 85/171/1 24/22/1 25/25/1
f 93/179/31 66/147/31 61/150/31 92/178/31
f 94/180/31 67/156/31 66/147/31 93/179/31
f 85/171/1 25/25/1 30/28/1
f 85/171/1 30/28/1 31/31/1
f 95/181/31 72/153/31 67/156/31 94/180/31
f 96/182/31 73/162/31 72/153/31 95/181/31
f 85/171/1 31/31/1 36/34/1
f 85/171/1 36/34/1 37/37/1
f 97/183/31 78/159/31 73/162/31 96/182/31
f 98/184/31 79/168/31 78/159/31 97/183/31
f 85/171/1 37/37/1 42/40/1
f 85/171/1 42/40/1 1/1/1
f 99/185/31 84/165/31 79/168/31 98/184/31
f 86/173/31 43/132/31 84/165/31 99/185/31
f 86/173/31 99/185/31 98/184/31 97/183/31 96/182/31 95/181/31 94/180/31 93/179/31 92/178/31 91/177/31 90/176/31 89/175/31 88/174/31 87/172/31
usemtl LaminaMetal.001
f 1/43/2 43/44/2 44/45/2 2/46/2
f 2/46/2 44/45/2 45/47/2 3/48/2
f 3/48/3 45/47/3 46/49/3 4/50/3
f 4/50/4 46/49/4 47/51/5 5/52/5
f 5/52/5 47/51/5 48/53/5 6/54/5
f 6/54/6 48/53/6 49/55/6 7/56/6
f 7/56/7 49/55/7 50/57/7 8/58/7
f 8/58/7 50/57/7 51/59/7 9/60/7
f 9/60/8 51/59/8 52/61/8 10/62/8
f 10/62/9 52/61/9 53/63/9 11/64/9
f 11/64/9 53/63/9 54/65/9 12/66/9
f 12/66/10 54/65/10 55/67/10 13/68/10
f 13/68/11 55/67/11 56/69/11 14/70/11
f 14/70/11 56/69/11 57/71/11 15/72/11
f 15/72/12 57/71/12 58/73/12 16/74/12
f 16/74/13 58/73/13 59/75/13 17/76/13
f 17/76/13 59/75/13 60/77/13 18/78/13
f 18/78/14 60/77/14 61/79/14 19/80/14
f 19/80/15 61/79/15 62/81/15 20/82/15
f 20/82/15 62/81/15 63/83/15 21/84/15
f 21/84/16 63/83/16 64/85/16 22/86/16
f 22/86/17 64/85/17 65/87/17 23/88/17
f 23/88/17 65/87/17 66/89/17 24/90/17
f 24/90/18 66/89/18 67/91/18 25/92/18
f 25/92/19 67/91/19 68/93/19 26/94/19
f 26/94/19 68/93/19 69/95/19 27/96/19
f 27/96/20 69/95/20 70/97/20 28/98/20
f 28/98/21 70/97/21 71/99/21 29/100/21
f 29/100/21 71/99/21 72/101/21 30/102/21
f 30/102/22 72/101/22 73/103/22 31/104/22
f 31/104/23 73/103/23 74/105/23 32/106/23
f 32/106/23 74/105/23 75/107/23 33/108/23
f 33/108/24 75/107/24 76/109/24 34/110/24
f 34/110/25 76/109/25 77/111/25 35/112/25
f 35/112/25 77/111/25 78/113/25 36/114/25
f 36/114/26 78/113/26 79/115/26 37/116/26
f 37/116/27 79/115/27 80/117/27 38/118/27
f 38/118/27 80/117/27 81/119/27 39/120/27
f 39/120/28 81/119/28 82/121/28 40/122/28
f 40/122/29 82/121/29 83/123/29 41/124/29
f 41/124/29 83/123/29 84/125/29 42/126/29
f 42/126/30 84/125/30 43/127/30 1/128/30
