# Blender 5.0.1
# www.blender.org
mtllib Engranajeadicional1.mtl
o pasted__pasted__pGear2.002
v -0.306836 0.129238 0.058655
v -0.306996 0.127598 0.058661
v -0.307155 0.125958 0.058667
v -0.305103 0.125758 0.058713
v -0.304943 0.127398 0.058707
v -0.304783 0.129038 0.058701
v -0.301733 0.129221 0.058767
v -0.301379 0.127611 0.058784
v -0.301024 0.126002 0.058802
v -0.299010 0.126446 0.058843
v -0.299365 0.128056 0.058826
v -0.299720 0.129665 0.058808
v -0.296876 0.130781 0.058864
v -0.296041 0.129360 0.058891
v -0.295206 0.127940 0.058918
v -0.293428 0.128984 0.058951
v -0.294263 0.130405 0.058924
v -0.295098 0.131826 0.058897
v -0.292738 0.133767 0.058938
v -0.291505 0.132673 0.058971
v -0.290272 0.131580 0.059005
v -0.288904 0.133123 0.059026
v -0.290137 0.134216 0.058992
v -0.291370 0.135310 0.058958
v -0.289725 0.137884 0.058979
v -0.288215 0.137226 0.059016
v -0.286704 0.136567 0.059053
v -0.285880 0.138457 0.059060
v -0.287390 0.139116 0.059023
v -0.288900 0.139775 0.058986
v -0.288132 0.142732 0.058986
v -0.286492 0.142572 0.059023
v -0.284852 0.142412 0.059060
v -0.284652 0.144465 0.059052
v -0.286292 0.144624 0.059015
v -0.287932 0.144784 0.058978
v -0.288115 0.147834 0.058956
v -0.286506 0.148189 0.058989
v -0.284897 0.148544 0.059022
v -0.285341 0.150558 0.059001
v -0.286950 0.150203 0.058967
v -0.288559 0.149848 0.058934
v -0.289676 0.152692 0.058893
v -0.288255 0.153527 0.058919
v -0.286834 0.154361 0.058945
v -0.287879 0.156139 0.058912
v -0.289299 0.155305 0.058886
v -0.290720 0.154470 0.058859
v -0.292661 0.156830 0.058803
v -0.291568 0.158063 0.058820
v -0.290474 0.159296 0.058836
v -0.292017 0.160664 0.058794
v -0.293111 0.159431 0.058778
v -0.294204 0.158198 0.058761
v -0.296779 0.159843 0.058695
v -0.296120 0.161353 0.058700
v -0.295461 0.162863 0.058706
v -0.297351 0.163688 0.058659
v -0.298010 0.162177 0.058654
v -0.298669 0.160667 0.058648
v -0.301626 0.161435 0.058579
v -0.301466 0.163076 0.058573
v -0.301306 0.164716 0.058566
v -0.303359 0.164916 0.058520
v -0.303519 0.163276 0.058526
v -0.303679 0.161635 0.058533
v -0.306728 0.161452 0.058467
v -0.307083 0.163062 0.058449
v -0.307438 0.164671 0.058432
v -0.309452 0.164227 0.058390
v -0.309097 0.162618 0.058408
v -0.308742 0.161008 0.058425
v -0.311586 0.159892 0.058369
v -0.312421 0.161313 0.058343
v -0.313256 0.162733 0.058316
v -0.315034 0.161689 0.058283
v -0.314199 0.160268 0.058310
v -0.313364 0.158847 0.058336
v -0.315724 0.156907 0.058296
v -0.316957 0.158000 0.058263
v -0.318190 0.159093 0.058229
v -0.319558 0.157550 0.058208
v -0.318325 0.156457 0.058242
v -0.317092 0.155364 0.058275
v -0.318737 0.152789 0.058254
v -0.320247 0.153447 0.058217
v -0.321758 0.154106 0.058180
v -0.322582 0.152216 0.058173
v -0.321072 0.151557 0.058210
v -0.319561 0.150898 0.058247
v -0.320330 0.147941 0.058248
v -0.321970 0.148101 0.058211
v -0.323610 0.148261 0.058174
v -0.323810 0.146208 0.058182
v -0.322170 0.146049 0.058219
v -0.320530 0.145889 0.058256
v -0.320347 0.142839 0.058278
v -0.321956 0.142484 0.058245
v -0.323565 0.142129 0.058211
v -0.323121 0.140115 0.058233
v -0.321512 0.140470 0.058266
v -0.319903 0.140825 0.058299
v -0.318786 0.137981 0.058341
v -0.320207 0.137146 0.058314
v -0.321628 0.136312 0.058288
v -0.320583 0.134534 0.058322
v -0.319162 0.135368 0.058348
v -0.317741 0.136203 0.058374
v -0.315801 0.133843 0.058431
v -0.316894 0.132610 0.058414
v -0.317987 0.131377 0.058397
v -0.316444 0.130009 0.058439
v -0.315351 0.131242 0.058456
v -0.314258 0.132475 0.058473
v -0.311683 0.130831 0.058539
v -0.312342 0.129320 0.058533
v -0.313001 0.127810 0.058528
v -0.311110 0.126985 0.058574
v -0.310452 0.128496 0.058580
v -0.309793 0.130006 0.058585
v -0.306830 0.129236 0.050660
v -0.306990 0.127596 0.050666
v -0.307150 0.125956 0.050673
v -0.305097 0.125756 0.050719
v -0.304937 0.127396 0.050713
v -0.304778 0.129036 0.050707
v -0.301728 0.129219 0.050772
v -0.301373 0.127610 0.050790
v -0.301018 0.126001 0.050807
v -0.299004 0.126445 0.050849
v -0.299359 0.128054 0.050831
v -0.299714 0.129663 0.050814
v -0.296870 0.130780 0.050870
v -0.296035 0.129359 0.050897
v -0.295201 0.127938 0.050923
v -0.293422 0.128983 0.050956
v -0.294257 0.130404 0.050929
v -0.295092 0.131824 0.050903
v -0.292732 0.133765 0.050943
v -0.291499 0.132672 0.050977
v -0.290266 0.131578 0.051010
v -0.288898 0.133121 0.051031
v -0.290131 0.134215 0.050997
v -0.291364 0.135308 0.050964
v -0.289719 0.137883 0.050985
v -0.288209 0.137224 0.051022
v -0.286699 0.136565 0.051059
v -0.285874 0.138456 0.051066
v -0.287384 0.139114 0.051029
v -0.288895 0.139773 0.050992
v -0.288126 0.142730 0.050991
v -0.286486 0.142570 0.051028
v -0.284846 0.142411 0.051065
v -0.284646 0.144463 0.051057
v -0.286286 0.144623 0.051020
v -0.287926 0.144783 0.050983
v -0.288110 0.147833 0.050961
v -0.286500 0.148187 0.050995
v -0.284891 0.148542 0.051028
v -0.285335 0.150556 0.051006
v -0.286944 0.150201 0.050973
v -0.288554 0.149846 0.050940
v -0.289670 0.152690 0.050898
v -0.288249 0.153525 0.050925
v -0.286828 0.154360 0.050951
v -0.287873 0.156138 0.050917
v -0.289294 0.155303 0.050891
v -0.290715 0.154469 0.050865
v -0.292655 0.156828 0.050808
v -0.291562 0.158061 0.050825
v -0.290469 0.159294 0.050842
v -0.292012 0.160662 0.050800
v -0.293105 0.159429 0.050783
v -0.294198 0.158197 0.050766
v -0.296773 0.159841 0.050700
v -0.296114 0.161351 0.050706
v -0.295456 0.162862 0.050711
v -0.297346 0.163686 0.050665
v -0.298005 0.162176 0.050659
v -0.298663 0.160666 0.050654
v -0.301620 0.161434 0.050584
v -0.301461 0.163074 0.050578
v -0.301301 0.164714 0.050572
v -0.303353 0.164914 0.050526
v -0.303513 0.163274 0.050532
v -0.303673 0.161634 0.050538
v -0.306723 0.161451 0.050472
v -0.307078 0.163060 0.050455
v -0.307432 0.164669 0.050438
v -0.309446 0.164225 0.050396
v -0.309091 0.162616 0.050413
v -0.308737 0.161007 0.050431
v -0.311581 0.159890 0.050375
v -0.312415 0.161311 0.050348
v -0.313250 0.162732 0.050321
v -0.315028 0.161687 0.050288
v -0.314193 0.160267 0.050315
v -0.313359 0.158846 0.050342
v -0.315718 0.156905 0.050302
v -0.316951 0.157998 0.050268
v -0.318184 0.159092 0.050234
v -0.319552 0.157549 0.050214
v -0.318319 0.156455 0.050247
v -0.317087 0.155362 0.050281
v -0.318731 0.152787 0.050260
v -0.320242 0.153446 0.050223
v -0.321752 0.154105 0.050186
v -0.322576 0.152214 0.050179
v -0.321066 0.151556 0.050216
v -0.319556 0.150897 0.050253
v -0.320324 0.147940 0.050253
v -0.321964 0.148100 0.050216
v -0.323604 0.148259 0.050180
v -0.323804 0.146207 0.050187
v -0.322164 0.146047 0.050224
v -0.320524 0.145887 0.050261
v -0.320341 0.142837 0.050283
v -0.321950 0.142483 0.050250
v -0.323559 0.142128 0.050217
v -0.323115 0.140114 0.050238
v -0.321506 0.140469 0.050272
v -0.319897 0.140824 0.050305
v -0.318780 0.137980 0.050346
v -0.320201 0.137145 0.050320
v -0.321622 0.136310 0.050294
v -0.320577 0.134532 0.050327
v -0.319157 0.135367 0.050353
v -0.317736 0.136202 0.050380
v -0.315795 0.133842 0.050436
v -0.316889 0.132609 0.050420
v -0.317982 0.131376 0.050403
v -0.316439 0.130008 0.050445
v -0.315346 0.131241 0.050461
v -0.314252 0.132474 0.050478
v -0.311677 0.130829 0.050544
v -0.312336 0.129319 0.050539
v -0.312995 0.127808 0.050533
v -0.311105 0.126984 0.050580
v -0.310446 0.128494 0.050585
v -0.309787 0.130005 0.050591
v -0.305671 0.137224 0.058633
v -0.304384 0.137099 0.058662
v -0.303094 0.137176 0.058690
v -0.301831 0.137455 0.058716
v -0.300628 0.137927 0.058740
v -0.299513 0.138582 0.058760
v -0.298514 0.139403 0.058777
v -0.297656 0.140371 0.058790
v -0.296961 0.141460 0.058799
v -0.296444 0.142645 0.058804
v -0.296118 0.143897 0.058803
v -0.295993 0.145183 0.058799
v -0.296071 0.146474 0.058789
v -0.296349 0.147736 0.058776
v -0.296821 0.148940 0.058758
v -0.297476 0.150055 0.058737
v -0.298298 0.151053 0.058713
v -0.299265 0.151911 0.058687
v -0.300354 0.152607 0.058659
v -0.301540 0.153124 0.058630
v -0.302791 0.153449 0.058600
v -0.304078 0.153574 0.058571
v -0.305368 0.153497 0.058544
v -0.306631 0.153219 0.058517
v -0.307834 0.152746 0.058494
v -0.308949 0.152091 0.058473
v -0.309947 0.151270 0.058456
v -0.310805 0.150303 0.058443
v -0.311501 0.149213 0.058434
v -0.312018 0.148028 0.058430
v -0.312343 0.146777 0.058430
v -0.312469 0.145490 0.058435
v -0.312391 0.144199 0.058444
v -0.312113 0.142937 0.058458
v -0.311640 0.141733 0.058475
v -0.310985 0.140618 0.058496
v -0.310164 0.139620 0.058520
v -0.309197 0.138762 0.058547
v -0.308107 0.138066 0.058575
v -0.306922 0.137549 0.058604
v -0.305665 0.137223 0.050639
v -0.304379 0.137097 0.050668
v -0.303088 0.137175 0.050696
v -0.301825 0.137453 0.050722
v -0.300622 0.137926 0.050745
v -0.299507 0.138580 0.050766
v -0.298509 0.139402 0.050783
v -0.297651 0.140369 0.050796
v -0.296955 0.141459 0.050805
v -0.296438 0.142644 0.050809
v -0.296113 0.143895 0.050809
v -0.295987 0.145182 0.050804
v -0.296065 0.146472 0.050795
v -0.296343 0.147735 0.050781
v -0.296816 0.148938 0.050764
v -0.297471 0.150053 0.050743
v -0.298292 0.151052 0.050719
v -0.299259 0.151910 0.050692
v -0.300349 0.152605 0.050664
v -0.301534 0.153122 0.050635
v -0.302785 0.153447 0.050606
v -0.304072 0.153573 0.050577
v -0.305363 0.153495 0.050549
v -0.306625 0.153217 0.050523
v -0.307829 0.152745 0.050499
v -0.308943 0.152090 0.050479
v -0.309942 0.151268 0.050462
v -0.310800 0.150301 0.050449
v -0.311496 0.149211 0.050440
v -0.312012 0.148026 0.050435
v -0.312338 0.146775 0.050436
v -0.312463 0.145488 0.050441
v -0.312386 0.144198 0.050450
v -0.312107 0.142935 0.050463
v -0.311635 0.141732 0.050481
v -0.310980 0.140617 0.050502
v -0.310159 0.139618 0.050526
v -0.309191 0.138761 0.050552
v -0.308102 0.138065 0.050580
v -0.306917 0.137548 0.050609
vn -0.0219 0.0059 0.9997
vn -0.9953 0.0970 -0.0007
vn -0.0970 -0.9953 0.0001
vn 0.9953 -0.0970 0.0007
vn 0.0599 -0.9982 0.0002
vn -0.9765 -0.2153 -0.0006
vn 0.2153 -0.9765 0.0003
vn 0.9765 0.2153 0.0006
vn 0.3654 -0.9308 0.0004
vn -0.8622 -0.5066 -0.0005
vn 0.5065 -0.8622 0.0005
vn 0.8622 0.5066 0.0005
vn 0.6352 -0.7724 0.0006
vn -0.6635 -0.7482 -0.0003
vn 0.7482 -0.6635 0.0007
vn 0.6635 0.7482 0.0003
vn 0.8428 -0.5383 0.0007
vn -0.3998 -0.9166 -0.0001
vn 0.9166 -0.3998 0.0007
vn 0.3998 0.9166 0.0001
vn 0.9679 -0.2515 0.0007
vn 0.0970 0.9953 -0.0001
vn 0.9982 0.0599 0.0007
vn -0.2153 0.9765 -0.0003
vn 0.9308 0.3654 0.0006
vn -0.5065 0.8622 -0.0005
vn 0.7724 0.6352 0.0004
vn -0.7482 0.6635 -0.0007
vn 0.5383 0.8428 0.0002
vn -0.9166 0.3998 -0.0007
vn 0.2515 0.9679 -0.0000
vn -0.0599 0.9982 -0.0002
vn -0.3654 0.9308 -0.0004
vn -0.6352 0.7724 -0.0006
vn -0.8428 0.5383 -0.0007
vn -0.9679 0.2515 -0.0007
vn -0.9982 -0.0599 -0.0007
vn -0.9308 -0.3654 -0.0006
vn -0.7724 -0.6352 -0.0004
vn -0.5383 -0.8428 -0.0002
vn -0.2515 -0.9679 -0.0000
vn 0.0219 -0.0059 -0.9997
vn 0.1748 0.9846 -0.0001
vn 0.0186 0.9998 -0.0002
vn -0.1380 0.9904 -0.0003
vn -0.2913 0.9566 -0.0004
vn -0.4373 0.8993 -0.0005
vn -0.5726 0.8198 -0.0006
vn -0.6938 0.7201 -0.0006
vn -0.7979 0.6027 -0.0007
vn -0.8824 0.4705 -0.0007
vn -0.9451 0.3267 -0.0007
vn -0.9846 0.1748 -0.0007
vn -0.9998 0.0186 -0.0007
vn -0.9904 -0.1380 -0.0007
vn -0.9566 -0.2913 -0.0006
vn -0.8993 -0.4373 -0.0005
vn -0.8198 -0.5726 -0.0005
vn -0.7201 -0.6938 -0.0004
vn -0.6027 -0.7979 -0.0003
vn -0.4705 -0.8824 -0.0002
vn -0.3267 -0.9451 -0.0001
vn -0.1748 -0.9846 0.0001
vn -0.0186 -0.9998 0.0002
vn 0.1380 -0.9904 0.0003
vn 0.2913 -0.9566 0.0004
vn 0.4373 -0.8993 0.0005
vn 0.5726 -0.8198 0.0006
vn 0.6938 -0.7201 0.0006
vn 0.7979 -0.6027 0.0007
vn 0.8824 -0.4705 0.0007
vn 0.9451 -0.3267 0.0007
vn 0.9846 -0.1748 0.0007
vn 0.9998 -0.0186 0.0007
vn 0.9904 0.1380 0.0007
vn 0.9566 0.2913 0.0006
vn 0.8993 0.4373 0.0005
vn 0.8198 0.5726 0.0005
vn 0.7201 0.6938 0.0004
vn 0.6027 0.7979 0.0003
vn 0.4705 0.8824 0.0002
vn 0.3267 0.9451 0.0001
vt 0.236964 0.544232
vt 0.236964 0.523398
vt 0.263036 0.523398
vt 0.263036 0.544232
vt 0.236964 0.502565
vt 0.263036 0.502565
vt 0.301188 0.550274
vt 0.307626 0.530461
vt 0.332422 0.538517
vt 0.325984 0.558331
vt 0.314063 0.510647
vt 0.338860 0.518704
vt 0.360401 0.575867
vt 0.372647 0.559013
vt 0.393740 0.574338
vt 0.381494 0.591192
vt 0.384892 0.542158
vt 0.405985 0.557483
vt 0.408808 0.618506
vt 0.425662 0.606260
vt 0.440987 0.627353
vt 0.424133 0.639599
vt 0.442517 0.594015
vt 0.457842 0.615108
vt 0.441669 0.674016
vt 0.461483 0.667578
vt 0.469539 0.692374
vt 0.449726 0.698812
vt 0.481296 0.661140
vt 0.489353 0.685937
vt 0.455768 0.736964
vt 0.476602 0.736964
vt 0.476602 0.763036
vt 0.455768 0.763036
vt 0.497435 0.736964
vt 0.497435 0.763036
vt 0.449726 0.801188
vt 0.469539 0.807626
vt 0.461483 0.832422
vt 0.441669 0.825984
vt 0.489353 0.814063
vt 0.481296 0.838860
vt 0.424133 0.860401
vt 0.440987 0.872647
vt 0.425662 0.893740
vt 0.408808 0.881494
vt 0.457842 0.884892
vt 0.442517 0.905985
vt 0.381494 0.908808
vt 0.393740 0.925662
vt 0.372647 0.940987
vt 0.360401 0.924133
vt 0.405985 0.942517
vt 0.384892 0.957842
vt 0.325984 0.941669
vt 0.332422 0.961483
vt 0.307626 0.969539
vt 0.301188 0.949726
vt 0.338860 0.981296
vt 0.314063 0.989353
vt 0.263036 0.955768
vt 0.263036 0.976602
vt 0.236964 0.976602
vt 0.236964 0.955768
vt 0.263036 0.997435
vt 0.236964 0.997435
vt 0.198812 0.949726
vt 0.192374 0.969539
vt 0.167578 0.961483
vt 0.174016 0.941669
vt 0.185937 0.989353
vt 0.161140 0.981296
vt 0.139599 0.924133
vt 0.127353 0.940987
vt 0.106260 0.925662
vt 0.118506 0.908808
vt 0.115108 0.957842
vt 0.094015 0.942517
vt 0.091192 0.881494
vt 0.074338 0.893740
vt 0.059013 0.872647
vt 0.075867 0.860401
vt 0.057483 0.905985
vt 0.042158 0.884892
vt 0.058331 0.825984
vt 0.038517 0.832422
vt 0.030461 0.807626
vt 0.050274 0.801188
vt 0.018704 0.838860
vt 0.010647 0.814063
vt 0.044232 0.763036
vt 0.023398 0.763036
vt 0.023398 0.736964
vt 0.044232 0.736964
vt 0.002565 0.763036
vt 0.002565 0.736964
vt 0.050274 0.698812
vt 0.030461 0.692374
vt 0.038517 0.667578
vt 0.058331 0.674016
vt 0.010647 0.685936
vt 0.018704 0.661140
vt 0.075867 0.639599
vt 0.059013 0.627353
vt 0.074338 0.606260
vt 0.091192 0.618506
vt 0.042158 0.615108
vt 0.057483 0.594015
vt 0.118506 0.591192
vt 0.106260 0.574338
vt 0.127353 0.559013
vt 0.139599 0.575867
vt 0.094015 0.557483
vt 0.115108 0.542158
vt 0.174016 0.558331
vt 0.167578 0.538517
vt 0.192374 0.530461
vt 0.198812 0.550274
vt 0.161140 0.518704
vt 0.185937 0.510647
vt 0.500000 1.000000
vt 0.500000 0.500000
vt 0.503518 0.500000
vt 0.503518 1.000000
vt 0.507037 0.500000
vt 0.507037 1.000000
vt 0.511440 0.500000
vt 0.511440 1.000000
vt 0.514958 0.500000
vt 0.514958 1.000000
vt 0.518477 0.500000
vt 0.518477 1.000000
vt 0.525000 0.500000
vt 0.525000 1.000000
vt 0.528518 0.500000
vt 0.528518 1.000000
vt 0.532037 0.500000
vt 0.532037 1.000000
vt 0.536440 0.500000
vt 0.536440 1.000000
vt 0.539958 0.500000
vt 0.539958 1.000000
vt 0.543477 0.500000
vt 0.543477 1.000000
vt 0.550000 0.500000
vt 0.550000 1.000000
vt 0.553518 0.500000
vt 0.553518 1.000000
vt 0.557037 0.500000
vt 0.557037 1.000000
vt 0.561440 0.500000
vt 0.561440 1.000000
vt 0.564958 0.500000
vt 0.564958 1.000000
vt 0.568477 0.500000
vt 0.568477 1.000000
vt 0.575000 0.500000
vt 0.575000 1.000000
vt 0.578518 0.500000
vt 0.578518 1.000000
vt 0.582037 0.500000
vt 0.582037 1.000000
vt 0.586440 0.500000
vt 0.586440 1.000000
vt 0.589958 0.500000
vt 0.589958 1.000000
vt 0.593477 0.500000
vt 0.593477 1.000000
vt 0.600000 0.500000
vt 0.600000 1.000000
vt 0.603518 0.500000
vt 0.603518 1.000000
vt 0.607037 0.500000
vt 0.607037 1.000000
vt 0.611440 0.500000
vt 0.611440 1.000000
vt 0.614958 0.500000
vt 0.614958 1.000000
vt 0.618477 0.500000
vt 0.618477 1.000000
vt 0.625000 0.500000
vt 0.625000 1.000000
vt 0.628518 0.500000
vt 0.628518 1.000000
vt 0.632037 0.500000
vt 0.632037 1.000000
vt 0.636440 0.500000
vt 0.636440 1.000000
vt 0.639958 0.500000
vt 0.639958 1.000000
vt 0.643477 0.500000
vt 0.643477 1.000000
vt 0.650000 0.500000
vt 0.650000 1.000000
vt 0.653518 0.500000
vt 0.653518 1.000000
vt 0.657037 0.500000
vt 0.657037 1.000000
vt 0.661440 0.500000
vt 0.661440 1.000000
vt 0.664958 0.500000
vt 0.664958 1.000000
vt 0.668477 0.500000
vt 0.668477 1.000000
vt 0.675000 0.500000
vt 0.675000 1.000000
vt 0.678518 0.500000
vt 0.678518 1.000000
vt 0.682037 0.500000
vt 0.682037 1.000000
vt 0.686440 0.500000
vt 0.686440 1.000000
vt 0.689958 0.500000
vt 0.689958 1.000000
vt 0.693477 0.500000
vt 0.693477 1.000000
vt 0.700000 0.500000
vt 0.700000 1.000000
vt 0.703518 0.500000
vt 0.703518 1.000000
vt 0.707037 0.500000
vt 0.707037 1.000000
vt 0.711440 0.500000
vt 0.711440 1.000000
vt 0.714958 0.500000
vt 0.714958 1.000000
vt 0.718477 0.500000
vt 0.718477 1.000000
vt 0.725000 0.500000
vt 0.725000 1.000000
vt 0.728518 0.500000
vt 0.728518 1.000000
vt 0.732037 0.500000
vt 0.732037 1.000000
vt 0.736440 0.500000
vt 0.736440 1.000000
vt 0.739958 0.500000
vt 0.739958 1.000000
vt 0.743477 0.500000
vt 0.743477 1.000000
vt 0.750000 0.500000
vt 0.750000 1.000000
vt 0.753518 0.500000
vt 0.753518 1.000000
vt 0.757037 0.500000
vt 0.757037 1.000000
vt 0.761440 0.500000
vt 0.761440 1.000000
vt 0.764958 0.500000
vt 0.764958 1.000000
vt 0.768476 0.500000
vt 0.768476 1.000000
vt 0.775000 0.500000
vt 0.775000 1.000000
vt 0.778518 0.500000
vt 0.778518 1.000000
vt 0.782037 0.500000
vt 0.782037 1.000000
vt 0.786440 0.500000
vt 0.786440 1.000000
vt 0.789958 0.500000
vt 0.789958 1.000000
vt 0.793477 0.500000
vt 0.793477 1.000000
vt 0.800000 0.500000
vt 0.800000 1.000000
vt 0.803518 0.500000
vt 0.803518 1.000000
vt 0.807037 0.500000
vt 0.807037 1.000000
vt 0.811440 0.500000
vt 0.811440 1.000000
vt 0.814958 0.500000
vt 0.814958 1.000000
vt 0.818477 0.500000
vt 0.818477 1.000000
vt 0.825000 0.500000
vt 0.825000 1.000000
vt 0.828518 0.500000
vt 0.828518 1.000000
vt 0.832037 0.500000
vt 0.832037 1.000000
vt 0.836440 0.500000
vt 0.836440 1.000000
vt 0.839958 0.500000
vt 0.839958 1.000000
vt 0.843477 0.500000
vt 0.843477 1.000000
vt 0.850000 0.500000
vt 0.850000 1.000000
vt 0.853518 0.500000
vt 0.853518 1.000000
vt 0.857037 0.500000
vt 0.857037 1.000000
vt 0.861440 0.500000
vt 0.861440 1.000000
vt 0.864958 0.500000
vt 0.864958 1.000000
vt 0.868477 0.500000
vt 0.868477 1.000000
vt 0.875000 0.500000
vt 0.875000 1.000000
vt 0.878518 0.500000
vt 0.878518 1.000000
vt 0.882037 0.500000
vt 0.882037 1.000000
vt 0.886440 0.500000
vt 0.886440 1.000000
vt 0.889958 0.500000
vt 0.889958 1.000000
vt 0.893477 0.500000
vt 0.893477 1.000000
vt 0.900000 0.500000
vt 0.900000 1.000000
vt 0.903518 0.500000
vt 0.903518 1.000000
vt 0.907037 0.500000
vt 0.907037 1.000000
vt 0.911440 0.500000
vt 0.911440 1.000000
vt 0.914958 0.500000
vt 0.914958 1.000000
vt 0.918477 0.500000
vt 0.918477 1.000000
vt 0.925000 0.500000
vt 0.925000 1.000000
vt 0.928519 0.500000
vt 0.928519 1.000000
vt 0.932037 0.500000
vt 0.932037 1.000000
vt 0.936440 0.500000
vt 0.936440 1.000000
vt 0.939958 0.500000
vt 0.939958 1.000000
vt 0.943477 0.500000
vt 0.943477 1.000000
vt 0.950000 0.500000
vt 0.950000 1.000000
vt 0.953519 0.500000
vt 0.953519 1.000000
vt 0.957037 0.500000
vt 0.957037 1.000000
vt 0.961440 0.500000
vt 0.961440 1.000000
vt 0.964958 0.500000
vt 0.964958 1.000000
vt 0.968477 0.500000
vt 0.968477 1.000000
vt 0.975000 0.500000
vt 0.975000 1.000000
vt 0.978519 0.500000
vt 0.978519 1.000000
vt 0.982037 0.500000
vt 0.982037 1.000000
vt 0.986440 0.500000
vt 0.986440 1.000000
vt 0.989958 0.500000
vt 0.989958 1.000000
vt 0.993477 0.500000
vt 0.993477 1.000000
vt 1.000000 0.500000
vt 1.000000 1.000000
vt 0.263036 0.455768
vt 0.263036 0.476602
vt 0.236964 0.476602
vt 0.236964 0.455768
vt 0.263036 0.497435
vt 0.236964 0.497435
vt 0.325984 0.441669
vt 0.332422 0.461483
vt 0.307626 0.469539
vt 0.301188 0.449726
vt 0.338860 0.481296
vt 0.314063 0.489353
vt 0.381494 0.408808
vt 0.393740 0.425662
vt 0.372647 0.440987
vt 0.360401 0.424133
vt 0.405985 0.442517
vt 0.384892 0.457842
vt 0.424133 0.360401
vt 0.440987 0.372647
vt 0.425662 0.393740
vt 0.408808 0.381494
vt 0.457842 0.384892
vt 0.442517 0.405985
vt 0.449726 0.301188
vt 0.469539 0.307626
vt 0.461483 0.332422
vt 0.441669 0.325984
vt 0.489353 0.314063
vt 0.481296 0.338860
vt 0.455768 0.236964
vt 0.476602 0.236964
vt 0.476602 0.263036
vt 0.455768 0.263036
vt 0.497435 0.236964
vt 0.497435 0.263036
vt 0.441669 0.174016
vt 0.461483 0.167578
vt 0.469539 0.192374
vt 0.449726 0.198812
vt 0.481296 0.161140
vt 0.489353 0.185937
vt 0.408808 0.118506
vt 0.425662 0.106260
vt 0.440987 0.127353
vt 0.424133 0.139599
vt 0.442517 0.094015
vt 0.457842 0.115108
vt 0.360401 0.075867
vt 0.372647 0.059013
vt 0.393740 0.074338
vt 0.381494 0.091192
vt 0.384892 0.042158
vt 0.405985 0.057483
vt 0.301188 0.050274
vt 0.307626 0.030461
vt 0.332422 0.038517
vt 0.325984 0.058331
vt 0.314063 0.010647
vt 0.338860 0.018704
vt 0.236964 0.044232
vt 0.236964 0.023398
vt 0.263036 0.023398
vt 0.263036 0.044232
vt 0.236964 0.002565
vt 0.263036 0.002565
vt 0.174016 0.058331
vt 0.167578 0.038517
vt 0.192374 0.030461
vt 0.198812 0.050274
vt 0.161140 0.018704
vt 0.185937 0.010647
vt 0.118506 0.091192
vt 0.106260 0.074338
vt 0.127353 0.059013
vt 0.139599 0.075867
vt 0.094015 0.057483
vt 0.115108 0.042158
vt 0.075867 0.139599
vt 0.059013 0.127353
vt 0.074338 0.106260
vt 0.091192 0.118506
vt 0.042158 0.115108
vt 0.057483 0.094015
vt 0.050274 0.198812
vt 0.030461 0.192374
vt 0.038517 0.167578
vt 0.058331 0.174016
vt 0.010647 0.185937
vt 0.018704 0.161140
vt 0.044232 0.263036
vt 0.023398 0.263036
vt 0.023398 0.236964
vt 0.044232 0.236964
vt 0.002565 0.263036
vt 0.002565 0.236964
vt 0.058331 0.325984
vt 0.038517 0.332422
vt 0.030461 0.307626
vt 0.050274 0.301188
vt 0.018704 0.338860
vt 0.010647 0.314064
vt 0.091192 0.381494
vt 0.074338 0.393740
vt 0.059013 0.372647
vt 0.075867 0.360401
vt 0.057483 0.405985
vt 0.042158 0.384892
vt 0.139599 0.424133
vt 0.127353 0.440987
vt 0.106260 0.425662
vt 0.118506 0.408808
vt 0.115108 0.457842
vt 0.094015 0.442517
vt 0.198812 0.449726
vt 0.192374 0.469539
vt 0.167578 0.461483
vt 0.174016 0.441669
vt 0.185937 0.489353
vt 0.161140 0.481296
vt 0.512500 0.500000
vt 0.512500 0.000000
vt 0.500000 0.000000
vt 0.525000 0.000000
vt 0.537500 0.500000
vt 0.537500 0.000000
vt 0.550000 0.000000
vt 0.562500 0.500000
vt 0.562500 0.000000
vt 0.575000 0.000000
vt 0.587500 0.500000
vt 0.587500 0.000000
vt 0.600000 0.500000
vt 0.600000 0.000000
vt 0.612500 0.500000
vt 0.612500 0.000000
vt 0.625000 0.000000
vt 0.637500 0.500000
vt 0.637500 0.000000
vt 0.650000 0.000000
vt 0.662500 0.500000
vt 0.662500 0.000000
vt 0.675000 0.500000
vt 0.675000 0.000000
vt 0.687500 0.500000
vt 0.687500 0.000000
vt 0.700000 0.500000
vt 0.700000 0.000000
vt 0.712500 0.500000
vt 0.712500 0.000000
vt 0.725000 0.500000
vt 0.725000 0.000000
vt 0.737500 0.500000
vt 0.737500 0.000000
vt 0.750000 0.500000
vt 0.750000 0.000000
vt 0.762500 0.500000
vt 0.762500 0.000000
vt 0.775000 0.500000
vt 0.775000 0.000000
vt 0.787500 0.500000
vt 0.787500 0.000000
vt 0.800000 0.500000
vt 0.800000 0.000000
vt 0.812500 0.500000
vt 0.812500 0.000000
vt 0.825000 0.000000
vt 0.837500 0.500000
vt 0.837500 0.000000
vt 0.850000 0.000000
vt 0.862500 0.500000
vt 0.862500 0.000000
vt 0.875000 0.500000
vt 0.875000 0.000000
vt 0.887500 0.500000
vt 0.887500 0.000000
vt 0.900000 0.500000
vt 0.900000 0.000000
vt 0.912500 0.500000
vt 0.912500 0.000000
vt 0.925000 0.500000
vt 0.925000 0.000000
vt 0.937500 0.500000
vt 0.937500 0.000000
vt 0.950000 0.500000
vt 0.950000 0.000000
vt 0.962500 0.500000
vt 0.962500 0.000000
vt 0.975000 0.500000
vt 0.975000 0.000000
vt 0.987500 0.500000
vt 0.987500 0.000000
vt 1.000000 0.000000
vt 0.241827 0.646154
vt 0.258173 0.646154
vt 0.274317 0.648711
vt 0.258173 0.353846
vt 0.241827 0.353846
vt 0.274317 0.351289
vt 0.289863 0.653763
vt 0.304427 0.661183
vt 0.289863 0.346237
vt 0.304427 0.338817
vt 0.317651 0.670791
vt 0.329209 0.682349
vt 0.317651 0.329209
vt 0.329209 0.317651
vt 0.338817 0.695573
vt 0.346237 0.710137
vt 0.338817 0.304427
vt 0.346237 0.289863
vt 0.351289 0.725683
vt 0.353846 0.741827
vt 0.351289 0.274317
vt 0.353846 0.258173
vt 0.353846 0.758173
vt 0.351289 0.774317
vt 0.353846 0.241827
vt 0.351289 0.225683
vt 0.346237 0.789863
vt 0.338817 0.804427
vt 0.346237 0.210137
vt 0.338817 0.195573
vt 0.329209 0.817651
vt 0.317651 0.829209
vt 0.329209 0.182349
vt 0.317651 0.170791
vt 0.304427 0.838817
vt 0.289863 0.846237
vt 0.304427 0.161183
vt 0.289863 0.153763
vt 0.274317 0.851289
vt 0.258173 0.853846
vt 0.274317 0.148711
vt 0.258173 0.146154
vt 0.241827 0.853846
vt 0.225683 0.851289
vt 0.241827 0.146154
vt 0.225683 0.148711
vt 0.210137 0.846237
vt 0.195573 0.838817
vt 0.210137 0.153763
vt 0.195573 0.161183
vt 0.182349 0.829209
vt 0.170791 0.817651
vt 0.182349 0.170791
vt 0.170791 0.182349
vt 0.161183 0.804427
vt 0.153763 0.789863
vt 0.161183 0.195573
vt 0.153763 0.210137
vt 0.148711 0.774317
vt 0.146154 0.758173
vt 0.148711 0.225683
vt 0.146154 0.241827
vt 0.146154 0.741827
vt 0.148711 0.725683
vt 0.146154 0.258173
vt 0.148711 0.274317
vt 0.153763 0.710137
vt 0.161183 0.695573
vt 0.153763 0.289863
vt 0.161183 0.304427
vt 0.170791 0.682349
vt 0.182349 0.670791
vt 0.170791 0.317651
vt 0.182349 0.329209
vt 0.195573 0.661183
vt 0.210137 0.653763
vt 0.195573 0.338817
vt 0.210137 0.346237
vt 0.225683 0.648711
vt 0.225683 0.351289
s 1
usemtl RojoOscuro.001
f 1/1/1 2/2/1 5/3/1 6/4/1
f 2/2/1 3/5/1 4/6/1 5/3/1
f 7/7/1 8/8/1 11/9/1 12/10/1
f 8/8/1 9/11/1 10/12/1 11/9/1
f 13/13/1 14/14/1 17/15/1 18/16/1
f 14/14/1 15/17/1 16/18/1 17/15/1
f 19/19/1 20/20/1 23/21/1 24/22/1
f 20/20/1 21/23/1 22/24/1 23/21/1
f 25/25/1 26/26/1 29/27/1 30/28/1
f 26/26/1 27/29/1 28/30/1 29/27/1
f 31/31/1 32/32/1 35/33/1 36/34/1
f 32/32/1 33/35/1 34/36/1 35/33/1
f 37/37/1 38/38/1 41/39/1 42/40/1
f 38/38/1 39/41/1 40/42/1 41/39/1
f 43/43/1 44/44/1 47/45/1 48/46/1
f 44/44/1 45/47/1 46/48/1 47/45/1
f 49/49/1 50/50/1 53/51/1 54/52/1
f 50/50/1 51/53/1 52/54/1 53/51/1
f 55/55/1 56/56/1 59/57/1 60/58/1
f 56/56/1 57/59/1 58/60/1 59/57/1
f 61/61/1 62/62/1 65/63/1 66/64/1
f 62/62/1 63/65/1 64/66/1 65/63/1
f 67/67/1 68/68/1 71/69/1 72/70/1
f 68/68/1 69/71/1 70/72/1 71/69/1
f 73/73/1 74/74/1 77/75/1 78/76/1
f 74/74/1 75/77/1 76/78/1 77/75/1
f 79/79/1 80/80/1 83/81/1 84/82/1
f 80/80/1 81/83/1 82/84/1 83/81/1
f 85/85/1 86/86/1 89/87/1 90/88/1
f 86/86/1 87/89/1 88/90/1 89/87/1
f 91/91/1 92/92/1 95/93/1 96/94/1
f 92/92/1 93/95/1 94/96/1 95/93/1
f 97/97/1 98/98/1 101/99/1 102/100/1
f 98/98/1 99/101/1 100/102/1 101/99/1
f 103/103/1 104/104/1 107/105/1 108/106/1
f 104/104/1 105/107/1 106/108/1 107/105/1
f 109/109/1 110/110/1 113/111/1 114/112/1
f 110/110/1 111/113/1 112/114/1 113/111/1
f 115/115/1 116/116/1 119/117/1 120/118/1
f 116/116/1 117/119/1 118/120/1 119/117/1
f 126/363/42 125/364/42 122/365/42 121/366/42
f 125/364/42 124/367/42 123/368/42 122/365/42
f 132/369/42 131/370/42 128/371/42 127/372/42
f 131/370/42 130/373/42 129/374/42 128/371/42
f 138/375/42 137/376/42 134/377/42 133/378/42
f 137/376/42 136/379/42 135/380/42 134/377/42
f 144/381/42 143/382/42 140/383/42 139/384/42
f 143/382/42 142/385/42 141/386/42 140/383/42
f 150/387/42 149/388/42 146/389/42 145/390/42
f 149/388/42 148/391/42 147/392/42 146/389/42
f 156/393/42 155/394/42 152/395/42 151/396/42
f 155/394/42 154/397/42 153/398/42 152/395/42
f 162/399/42 161/400/42 158/401/42 157/402/42
f 161/400/42 160/403/42 159/404/42 158/401/42
f 168/405/42 167/406/42 164/407/42 163/408/42
f 167/406/42 166/409/42 165/410/42 164/407/42
f 174/411/42 173/412/42 170/413/42 169/414/42
f 173/412/42 172/415/42 171/416/42 170/413/42
f 180/417/42 179/418/42 176/419/42 175/420/42
f 179/418/42 178/421/42 177/422/42 176/419/42
f 186/423/42 185/424/42 182/425/42 181/426/42
f 185/424/42 184/427/42 183/428/42 182/425/42
f 192/429/42 191/430/42 188/431/42 187/432/42
f 191/430/42 190/433/42 189/434/42 188/431/42
f 198/435/42 197/436/42 194/437/42 193/438/42
f 197/436/42 196/439/42 195/440/42 194/437/42
f 204/441/42 203/442/42 200/443/42 199/444/42
f 203/442/42 202/445/42 201/446/42 200/443/42
f 210/447/42 209/448/42 206/449/42 205/450/42
f 209/448/42 208/451/42 207/452/42 206/449/42
f 216/453/42 215/454/42 212/455/42 211/456/42
f 215/454/42 214/457/42 213/458/42 212/455/42
f 222/459/42 221/460/42 218/461/42 217/462/42
f 221/460/42 220/463/42 219/464/42 218/461/42
f 228/465/42 227/466/42 224/467/42 223/468/42
f 227/466/42 226/469/42 225/470/42 224/467/42
f 234/471/42 233/472/42 230/473/42 229/474/42
f 233/472/42 232/475/42 231/476/42 230/473/42
f 240/477/42 239/478/42 236/479/42 235/480/42
f 239/478/42 238/481/42 237/482/42 236/479/42
f 241/556/1 1/1/1 6/4/1 242/557/1
f 242/557/1 6/4/1 7/7/1 243/558/1
f 282/559/42 126/363/42 121/366/42 281/560/42
f 283/561/42 127/372/42 126/363/42 282/559/42
f 243/558/1 7/7/1 12/10/1 244/562/1
f 244/562/1 12/10/1 13/13/1 245/563/1
f 284/564/42 132/369/42 127/372/42 283/561/42
f 285/565/42 133/378/42 132/369/42 284/564/42
f 245/563/1 13/13/1 18/16/1 246/566/1
f 246/566/1 18/16/1 19/19/1 247/567/1
f 286/568/42 138/375/42 133/378/42 285/565/42
f 287/569/42 139/384/42 138/375/42 286/568/42
f 247/567/1 19/19/1 24/22/1 248/570/1
f 248/570/1 24/22/1 25/25/1 249/571/1
f 288/572/42 144/381/42 139/384/42 287/569/42
f 289/573/42 145/390/42 144/381/42 288/572/42
f 249/571/1 25/25/1 30/28/1 250/574/1
f 250/574/1 30/28/1 31/31/1 251/575/1
f 290/576/42 150/387/42 145/390/42 289/573/42
f 291/577/42 151/396/42 150/387/42 290/576/42
f 251/575/1 31/31/1 36/34/1 252/578/1
f 252/578/1 36/34/1 37/37/1 253/579/1
f 292/580/42 156/393/42 151/396/42 291/577/42
f 293/581/42 157/402/42 156/393/42 292/580/42
f 253/579/1 37/37/1 42/40/1 254/582/1
f 254/582/1 42/40/1 43/43/1 255/583/1
f 294/584/42 162/399/42 157/402/42 293/581/42
f 295/585/42 163/408/42 162/399/42 294/584/42
f 255/583/1 43/43/1 48/46/1 256/586/1
f 256/586/1 48/46/1 49/49/1 257/587/1
f 296/588/42 168/405/42 163/408/42 295/585/42
f 297/589/42 169/414/42 168/405/42 296/588/42
f 257/587/1 49/49/1 54/52/1 258/590/1
f 258/590/1 54/52/1 55/55/1 259/591/1
f 298/592/42 174/411/42 169/414/42 297/589/42
f 299/593/42 175/420/42 174/411/42 298/592/42
f 259/591/1 55/55/1 60/58/1 260/594/1
f 260/594/1 60/58/1 61/61/1 261/595/1
f 300/596/42 180/417/42 175/420/42 299/593/42
f 301/597/42 181/426/42 180/417/42 300/596/42
f 261/595/1 61/61/1 66/64/1 262/598/1
f 262/598/1 66/64/1 67/67/1 263/599/1
f 302/600/42 186/423/42 181/426/42 301/597/42
f 303/601/42 187/432/42 186/423/42 302/600/42
f 263/599/1 67/67/1 72/70/1 264/602/1
f 264/602/1 72/70/1 73/73/1 265/603/1
f 304/604/42 192/429/42 187/432/42 303/601/42
f 305/605/42 193/438/42 192/429/42 304/604/42
f 265/603/1 73/73/1 78/76/1 266/606/1
f 266/606/1 78/76/1 79/79/1 267/607/1
f 306/608/42 198/435/42 193/438/42 305/605/42
f 307/609/42 199/444/42 198/435/42 306/608/42
f 267/607/1 79/79/1 84/82/1 268/610/1
f 268/610/1 84/82/1 85/85/1 269/611/1
f 308/612/42 204/441/42 199/444/42 307/609/42
f 309/613/42 205/450/42 204/441/42 308/612/42
f 269/611/1 85/85/1 90/88/1 270/614/1
f 270/614/1 90/88/1 91/91/1 271/615/1
f 310/616/42 210/447/42 205/450/42 309/613/42
f 311/617/42 211/456/42 210/447/42 310/616/42
f 271/615/1 91/91/1 96/94/1 272/618/1
f 272/618/1 96/94/1 97/97/1 273/619/1
f 312/620/42 216/453/42 211/456/42 311/617/42
f 313/621/42 217/462/42 216/453/42 312/620/42
f 273/619/1 97/97/1 102/100/1 274/622/1
f 274/622/1 102/100/1 103/103/1 275/623/1
f 314/624/42 222/459/42 217/462/42 313/621/42
f 315/625/42 223/468/42 222/459/42 314/624/42
f 275/623/1 103/103/1 108/106/1 276/626/1
f 276/626/1 108/106/1 109/109/1 277/627/1
f 316/628/42 228/465/42 223/468/42 315/625/42
f 317/629/42 229/474/42 228/465/42 316/628/42
f 277/627/1 109/109/1 114/112/1 278/630/1
f 278/630/1 114/112/1 115/115/1 279/631/1
f 318/632/42 234/471/42 229/474/42 317/629/42
f 319/633/42 235/480/42 234/471/42 318/632/42
f 279/631/1 115/115/1 120/118/1 280/634/1
f 280/634/1 120/118/1 1/1/1 241/556/1
f 320/635/42 240/477/42 235/480/42 319/633/42
f 281/560/42 121/366/42 240/477/42 320/635/42
usemtl LaminaMetal.001
f 1/121/2 121/122/2 122/123/2 2/124/2
f 2/124/2 122/123/2 123/125/2 3/126/2
f 3/126/3 123/125/3 124/127/3 4/128/3
f 4/128/4 124/127/4 125/129/4 5/130/4
f 5/130/4 125/129/4 126/131/4 6/132/4
f 6/132/5 126/131/5 127/133/5 7/134/5
f 7/134/6 127/133/6 128/135/6 8/136/6
f 8/136/6 128/135/6 129/137/6 9/138/6
f 9/138/7 129/137/7 130/139/7 10/140/7
f 10/140/8 130/139/8 131/141/8 11/142/8
f 11/142/8 131/141/8 132/143/8 12/144/8
f 12/144/9 132/143/9 133/145/9 13/146/9
f 13/146/10 133/145/10 134/147/10 14/148/10
f 14/148/10 134/147/10 135/149/10 15/150/10
f 15/150/11 135/149/11 136/151/11 16/152/11
f 16/152/12 136/151/12 137/153/12 17/154/12
f 17/154/12 137/153/12 138/155/12 18/156/12
f 18/156/13 138/155/13 139/157/13 19/158/13
f 19/158/14 139/157/14 140/159/14 20/160/14
f 20/160/14 140/159/14 141/161/14 21/162/14
f 21/162/15 141/161/15 142/163/15 22/164/15
f 22/164/16 142/163/16 143/165/16 23/166/16
f 23/166/16 143/165/16 144/167/16 24/168/16
f 24/168/17 144/167/17 145/169/17 25/170/17
f 25/170/18 145/169/18 146/171/18 26/172/18
f 26/172/18 146/171/18 147/173/18 27/174/18
f 27/174/19 147/173/19 148/175/19 28/176/19
f 28/176/20 148/175/20 149/177/20 29/178/20
f 29/178/20 149/177/20 150/179/20 30/180/20
f 30/180/21 150/179/21 151/181/21 31/182/21
f 31/182/3 151/181/3 152/183/3 32/184/3
f 32/184/3 152/183/3 153/185/3 33/186/3
f 33/186/4 153/185/4 154/187/4 34/188/4
f 34/188/22 154/187/22 155/189/22 35/190/22
f 35/190/22 155/189/22 156/191/22 36/192/22
f 36/192/23 156/191/23 157/193/23 37/194/23
f 37/194/7 157/193/7 158/195/7 38/196/7
f 38/196/7 158/195/7 159/197/7 39/198/7
f 39/198/8 159/197/8 160/199/8 40/200/8
f 40/200/24 160/199/24 161/201/24 41/202/24
f 41/202/24 161/201/24 162/203/24 42/204/24
f 42/204/25 162/203/25 163/205/25 43/206/25
f 43/206/11 163/205/11 164/207/11 44/208/11
f 44/208/11 164/207/11 165/209/11 45/210/11
f 45/210/12 165/209/12 166/211/12 46/212/12
f 46/212/26 166/211/26 167/213/26 47/214/26
f 47/214/26 167/213/26 168/215/26 48/216/26
f 48/216/27 168/215/27 169/217/27 49/218/27
f 49/218/15 169/217/15 170/219/15 50/220/15
f 50/220/15 170/219/15 171/221/15 51/222/15
f 51/222/16 171/221/16 172/223/16 52/224/16
f 52/224/28 172/223/28 173/225/28 53/226/28
f 53/226/28 173/225/28 174/227/28 54/228/28
f 54/228/29 174/227/29 175/229/29 55/230/29
f 55/230/19 175/229/19 176/231/19 56/232/19
f 56/232/19 176/231/19 177/233/19 57/234/19
f 57/234/20 177/233/20 178/235/20 58/236/20
f 58/236/30 178/235/30 179/237/30 59/238/30
f 59/238/30 179/237/30 180/239/30 60/240/30
f 60/240/31 180/239/31 181/241/31 61/242/31
f 61/242/4 181/241/4 182/243/4 62/244/4
f 62/244/4 182/243/4 183/245/4 63/246/4
f 63/246/22 183/245/22 184/247/22 64/248/22
f 64/248/2 184/247/2 185/249/2 65/250/2
f 65/250/2 185/249/2 186/251/2 66/252/2
f 66/252/32 186/251/32 187/253/32 67/254/32
f 67/254/8 187/253/8 188/255/8 68/256/8
f 68/256/8 188/255/8 189/257/8 69/258/8
f 69/258/24 189/257/24 190/259/24 70/260/24
f 70/260/6 190/259/6 191/261/6 71/262/6
f 71/262/6 191/261/6 192/263/6 72/264/6
f 72/264/33 192/263/33 193/265/33 73/266/33
f 73/266/12 193/265/12 194/267/12 74/268/12
f 74/268/12 194/267/12 195/269/12 75/270/12
f 75/270/26 195/269/26 196/271/26 76/272/26
f 76/272/10 196/271/10 197/273/10 77/274/10
f 77/274/10 197/273/10 198/275/10 78/276/10
f 78/276/34 198/275/34 199/277/34 79/278/34
f 79/278/16 199/277/16 200/279/16 80/280/16
f 80/280/16 200/279/16 201/281/16 81/282/16
f 81/282/28 201/281/28 202/283/28 82/284/28
f 82/284/14 202/283/14 203/285/14 83/286/14
f 83/286/14 203/285/14 204/287/14 84/288/14
f 84/288/35 204/287/35 205/289/35 85/290/35
f 85/290/20 205/289/20 206/291/20 86/292/20
f 86/292/20 206/291/20 207/293/20 87/294/20
f 87/294/30 207/293/30 208/295/30 88/296/30
f 88/296/18 208/295/18 209/297/18 89/298/18
f 89/298/18 209/297/18 210/299/18 90/300/18
f 90/300/36 210/299/36 211/301/36 91/302/36
f 91/302/22 211/301/22 212/303/22 92/304/22
f 92/304/22 212/303/22 213/305/22 93/306/22
f 93/306/2 213/305/2 214/307/2 94/308/2
f 94/308/3 214/307/3 215/309/3 95/310/3
f 95/310/3 215/309/3 216/311/3 96/312/3
f 96/312/37 216/311/37 217/313/37 97/314/37
f 97/314/24 217/313/24 218/315/24 98/316/24
f 98/316/24 218/315/24 219/317/24 99/318/24
f 99/318/6 219/317/6 220/319/6 100/320/6
f 100/320/7 220/319/7 221/321/7 101/322/7
f 101/322/7 221/321/7 222/323/7 102/324/7
f 102/324/38 222/323/38 223/325/38 103/326/38
f 103/326/26 223/325/26 224/327/26 104/328/26
f 104/328/26 224/327/26 225/329/26 105/330/26
f 105/330/10 225/329/10 226/331/10 106/332/10
f 106/332/11 226/331/11 227/333/11 107/334/11
f 107/334/11 227/333/11 228/335/11 108/336/11
f 108/336/39 228/335/39 229/337/39 109/338/39
f 109/338/28 229/337/28 230/339/28 110/340/28
f 110/340/28 230/339/28 231/341/28 111/342/28
f 111/342/14 231/341/14 232/343/14 112/344/14
f 112/344/15 232/343/15 233/345/15 113/346/15
f 113/346/15 233/345/15 234/347/15 114/348/15
f 114/348/40 234/347/40 235/349/40 115/350/40
f 115/350/30 235/349/30 236/351/30 116/352/30
f 116/352/30 236/351/30 237/353/30 117/354/30
f 117/354/18 237/353/18 238/355/18 118/356/18
f 118/356/19 238/355/19 239/357/19 119/358/19
f 119/358/19 239/357/19 240/359/19 120/360/19
f 120/360/41 240/359/41 121/361/41 1/362/41
f 241/122/43 242/483/44 282/484/44 281/485/43
f 242/483/44 243/133/45 283/486/45 282/484/44
f 243/133/45 244/487/46 284/488/46 283/486/45
f 244/487/46 245/145/47 285/489/47 284/488/46
f 245/145/47 246/490/48 286/491/48 285/489/47
f 246/490/48 247/157/49 287/492/49 286/491/48
f 247/157/49 248/493/50 288/494/50 287/492/49
f 248/493/50 249/495/51 289/496/51 288/494/50
f 249/495/51 250/497/52 290/498/52 289/496/51
f 250/497/52 251/181/53 291/499/53 290/498/52
f 251/181/53 252/500/54 292/501/54 291/499/53
f 252/500/54 253/193/55 293/502/55 292/501/54
f 253/193/55 254/503/56 294/504/56 293/502/55
f 254/503/56 255/505/57 295/506/57 294/504/56
f 255/505/57 256/507/58 296/508/58 295/506/57
f 256/507/58 257/509/59 297/510/59 296/508/58
f 257/509/59 258/511/60 298/512/60 297/510/59
f 258/511/60 259/513/61 299/514/61 298/512/60
f 259/513/61 260/515/62 300/516/62 299/514/61
f 260/515/62 261/517/63 301/518/63 300/516/62
f 261/517/63 262/519/64 302/520/64 301/518/63
f 262/519/64 263/521/65 303/522/65 302/520/64
f 263/521/65 264/523/66 304/524/66 303/522/65
f 264/523/66 265/525/67 305/526/67 304/524/66
f 265/525/67 266/527/68 306/528/68 305/526/67
f 266/527/68 267/277/69 307/529/69 306/528/68
f 267/277/69 268/530/70 308/531/70 307/529/69
f 268/530/70 269/289/71 309/532/71 308/531/70
f 269/289/71 270/533/72 310/534/72 309/532/71
f 270/533/72 271/535/73 311/536/73 310/534/72
f 271/535/73 272/537/74 312/538/74 311/536/73
f 272/537/74 273/539/75 313/540/75 312/538/74
f 273/539/75 274/541/76 314/542/76 313/540/75
f 274/541/76 275/543/77 315/544/77 314/542/76
f 275/543/77 276/545/78 316/546/78 315/544/77
f 276/545/78 277/547/79 317/548/79 316/546/78
f 277/547/79 278/549/80 318/550/80 317/548/79
f 278/549/80 279/551/81 319/552/81 318/550/80
f 279/551/81 280/553/82 320/554/82 319/552/81
f 280/553/82 241/361/43 281/555/43 320/554/82
