# Blender 5.0.1
# www.blender.org
mtllib Engranajeadicional2.mtl
o pasted__pasted__pGear2.003
v -0.140851 0.136424 -0.168221
v -0.140478 0.128471 -0.168211
v -0.139132 0.120423 -0.168197
v -0.137508 0.120264 -0.168191
v -0.134633 0.127901 -0.168188
v -0.132732 0.135633 -0.168188
v -0.114595 0.138646 -0.168120
v -0.110296 0.131945 -0.168096
v -0.105106 0.125649 -0.168069
v -0.103620 0.126323 -0.168064
v -0.104949 0.134374 -0.168078
v -0.107168 0.142020 -0.168095
v -0.092968 0.153699 -0.168051
v -0.085895 0.150045 -0.168020
v -0.078251 0.147187 -0.167987
v -0.077302 0.148515 -0.167984
v -0.082478 0.154823 -0.168011
v -0.088224 0.160335 -0.168040
v -0.081765 0.177549 -0.168032
v -0.073812 0.177921 -0.168002
v -0.065764 0.179268 -0.167971
v -0.065606 0.180892 -0.167973
v -0.073242 0.183766 -0.168006
v -0.080974 0.185668 -0.168038
v -0.083988 0.203804 -0.168069
v -0.077286 0.208103 -0.168047
v -0.070990 0.213294 -0.168028
v -0.071665 0.214779 -0.168032
v -0.079716 0.213451 -0.168062
v -0.087362 0.211231 -0.168090
v -0.099040 0.225431 -0.168151
v -0.095386 0.232505 -0.168144
v -0.092528 0.240148 -0.168141
v -0.093855 0.241097 -0.168147
v -0.100164 0.235921 -0.168167
v -0.105676 0.230176 -0.168182
v -0.122889 0.236634 -0.168257
v -0.123262 0.244587 -0.168266
v -0.124608 0.252636 -0.168280
v -0.126232 0.252794 -0.168287
v -0.129107 0.245157 -0.168290
v -0.131008 0.237425 -0.168289
v -0.149145 0.234411 -0.168357
v -0.153444 0.241113 -0.168381
v -0.158634 0.247410 -0.168408
v -0.160120 0.246735 -0.168414
v -0.158791 0.238684 -0.168400
v -0.156572 0.231037 -0.168383
v -0.170772 0.219359 -0.168426
v -0.177845 0.223013 -0.168458
v -0.185489 0.225871 -0.168491
v -0.186438 0.224544 -0.168493
v -0.181262 0.218235 -0.168466
v -0.175516 0.212723 -0.168438
v -0.181975 0.195510 -0.168445
v -0.189928 0.195137 -0.168476
v -0.197976 0.193790 -0.168506
v -0.198134 0.192167 -0.168505
v -0.190498 0.189291 -0.168472
v -0.182766 0.187390 -0.168440
v -0.179752 0.169254 -0.168409
v -0.186454 0.164955 -0.168430
v -0.192750 0.159764 -0.168450
v -0.192075 0.158279 -0.168445
v -0.184024 0.159607 -0.168415
v -0.176378 0.161827 -0.168388
v -0.164700 0.147627 -0.168327
v -0.168354 0.140553 -0.168334
v -0.171212 0.132910 -0.168337
v -0.169885 0.131961 -0.168330
v -0.163576 0.137137 -0.168311
v -0.158064 0.142882 -0.168296
v -0.140833 0.136419 -0.172781
v -0.140460 0.128466 -0.172771
v -0.139114 0.120418 -0.172757
v -0.137490 0.120260 -0.172751
v -0.134615 0.127896 -0.172748
v -0.132714 0.135628 -0.172748
v -0.114577 0.138642 -0.172680
v -0.110278 0.131940 -0.172656
v -0.105088 0.125644 -0.172629
v -0.103602 0.126319 -0.172624
v -0.104931 0.134369 -0.172638
v -0.107150 0.142016 -0.172655
v -0.092950 0.153694 -0.172611
v -0.085877 0.150040 -0.172580
v -0.078233 0.147182 -0.172547
v -0.077285 0.148509 -0.172544
v -0.082460 0.154818 -0.172571
v -0.088206 0.160330 -0.172600
v -0.081747 0.177543 -0.172593
v -0.073794 0.177916 -0.172562
v -0.065746 0.179263 -0.172532
v -0.065588 0.180887 -0.172532
v -0.073225 0.183762 -0.172566
v -0.080956 0.185663 -0.172598
v -0.083970 0.203800 -0.172629
v -0.077268 0.208099 -0.172607
v -0.070972 0.213289 -0.172588
v -0.071647 0.214774 -0.172592
v -0.079698 0.213446 -0.172622
v -0.087344 0.211226 -0.172650
v -0.099022 0.225426 -0.172711
v -0.095368 0.232500 -0.172704
v -0.092510 0.240143 -0.172701
v -0.093838 0.241092 -0.172707
v -0.100146 0.235916 -0.172727
v -0.105658 0.230171 -0.172742
v -0.122871 0.236630 -0.172817
v -0.123244 0.244583 -0.172826
v -0.124591 0.252631 -0.172840
v -0.126214 0.252789 -0.172847
v -0.129089 0.245152 -0.172850
v -0.130990 0.237420 -0.172849
v -0.149127 0.234407 -0.172917
v -0.153426 0.241108 -0.172941
v -0.158616 0.247405 -0.172968
v -0.160102 0.246730 -0.172974
v -0.158773 0.238679 -0.172960
v -0.156554 0.231032 -0.172943
v -0.170754 0.219354 -0.172986
v -0.177828 0.223008 -0.173018
v -0.185471 0.225866 -0.173051
v -0.186420 0.224539 -0.173053
v -0.181244 0.218231 -0.173026
v -0.175498 0.212718 -0.172998
v -0.181957 0.195505 -0.173005
v -0.189910 0.195132 -0.173036
v -0.197958 0.193786 -0.173066
v -0.198116 0.192162 -0.173065
v -0.190480 0.189287 -0.173032
v -0.182748 0.187386 -0.173000
v -0.179734 0.169249 -0.172969
v -0.186436 0.164950 -0.172990
v -0.192732 0.159759 -0.173010
v -0.192057 0.158274 -0.173005
v -0.184006 0.159603 -0.172975
v -0.176360 0.161822 -0.172948
v -0.164682 0.147622 -0.172887
v -0.168336 0.140548 -0.172894
v -0.171194 0.132905 -0.172897
v -0.169867 0.131956 -0.172890
v -0.163558 0.137132 -0.172871
v -0.158046 0.142877 -0.172856
v -0.134245 0.176295 -0.168237
v -0.131515 0.176029 -0.168226
v -0.128810 0.176479 -0.168216
v -0.126313 0.177613 -0.168208
v -0.124195 0.179355 -0.168201
v -0.122600 0.181586 -0.168197
v -0.121636 0.184154 -0.168196
v -0.121370 0.186884 -0.168198
v -0.121820 0.189589 -0.168203
v -0.122954 0.192086 -0.168210
v -0.124696 0.194205 -0.168219
v -0.126927 0.195799 -0.168229
v -0.129495 0.196763 -0.168240
v -0.132225 0.197029 -0.168251
v -0.134930 0.196580 -0.168262
v -0.137427 0.195445 -0.168270
v -0.139545 0.193703 -0.168277
v -0.141140 0.191472 -0.168280
v -0.142104 0.188904 -0.168282
v -0.142370 0.186174 -0.168280
v -0.141920 0.183469 -0.168275
v -0.140786 0.180972 -0.168268
v -0.139044 0.178854 -0.168259
v -0.136813 0.177259 -0.168248
v -0.134245 0.176295 -0.162765
v -0.131515 0.176029 -0.162754
v -0.128810 0.176479 -0.162744
v -0.126313 0.177613 -0.162735
v -0.124195 0.179355 -0.162729
v -0.122600 0.181586 -0.162725
v -0.121636 0.184154 -0.162724
v -0.121370 0.186884 -0.162726
v -0.121820 0.189589 -0.162730
v -0.122954 0.192086 -0.162737
v -0.124696 0.194204 -0.162746
v -0.126927 0.195799 -0.162757
v -0.129495 0.196763 -0.162768
v -0.132225 0.197029 -0.162779
v -0.134930 0.196580 -0.162789
v -0.137427 0.195445 -0.162798
v -0.139545 0.193703 -0.162804
v -0.141140 0.191472 -0.162808
v -0.142104 0.188904 -0.162809
v -0.142370 0.186174 -0.162807
v -0.141920 0.183469 -0.162803
v -0.140786 0.180972 -0.162796
v -0.139044 0.178854 -0.162787
v -0.136813 0.177259 -0.162776
v -0.132550 0.145303 -0.172758
v -0.139126 0.145943 -0.172785
v -0.117861 0.147743 -0.172703
v -0.111846 0.150476 -0.172682
v -0.100345 0.159935 -0.172647
v -0.096502 0.165309 -0.172638
v -0.091272 0.179251 -0.172632
v -0.090631 0.185826 -0.172636
v -0.093072 0.200516 -0.172661
v -0.095804 0.206531 -0.172678
v -0.105263 0.218032 -0.172728
v -0.110637 0.221874 -0.172753
v -0.124578 0.227105 -0.172813
v -0.131154 0.227746 -0.172840
v -0.145843 0.225305 -0.172895
v -0.151858 0.222572 -0.172916
v -0.163359 0.213114 -0.172951
v -0.167202 0.207739 -0.172960
v -0.172433 0.193798 -0.172966
v -0.173073 0.187222 -0.172962
v -0.170633 0.172533 -0.172936
v -0.167900 0.166518 -0.172919
v -0.158441 0.155017 -0.172870
v -0.153067 0.151174 -0.172845
v -0.132511 0.147602 -0.179100
v -0.138720 0.148207 -0.179125
v -0.118641 0.149907 -0.179048
v -0.112962 0.152487 -0.179029
v -0.102103 0.161418 -0.178995
v -0.098474 0.166492 -0.178987
v -0.093535 0.179656 -0.178981
v -0.092930 0.185865 -0.178985
v -0.095235 0.199735 -0.179009
v -0.097815 0.205415 -0.179025
v -0.106746 0.216274 -0.179072
v -0.111820 0.219902 -0.179096
v -0.124984 0.224841 -0.179152
v -0.131193 0.225446 -0.179177
v -0.145063 0.223141 -0.179230
v -0.150742 0.220561 -0.179249
v -0.161601 0.211630 -0.179282
v -0.165230 0.206556 -0.179291
v -0.170169 0.193392 -0.179297
v -0.170774 0.187183 -0.179293
v -0.168469 0.173313 -0.179269
v -0.165889 0.167634 -0.179253
v -0.156958 0.156774 -0.179206
v -0.151884 0.153146 -0.179182
v -0.132338 0.157843 -0.179110
v -0.136913 0.158289 -0.179129
v -0.122117 0.159541 -0.179072
v -0.117932 0.161443 -0.179058
v -0.109930 0.168024 -0.179033
v -0.107256 0.171763 -0.179027
v -0.103617 0.181463 -0.179023
v -0.103171 0.186039 -0.179026
v -0.104869 0.196259 -0.179043
v -0.106771 0.200444 -0.179055
v -0.113352 0.208446 -0.179090
v -0.117091 0.211120 -0.179107
v -0.126791 0.214760 -0.179149
v -0.131366 0.215205 -0.179167
v -0.141587 0.213507 -0.179206
v -0.145772 0.211606 -0.179220
v -0.153774 0.205025 -0.179244
v -0.156448 0.201285 -0.179251
v -0.160087 0.191585 -0.179255
v -0.160533 0.187010 -0.179252
v -0.158835 0.176789 -0.179234
v -0.156933 0.172604 -0.179223
v -0.150353 0.164602 -0.179188
v -0.146613 0.161928 -0.179171
v -0.131852 0.186524 -0.183479
v -0.132206 0.165628 -0.183458
v -0.135539 0.165953 -0.183471
v -0.124760 0.166865 -0.183430
v -0.121710 0.168250 -0.183419
v -0.115880 0.173045 -0.183402
v -0.113932 0.175770 -0.183397
v -0.111281 0.182837 -0.183394
v -0.110956 0.186170 -0.183396
v -0.112193 0.193617 -0.183409
v -0.113579 0.196666 -0.183418
v -0.118373 0.202496 -0.183443
v -0.121098 0.204444 -0.183455
v -0.128165 0.207096 -0.183486
v -0.131498 0.207420 -0.183499
v -0.138945 0.206183 -0.183527
v -0.141994 0.204798 -0.183538
v -0.147824 0.200003 -0.183555
v -0.149772 0.197279 -0.183560
v -0.152423 0.190211 -0.183563
v -0.152748 0.186878 -0.183561
v -0.151511 0.179431 -0.183548
v -0.150126 0.176382 -0.183540
v -0.145331 0.170552 -0.183515
v -0.142607 0.168604 -0.183502
vn -0.0039 0.0011 1.0000
vn -0.9989 -0.0468 -0.0039
vn -0.9943 -0.1068 -0.0038
vn -0.9863 -0.1650 -0.0037
vn -0.0970 -0.9953 0.0007
vn 0.9359 -0.3523 0.0040
vn 0.9549 -0.2968 0.0041
vn 0.9550 -0.2967 0.0041
vn 0.9711 -0.2387 0.0041
vn 0.1639 -0.9865 0.0017
vn -0.8417 -0.5400 -0.0027
vn -0.8077 -0.5896 -0.0025
vn -0.7716 -0.6361 -0.0024
vn 0.4136 -0.9104 0.0026
vn 0.9867 0.1628 0.0037
vn 0.9754 0.2205 0.0036
vn 0.9604 0.2788 0.0035
vn 0.6352 -0.7723 0.0033
vn -0.4590 -0.8885 -0.0009
vn -0.4047 -0.9145 -0.0007
vn -0.4048 -0.9144 -0.0007
vn -0.3502 -0.9367 -0.0004
vn 0.8134 -0.5817 0.0038
vn 0.7731 0.6343 0.0024
vn 0.7345 0.6787 0.0022
vn 0.7345 0.6786 0.0022
vn 0.6923 0.7216 0.0020
vn 0.9363 -0.3513 0.0041
vn 0.0468 -0.9989 0.0013
vn 0.1067 -0.9943 0.0015
vn 0.1069 -0.9943 0.0015
vn 0.1651 -0.9863 0.0017
vn 0.9953 -0.0970 0.0040
vn 0.3523 0.9359 0.0004
vn 0.2967 0.9550 0.0002
vn 0.2388 0.9711 -0.0001
vn 0.9865 0.1639 0.0037
vn 0.5400 -0.8417 0.0030
vn 0.5896 -0.8077 0.0032
vn 0.6361 -0.7716 0.0033
vn 0.9104 0.4137 0.0031
vn -0.1628 0.9867 -0.0017
vn -0.2205 0.9754 -0.0019
vn -0.2788 0.9604 -0.0021
vn 0.7724 0.6352 0.0024
vn 0.8885 -0.4589 0.0040
vn 0.9145 -0.4047 0.0040
vn 0.9367 -0.3502 0.0041
vn 0.5816 0.8135 0.0014
vn -0.6343 0.7731 -0.0033
vn -0.6786 0.7345 -0.0034
vn -0.7216 0.6923 -0.0035
vn 0.3513 0.9363 0.0004
vn 0.9989 0.0468 0.0039
vn 0.9943 0.1069 0.0038
vn 0.9943 0.1068 0.0038
vn 0.9863 0.1650 0.0037
vn 0.0969 0.9953 -0.0007
vn -0.9359 0.3524 -0.0041
vn -0.9550 0.2967 -0.0041
vn -0.9550 0.2966 -0.0041
vn -0.9711 0.2387 -0.0041
vn -0.1639 0.9865 -0.0017
vn 0.8417 0.5400 0.0028
vn 0.8077 0.5896 0.0026
vn 0.7716 0.6361 0.0024
vn -0.4136 0.9104 -0.0026
vn -0.9867 -0.1628 -0.0037
vn -0.9754 -0.2206 -0.0036
vn -0.9754 -0.2205 -0.0036
vn -0.9604 -0.2788 -0.0035
vn -0.6352 0.7724 -0.0034
vn 0.4589 0.8885 0.0008
vn 0.4046 0.9145 0.0006
vn 0.4047 0.9145 0.0006
vn 0.3502 0.9367 0.0004
vn -0.8134 0.5816 -0.0038
vn -0.7731 -0.6343 -0.0024
vn -0.7345 -0.6787 -0.0021
vn -0.6923 -0.7216 -0.0019
vn -0.9363 0.3513 -0.0041
vn -0.0468 0.9989 -0.0012
vn -0.1068 0.9943 -0.0015
vn -0.1650 0.9863 -0.0017
vn -0.9953 0.0970 -0.0040
vn -0.3524 -0.9359 -0.0004
vn -0.2966 -0.9550 -0.0002
vn -0.2968 -0.9549 -0.0002
vn -0.2387 -0.9711 0.0001
vn -0.9865 -0.1639 -0.0037
vn -0.5400 0.8417 -0.0030
vn -0.5896 0.8077 -0.0032
vn -0.5897 0.8076 -0.0032
vn -0.6361 0.7716 -0.0033
vn -0.9104 -0.4137 -0.0031
vn 0.1628 -0.9867 0.0017
vn 0.2206 -0.9754 0.0019
vn 0.2204 -0.9754 0.0019
vn 0.2788 -0.9604 0.0021
vn -0.7723 -0.6352 -0.0024
vn -0.8885 0.4589 -0.0040
vn -0.9145 0.4045 -0.0040
vn -0.9145 0.4047 -0.0040
vn -0.9367 0.3502 -0.0041
vn -0.5817 -0.8134 -0.0014
vn 0.6343 -0.7731 0.0033
vn 0.6787 -0.7344 0.0035
vn 0.6786 -0.7345 0.0035
vn 0.7216 -0.6923 0.0036
vn -0.3513 -0.9363 -0.0003
vn 0.0039 -0.0011 -1.0000
vn 0.0039 -0.0010 -1.0000
vn 0.0040 -0.0011 -1.0000
vn 0.0040 -0.0010 -1.0000
vn -0.0969 -0.9953 -0.0000
vn 0.1639 -0.9865 -0.0000
vn 0.4136 -0.9104 -0.0000
vn 0.6352 -0.7723 -0.0000
vn 0.8134 -0.5817 -0.0000
vn 0.9363 -0.3513 -0.0000
vn 0.9953 -0.0970 -0.0000
vn 0.9865 0.1639 -0.0000
vn 0.9105 0.4136 -0.0000
vn 0.7724 0.6352 -0.0000
vn 0.5816 0.8135 -0.0000
vn 0.3514 0.9362 -0.0000
vn 0.0970 0.9953 -0.0000
vn -0.1639 0.9865 -0.0000
vn -0.4136 0.9104 -0.0000
vn -0.6352 0.7724 -0.0000
vn -0.8135 0.5816 -0.0000
vn -0.9363 0.3513 -0.0000
vn -0.9953 0.0970 -0.0000
vn -0.9865 -0.1639 -0.0000
vn -0.9104 -0.4137 -0.0000
vn -0.7724 -0.6352 -0.0000
vn -0.5816 -0.8135 -0.0000
vn -0.3514 -0.9362 -0.0000
vn 0.0798 -0.9373 -0.3393
vn -0.2562 -0.9050 -0.3395
vn -0.2586 -0.9044 -0.3394
vn 0.0814 -0.9372 -0.3393
vn 0.2304 -0.9120 -0.3393
vn 0.2281 -0.9126 -0.3392
vn 0.5374 -0.7721 -0.3391
vn 0.5388 -0.7712 -0.3391
vn 0.6552 -0.6751 -0.3391
vn 0.6536 -0.6767 -0.3390
vn 0.8512 -0.4007 -0.3391
vn 0.8520 -0.3990 -0.3390
vn 0.9048 -0.2578 -0.3390
vn 0.9042 -0.2597 -0.3390
vn 0.9375 0.0777 -0.3391
vn 0.9374 0.0799 -0.3390
vn 0.9126 0.2283 -0.3391
vn 0.9131 0.2266 -0.3390
vn 0.7734 0.5355 -0.3392
vn 0.7721 0.5375 -0.3391
vn 0.6766 0.6536 -0.3393
vn 0.6777 0.6524 -0.3392
vn 0.4023 0.8502 -0.3394
vn 0.4001 0.8513 -0.3393
vn 0.2593 0.9042 -0.3395
vn 0.2608 0.9037 -0.3394
vn -0.0768 0.9374 -0.3396
vn -0.0792 0.9372 -0.3396
vn -0.2277 0.9126 -0.3397
vn -0.2261 0.9130 -0.3396
vn -0.5355 0.7731 -0.3398
vn -0.5375 0.7718 -0.3398
vn -0.6538 0.6760 -0.3399
vn -0.6526 0.6773 -0.3398
vn -0.8506 0.4011 -0.3399
vn -0.8516 0.3991 -0.3399
vn -0.9044 0.2577 -0.3399
vn -0.9039 0.2597 -0.3399
vn -0.9372 -0.0788 -0.3399
vn -0.9370 -0.0807 -0.3398
vn -0.9120 -0.2298 -0.3399
vn -0.9125 -0.2276 -0.3398
vn -0.7719 -0.5374 -0.3398
vn -0.7709 -0.5388 -0.3397
vn -0.6745 -0.6555 -0.3397
vn -0.6762 -0.6538 -0.3396
vn -0.3994 -0.8516 -0.3396
vn -0.3980 -0.8522 -0.3395
vn 0.0431 -0.4877 -0.8720
vn -0.1294 -0.4712 -0.8725
vn -0.1324 -0.4706 -0.8724
vn 0.0459 -0.4877 -0.8718
vn 0.1234 -0.4742 -0.8717
vn 0.1205 -0.4752 -0.8716
vn 0.2809 -0.4023 -0.8713
vn 0.2834 -0.4009 -0.8712
vn 0.3437 -0.3506 -0.8712
vn 0.3417 -0.3528 -0.8711
vn 0.4443 -0.2098 -0.8710
vn 0.4457 -0.2072 -0.8709
vn 0.4728 -0.1336 -0.8710
vn 0.4722 -0.1365 -0.8708
vn 0.4897 0.0386 -0.8711
vn 0.4896 0.0416 -0.8709
vn 0.4764 0.1189 -0.8712
vn 0.4773 0.1161 -0.8710
vn 0.4050 0.2765 -0.8715
vn 0.4034 0.2792 -0.8714
vn 0.3533 0.3395 -0.8717
vn 0.3555 0.3376 -0.8716
vn 0.2126 0.4405 -0.8722
vn 0.2099 0.4420 -0.8721
vn 0.1364 0.4693 -0.8725
vn 0.1392 0.4687 -0.8723
vn -0.0361 0.4864 -0.8730
vn -0.0393 0.4864 -0.8729
vn -0.1166 0.4732 -0.8732
vn -0.1139 0.4741 -0.8731
vn -0.2747 0.4016 -0.8736
vn -0.2774 0.4001 -0.8735
vn -0.3379 0.3498 -0.8738
vn -0.3359 0.3520 -0.8736
vn -0.4389 0.2087 -0.8740
vn -0.4404 0.2061 -0.8738
vn -0.4676 0.1322 -0.8740
vn -0.4670 0.1351 -0.8739
vn -0.4844 -0.0406 -0.8739
vn -0.4844 -0.0436 -0.8738
vn -0.4710 -0.1212 -0.8738
vn -0.4719 -0.1183 -0.8737
vn -0.3990 -0.2791 -0.8735
vn -0.3975 -0.2816 -0.8733
vn -0.3470 -0.3421 -0.8733
vn -0.3493 -0.3400 -0.8731
vn -0.2058 -0.4427 -0.8727
vn -0.2033 -0.4441 -0.8726
vt 0.235068 0.564245
vt 0.239249 0.535399
vt 0.260751 0.535399
vt 0.264932 0.564245
vt 0.247014 0.506553
vt 0.252986 0.506553
vt 0.329946 0.581666
vt 0.347990 0.558774
vt 0.366611 0.569525
vt 0.355809 0.596597
vt 0.369137 0.537675
vt 0.374310 0.540662
vt 0.403403 0.644191
vt 0.430475 0.633389
vt 0.441225 0.652010
vt 0.418334 0.670054
vt 0.459338 0.625690
vt 0.462325 0.630863
vt 0.435755 0.735068
vt 0.464601 0.739249
vt 0.464601 0.760751
vt 0.435755 0.764932
vt 0.493447 0.747014
vt 0.493447 0.752986
vt 0.418334 0.829946
vt 0.441225 0.847990
vt 0.430475 0.866611
vt 0.403403 0.855809
vt 0.462325 0.869137
vt 0.459338 0.874310
vt 0.355809 0.903403
vt 0.366611 0.930475
vt 0.347990 0.941226
vt 0.329946 0.918334
vt 0.374310 0.959338
vt 0.369137 0.962325
vt 0.264932 0.935755
vt 0.260751 0.964601
vt 0.239249 0.964601
vt 0.235068 0.935755
vt 0.252986 0.993447
vt 0.247014 0.993447
vt 0.170054 0.918334
vt 0.152010 0.941226
vt 0.133389 0.930475
vt 0.144191 0.903403
vt 0.130863 0.962325
vt 0.125690 0.959338
vt 0.096597 0.855809
vt 0.069525 0.866611
vt 0.058775 0.847990
vt 0.081666 0.829946
vt 0.040662 0.874310
vt 0.037675 0.869137
vt 0.064245 0.764932
vt 0.035399 0.760751
vt 0.035399 0.739249
vt 0.064245 0.735068
vt 0.006553 0.752986
vt 0.006553 0.747014
vt 0.081666 0.670054
vt 0.058775 0.652010
vt 0.069525 0.633389
vt 0.096597 0.644191
vt 0.037675 0.630863
vt 0.040662 0.625690
vt 0.144191 0.596597
vt 0.133389 0.569525
vt 0.152010 0.558774
vt 0.170054 0.581666
vt 0.125690 0.540662
vt 0.130863 0.537675
vt 0.500000 1.000000
vt 0.500000 0.500000
vt 0.506348 0.500000
vt 0.506348 1.000000
vt 0.512854 0.500000
vt 0.512854 1.000000
vt 0.514154 0.500000
vt 0.514154 1.000000
vt 0.520660 0.500000
vt 0.520660 1.000000
vt 0.527008 0.500000
vt 0.527008 1.000000
vt 0.541667 0.500000
vt 0.541667 1.000000
vt 0.548015 0.500000
vt 0.548015 1.000000
vt 0.554520 0.500000
vt 0.554520 1.000000
vt 0.555821 0.500000
vt 0.555821 1.000000
vt 0.562327 0.500000
vt 0.562327 1.000000
vt 0.568675 0.500000
vt 0.568675 1.000000
vt 0.583333 0.500000
vt 0.583333 1.000000
vt 0.589681 0.500000
vt 0.589681 1.000000
vt 0.596187 0.500000
vt 0.596187 1.000000
vt 0.597488 0.500000
vt 0.597488 1.000000
vt 0.603994 0.500000
vt 0.603994 1.000000
vt 0.610341 0.500000
vt 0.610341 1.000000
vt 0.625000 0.500000
vt 0.625000 1.000000
vt 0.631348 0.500000
vt 0.631348 1.000000
vt 0.637854 0.500000
vt 0.637854 1.000000
vt 0.639154 0.500000
vt 0.639154 1.000000
vt 0.645660 0.500000
vt 0.645660 1.000000
vt 0.652008 0.500000
vt 0.652008 1.000000
vt 0.666667 0.500000
vt 0.666667 1.000000
vt 0.673015 0.500000
vt 0.673015 1.000000
vt 0.679520 0.500000
vt 0.679520 1.000000
vt 0.680821 0.500000
vt 0.680821 1.000000
vt 0.687327 0.500000
vt 0.687327 1.000000
vt 0.693675 0.500000
vt 0.693675 1.000000
vt 0.708333 0.500000
vt 0.708333 1.000000
vt 0.714681 0.500000
vt 0.714681 1.000000
vt 0.721187 0.500000
vt 0.721187 1.000000
vt 0.722488 0.500000
vt 0.722488 1.000000
vt 0.728994 0.500000
vt 0.728994 1.000000
vt 0.735341 0.500000
vt 0.735341 1.000000
vt 0.750000 0.500000
vt 0.750000 1.000000
vt 0.756348 0.500000
vt 0.756348 1.000000
vt 0.762854 0.500000
vt 0.762854 1.000000
vt 0.764154 0.500000
vt 0.764154 1.000000
vt 0.770660 0.500000
vt 0.770660 1.000000
vt 0.777008 0.500000
vt 0.777008 1.000000
vt 0.791667 0.500000
vt 0.791667 1.000000
vt 0.798015 0.500000
vt 0.798015 1.000000
vt 0.804520 0.500000
vt 0.804520 1.000000
vt 0.805821 0.500000
vt 0.805821 1.000000
vt 0.812327 0.500000
vt 0.812327 1.000000
vt 0.818675 0.500000
vt 0.818675 1.000000
vt 0.833333 0.500000
vt 0.833333 1.000000
vt 0.839681 0.500000
vt 0.839681 1.000000
vt 0.846187 0.500000
vt 0.846187 1.000000
vt 0.847488 0.500000
vt 0.847488 1.000000
vt 0.853994 0.500000
vt 0.853994 1.000000
vt 0.860341 0.500000
vt 0.860341 1.000000
vt 0.875000 0.500000
vt 0.875000 1.000000
vt 0.881348 0.500000
vt 0.881348 1.000000
vt 0.887854 0.500000
vt 0.887854 1.000000
vt 0.889154 0.500000
vt 0.889154 1.000000
vt 0.895660 0.500000
vt 0.895660 1.000000
vt 0.902008 0.500000
vt 0.902008 1.000000
vt 0.916667 0.500000
vt 0.916667 1.000000
vt 0.923014 0.500000
vt 0.923014 1.000000
vt 0.929520 0.500000
vt 0.929520 1.000000
vt 0.930821 0.500000
vt 0.930821 1.000000
vt 0.937327 0.500000
vt 0.937327 1.000000
vt 0.943675 0.500000
vt 0.943675 1.000000
vt 0.958333 0.500000
vt 0.958333 1.000000
vt 0.964681 0.500000
vt 0.964681 1.000000
vt 0.971187 0.500000
vt 0.971187 1.000000
vt 0.972488 0.500000
vt 0.972488 1.000000
vt 0.978993 0.500000
vt 0.978993 1.000000
vt 0.985341 0.500000
vt 0.985341 1.000000
vt 1.000000 0.500000
vt 1.000000 1.000000
vt 0.264932 0.435755
vt 0.260751 0.464601
vt 0.239249 0.464601
vt 0.235068 0.435755
vt 0.252986 0.493447
vt 0.247014 0.493447
vt 0.355809 0.403403
vt 0.366611 0.430475
vt 0.347990 0.441225
vt 0.329946 0.418334
vt 0.374310 0.459338
vt 0.369137 0.462325
vt 0.418334 0.329946
vt 0.441225 0.347990
vt 0.430475 0.366611
vt 0.403403 0.355809
vt 0.462325 0.369137
vt 0.459338 0.374310
vt 0.435755 0.235068
vt 0.464601 0.239249
vt 0.464601 0.260751
vt 0.435755 0.264932
vt 0.493447 0.247014
vt 0.493447 0.252986
vt 0.403403 0.144191
vt 0.430475 0.133389
vt 0.441225 0.152010
vt 0.418334 0.170054
vt 0.459338 0.125690
vt 0.462325 0.130863
vt 0.329946 0.081666
vt 0.347990 0.058775
vt 0.366611 0.069525
vt 0.355809 0.096597
vt 0.369137 0.037675
vt 0.374310 0.040662
vt 0.235068 0.064245
vt 0.239249 0.035399
vt 0.260751 0.035399
vt 0.264932 0.064245
vt 0.247014 0.006553
vt 0.252986 0.006553
vt 0.144191 0.096597
vt 0.133389 0.069525
vt 0.152010 0.058775
vt 0.170054 0.081666
vt 0.125690 0.040662
vt 0.130863 0.037675
vt 0.081666 0.170054
vt 0.058775 0.152010
vt 0.069525 0.133389
vt 0.096597 0.144191
vt 0.037675 0.130863
vt 0.040662 0.125690
vt 0.064245 0.264932
vt 0.035399 0.260751
vt 0.035399 0.239249
vt 0.064245 0.235068
vt 0.006553 0.252986
vt 0.006553 0.247014
vt 0.096597 0.355809
vt 0.069525 0.366611
vt 0.058775 0.347990
vt 0.081666 0.329946
vt 0.040662 0.374310
vt 0.037675 0.369137
vt 0.170054 0.418334
vt 0.152010 0.441226
vt 0.133389 0.430475
vt 0.144191 0.403403
vt 0.130863 0.462325
vt 0.125690 0.459338
vt 0.244980 0.711868
vt 0.255020 0.711868
vt 0.264719 0.714466
vt 0.250000 0.250000
vt 0.273414 0.719486
vt 0.280514 0.726586
vt 0.285534 0.735281
vt 0.288132 0.744980
vt 0.288132 0.755020
vt 0.285534 0.764719
vt 0.280514 0.773414
vt 0.273414 0.780514
vt 0.264719 0.785534
vt 0.255020 0.788132
vt 0.244980 0.788132
vt 0.235281 0.785534
vt 0.226586 0.780514
vt 0.219486 0.773414
vt 0.214466 0.764719
vt 0.211868 0.755020
vt 0.211868 0.744980
vt 0.214466 0.735281
vt 0.219486 0.726586
vt 0.226586 0.719486
vt 0.235281 0.714466
vt 0.000000 0.000000
vt 1.000000 0.000000
vt 0.000000 1.000000
s 1
usemtl blinn10.001
f 1/1/1 2/2/1 5/3/1 6/4/1
f 2/2/1 3/5/1 4/6/1 5/3/1
f 7/7/1 8/8/1 11/9/1 12/10/1
f 8/8/1 9/11/1 10/12/1 11/9/1
f 13/13/1 14/14/1 17/15/1 18/16/1
f 14/14/1 15/17/1 16/18/1 17/15/1
f 19/19/1 20/20/1 23/21/1 24/22/1
f 20/20/1 21/23/1 22/24/1 23/21/1
f 25/25/1 26/26/1 29/27/1 30/28/1
f 26/26/1 27/29/1 28/30/1 29/27/1
f 31/31/1 32/32/1 35/33/1 36/34/1
f 32/32/1 33/35/1 34/36/1 35/33/1
f 37/37/1 38/38/1 41/39/1 42/40/1
f 38/38/1 39/41/1 40/42/1 41/39/1
f 43/43/1 44/44/1 47/45/1 48/46/1
f 44/44/1 45/47/1 46/48/1 47/45/1
f 49/49/1 50/50/1 53/51/1 54/52/1
f 50/50/1 51/53/1 52/54/1 53/51/1
f 55/55/1 56/56/1 59/57/1 60/58/1
f 56/56/1 57/59/1 58/60/1 59/57/1
f 61/61/1 62/62/1 65/63/1 66/64/1
f 62/62/1 63/65/1 64/66/1 65/63/1
f 67/67/1 68/68/1 71/69/1 72/70/1
f 68/68/1 69/71/1 70/72/1 71/69/1
f 78/219/111 77/220/111 74/221/111 73/222/111
f 77/220/111 76/223/111 75/224/111 74/221/111
f 84/225/111 83/226/111 80/227/111 79/228/111
f 83/226/111 82/229/111 81/230/111 80/227/111
f 90/231/111 89/232/111 86/233/111 85/234/111
f 89/232/111 88/235/112 87/236/112 86/233/111
f 96/237/111 95/238/111 92/239/111 91/240/111
f 95/238/111 94/241/112 93/242/112 92/239/111
f 102/243/111 101/244/111 98/245/111 97/246/111
f 101/244/111 100/247/111 99/248/111 98/245/111
f 108/249/111 107/250/111 104/251/111 103/252/111
f 107/250/111 106/253/111 105/254/111 104/251/111
f 114/255/111 113/256/111 110/257/111 109/258/111
f 113/256/111 112/259/112 111/260/112 110/257/111
f 120/261/111 119/262/111 116/263/111 115/264/111
f 119/262/111 118/265/111 117/266/111 116/263/111
f 126/267/111 125/268/111 122/269/111 121/270/111
f 125/268/111 124/271/111 123/272/111 122/269/111
f 132/273/111 131/274/111 128/275/111 127/276/111
f 131/274/111 130/277/111 129/278/111 128/275/111
f 138/279/111 137/280/111 134/281/111 133/282/111
f 137/280/111 136/283/111 135/284/111 134/281/111
f 144/285/111 143/286/111 140/287/111 139/288/111
f 143/286/111 142/289/111 141/290/111 140/287/111
f 145/291/1 1/1/1 6/4/1 146/292/1
f 146/292/1 6/4/1 7/7/1 147/293/1
f 147/293/1 7/7/1 12/10/1 148/295/1
f 148/295/1 12/10/1 13/13/1 149/296/1
f 149/296/1 13/13/1 18/16/1 150/297/1
f 150/297/1 18/16/1 19/19/1 151/298/1
f 151/298/1 19/19/1 24/22/1 152/299/1
f 152/299/1 24/22/1 25/25/1 153/300/1
f 153/300/1 25/25/1 30/28/1 154/301/1
f 154/301/1 30/28/1 31/31/1 155/302/1
f 155/302/1 31/31/1 36/34/1 156/303/1
f 156/303/1 36/34/1 37/37/1 157/304/1
f 157/304/1 37/37/1 42/40/1 158/305/1
f 158/305/1 42/40/1 43/43/1 159/306/1
f 159/306/1 43/43/1 48/46/1 160/307/1
f 160/307/1 48/46/1 49/49/1 161/308/1
f 161/308/1 49/49/1 54/52/1 162/309/1
f 162/309/1 54/52/1 55/55/1 163/310/1
f 163/310/1 55/55/1 60/58/1 164/311/1
f 164/311/1 60/58/1 61/61/1 165/312/1
f 165/312/1 61/61/1 66/64/1 166/313/1
f 166/313/1 66/64/1 67/67/1 167/314/1
f 167/314/1 67/67/1 72/70/1 168/315/1
f 168/315/1 72/70/1 1/1/1 145/291/1
f 145/316/115 146/317/115 170/218/115 169/318/115
f 146/316/116 147/317/116 171/218/116 170/318/116
f 147/316/117 148/317/117 172/218/117 171/318/117
f 148/316/118 149/317/118 173/218/118 172/318/118
f 149/316/119 150/317/119 174/218/119 173/318/119
f 150/316/120 151/317/120 175/218/120 174/318/120
f 151/316/121 152/317/121 176/218/121 175/318/121
f 152/316/122 153/317/122 177/218/122 176/318/122
f 153/316/123 154/317/123 178/218/123 177/318/123
f 154/316/124 155/317/124 179/218/124 178/318/124
f 155/316/125 156/317/125 180/218/125 179/318/125
f 156/316/126 157/317/126 181/218/126 180/318/126
f 157/316/127 158/317/127 182/218/127 181/318/127
f 158/316/128 159/317/128 183/218/128 182/318/128
f 159/316/129 160/317/129 184/218/129 183/318/129
f 160/316/130 161/317/130 185/218/130 184/318/130
f 161/316/131 162/317/131 186/218/131 185/318/131
f 162/316/132 163/317/132 187/218/132 186/318/132
f 163/316/133 164/317/133 188/218/133 187/318/133
f 164/316/134 165/317/134 189/218/134 188/318/134
f 165/316/135 166/317/135 190/218/135 189/318/135
f 166/316/136 167/317/136 191/218/136 190/318/136
f 167/316/137 168/317/137 192/218/137 191/318/137
f 168/316/138 145/317/138 169/218/138 192/318/138
f 78/219/111 73/222/111 194/222/111 193/219/111
f 79/228/111 78/219/111 193/219/111 195/228/111
f 84/225/111 79/228/111 195/228/111 196/225/111
f 85/234/111 84/225/111 196/225/111 197/234/111
f 90/231/111 85/234/111 197/234/111 198/231/111
f 91/240/111 90/231/111 198/231/111 199/240/111
f 96/237/111 91/240/111 199/240/111 200/237/111
f 97/246/111 96/237/111 200/237/111 201/246/111
f 102/243/111 97/246/111 201/246/111 202/243/111
f 103/252/111 102/243/111 202/243/111 203/252/111
f 108/249/111 103/252/111 203/252/111 204/249/111
f 109/258/111 108/249/111 204/249/111 205/258/111
f 114/255/111 109/258/111 205/258/111 206/255/111
f 115/264/111 114/255/111 206/255/111 207/264/111
f 120/261/111 115/264/111 207/264/111 208/261/111
f 121/270/111 120/261/111 208/261/111 209/270/111
f 126/267/111 121/270/111 209/270/111 210/267/111
f 127/276/111 126/267/111 210/267/111 211/276/111
f 132/273/111 127/276/111 211/276/111 212/273/111
f 133/282/111 132/273/111 212/273/111 213/282/111
f 138/279/111 133/282/111 213/282/111 214/279/111
f 139/288/111 138/279/111 214/279/111 215/288/111
f 144/285/111 139/288/111 215/288/111 216/285/111
f 73/222/111 144/285/111 216/285/111 194/222/111
usemtl LaminaMetal.001
f 1/73/2 73/74/2 74/75/3 2/76/3
f 2/76/3 74/75/3 75/77/4 3/78/4
f 3/78/5 75/77/5 76/79/5 4/80/5
f 4/80/6 76/79/6 77/81/7 5/82/8
f 5/82/8 77/81/7 78/83/9 6/84/9
f 6/84/10 78/83/10 79/85/10 7/86/10
f 7/86/11 79/85/11 80/87/12 8/88/12
f 8/88/12 80/87/12 81/89/13 9/90/13
f 9/90/14 81/89/14 82/91/14 10/92/14
f 10/92/15 82/91/15 83/93/16 11/94/16
f 11/94/16 83/93/16 84/95/17 12/96/17
f 12/96/18 84/95/18 85/97/18 13/98/18
f 13/98/19 85/97/19 86/99/20 14/100/21
f 14/100/21 86/99/20 87/101/22 15/102/22
f 15/102/23 87/101/23 88/103/23 16/104/23
f 16/104/24 88/103/24 89/105/25 17/106/26
f 17/106/26 89/105/25 90/107/27 18/108/27
f 18/108/28 90/107/28 91/109/28 19/110/28
f 19/110/29 91/109/29 92/111/30 20/112/31
f 20/112/31 92/111/30 93/113/32 21/114/32
f 21/114/33 93/113/33 94/115/33 22/116/33
f 22/116/34 94/115/34 95/117/35 23/118/35
f 23/118/35 95/117/35 96/119/36 24/120/36
f 24/120/37 96/119/37 97/121/37 25/122/37
f 25/122/38 97/121/38 98/123/39 26/124/39
f 26/124/39 98/123/39 99/125/40 27/126/40
f 27/126/41 99/125/41 100/127/41 28/128/41
f 28/128/42 100/127/42 101/129/43 29/130/43
f 29/130/43 101/129/43 102/131/44 30/132/44
f 30/132/45 102/131/45 103/133/45 31/134/45
f 31/134/46 103/133/46 104/135/47 32/136/47
f 32/136/47 104/135/47 105/137/48 33/138/48
f 33/138/49 105/137/49 106/139/49 34/140/49
f 34/140/50 106/139/50 107/141/51 35/142/51
f 35/142/51 107/141/51 108/143/52 36/144/52
f 36/144/53 108/143/53 109/145/53 37/146/53
f 37/146/54 109/145/54 110/147/55 38/148/56
f 38/148/56 110/147/55 111/149/57 39/150/57
f 39/150/58 111/149/58 112/151/58 40/152/58
f 40/152/59 112/151/59 113/153/60 41/154/61
f 41/154/61 113/153/60 114/155/62 42/156/62
f 42/156/63 114/155/63 115/157/63 43/158/63
f 43/158/64 115/157/64 116/159/65 44/160/65
f 44/160/65 116/159/65 117/161/66 45/162/66
f 45/162/67 117/161/67 118/163/67 46/164/67
f 46/164/68 118/163/68 119/165/69 47/166/70
f 47/166/70 119/165/69 120/167/71 48/168/71
f 48/168/72 120/167/72 121/169/72 49/170/72
f 49/170/73 121/169/73 122/171/74 50/172/75
f 50/172/75 122/171/74 123/173/76 51/174/76
f 51/174/77 123/173/77 124/175/77 52/176/77
f 52/176/78 124/175/78 125/177/79 53/178/79
f 53/178/79 125/177/79 126/179/80 54/180/80
f 54/180/81 126/179/81 127/181/81 55/182/81
f 55/182/82 127/181/82 128/183/83 56/184/83
f 56/184/83 128/183/83 129/185/84 57/186/84
f 57/186/85 129/185/85 130/187/85 58/188/85
f 58/188/86 130/187/86 131/189/87 59/190/88
f 59/190/88 131/189/87 132/191/89 60/192/89
f 60/192/90 132/191/90 133/193/90 61/194/90
f 61/194/91 133/193/91 134/195/92 62/196/93
f 62/196/93 134/195/92 135/197/94 63/198/94
f 63/198/95 135/197/95 136/199/95 64/200/95
f 64/200/96 136/199/96 137/201/97 65/202/98
f 65/202/98 137/201/97 138/203/99 66/204/99
f 66/204/100 138/203/100 139/205/100 67/206/100
f 67/206/101 139/205/101 140/207/102 68/208/103
f 68/208/103 140/207/102 141/209/104 69/210/104
f 69/210/105 141/209/105 142/211/105 70/212/105
f 70/212/106 142/211/106 143/213/107 71/214/108
f 71/214/108 143/213/107 144/215/109 72/216/109
f 72/216/110 144/215/110 73/217/110 1/218/110
usemtl RojoOscuro.001
f 265/294/111 266/219/111 267/222/113
f 265/294/111 268/228/111 266/219/111
f 265/294/111 269/225/111 268/228/111
f 265/294/111 270/234/111 269/225/111
f 265/294/111 271/231/111 270/234/111
f 265/294/111 272/240/111 271/231/111
f 265/294/111 273/237/111 272/240/111
f 265/294/111 274/246/111 273/237/111
f 265/294/111 275/243/111 274/246/111
f 265/294/111 276/252/111 275/243/111
f 265/294/111 277/249/111 276/252/111
f 265/294/111 278/258/111 277/249/111
f 265/294/111 279/255/111 278/258/111
f 265/294/111 280/264/114 279/255/111
f 265/294/111 281/261/113 280/264/114
f 265/294/111 282/270/111 281/261/113
f 265/294/111 283/267/112 282/270/111
f 265/294/111 284/276/111 283/267/112
f 265/294/111 285/273/111 284/276/111
f 265/294/111 286/282/112 285/273/111
f 265/294/111 287/279/112 286/282/112
f 265/294/111 288/288/111 287/279/112
f 265/294/111 289/285/112 288/288/111
f 265/294/111 267/222/113 289/285/112
f 241/219/187 242/222/188 267/222/189 266/219/190
f 243/228/191 241/219/187 266/219/190 268/228/192
f 244/225/193 243/228/191 268/228/192 269/225/194
f 245/234/195 244/225/193 269/225/194 270/234/196
f 246/231/197 245/234/195 270/234/196 271/231/198
f 247/240/199 246/231/197 271/231/198 272/240/200
f 248/237/201 247/240/199 272/240/200 273/237/202
f 249/246/203 248/237/201 273/237/202 274/246/204
f 250/243/205 249/246/203 274/246/204 275/243/206
f 251/252/207 250/243/205 275/243/206 276/252/208
f 252/249/209 251/252/207 276/252/208 277/249/210
f 253/258/211 252/249/209 277/249/210 278/258/212
f 254/255/213 253/258/211 278/258/212 279/255/214
f 255/264/215 254/255/213 279/255/214 280/264/216
f 256/261/217 255/264/215 280/264/216 281/261/218
f 257/270/219 256/261/217 281/261/218 282/270/220
f 258/267/221 257/270/219 282/270/220 283/267/222
f 259/276/223 258/267/221 283/267/222 284/276/224
f 260/273/225 259/276/223 284/276/224 285/273/226
f 261/282/227 260/273/225 285/273/226 286/282/228
f 262/279/229 261/282/227 286/282/228 287/279/230
f 263/288/231 262/279/229 287/279/230 288/288/232
f 264/285/233 263/288/231 288/288/232 289/285/234
f 242/222/188 264/285/233 289/285/234 267/222/189
usemtl Marron.001
f 193/219/139 194/222/140 218/222/141 217/219/142
f 195/228/143 193/219/139 217/219/142 219/228/144
f 196/225/145 195/228/143 219/228/144 220/225/146
f 197/234/147 196/225/145 220/225/146 221/234/148
f 198/231/149 197/234/147 221/234/148 222/231/150
f 199/240/151 198/231/149 222/231/150 223/240/152
f 200/237/153 199/240/151 223/240/152 224/237/154
f 201/246/155 200/237/153 224/237/154 225/246/156
f 202/243/157 201/246/155 225/246/156 226/243/158
f 203/252/159 202/243/157 226/243/158 227/252/160
f 204/249/161 203/252/159 227/252/160 228/249/162
f 205/258/163 204/249/161 228/249/162 229/258/164
f 206/255/165 205/258/163 229/258/164 230/255/166
f 207/264/167 206/255/165 230/255/166 231/264/168
f 208/261/169 207/264/167 231/264/168 232/261/170
f 209/270/171 208/261/169 232/261/170 233/270/172
f 210/267/173 209/270/171 233/270/172 234/267/174
f 211/276/175 210/267/173 234/267/174 235/276/176
f 212/273/177 211/276/175 235/276/176 236/273/178
f 213/282/179 212/273/177 236/273/178 237/282/180
f 214/279/181 213/282/179 237/282/180 238/279/182
f 215/288/183 214/279/181 238/279/182 239/288/184
f 216/285/185 215/288/183 239/288/184 240/285/186
f 194/222/140 216/285/185 240/285/186 218/222/141
f 217/219/111 218/222/111 242/222/111 241/219/111
f 219/228/111 217/219/111 241/219/111 243/228/111
f 220/225/111 219/228/111 243/228/111 244/225/111
f 221/234/111 220/225/111 244/225/111 245/234/111
f 222/231/111 221/234/111 245/234/111 246/231/111
f 223/240/111 222/231/111 246/231/111 247/240/111
f 224/237/111 223/240/111 247/240/111 248/237/111
f 225/246/111 224/237/111 248/237/111 249/246/111
f 226/243/111 225/246/111 249/246/111 250/243/111
f 227/252/111 226/243/111 250/243/111 251/252/111
f 228/249/111 227/252/111 251/252/111 252/249/111
f 229/258/111 228/249/111 252/249/111 253/258/111
f 230/255/111 229/258/111 253/258/111 254/255/111
f 231/264/111 230/255/111 254/255/111 255/264/111
f 232/261/111 231/264/111 255/264/111 256/261/111
f 233/270/111 232/261/111 256/261/111 257/270/111
f 234/267/111 233/270/111 257/270/111 258/267/111
f 235/276/111 234/267/111 258/267/111 259/276/111
f 236/273/111 235/276/111 259/276/111 260/273/111
f 237/282/112 236/273/111 260/273/111 261/282/112
f 238/279/112 237/282/112 261/282/112 262/279/112
f 239/288/111 238/279/112 262/279/112 263/288/111
f 240/285/111 239/288/111 263/288/111 264/285/111
f 218/222/111 240/285/111 264/285/111 242/222/111
